%TF.GenerationSoftware,KiCad,Pcbnew,9.0.1*%
%TF.CreationDate,2025-09-04T21:15:37-04:00*%
%TF.ProjectId,resc,72657363-2e6b-4696-9361-645f70636258,rev?*%
%TF.SameCoordinates,Original*%
%TF.FileFunction,Soldermask,Bot*%
%TF.FilePolarity,Negative*%
%FSLAX46Y46*%
G04 Gerber Fmt 4.6, Leading zero omitted, Abs format (unit mm)*
G04 Created by KiCad (PCBNEW 9.0.1) date 2025-09-04 21:15:37*
%MOMM*%
%LPD*%
G01*
G04 APERTURE LIST*
G04 Aperture macros list*
%AMRoundRect*
0 Rectangle with rounded corners*
0 $1 Rounding radius*
0 $2 $3 $4 $5 $6 $7 $8 $9 X,Y pos of 4 corners*
0 Add a 4 corners polygon primitive as box body*
4,1,4,$2,$3,$4,$5,$6,$7,$8,$9,$2,$3,0*
0 Add four circle primitives for the rounded corners*
1,1,$1+$1,$2,$3*
1,1,$1+$1,$4,$5*
1,1,$1+$1,$6,$7*
1,1,$1+$1,$8,$9*
0 Add four rect primitives between the rounded corners*
20,1,$1+$1,$2,$3,$4,$5,0*
20,1,$1+$1,$4,$5,$6,$7,0*
20,1,$1+$1,$6,$7,$8,$9,0*
20,1,$1+$1,$8,$9,$2,$3,0*%
%AMHorizOval*
0 Thick line with rounded ends*
0 $1 width*
0 $2 $3 position (X,Y) of the first rounded end (center of the circle)*
0 $4 $5 position (X,Y) of the second rounded end (center of the circle)*
0 Add line between two ends*
20,1,$1,$2,$3,$4,$5,0*
0 Add two circle primitives to create the rounded ends*
1,1,$1,$2,$3*
1,1,$1,$4,$5*%
%AMFreePoly0*
4,1,6,1.000000,0.000000,0.500000,-0.750000,-0.500000,-0.750000,-0.500000,0.750000,0.500000,0.750000,1.000000,0.000000,1.000000,0.000000,$1*%
G04 Aperture macros list end*
%ADD10C,3.200000*%
%ADD11RoundRect,0.250000X0.625000X-0.350000X0.625000X0.350000X-0.625000X0.350000X-0.625000X-0.350000X0*%
%ADD12O,1.750000X1.200000*%
%ADD13RoundRect,0.250000X0.350000X0.625000X-0.350000X0.625000X-0.350000X-0.625000X0.350000X-0.625000X0*%
%ADD14O,1.200000X1.750000*%
%ADD15C,0.650000*%
%ADD16HorizOval,1.000000X-0.388909X0.388909X0.388909X-0.388909X0*%
%ADD17HorizOval,1.000000X-0.282843X0.282843X0.282843X-0.282843X0*%
%ADD18RoundRect,0.140000X0.140000X0.170000X-0.140000X0.170000X-0.140000X-0.170000X0.140000X-0.170000X0*%
%ADD19R,5.500000X4.000000*%
%ADD20RoundRect,0.135000X0.185000X-0.135000X0.185000X0.135000X-0.185000X0.135000X-0.185000X-0.135000X0*%
%ADD21RoundRect,0.075500X0.599627X-0.279307X-0.279307X0.599627X-0.599627X0.279307X0.279307X-0.599627X0*%
%ADD22RoundRect,0.250000X0.250000X-0.250000X0.250000X0.250000X-0.250000X0.250000X-0.250000X-0.250000X0*%
%ADD23RoundRect,0.128204X1.871796X-3.771796X1.871796X3.771796X-1.871796X3.771796X-1.871796X-3.771796X0*%
%ADD24RoundRect,0.135000X-0.185000X0.135000X-0.185000X-0.135000X0.185000X-0.135000X0.185000X0.135000X0*%
%ADD25RoundRect,0.140000X-0.170000X0.140000X-0.170000X-0.140000X0.170000X-0.140000X0.170000X0.140000X0*%
%ADD26RoundRect,0.140000X0.021213X-0.219203X0.219203X-0.021213X-0.021213X0.219203X-0.219203X0.021213X0*%
%ADD27RoundRect,0.135000X0.035355X-0.226274X0.226274X-0.035355X-0.035355X0.226274X-0.226274X0.035355X0*%
%ADD28RoundRect,0.102000X-2.755000X1.480000X-2.755000X-1.480000X2.755000X-1.480000X2.755000X1.480000X0*%
%ADD29RoundRect,0.075500X-0.599627X0.279307X0.279307X-0.599627X0.599627X-0.279307X-0.279307X0.599627X0*%
%ADD30RoundRect,0.150000X-0.825000X-0.150000X0.825000X-0.150000X0.825000X0.150000X-0.825000X0.150000X0*%
%ADD31RoundRect,0.140000X0.170000X-0.140000X0.170000X0.140000X-0.170000X0.140000X-0.170000X-0.140000X0*%
%ADD32RoundRect,0.102000X0.500000X1.500000X-0.500000X1.500000X-0.500000X-1.500000X0.500000X-1.500000X0*%
%ADD33RoundRect,0.135000X-0.135000X-0.185000X0.135000X-0.185000X0.135000X0.185000X-0.135000X0.185000X0*%
%ADD34RoundRect,0.140000X-0.140000X-0.170000X0.140000X-0.170000X0.140000X0.170000X-0.140000X0.170000X0*%
%ADD35RoundRect,0.250000X-1.100000X0.325000X-1.100000X-0.325000X1.100000X-0.325000X1.100000X0.325000X0*%
%ADD36RoundRect,0.250000X-1.250000X-0.550000X1.250000X-0.550000X1.250000X0.550000X-1.250000X0.550000X0*%
%ADD37RoundRect,0.140000X-0.021213X0.219203X-0.219203X0.021213X0.021213X-0.219203X0.219203X-0.021213X0*%
%ADD38R,0.977900X0.508000*%
%ADD39RoundRect,0.135000X0.135000X0.185000X-0.135000X0.185000X-0.135000X-0.185000X0.135000X-0.185000X0*%
%ADD40R,4.000000X5.500000*%
%ADD41FreePoly0,270.000000*%
%ADD42FreePoly0,90.000000*%
G04 APERTURE END LIST*
%TO.C,SW1*%
G36*
X163450000Y-58850000D02*
G01*
X164950000Y-58850000D01*
X164950000Y-63850000D01*
X163450000Y-63850000D01*
X163450000Y-58850000D01*
G37*
%TD*%
D10*
%TO.C,H2*%
X161900000Y-76450000D03*
%TD*%
%TO.C,H1*%
X125300000Y-65800000D03*
%TD*%
D11*
%TO.C,J3*%
X167700000Y-93700000D03*
D12*
X167700000Y-91700000D03*
X167700000Y-89700000D03*
X167700000Y-87700000D03*
X167700000Y-85700000D03*
X167700000Y-83700000D03*
X167700000Y-81700000D03*
X167700000Y-79700000D03*
%TD*%
D11*
%TO.C,J5*%
X167700000Y-59900000D03*
D12*
X167700000Y-57900000D03*
X167700000Y-55900000D03*
%TD*%
D11*
%TO.C,J1*%
X167700000Y-104600000D03*
D12*
X167700000Y-102600000D03*
X167700000Y-100600000D03*
X167700000Y-98600000D03*
%TD*%
D11*
%TO.C,J4*%
X167700000Y-49400000D03*
D12*
X167700000Y-47400000D03*
%TD*%
D10*
%TO.C,H4*%
X141400000Y-113800000D03*
%TD*%
%TO.C,H3*%
X129600000Y-113800000D03*
%TD*%
D11*
%TO.C,J2*%
X167700000Y-74800000D03*
D12*
X167700000Y-72800000D03*
X167700000Y-70800000D03*
X167700000Y-68800000D03*
X167700000Y-66800000D03*
X167700000Y-64800000D03*
%TD*%
D13*
%TO.C,J7*%
X163000000Y-48300000D03*
D14*
X161000000Y-48300000D03*
X159000000Y-48300000D03*
%TD*%
D15*
%TO.C,J9*%
X136148671Y-56103913D03*
X132061594Y-60190990D03*
D16*
X137527529Y-55460445D03*
D17*
X134557681Y-52490597D03*
D16*
X131418126Y-61569848D03*
D17*
X128448278Y-58600000D03*
%TD*%
D11*
%TO.C,J6*%
X167700000Y-117500000D03*
D12*
X167700000Y-115500000D03*
X167700000Y-113500000D03*
X167700000Y-111500000D03*
X167700000Y-109500000D03*
%TD*%
D13*
%TO.C,J8*%
X154100000Y-48300000D03*
D14*
X152100000Y-48300000D03*
X150100000Y-48300000D03*
%TD*%
D18*
%TO.C,C14*%
X147300000Y-71300000D03*
X146340000Y-71300000D03*
%TD*%
D19*
%TO.C,TP4*%
X147425000Y-117163000D03*
%TD*%
D20*
%TO.C,R41*%
X161200000Y-103500000D03*
X161200000Y-102480000D03*
%TD*%
D21*
%TO.C,U5*%
X141600000Y-68300000D03*
X141140381Y-68759620D03*
X140680761Y-69219239D03*
X139323116Y-67861594D03*
X140242355Y-66942355D03*
%TD*%
D22*
%TO.C,D8*%
X155700000Y-86750000D03*
X155700000Y-84250000D03*
%TD*%
D23*
%TO.C,C53*%
X128600000Y-95100000D03*
X128600000Y-82600000D03*
%TD*%
D19*
%TO.C,TP5*%
X135475000Y-117163000D03*
%TD*%
D21*
%TO.C,U3*%
X143579899Y-66320101D03*
X143120280Y-66779721D03*
X142660660Y-67239340D03*
X141303015Y-65881695D03*
X142222254Y-64962456D03*
%TD*%
D24*
%TO.C,R9*%
X148500000Y-64400000D03*
X148500000Y-65420000D03*
%TD*%
D25*
%TO.C,C2*%
X147300000Y-64400000D03*
X147300000Y-65360000D03*
%TD*%
D26*
%TO.C,C30*%
X142102046Y-69834422D03*
X142780868Y-69155600D03*
%TD*%
D27*
%TO.C,R29*%
X140800970Y-72549712D03*
X141522218Y-71828464D03*
%TD*%
D25*
%TO.C,C7*%
X156950000Y-64420000D03*
X156950000Y-65380000D03*
%TD*%
D28*
%TO.C,R36*%
X123625000Y-104136000D03*
X123625000Y-112190000D03*
%TD*%
D23*
%TO.C,C54*%
X145700000Y-95100000D03*
X145700000Y-82600000D03*
%TD*%
D29*
%TO.C,U11*%
X133643217Y-67841493D03*
X134102836Y-67381873D03*
X134562456Y-66922254D03*
X135920101Y-68279899D03*
X135000862Y-69199138D03*
%TD*%
D27*
%TO.C,R26*%
X143495047Y-71269849D03*
X144216295Y-70548601D03*
%TD*%
D26*
%TO.C,C64*%
X143221178Y-61528822D03*
X143900000Y-60850000D03*
%TD*%
D28*
%TO.C,R35*%
X135475000Y-104136000D03*
X135475000Y-112190000D03*
%TD*%
D21*
%TO.C,U6*%
X139620101Y-70279899D03*
X139160482Y-70739519D03*
X138700862Y-71199138D03*
X137343217Y-69841493D03*
X138262456Y-68922254D03*
%TD*%
D30*
%TO.C,U8*%
X153925000Y-118745000D03*
X153925000Y-117475000D03*
X153925000Y-116205000D03*
X153925000Y-114935000D03*
X158875000Y-114935000D03*
X158875000Y-116205000D03*
X158875000Y-117475000D03*
X158875000Y-118745000D03*
%TD*%
D26*
%TO.C,C61*%
X144021178Y-62378822D03*
X144700000Y-61700000D03*
%TD*%
%TO.C,C60*%
X148821178Y-56228822D03*
X149500000Y-55550000D03*
%TD*%
D31*
%TO.C,C49*%
X162400000Y-109680000D03*
X162400000Y-108720000D03*
%TD*%
D32*
%TO.C,L1*%
X157500000Y-95600000D03*
X155500000Y-95600000D03*
%TD*%
D31*
%TO.C,C17*%
X160100000Y-81880000D03*
X160100000Y-80920000D03*
%TD*%
D25*
%TO.C,C37*%
X131100000Y-67700000D03*
X131100000Y-68660000D03*
%TD*%
D26*
%TO.C,C35*%
X140122147Y-71814321D03*
X140800969Y-71135499D03*
%TD*%
D33*
%TO.C,R17*%
X156980000Y-63200000D03*
X158000000Y-63200000D03*
%TD*%
D34*
%TO.C,C44*%
X161220000Y-117000000D03*
X162180000Y-117000000D03*
%TD*%
D25*
%TO.C,C8*%
X158050000Y-64400000D03*
X158050000Y-65360000D03*
%TD*%
D35*
%TO.C,C40*%
X141800000Y-100100000D03*
X141800000Y-103050000D03*
%TD*%
D34*
%TO.C,C45*%
X161220000Y-110800000D03*
X162180000Y-110800000D03*
%TD*%
D25*
%TO.C,C15*%
X157400000Y-74900000D03*
X157400000Y-75860000D03*
%TD*%
D27*
%TO.C,R20*%
X145545657Y-69360660D03*
X146266905Y-68639412D03*
%TD*%
D36*
%TO.C,C18*%
X159000000Y-91000000D03*
X163400000Y-91000000D03*
%TD*%
D37*
%TO.C,C58*%
X146028822Y-58921178D03*
X145350000Y-59600000D03*
%TD*%
D18*
%TO.C,C66*%
X159100000Y-80500000D03*
X158140000Y-80500000D03*
%TD*%
D30*
%TO.C,U10*%
X153950000Y-112540000D03*
X153950000Y-111270000D03*
X153950000Y-110000000D03*
X153950000Y-108730000D03*
X158900000Y-108730000D03*
X158900000Y-110000000D03*
X158900000Y-111270000D03*
X158900000Y-112540000D03*
%TD*%
D38*
%TO.C,U17*%
X160530500Y-83649999D03*
X160530500Y-84600000D03*
X160530500Y-85550001D03*
X157800000Y-85550001D03*
X157800000Y-83649999D03*
%TD*%
D31*
%TO.C,C1*%
X156900000Y-71780000D03*
X156900000Y-70820000D03*
%TD*%
D20*
%TO.C,R40*%
X161225000Y-115910000D03*
X161225000Y-114890000D03*
%TD*%
D31*
%TO.C,C9*%
X158100000Y-71780000D03*
X158100000Y-70820000D03*
%TD*%
D30*
%TO.C,U9*%
X153950000Y-106340000D03*
X153950000Y-105070000D03*
X153950000Y-103800000D03*
X153950000Y-102530000D03*
X158900000Y-102530000D03*
X158900000Y-103800000D03*
X158900000Y-105070000D03*
X158900000Y-106340000D03*
%TD*%
D27*
%TO.C,R30*%
X141508077Y-73256819D03*
X142229325Y-72535571D03*
%TD*%
D20*
%TO.C,R42*%
X161200000Y-109720000D03*
X161200000Y-108700000D03*
%TD*%
D27*
%TO.C,R23*%
X142787940Y-70562742D03*
X143509188Y-69841494D03*
%TD*%
D24*
%TO.C,R1*%
X155100000Y-67880000D03*
X155100000Y-68900000D03*
%TD*%
D37*
%TO.C,C51*%
X135156425Y-64291817D03*
X134477603Y-64970639D03*
%TD*%
D34*
%TO.C,C46*%
X161220000Y-104600000D03*
X162180000Y-104600000D03*
%TD*%
D25*
%TO.C,C11*%
X161200000Y-118120000D03*
X161200000Y-119080000D03*
%TD*%
%TO.C,C10*%
X151700000Y-64420000D03*
X151700000Y-65380000D03*
%TD*%
D28*
%TO.C,R34*%
X147425000Y-104136000D03*
X147425000Y-112190000D03*
%TD*%
D24*
%TO.C,R18*%
X163100000Y-83890000D03*
X163100000Y-84910000D03*
%TD*%
D39*
%TO.C,R22*%
X159110000Y-81500000D03*
X158090000Y-81500000D03*
%TD*%
D31*
%TO.C,C48*%
X162425000Y-103470000D03*
X162425000Y-102510000D03*
%TD*%
D36*
%TO.C,C57*%
X158100000Y-54700000D03*
X162500000Y-54700000D03*
%TD*%
D31*
%TO.C,C47*%
X162400000Y-115860000D03*
X162400000Y-114900000D03*
%TD*%
D25*
%TO.C,C5*%
X148450000Y-72450000D03*
X148450000Y-73410000D03*
%TD*%
D29*
%TO.C,U13*%
X137603015Y-63881695D03*
X138062634Y-63422075D03*
X138522254Y-62962456D03*
X139879899Y-64320101D03*
X138960660Y-65239340D03*
%TD*%
D33*
%TO.C,R49*%
X158400000Y-87400000D03*
X159420000Y-87400000D03*
%TD*%
D29*
%TO.C,U12*%
X135623116Y-65861594D03*
X136082735Y-65401974D03*
X136542355Y-64942355D03*
X137900000Y-66300000D03*
X136980761Y-67219239D03*
%TD*%
D27*
%TO.C,R19*%
X144796123Y-68625269D03*
X145517371Y-67904021D03*
%TD*%
D35*
%TO.C,C38*%
X130800000Y-100125000D03*
X130800000Y-103075000D03*
%TD*%
D40*
%TO.C,TP3*%
X123100000Y-74250000D03*
%TD*%
D26*
%TO.C,C50*%
X133060589Y-66400000D03*
X133739411Y-65721178D03*
%TD*%
D37*
%TO.C,C52*%
X137136324Y-62311918D03*
X136457502Y-62990740D03*
%TD*%
D41*
%TO.C,SW1*%
X164200000Y-59350000D03*
D42*
X164200000Y-63350000D03*
%TD*%
D26*
%TO.C,C22*%
X144081945Y-67854523D03*
X144760767Y-67175701D03*
%TD*%
D25*
%TO.C,C6*%
X150600000Y-64420000D03*
X150600000Y-65380000D03*
%TD*%
D33*
%TO.C,R14*%
X156300000Y-51700000D03*
X157320000Y-51700000D03*
%TD*%
D19*
%TO.C,TP6*%
X123625000Y-117163000D03*
%TD*%
M02*
