M48
; DRILL file {KiCad 9.0.1} date 2025-09-04T21:15:42-0400
; FORMAT={-:-/ absolute / inch / decimal}
; #@! TF.CreationDate,2025-09-04T21:15:42-04:00
; #@! TF.GenerationSoftware,Kicad,Pcbnew,9.0.1
; #@! TF.FileFunction,Plated,1,4,PTH
FMAT,2
INCH
; #@! TA.AperFunction,Plated,PTH,ViaDrill
T1C0.0118
; #@! TA.AperFunction,Plated,PTH,ComponentDrill
T2C0.0236
; #@! TA.AperFunction,Plated,PTH,ComponentDrill
T3C0.0295
%
G90
G05
T1
X4.7963Y-4.3793
X4.7963Y-4.408
X4.7963Y-4.4344
X4.7963Y-4.462
X4.7963Y-4.4896
X4.7963Y-4.5171
X4.7963Y-4.5447
X4.7963Y-4.5733
X4.7963Y-4.6009
X4.7963Y-4.6285
X4.7963Y-4.656
X4.8238Y-4.3793
X4.8238Y-4.408
X4.8238Y-4.4344
X4.8238Y-4.462
X4.8238Y-4.4896
X4.8238Y-4.5171
X4.8238Y-4.5447
X4.8238Y-4.5733
X4.8238Y-4.6009
X4.8238Y-4.6285
X4.8238Y-4.656
X4.8278Y-4.0014
X4.8278Y-4.0289
X4.8278Y-4.0565
X4.8278Y-4.0841
X4.8278Y-4.1116
X4.8278Y-4.1398
X4.8425Y-3.9567
X4.8435Y-3.7376
X4.8435Y-3.7652
X4.8435Y-3.7927
X4.8435Y-3.8203
X4.8435Y-3.8478
X4.8435Y-3.8754
X4.8514Y-4.3793
X4.8514Y-4.408
X4.8514Y-4.4344
X4.8514Y-4.462
X4.8514Y-4.4896
X4.8514Y-4.5171
X4.8514Y-4.5447
X4.8514Y-4.5733
X4.8514Y-4.6009
X4.8514Y-4.6285
X4.8514Y-4.656
X4.8553Y-4.0014
X4.8553Y-4.0289
X4.8553Y-4.0565
X4.8553Y-4.0841
X4.8553Y-4.1116
X4.8553Y-4.1398
X4.8701Y-3.9567
X4.8711Y-3.7376
X4.8711Y-3.7652
X4.8711Y-3.7927
X4.8711Y-3.8203
X4.8711Y-3.8478
X4.8711Y-3.8754
X4.872Y-3.4252
X4.872Y-3.4528
X4.872Y-3.5433
X4.872Y-3.5709
X4.8789Y-4.3793
X4.8789Y-4.408
X4.8789Y-4.4344
X4.8789Y-4.462
X4.8789Y-4.4896
X4.8789Y-4.5171
X4.8789Y-4.5447
X4.8789Y-4.5733
X4.8789Y-4.6009
X4.8789Y-4.6285
X4.8789Y-4.656
X4.8829Y-4.0014
X4.8829Y-4.0289
X4.8829Y-4.0565
X4.8829Y-4.0841
X4.8829Y-4.1116
X4.8829Y-4.1398
X4.8976Y-3.9567
X4.8986Y-3.7376
X4.8986Y-3.7652
X4.8986Y-3.7927
X4.8986Y-3.8203
X4.8986Y-3.8478
X4.8986Y-3.8754
X4.8996Y-3.4252
X4.8996Y-3.4528
X4.8996Y-3.5433
X4.8996Y-3.5709
X4.9065Y-4.3793
X4.9065Y-4.408
X4.9065Y-4.4344
X4.9065Y-4.462
X4.9065Y-4.4896
X4.9065Y-4.5171
X4.9065Y-4.5447
X4.9065Y-4.5733
X4.9065Y-4.6009
X4.9065Y-4.6285
X4.9065Y-4.656
X4.9094Y-4.1398
X4.9104Y-4.0014
X4.9104Y-4.0289
X4.9104Y-4.0565
X4.9104Y-4.0841
X4.9104Y-4.1116
X4.9242Y-3.9573
X4.9262Y-3.128
X4.9262Y-3.1555
X4.9262Y-3.1831
X4.9262Y-3.2106
X4.9262Y-3.2382
X4.9262Y-3.2657
X4.9262Y-3.2933
X4.9262Y-3.3209
X4.9262Y-3.3484
X4.9262Y-3.376
X4.9262Y-3.7376
X4.9262Y-3.7652
X4.9262Y-3.7927
X4.9262Y-3.8203
X4.9262Y-3.8478
X4.9262Y-3.8754
X4.9272Y-3.4252
X4.9272Y-3.4528
X4.9272Y-3.5433
X4.9272Y-3.5709
X4.9341Y-4.3793
X4.9341Y-4.408
X4.9341Y-4.4344
X4.9341Y-4.462
X4.9341Y-4.4896
X4.9341Y-4.5171
X4.9341Y-4.5447
X4.9341Y-4.5733
X4.9341Y-4.6009
X4.9341Y-4.6285
X4.9341Y-4.656
X4.937Y-4.1398
X4.938Y-4.0014
X4.938Y-4.0289
X4.938Y-4.0565
X4.938Y-4.0841
X4.938Y-4.1116
X4.9537Y-3.7376
X4.9537Y-3.7652
X4.9537Y-3.7927
X4.9537Y-3.8203
X4.9537Y-3.8478
X4.9537Y-3.8754
X4.9547Y-3.4252
X4.9547Y-3.4528
X4.9547Y-3.5433
X4.9547Y-3.5709
X4.9695Y-4.2927
X5.0079Y-3.126
X5.0079Y-3.1535
X5.0079Y-3.1811
X5.0079Y-3.2087
X5.0079Y-3.2362
X5.0079Y-3.2638
X5.0079Y-3.2913
X5.0079Y-3.3189
X5.0079Y-3.3465
X5.0079Y-3.374
X5.0079Y-3.4252
X5.0079Y-3.4528
X5.0079Y-3.5413
X5.0079Y-3.5689
X5.0167Y-4.3163
X5.0197Y-3.626
X5.0197Y-3.6535
X5.0197Y-3.6811
X5.0197Y-3.7087
X5.0207Y-3.7376
X5.0207Y-3.7652
X5.0207Y-3.7927
X5.0207Y-3.8203
X5.0207Y-3.8478
X5.0207Y-3.8754
X5.0354Y-3.126
X5.0354Y-3.1535
X5.0354Y-3.1811
X5.0354Y-3.2087
X5.0354Y-3.2362
X5.0354Y-3.2638
X5.0354Y-3.2913
X5.0354Y-3.3189
X5.0354Y-3.3465
X5.0354Y-3.374
X5.0354Y-3.4252
X5.0354Y-3.4528
X5.0354Y-3.5413
X5.0354Y-3.5689
X5.0354Y-4.0866
X5.0354Y-4.1142
X5.0354Y-4.1417
X5.0354Y-4.1732
X5.0354Y-4.2126
X5.0472Y-3.626
X5.0472Y-3.6535
X5.0472Y-3.6811
X5.0472Y-3.7087
X5.0482Y-3.7376
X5.0482Y-3.7652
X5.0482Y-3.7927
X5.0482Y-3.8203
X5.0482Y-3.8478
X5.0482Y-3.8754
X5.063Y-3.126
X5.063Y-3.1535
X5.063Y-3.1811
X5.063Y-3.2087
X5.063Y-3.2362
X5.063Y-3.2638
X5.063Y-3.2913
X5.063Y-3.3189
X5.063Y-3.3465
X5.063Y-3.374
X5.063Y-3.4252
X5.063Y-3.4528
X5.063Y-3.5413
X5.063Y-3.5689
X5.0866Y-4.0447
X5.0866Y-4.0722
X5.0866Y-4.0998
X5.0866Y-4.1274
X5.0866Y-4.1549
X5.0866Y-4.1825
X5.0876Y-4.2106
X5.0886Y-2.8445
X5.0906Y-3.126
X5.0906Y-3.1535
X5.0906Y-3.1811
X5.0906Y-3.2087
X5.0906Y-3.2362
X5.0906Y-3.2638
X5.0906Y-3.2913
X5.0906Y-3.3189
X5.0906Y-3.3465
X5.0906Y-3.374
X5.0906Y-3.4252
X5.0906Y-3.4528
X5.0906Y-3.5413
X5.0906Y-3.5689
X5.1142Y-4.0447
X5.1142Y-4.0722
X5.1142Y-4.0998
X5.1142Y-4.1274
X5.1142Y-4.1549
X5.1142Y-4.1825
X5.1152Y-4.2106
X5.1181Y-2.8445
X5.1181Y-2.872
X5.1181Y-3.126
X5.1181Y-3.1535
X5.1181Y-3.1811
X5.1181Y-3.2087
X5.1181Y-3.2362
X5.1181Y-3.2638
X5.1181Y-3.2913
X5.1181Y-3.3189
X5.1181Y-3.3465
X5.1181Y-3.374
X5.1417Y-4.0447
X5.1417Y-4.0722
X5.1417Y-4.0998
X5.1417Y-4.1274
X5.1417Y-4.1549
X5.1417Y-4.1825
X5.1427Y-4.2106
X5.1437Y-2.8996
X5.1457Y-2.8445
X5.1457Y-2.872
X5.163Y-2.6654
X5.1693Y-4.0447
X5.1693Y-4.0722
X5.1693Y-4.0998
X5.1693Y-4.1274
X5.1693Y-4.1549
X5.1693Y-4.1825
X5.1703Y-4.2106
X5.1713Y-2.8996
X5.1713Y-2.9272
X5.1732Y-2.8445
X5.1732Y-2.872
X5.1969Y-4.0447
X5.1969Y-4.0722
X5.1969Y-4.0998
X5.1969Y-4.1274
X5.1969Y-4.1549
X5.1969Y-4.1825
X5.1978Y-4.2106
X5.1988Y-2.8996
X5.1988Y-2.9272
X5.1988Y-2.9547
X5.2008Y-2.8445
X5.2008Y-2.872
X5.2264Y-2.8996
X5.2264Y-2.9272
X5.2264Y-2.9547
X5.2264Y-2.9823
X5.2283Y-2.872
X5.2451Y-3.7376
X5.2451Y-3.7652
X5.2451Y-3.7927
X5.2451Y-3.8203
X5.2451Y-3.8478
X5.2451Y-3.8754
X5.251Y-4.2584
X5.2539Y-2.8996
X5.2539Y-2.9272
X5.2539Y-2.9547
X5.2539Y-2.9823
X5.2539Y-3.0098
X5.2648Y-4.3793
X5.2648Y-4.408
X5.2648Y-4.4344
X5.2648Y-4.462
X5.2648Y-4.4896
X5.2648Y-4.5171
X5.2648Y-4.5447
X5.2648Y-4.5733
X5.2648Y-4.6009
X5.2648Y-4.6285
X5.2648Y-4.656
X5.2726Y-3.7376
X5.2726Y-3.7652
X5.2726Y-3.7927
X5.2726Y-3.8203
X5.2726Y-3.8478
X5.2726Y-3.8754
X5.2785Y-4.2584
X5.2795Y-2.5236
X5.2815Y-2.9272
X5.2815Y-2.9547
X5.2815Y-2.9823
X5.2815Y-3.0098
X5.2815Y-3.0374
X5.2874Y-2.4173
X5.2923Y-4.3793
X5.2923Y-4.408
X5.2923Y-4.4344
X5.2923Y-4.462
X5.2923Y-4.4896
X5.2923Y-4.5171
X5.2923Y-4.5447
X5.2923Y-4.5733
X5.2923Y-4.6009
X5.2923Y-4.6285
X5.2923Y-4.656
X5.2963Y-4.0014
X5.2963Y-4.0289
X5.2963Y-4.0565
X5.2963Y-4.0841
X5.2963Y-4.1116
X5.2963Y-4.1378
X5.3061Y-4.2584
X5.3091Y-2.9547
X5.3091Y-2.9823
X5.3091Y-3.0098
X5.3091Y-3.0374
X5.311Y-3.9567
X5.312Y-3.7376
X5.312Y-3.7652
X5.312Y-3.7927
X5.312Y-3.8203
X5.312Y-3.8478
X5.312Y-3.8754
X5.315Y-2.6024
X5.3199Y-4.3793
X5.3199Y-4.408
X5.3199Y-4.4344
X5.3199Y-4.462
X5.3199Y-4.4896
X5.3199Y-4.5171
X5.3199Y-4.5447
X5.3199Y-4.5733
X5.3199Y-4.6009
X5.3199Y-4.6285
X5.3199Y-4.656
X5.3238Y-4.0014
X5.3238Y-4.0289
X5.3238Y-4.0565
X5.3238Y-4.0841
X5.3238Y-4.1116
X5.3238Y-4.1378
X5.3337Y-4.2584
X5.3366Y-2.9823
X5.3366Y-3.0098
X5.3366Y-3.0374
X5.3386Y-2.4961
X5.3386Y-3.9567
X5.3396Y-3.7376
X5.3396Y-3.7652
X5.3396Y-3.7927
X5.3396Y-3.8203
X5.3396Y-3.8478
X5.3396Y-3.8754
X5.3409Y-2.6277
X5.3474Y-4.3793
X5.3474Y-4.408
X5.3474Y-4.4344
X5.3474Y-4.462
X5.3474Y-4.4896
X5.3474Y-4.5171
X5.3474Y-4.5447
X5.3474Y-4.5733
X5.3474Y-4.6009
X5.3474Y-4.6285
X5.3474Y-4.656
X5.3504Y-2.7677
X5.3514Y-4.0014
X5.3514Y-4.0289
X5.3514Y-4.0565
X5.3514Y-4.0841
X5.3514Y-4.1116
X5.3514Y-4.1378
X5.358Y-2.7252
X5.3612Y-4.2584
X5.3642Y-3.0098
X5.3642Y-3.0374
X5.3661Y-3.9567
X5.3671Y-3.7376
X5.3671Y-3.7652
X5.3671Y-3.7927
X5.3671Y-3.8203
X5.3671Y-3.8478
X5.3671Y-3.8754
X5.375Y-4.3793
X5.375Y-4.408
X5.375Y-4.4344
X5.375Y-4.462
X5.375Y-4.4896
X5.375Y-4.5171
X5.375Y-4.5447
X5.375Y-4.5733
X5.375Y-4.6009
X5.375Y-4.6285
X5.375Y-4.656
X5.378Y-2.3307
X5.3789Y-4.0014
X5.3789Y-4.0289
X5.3789Y-4.0565
X5.3789Y-4.0841
X5.3789Y-4.1116
X5.3799Y-4.1378
X5.3917Y-3.0374
X5.3927Y-3.9573
X5.3947Y-3.7376
X5.3947Y-3.7652
X5.3947Y-3.7927
X5.3947Y-3.8203
X5.3947Y-3.8478
X5.3947Y-3.8754
X5.3976Y-2.5276
X5.4026Y-4.3793
X5.4026Y-4.408
X5.4026Y-4.4344
X5.4026Y-4.462
X5.4026Y-4.4896
X5.4026Y-4.5171
X5.4026Y-4.5447
X5.4026Y-4.5733
X5.4026Y-4.6009
X5.4026Y-4.6285
X5.4026Y-4.656
X5.4051Y-4.2516
X5.4065Y-4.0014
X5.4065Y-4.0289
X5.4065Y-4.0565
X5.4065Y-4.0841
X5.4065Y-4.1116
X5.4075Y-4.1378
X5.4117Y-2.3703
X5.4222Y-3.7376
X5.4222Y-3.7652
X5.4222Y-3.7927
X5.4222Y-3.8203
X5.4222Y-3.8478
X5.4222Y-3.8754
X5.4498Y-3.7376
X5.4498Y-3.7652
X5.4498Y-3.7927
X5.4498Y-3.8203
X5.4498Y-3.8478
X5.4498Y-3.8754
X5.4528Y-2.752
X5.4567Y-4.2638
X5.4606Y-2.3504
X5.4646Y-2.4232
X5.4803Y-2.3701
X5.4821Y-2.8465
X5.4892Y-3.7376
X5.4892Y-3.7652
X5.4892Y-3.7927
X5.4892Y-3.8203
X5.4892Y-3.8478
X5.4892Y-3.8754
X5.5Y-2.3898
X5.5Y-4.0866
X5.5Y-4.1142
X5.5Y-4.1417
X5.5Y-4.1732
X5.5Y-4.2126
X5.5166Y-2.8273
X5.5167Y-3.7376
X5.5167Y-3.7652
X5.5167Y-3.7927
X5.5167Y-3.8203
X5.5167Y-3.8478
X5.5197Y-2.4094
X5.5335Y-2.2087
X5.5394Y-2.4291
X5.5394Y-2.6142
X5.5419Y-2.5301
X5.5443Y-4.0447
X5.5443Y-4.0722
X5.5443Y-4.0998
X5.5443Y-4.1274
X5.5443Y-4.1549
X5.5443Y-4.1825
X5.5512Y-2.9281
X5.5591Y-2.1909
X5.563Y-4.0
X5.564Y-2.125
X5.5709Y-3.0571
X5.5719Y-4.0447
X5.5719Y-4.0722
X5.5719Y-4.0998
X5.5719Y-4.1274
X5.5719Y-4.1549
X5.5719Y-4.1825
X5.5787Y-2.4291
X5.5984Y-2.4094
X5.5984Y-3.0571
X5.5994Y-4.0447
X5.5994Y-4.0722
X5.5994Y-4.0998
X5.5994Y-4.1274
X5.5994Y-4.1549
X5.6004Y-4.1831
X5.6063Y-4.0
X5.6102Y-2.8976
X5.6161Y-2.8099
X5.6181Y-2.3898
X5.6216Y-2.7781
X5.626Y-3.0571
X5.627Y-4.0447
X5.627Y-4.0722
X5.627Y-4.0998
X5.627Y-4.1274
X5.627Y-4.1549
X5.628Y-4.1831
X5.643Y-2.6941
X5.6441Y-2.8819
X5.6535Y-3.0571
X5.6654Y-2.3957
X5.6693Y-4.0394
X5.6693Y-4.0669
X5.6693Y-4.0945
X5.6693Y-4.126
X5.6725Y-2.6714
X5.6811Y-3.0571
X5.6811Y-3.126
X5.6811Y-3.1535
X5.6811Y-3.1811
X5.6811Y-3.2087
X5.6811Y-3.2362
X5.6811Y-3.2638
X5.6811Y-3.2913
X5.6811Y-3.3189
X5.6811Y-3.3465
X5.6811Y-3.374
X5.6929Y-2.0079
X5.6969Y-2.4291
X5.7087Y-3.0571
X5.7087Y-3.126
X5.7087Y-3.1535
X5.7087Y-3.1811
X5.7087Y-3.2087
X5.7087Y-3.2362
X5.7087Y-3.2638
X5.7087Y-3.2913
X5.7087Y-3.3189
X5.7087Y-3.3465
X5.7087Y-3.374
X5.7087Y-3.4252
X5.7087Y-3.4528
X5.7087Y-3.5413
X5.7087Y-3.5689
X5.7126Y-2.5079
X5.7126Y-2.5984
X5.7126Y-2.9016
X5.7126Y-4.1772
X5.7165Y-3.626
X5.7165Y-3.6535
X5.7165Y-3.6811
X5.7165Y-3.7087
X5.7165Y-3.7376
X5.7165Y-3.7652
X5.7165Y-3.7927
X5.7165Y-3.8203
X5.7165Y-3.8478
X5.7165Y-3.8754
X5.7175Y-4.0565
X5.7175Y-4.0841
X5.7175Y-4.1116
X5.7175Y-4.1392
X5.7205Y-2.0236
X5.7216Y-2.3456
X5.7301Y-2.4861
X5.7333Y-4.3793
X5.7333Y-4.408
X5.7333Y-4.4344
X5.7333Y-4.462
X5.7333Y-4.4896
X5.7333Y-4.5171
X5.7333Y-4.5447
X5.7333Y-4.5733
X5.7333Y-4.6009
X5.7333Y-4.6285
X5.7333Y-4.656
X5.7362Y-3.0571
X5.7362Y-3.126
X5.7362Y-3.1535
X5.7362Y-3.1811
X5.7362Y-3.2087
X5.7362Y-3.2362
X5.7362Y-3.2638
X5.7362Y-3.2913
X5.7362Y-3.3189
X5.7362Y-3.3465
X5.7362Y-3.374
X5.7362Y-3.4252
X5.7362Y-3.4528
X5.7362Y-3.5413
X5.7362Y-3.5689
X5.7441Y-3.626
X5.7441Y-3.6535
X5.7441Y-3.6811
X5.7441Y-3.7087
X5.7441Y-3.7376
X5.7441Y-3.7652
X5.7441Y-3.7927
X5.7441Y-3.8203
X5.7441Y-3.8478
X5.7441Y-3.8754
X5.7451Y-4.0289
X5.7451Y-4.0565
X5.7451Y-4.0841
X5.7451Y-4.1116
X5.7451Y-4.1392
X5.7524Y-2.6559
X5.7559Y-2.8071
X5.7562Y-2.4759
X5.7608Y-4.3793
X5.7608Y-4.408
X5.7608Y-4.4344
X5.7608Y-4.462
X5.7608Y-4.4896
X5.7608Y-4.5171
X5.7608Y-4.5447
X5.7608Y-4.5733
X5.7608Y-4.6009
X5.7608Y-4.6285
X5.7608Y-4.656
X5.7638Y-3.0571
X5.7638Y-3.126
X5.7638Y-3.1535
X5.7638Y-3.1811
X5.7638Y-3.2087
X5.7638Y-3.2362
X5.7638Y-3.2638
X5.7638Y-3.2913
X5.7638Y-3.3189
X5.7638Y-3.3465
X5.7638Y-3.374
X5.7638Y-3.4252
X5.7638Y-3.4528
X5.7638Y-3.5413
X5.7638Y-3.5689
X5.7687Y-4.0014
X5.7717Y-3.626
X5.7717Y-3.6535
X5.7717Y-3.6811
X5.7726Y-4.0289
X5.7726Y-4.0565
X5.7726Y-4.0841
X5.7726Y-4.1116
X5.7726Y-4.1392
X5.7756Y-2.8386
X5.7768Y-2.9543
X5.7835Y-3.9567
X5.7844Y-3.7376
X5.7844Y-3.7652
X5.7844Y-3.7927
X5.7844Y-3.8203
X5.7844Y-3.8478
X5.7844Y-3.8754
X5.7884Y-4.3793
X5.7884Y-4.408
X5.7884Y-4.4344
X5.7884Y-4.462
X5.7884Y-4.4896
X5.7884Y-4.5171
X5.7884Y-4.5447
X5.7884Y-4.5733
X5.7884Y-4.6009
X5.7884Y-4.6285
X5.7884Y-4.656
X5.7913Y-2.689
X5.7913Y-3.0571
X5.7913Y-3.126
X5.7913Y-3.1535
X5.7913Y-3.1811
X5.7913Y-3.2087
X5.7913Y-3.2362
X5.7913Y-3.2638
X5.7913Y-3.2913
X5.7913Y-3.3189
X5.7913Y-3.3465
X5.7913Y-3.374
X5.7913Y-3.4252
X5.7913Y-3.4528
X5.7913Y-3.5413
X5.7913Y-3.5689
X5.7963Y-4.0014
X5.7975Y-2.7739
X5.7991Y-2.4571
X5.7992Y-2.5354
X5.7992Y-2.8071
X5.7992Y-2.8622
X5.8002Y-4.0289
X5.8002Y-4.0565
X5.8002Y-4.0841
X5.8002Y-4.1116
X5.8002Y-4.1392
X5.811Y-3.9567
X5.815Y-2.4055
X5.8159Y-4.3793
X5.8159Y-4.408
X5.8159Y-4.4344
X5.8159Y-4.462
X5.8159Y-4.4896
X5.8159Y-4.5171
X5.8159Y-4.5447
X5.8159Y-4.5733
X5.8159Y-4.6009
X5.8159Y-4.6285
X5.8159Y-4.656
X5.8189Y-3.0571
X5.8238Y-4.0014
X5.8278Y-4.0289
X5.8278Y-4.0565
X5.8278Y-4.0841
X5.8278Y-4.1116
X5.8278Y-4.1392
X5.8386Y-3.9567
X5.8396Y-3.7376
X5.8396Y-3.7652
X5.8396Y-3.7927
X5.8396Y-3.8203
X5.8396Y-3.8478
X5.8396Y-3.8754
X5.8435Y-4.3793
X5.8435Y-4.408
X5.8435Y-4.4344
X5.8435Y-4.462
X5.8435Y-4.4896
X5.8435Y-4.5171
X5.8435Y-4.5447
X5.8435Y-4.5733
X5.8435Y-4.6009
X5.8435Y-4.6285
X5.8435Y-4.656
X5.8445Y-2.8524
X5.8445Y-2.8902
X5.8445Y-3.4252
X5.8445Y-3.4528
X5.8445Y-3.5433
X5.8445Y-3.5709
X5.8465Y-3.0571
X5.8504Y-2.4764
X5.8514Y-4.0014
X5.8543Y-2.4094
X5.8553Y-4.0289
X5.8553Y-4.0565
X5.8553Y-4.0841
X5.8553Y-4.1116
X5.8553Y-4.1392
X5.8661Y-3.9567
X5.8671Y-3.7376
X5.8671Y-3.7652
X5.8671Y-3.7927
X5.8671Y-3.8203
X5.8671Y-3.8478
X5.8683Y-2.9782
X5.8711Y-4.3793
X5.8711Y-4.408
X5.8711Y-4.4344
X5.8711Y-4.462
X5.8711Y-4.4896
X5.8711Y-4.5171
X5.8711Y-4.5447
X5.8711Y-4.5733
X5.8711Y-4.6009
X5.8711Y-4.6285
X5.8711Y-4.656
X5.872Y-3.4252
X5.872Y-3.4528
X5.872Y-3.5433
X5.872Y-3.5709
X5.874Y-3.0571
X5.8799Y-4.002
X5.8819Y-2.4646
X5.8829Y-4.0289
X5.8829Y-4.0565
X5.8829Y-4.0841
X5.8829Y-4.1116
X5.8829Y-4.1392
X5.8858Y-2.187
X5.8858Y-2.8504
X5.8878Y-3.0059
X5.8898Y-2.9094
X5.8947Y-3.7376
X5.8947Y-3.7652
X5.8947Y-3.7927
X5.8947Y-3.8203
X5.8947Y-3.8478
X5.8996Y-2.6673
X5.8996Y-3.4252
X5.8996Y-3.4528
X5.8996Y-3.5433
X5.8996Y-3.5709
X5.9016Y-2.2717
X5.9134Y-2.0236
X5.9134Y-2.0512
X5.9134Y-2.0787
X5.9134Y-2.1063
X5.9134Y-2.1339
X5.9134Y-3.0315
X5.9197Y-2.9507
X5.9222Y-3.7652
X5.9222Y-3.7927
X5.9222Y-3.8203
X5.9222Y-3.8478
X5.9272Y-3.4252
X5.9272Y-3.4528
X5.9272Y-3.5433
X5.9272Y-3.5709
X5.9291Y-2.5374
X5.9291Y-2.5748
X5.9366Y-2.8386
X5.937Y-3.9969
X5.9429Y-3.1713
X5.9429Y-3.1988
X5.9429Y-3.2264
X5.9429Y-3.2539
X5.9429Y-3.2815
X5.9429Y-3.3091
X5.9429Y-3.3366
X5.9429Y-3.3642
X5.9429Y-3.3917
X5.9469Y-1.997
X5.9488Y-2.6024
X5.9567Y-3.937
X5.9577Y-2.6289
X5.9646Y-2.8386
X5.9724Y-2.2165
X5.9724Y-2.5362
X5.9744Y-1.997
X5.9764Y-2.0531
X5.9764Y-2.7559
X5.9764Y-3.1713
X5.9764Y-3.1988
X5.9764Y-3.2264
X5.9764Y-3.2539
X5.9764Y-3.2815
X5.9764Y-3.3091
X5.9764Y-3.3366
X5.9764Y-3.3642
X5.9764Y-3.3917
X5.9764Y-3.4193
X5.9882Y-2.6063
X5.9961Y-2.7244
X5.9961Y-2.7835
X5.9976Y-4.6024
X5.998Y-2.9528
X5.998Y-4.5748
X5.998Y-4.6299
X6.002Y-1.997
X6.0037Y-4.3939
X6.0047Y-4.4421
X6.0118Y-2.2598
X6.0177Y-2.9726
X6.024Y-2.7244
X6.0274Y-2.7834
X6.0295Y-1.997
X6.0312Y-2.5757
X6.0354Y-3.815
X6.0358Y-2.5142
X6.0374Y-2.9528
X6.0378Y-2.4055
X6.0472Y-4.2165
X6.0551Y-4.3602
X6.0571Y-1.997
X6.0571Y-2.4961
X6.0575Y-2.9843
X6.0594Y-2.1201
X6.061Y-4.0866
X6.0651Y-3.5018
X6.0669Y-2.7795
X6.0669Y-4.0039
X6.0688Y-3.9402
X6.0783Y-3.6377
X6.0784Y-2.5142
X6.0787Y-2.8465
X6.0846Y-1.997
X6.0856Y-2.3632
X6.087Y-3.8983
X6.0945Y-2.3898
X6.0945Y-2.5984
X6.1021Y-3.579
X6.1024Y-2.8228
X6.1024Y-3.5429
X6.1024Y-3.6081
X6.1058Y-3.6482
X6.106Y-2.7602
X6.1063Y-1.8858
X6.1063Y-1.9134
X6.1063Y-2.6732
X6.1082Y-3.4902
X6.1102Y-3.8504
X6.1173Y-4.4165
X6.126Y-2.0354
X6.126Y-3.2283
X6.126Y-3.2559
X6.127Y-2.0659
X6.127Y-2.0935
X6.127Y-2.1211
X6.127Y-2.1486
X6.127Y-3.8728
X6.1299Y-3.3189
X6.1299Y-3.3583
X6.1299Y-3.4154
X6.1299Y-4.4685
X6.1339Y-3.5472
X6.1358Y-2.8287
X6.1361Y-2.5142
X6.137Y-3.1417
X6.1376Y-3.4923
X6.1396Y-4.5919
X6.1398Y-4.6752
X6.1417Y-2.685
X6.1417Y-2.7126
X6.1457Y-2.7638
X6.148Y-3.8543
X6.1535Y-2.9488
X6.1535Y-3.2283
X6.1535Y-3.2559
X6.1535Y-4.2972
X6.1535Y-4.3248
X6.1575Y-4.4685
X6.1575Y-4.4957
X6.1579Y-2.494
X6.1672Y-3.9846
X6.1673Y-4.6752
X6.1693Y-2.7126
X6.1732Y-4.6141
X6.1752Y-2.4114
X6.1772Y-2.7638
X6.1772Y-3.1417
X6.1791Y-2.5362
X6.1811Y-2.6457
X6.185Y-4.4961
X6.1866Y-3.9646
X6.189Y-2.1535
X6.1929Y-4.1614
X6.1937Y-2.0354
X6.1949Y-4.6752
X6.1966Y-3.9384
X6.1969Y-2.622
X6.1969Y-2.9488
X6.1969Y-2.9866
X6.2008Y-2.7047
X6.203Y-4.2662
X6.2047Y-2.374
X6.2047Y-3.4799
X6.2055Y-4.4224
X6.2061Y-3.8569
X6.2102Y-3.0669
X6.2126Y-2.6457
X6.2126Y-3.6496
X6.2126Y-3.6811
X6.2165Y-3.8859
X6.2224Y-2.5354
X6.2244Y-2.748
X6.2244Y-2.8248
X6.2244Y-3.9409
X6.2283Y-2.3976
X6.2362Y-2.1535
X6.2362Y-2.6654
X6.2362Y-2.7047
X6.2402Y-3.4764
X6.2441Y-3.5079
X6.2441Y-3.6496
X6.2441Y-3.6811
X6.248Y-3.8859
X6.252Y-2.4213
X6.252Y-2.4921
X6.2559Y-4.1378
X6.2589Y-3.3494
X6.2598Y-2.0984
X6.2598Y-2.2087
X6.2638Y-3.1693
X6.2677Y-2.1535
X6.2677Y-2.311
X6.2756Y-2.4449
X6.2764Y-3.4409
X6.2776Y-4.4902
X6.2835Y-4.4626
X6.2874Y-2.0984
X6.2874Y-2.2087
X6.2874Y-3.5039
X6.2913Y-2.3346
X6.2991Y-3.87
X6.2992Y-2.4685
X6.2992Y-3.4764
X6.3031Y-3.6496
X6.3031Y-3.6811
X6.3031Y-3.7126
X6.3031Y-3.7441
X6.315Y-2.0984
X6.315Y-2.2087
X6.315Y-2.3583
X6.315Y-4.626
X6.3209Y-4.3898
X6.3266Y-3.8747
X6.3344Y-2.5671
X6.3346Y-2.8858
X6.3346Y-3.6181
X6.3346Y-3.6496
X6.3346Y-3.6811
X6.3346Y-3.7126
X6.3346Y-3.7441
X6.3382Y-3.2657
X6.3386Y-2.3819
X6.3386Y-2.7402
X6.3406Y-3.2343
X6.3425Y-2.0984
X6.3425Y-2.2087
X6.3465Y-2.626
X6.3465Y-2.9094
X6.3465Y-3.1929
X6.3504Y-3.4731
X6.3583Y-2.5862
X6.3601Y-2.5134
X6.3622Y-2.4055
X6.3622Y-2.8858
X6.3629Y-3.4981
X6.3661Y-3.6496
X6.3661Y-3.6811
X6.3661Y-3.7126
X6.3661Y-3.7441
X6.3701Y-2.0984
X6.3701Y-2.2087
X6.3736Y-2.6673
X6.374Y-2.9094
X6.3755Y-2.3465
X6.3819Y-4.4173
X6.385Y-4.3622
X6.3858Y-2.4291
X6.3898Y-3.4409
X6.3898Y-3.8425
X6.3917Y-4.6791
X6.3937Y-3.248
X6.4016Y-3.5079
X6.4065Y-2.7077
X6.4173Y-3.8902
X6.4173Y-3.9331
X6.4193Y-4.6791
X6.4232Y-2.622
X6.4291Y-4.0394
X6.4297Y-4.5515
X6.4309Y-3.518
X6.437Y-4.1339
X6.437Y-4.3661
X6.4409Y-2.2008
X6.4422Y-3.72
X6.4449Y-2.063
X6.4469Y-4.6791
X6.4488Y-3.811
X6.4492Y-2.7441
X6.4492Y-2.787
X6.4492Y-2.8307
X6.45Y-3.4015
X6.4528Y-2.5787
X6.4537Y-3.2978
X6.4537Y-3.3478
X6.4567Y-1.8898
X6.4567Y-1.9173
X6.4606Y-3.5276
X6.4646Y-2.4941
X6.4685Y-2.685
X6.4685Y-3.7402
X6.4685Y-3.7795
X6.4724Y-3.5669
X6.4724Y-3.5945
X6.4741Y-2.9542
X6.4742Y-3.6439
X6.4764Y-3.2008
X6.4843Y-2.8858
X6.4843Y-3.1378
X6.4976Y-2.9803
X6.5039Y-3.3189
X6.5063Y-3.0984
X6.5063Y-3.275
X6.5394Y-1.9685
X6.5512Y-4.4567
X6.5512Y-4.4843
X6.5748Y-3.0276
X6.5866Y-1.9882
X6.5866Y-4.1614
X6.5906Y-2.4016
X6.5906Y-3.4961
X6.6063Y-3.0157
X6.6142Y-1.9882
X6.6142Y-4.1614
X6.6181Y-2.4016
X6.6181Y-2.9843
X6.6181Y-3.4961
X6.622Y-3.0472
X6.6457Y-2.9843
T3
X5.9094Y-1.9016
X5.9882Y-1.9016
X6.0669Y-1.9016
X6.2598Y-1.9016
X6.3386Y-1.9016
X6.4173Y-1.9016
X6.6024Y-1.8661
X6.6024Y-1.9449
X6.6024Y-2.2008
X6.6024Y-2.2795
X6.6024Y-2.3583
X6.6024Y-2.5512
X6.6024Y-2.6299
X6.6024Y-2.7087
X6.6024Y-2.7874
X6.6024Y-2.8661
X6.6024Y-2.9449
X6.6024Y-3.1378
X6.6024Y-3.2165
X6.6024Y-3.2953
X6.6024Y-3.374
X6.6024Y-3.4528
X6.6024Y-3.5315
X6.6024Y-3.6102
X6.6024Y-3.689
X6.6024Y-3.8819
X6.6024Y-3.9606
X6.6024Y-4.0394
X6.6024Y-4.1181
X6.6024Y-4.311
X6.6024Y-4.3898
X6.6024Y-4.4685
X6.6024Y-4.5472
X6.6024Y-4.626
T2
G00X5.0682Y-2.3182
M15
G01X5.0459Y-2.296
M16
G05
G00X5.1893Y-2.4393
M15
G01X5.1586Y-2.4087
M16
G05
G00X5.3087Y-2.0777
M15
G01X5.2864Y-2.0554
M16
G05
G00X5.4298Y-2.1988
M15
G01X5.3992Y-2.1682
M16
G05
M30
