%TF.GenerationSoftware,KiCad,Pcbnew,9.0.1*%
%TF.CreationDate,2025-09-04T21:15:37-04:00*%
%TF.ProjectId,resc,72657363-2e6b-4696-9361-645f70636258,rev?*%
%TF.SameCoordinates,Original*%
%TF.FileFunction,Paste,Top*%
%TF.FilePolarity,Positive*%
%FSLAX46Y46*%
G04 Gerber Fmt 4.6, Leading zero omitted, Abs format (unit mm)*
G04 Created by KiCad (PCBNEW 9.0.1) date 2025-09-04 21:15:37*
%MOMM*%
%LPD*%
G01*
G04 APERTURE LIST*
G04 Aperture macros list*
%AMRoundRect*
0 Rectangle with rounded corners*
0 $1 Rounding radius*
0 $2 $3 $4 $5 $6 $7 $8 $9 X,Y pos of 4 corners*
0 Add a 4 corners polygon primitive as box body*
4,1,4,$2,$3,$4,$5,$6,$7,$8,$9,$2,$3,0*
0 Add four circle primitives for the rounded corners*
1,1,$1+$1,$2,$3*
1,1,$1+$1,$4,$5*
1,1,$1+$1,$6,$7*
1,1,$1+$1,$8,$9*
0 Add four rect primitives between the rounded corners*
20,1,$1+$1,$2,$3,$4,$5,0*
20,1,$1+$1,$4,$5,$6,$7,0*
20,1,$1+$1,$6,$7,$8,$9,0*
20,1,$1+$1,$8,$9,$2,$3,0*%
%AMRotRect*
0 Rectangle, with rotation*
0 The origin of the aperture is its center*
0 $1 length*
0 $2 width*
0 $3 Rotation angle, in degrees counterclockwise*
0 Add horizontal line*
21,1,$1,$2,0,0,$3*%
G04 Aperture macros list end*
%ADD10C,0.010000*%
%ADD11C,0.000000*%
%ADD12RoundRect,0.135000X-0.185000X0.135000X-0.185000X-0.135000X0.185000X-0.135000X0.185000X0.135000X0*%
%ADD13RoundRect,0.250000X1.100000X-0.325000X1.100000X0.325000X-1.100000X0.325000X-1.100000X-0.325000X0*%
%ADD14RoundRect,0.135000X0.135000X0.185000X-0.135000X0.185000X-0.135000X-0.185000X0.135000X-0.185000X0*%
%ADD15RoundRect,0.140000X0.140000X0.170000X-0.140000X0.170000X-0.140000X-0.170000X0.140000X-0.170000X0*%
%ADD16RoundRect,0.250000X-0.250000X-0.250000X0.250000X-0.250000X0.250000X0.250000X-0.250000X0.250000X0*%
%ADD17RoundRect,0.150000X0.256326X0.468458X-0.468458X-0.256326X-0.256326X-0.468458X0.468458X0.256326X0*%
%ADD18R,0.675000X0.250000*%
%ADD19R,0.250000X0.675000*%
%ADD20RoundRect,0.218750X0.256250X-0.218750X0.256250X0.218750X-0.256250X0.218750X-0.256250X-0.218750X0*%
%ADD21RoundRect,0.135000X0.185000X-0.135000X0.185000X0.135000X-0.185000X0.135000X-0.185000X-0.135000X0*%
%ADD22RoundRect,0.140000X-0.021213X0.219203X-0.219203X0.021213X0.021213X-0.219203X0.219203X-0.021213X0*%
%ADD23RoundRect,0.225000X0.225000X0.250000X-0.225000X0.250000X-0.225000X-0.250000X0.225000X-0.250000X0*%
%ADD24RoundRect,0.140000X-0.219203X-0.021213X-0.021213X-0.219203X0.219203X0.021213X0.021213X0.219203X0*%
%ADD25RoundRect,0.140000X-0.140000X-0.170000X0.140000X-0.170000X0.140000X0.170000X-0.140000X0.170000X0*%
%ADD26RoundRect,0.135000X-0.135000X-0.185000X0.135000X-0.185000X0.135000X0.185000X-0.135000X0.185000X0*%
%ADD27RoundRect,0.031250X-0.093750X0.403750X-0.093750X-0.403750X0.093750X-0.403750X0.093750X0.403750X0*%
%ADD28RoundRect,0.031250X-0.403750X0.093750X-0.403750X-0.093750X0.403750X-0.093750X0.403750X0.093750X0*%
%ADD29RoundRect,0.140000X0.219203X0.021213X0.021213X0.219203X-0.219203X-0.021213X-0.021213X-0.219203X0*%
%ADD30R,1.400000X1.200000*%
%ADD31RoundRect,0.135000X-0.226274X-0.035355X-0.035355X-0.226274X0.226274X0.035355X0.035355X0.226274X0*%
%ADD32RoundRect,0.140000X-0.170000X0.140000X-0.170000X-0.140000X0.170000X-0.140000X0.170000X0.140000X0*%
%ADD33RotRect,0.810000X0.220000X135.000000*%
%ADD34RotRect,0.220000X0.810000X135.000000*%
%ADD35RoundRect,0.150000X0.150000X-0.587500X0.150000X0.587500X-0.150000X0.587500X-0.150000X-0.587500X0*%
%ADD36RoundRect,0.250000X0.000000X-0.353553X0.353553X0.000000X0.000000X0.353553X-0.353553X0.000000X0*%
%ADD37RotRect,0.900000X0.800000X45.000000*%
%ADD38RotRect,0.600000X1.240000X225.000000*%
%ADD39RotRect,0.300000X1.240000X225.000000*%
%ADD40R,1.473200X0.889000*%
%ADD41R,1.473200X3.149600*%
%ADD42RoundRect,0.150000X-0.825000X-0.150000X0.825000X-0.150000X0.825000X0.150000X-0.825000X0.150000X0*%
%ADD43RoundRect,0.075000X-0.075000X0.700000X-0.075000X-0.700000X0.075000X-0.700000X0.075000X0.700000X0*%
%ADD44RoundRect,0.075000X-0.700000X0.075000X-0.700000X-0.075000X0.700000X-0.075000X0.700000X0.075000X0*%
%ADD45RoundRect,0.147500X-0.017678X0.226274X-0.226274X0.017678X0.017678X-0.226274X0.226274X-0.017678X0*%
%ADD46R,0.914400X1.219200*%
%ADD47RoundRect,0.100000X0.000000X0.565685X-0.565685X0.000000X0.000000X-0.565685X0.565685X0.000000X0*%
%ADD48RoundRect,0.105000X-0.406586X1.000556X-1.000556X0.406586X0.406586X-1.000556X1.000556X-0.406586X0*%
G04 APERTURE END LIST*
D10*
%TO.C,Q2*%
X135269050Y-100467330D02*
X134375000Y-100467330D01*
X134375000Y-100005000D01*
X135269050Y-100005000D01*
X135269050Y-100467330D01*
G36*
X135269050Y-100467330D02*
G01*
X134375000Y-100467330D01*
X134375000Y-100005000D01*
X135269050Y-100005000D01*
X135269050Y-100467330D01*
G37*
X134983460Y-95212570D02*
X134485000Y-95212570D01*
X134485000Y-94465000D01*
X134983460Y-94465000D01*
X134983460Y-95212570D01*
G36*
X134983460Y-95212570D02*
G01*
X134485000Y-95212570D01*
X134485000Y-94465000D01*
X134983460Y-94465000D01*
X134983460Y-95212570D01*
G37*
X134927960Y-101018960D02*
X134535000Y-101018960D01*
X134535000Y-100655000D01*
X134927960Y-100655000D01*
X134927960Y-101018960D01*
G36*
X134927960Y-101018960D02*
G01*
X134535000Y-101018960D01*
X134535000Y-100655000D01*
X134927960Y-100655000D01*
X134927960Y-101018960D01*
G37*
X136539884Y-96993096D02*
X135040000Y-96993096D01*
X135040000Y-95495000D01*
X136539884Y-95495000D01*
X136539884Y-96993096D01*
G36*
X136539884Y-96993096D02*
G01*
X135040000Y-96993096D01*
X135040000Y-95495000D01*
X136539884Y-95495000D01*
X136539884Y-96993096D01*
G37*
X136539851Y-98698145D02*
X135040000Y-98698145D01*
X135040000Y-97195000D01*
X136539851Y-97195000D01*
X136539851Y-98698145D01*
G36*
X136539851Y-98698145D02*
G01*
X135040000Y-98698145D01*
X135040000Y-97195000D01*
X136539851Y-97195000D01*
X136539851Y-98698145D01*
G37*
X136374241Y-100464840D02*
X135475000Y-100464840D01*
X135475000Y-100005000D01*
X136374241Y-100005000D01*
X136374241Y-100464840D01*
G36*
X136374241Y-100464840D02*
G01*
X135475000Y-100464840D01*
X135475000Y-100005000D01*
X136374241Y-100005000D01*
X136374241Y-100464840D01*
G37*
X136253630Y-95204540D02*
X135755000Y-95204540D01*
X135755000Y-94465000D01*
X136253630Y-94465000D01*
X136253630Y-95204540D01*
G36*
X136253630Y-95204540D02*
G01*
X135755000Y-95204540D01*
X135755000Y-94465000D01*
X136253630Y-94465000D01*
X136253630Y-95204540D01*
G37*
X136204149Y-101012330D02*
X135805000Y-101012330D01*
X135805000Y-100655000D01*
X136204149Y-100655000D01*
X136204149Y-101012330D01*
G36*
X136204149Y-101012330D02*
G01*
X135805000Y-101012330D01*
X135805000Y-100655000D01*
X136204149Y-100655000D01*
X136204149Y-101012330D01*
G37*
X137476265Y-100458870D02*
X136575000Y-100458870D01*
X136575000Y-100005000D01*
X137476265Y-100005000D01*
X137476265Y-100458870D01*
G36*
X137476265Y-100458870D02*
G01*
X136575000Y-100458870D01*
X136575000Y-100005000D01*
X137476265Y-100005000D01*
X137476265Y-100458870D01*
G37*
X138246350Y-96992162D02*
X136740000Y-96992162D01*
X136740000Y-95495000D01*
X138246350Y-95495000D01*
X138246350Y-96992162D01*
G36*
X138246350Y-96992162D02*
G01*
X136740000Y-96992162D01*
X136740000Y-95495000D01*
X138246350Y-95495000D01*
X138246350Y-96992162D01*
G37*
X138247060Y-98699096D02*
X136740000Y-98699096D01*
X136740000Y-97195000D01*
X138247060Y-97195000D01*
X138247060Y-98699096D01*
G36*
X138247060Y-98699096D02*
G01*
X136740000Y-98699096D01*
X136740000Y-97195000D01*
X138247060Y-97195000D01*
X138247060Y-98699096D01*
G37*
X137528244Y-95206320D02*
X137025000Y-95206320D01*
X137025000Y-94465000D01*
X137528244Y-94465000D01*
X137528244Y-95206320D01*
G36*
X137528244Y-95206320D02*
G01*
X137025000Y-95206320D01*
X137025000Y-94465000D01*
X137528244Y-94465000D01*
X137528244Y-95206320D01*
G37*
X137477512Y-101014220D02*
X137075000Y-101014220D01*
X137075000Y-100655000D01*
X137477512Y-100655000D01*
X137477512Y-101014220D01*
G36*
X137477512Y-101014220D02*
G01*
X137075000Y-101014220D01*
X137075000Y-100655000D01*
X137477512Y-100655000D01*
X137477512Y-101014220D01*
G37*
X138797360Y-95212310D02*
X138295000Y-95212310D01*
X138295000Y-94465000D01*
X138797360Y-94465000D01*
X138797360Y-95212310D01*
G36*
X138797360Y-95212310D02*
G01*
X138295000Y-95212310D01*
X138295000Y-94465000D01*
X138797360Y-94465000D01*
X138797360Y-95212310D01*
G37*
X138747830Y-100458560D02*
X138345000Y-100458560D01*
X138345000Y-100005000D01*
X138747830Y-100005000D01*
X138747830Y-100458560D01*
G36*
X138747830Y-100458560D02*
G01*
X138345000Y-100458560D01*
X138345000Y-100005000D01*
X138747830Y-100005000D01*
X138747830Y-100458560D01*
G37*
X138751530Y-101014880D02*
X138345000Y-101014880D01*
X138345000Y-100655000D01*
X138751530Y-100655000D01*
X138751530Y-101014880D01*
G36*
X138751530Y-101014880D02*
G01*
X138345000Y-101014880D01*
X138345000Y-100655000D01*
X138751530Y-100655000D01*
X138751530Y-101014880D01*
G37*
%TO.C,Q6*%
X122594540Y-105065000D02*
X121855000Y-105065000D01*
X121855000Y-104566370D01*
X122594540Y-104566370D01*
X122594540Y-105065000D01*
G36*
X122594540Y-105065000D02*
G01*
X121855000Y-105065000D01*
X121855000Y-104566370D01*
X122594540Y-104566370D01*
X122594540Y-105065000D01*
G37*
X122596320Y-103795000D02*
X121855000Y-103795000D01*
X121855000Y-103291756D01*
X122596320Y-103291756D01*
X122596320Y-103795000D01*
G36*
X122596320Y-103795000D02*
G01*
X121855000Y-103795000D01*
X121855000Y-103291756D01*
X122596320Y-103291756D01*
X122596320Y-103795000D01*
G37*
X122602310Y-102525000D02*
X121855000Y-102525000D01*
X121855000Y-102022640D01*
X122602310Y-102022640D01*
X122602310Y-102525000D01*
G36*
X122602310Y-102525000D02*
G01*
X121855000Y-102525000D01*
X121855000Y-102022640D01*
X122602310Y-102022640D01*
X122602310Y-102525000D01*
G37*
X122602570Y-106335000D02*
X121855000Y-106335000D01*
X121855000Y-105836540D01*
X122602570Y-105836540D01*
X122602570Y-106335000D01*
G36*
X122602570Y-106335000D02*
G01*
X121855000Y-106335000D01*
X121855000Y-105836540D01*
X122602570Y-105836540D01*
X122602570Y-106335000D01*
G37*
X124382162Y-104080000D02*
X122885000Y-104080000D01*
X122885000Y-102573650D01*
X124382162Y-102573650D01*
X124382162Y-104080000D01*
G36*
X124382162Y-104080000D02*
G01*
X122885000Y-104080000D01*
X122885000Y-102573650D01*
X124382162Y-102573650D01*
X124382162Y-104080000D01*
G37*
X124383096Y-105780000D02*
X122885000Y-105780000D01*
X122885000Y-104280116D01*
X124383096Y-104280116D01*
X124383096Y-105780000D01*
G36*
X124383096Y-105780000D02*
G01*
X122885000Y-105780000D01*
X122885000Y-104280116D01*
X124383096Y-104280116D01*
X124383096Y-105780000D01*
G37*
X126088145Y-105780000D02*
X124585000Y-105780000D01*
X124585000Y-104280149D01*
X126088145Y-104280149D01*
X126088145Y-105780000D01*
G36*
X126088145Y-105780000D02*
G01*
X124585000Y-105780000D01*
X124585000Y-104280149D01*
X126088145Y-104280149D01*
X126088145Y-105780000D01*
G37*
X126089096Y-104080000D02*
X124585000Y-104080000D01*
X124585000Y-102572940D01*
X126089096Y-102572940D01*
X126089096Y-104080000D01*
G36*
X126089096Y-104080000D02*
G01*
X124585000Y-104080000D01*
X124585000Y-102572940D01*
X126089096Y-102572940D01*
X126089096Y-104080000D01*
G37*
X127848560Y-102475000D02*
X127395000Y-102475000D01*
X127395000Y-102072170D01*
X127848560Y-102072170D01*
X127848560Y-102475000D01*
G36*
X127848560Y-102475000D02*
G01*
X127395000Y-102475000D01*
X127395000Y-102072170D01*
X127848560Y-102072170D01*
X127848560Y-102475000D01*
G37*
X127848870Y-104245000D02*
X127395000Y-104245000D01*
X127395000Y-103343735D01*
X127848870Y-103343735D01*
X127848870Y-104245000D01*
G36*
X127848870Y-104245000D02*
G01*
X127395000Y-104245000D01*
X127395000Y-103343735D01*
X127848870Y-103343735D01*
X127848870Y-104245000D01*
G37*
X127854840Y-105345000D02*
X127395000Y-105345000D01*
X127395000Y-104445759D01*
X127854840Y-104445759D01*
X127854840Y-105345000D01*
G36*
X127854840Y-105345000D02*
G01*
X127395000Y-105345000D01*
X127395000Y-104445759D01*
X127854840Y-104445759D01*
X127854840Y-105345000D01*
G37*
X127857330Y-106445000D02*
X127395000Y-106445000D01*
X127395000Y-105550950D01*
X127857330Y-105550950D01*
X127857330Y-106445000D01*
G36*
X127857330Y-106445000D02*
G01*
X127395000Y-106445000D01*
X127395000Y-105550950D01*
X127857330Y-105550950D01*
X127857330Y-106445000D01*
G37*
X128402330Y-105015000D02*
X128045000Y-105015000D01*
X128045000Y-104615851D01*
X128402330Y-104615851D01*
X128402330Y-105015000D01*
G36*
X128402330Y-105015000D02*
G01*
X128045000Y-105015000D01*
X128045000Y-104615851D01*
X128402330Y-104615851D01*
X128402330Y-105015000D01*
G37*
X128404220Y-103745000D02*
X128045000Y-103745000D01*
X128045000Y-103342488D01*
X128404220Y-103342488D01*
X128404220Y-103745000D01*
G36*
X128404220Y-103745000D02*
G01*
X128045000Y-103745000D01*
X128045000Y-103342488D01*
X128404220Y-103342488D01*
X128404220Y-103745000D01*
G37*
X128404880Y-102475000D02*
X128045000Y-102475000D01*
X128045000Y-102068470D01*
X128404880Y-102068470D01*
X128404880Y-102475000D01*
G36*
X128404880Y-102475000D02*
G01*
X128045000Y-102475000D01*
X128045000Y-102068470D01*
X128404880Y-102068470D01*
X128404880Y-102475000D01*
G37*
X128408960Y-106285000D02*
X128045000Y-106285000D01*
X128045000Y-105892040D01*
X128408960Y-105892040D01*
X128408960Y-106285000D01*
G36*
X128408960Y-106285000D02*
G01*
X128045000Y-106285000D01*
X128045000Y-105892040D01*
X128408960Y-105892040D01*
X128408960Y-106285000D01*
G37*
%TO.C,Q1*%
X147269050Y-100467330D02*
X146375000Y-100467330D01*
X146375000Y-100005000D01*
X147269050Y-100005000D01*
X147269050Y-100467330D01*
G36*
X147269050Y-100467330D02*
G01*
X146375000Y-100467330D01*
X146375000Y-100005000D01*
X147269050Y-100005000D01*
X147269050Y-100467330D01*
G37*
X146983460Y-95212570D02*
X146485000Y-95212570D01*
X146485000Y-94465000D01*
X146983460Y-94465000D01*
X146983460Y-95212570D01*
G36*
X146983460Y-95212570D02*
G01*
X146485000Y-95212570D01*
X146485000Y-94465000D01*
X146983460Y-94465000D01*
X146983460Y-95212570D01*
G37*
X146927960Y-101018960D02*
X146535000Y-101018960D01*
X146535000Y-100655000D01*
X146927960Y-100655000D01*
X146927960Y-101018960D01*
G36*
X146927960Y-101018960D02*
G01*
X146535000Y-101018960D01*
X146535000Y-100655000D01*
X146927960Y-100655000D01*
X146927960Y-101018960D01*
G37*
X148539884Y-96993096D02*
X147040000Y-96993096D01*
X147040000Y-95495000D01*
X148539884Y-95495000D01*
X148539884Y-96993096D01*
G36*
X148539884Y-96993096D02*
G01*
X147040000Y-96993096D01*
X147040000Y-95495000D01*
X148539884Y-95495000D01*
X148539884Y-96993096D01*
G37*
X148539851Y-98698145D02*
X147040000Y-98698145D01*
X147040000Y-97195000D01*
X148539851Y-97195000D01*
X148539851Y-98698145D01*
G36*
X148539851Y-98698145D02*
G01*
X147040000Y-98698145D01*
X147040000Y-97195000D01*
X148539851Y-97195000D01*
X148539851Y-98698145D01*
G37*
X148374241Y-100464840D02*
X147475000Y-100464840D01*
X147475000Y-100005000D01*
X148374241Y-100005000D01*
X148374241Y-100464840D01*
G36*
X148374241Y-100464840D02*
G01*
X147475000Y-100464840D01*
X147475000Y-100005000D01*
X148374241Y-100005000D01*
X148374241Y-100464840D01*
G37*
X148253630Y-95204540D02*
X147755000Y-95204540D01*
X147755000Y-94465000D01*
X148253630Y-94465000D01*
X148253630Y-95204540D01*
G36*
X148253630Y-95204540D02*
G01*
X147755000Y-95204540D01*
X147755000Y-94465000D01*
X148253630Y-94465000D01*
X148253630Y-95204540D01*
G37*
X148204149Y-101012330D02*
X147805000Y-101012330D01*
X147805000Y-100655000D01*
X148204149Y-100655000D01*
X148204149Y-101012330D01*
G36*
X148204149Y-101012330D02*
G01*
X147805000Y-101012330D01*
X147805000Y-100655000D01*
X148204149Y-100655000D01*
X148204149Y-101012330D01*
G37*
X149476265Y-100458870D02*
X148575000Y-100458870D01*
X148575000Y-100005000D01*
X149476265Y-100005000D01*
X149476265Y-100458870D01*
G36*
X149476265Y-100458870D02*
G01*
X148575000Y-100458870D01*
X148575000Y-100005000D01*
X149476265Y-100005000D01*
X149476265Y-100458870D01*
G37*
X150246350Y-96992162D02*
X148740000Y-96992162D01*
X148740000Y-95495000D01*
X150246350Y-95495000D01*
X150246350Y-96992162D01*
G36*
X150246350Y-96992162D02*
G01*
X148740000Y-96992162D01*
X148740000Y-95495000D01*
X150246350Y-95495000D01*
X150246350Y-96992162D01*
G37*
X150247060Y-98699096D02*
X148740000Y-98699096D01*
X148740000Y-97195000D01*
X150247060Y-97195000D01*
X150247060Y-98699096D01*
G36*
X150247060Y-98699096D02*
G01*
X148740000Y-98699096D01*
X148740000Y-97195000D01*
X150247060Y-97195000D01*
X150247060Y-98699096D01*
G37*
X149528244Y-95206320D02*
X149025000Y-95206320D01*
X149025000Y-94465000D01*
X149528244Y-94465000D01*
X149528244Y-95206320D01*
G36*
X149528244Y-95206320D02*
G01*
X149025000Y-95206320D01*
X149025000Y-94465000D01*
X149528244Y-94465000D01*
X149528244Y-95206320D01*
G37*
X149477512Y-101014220D02*
X149075000Y-101014220D01*
X149075000Y-100655000D01*
X149477512Y-100655000D01*
X149477512Y-101014220D01*
G36*
X149477512Y-101014220D02*
G01*
X149075000Y-101014220D01*
X149075000Y-100655000D01*
X149477512Y-100655000D01*
X149477512Y-101014220D01*
G37*
X150797360Y-95212310D02*
X150295000Y-95212310D01*
X150295000Y-94465000D01*
X150797360Y-94465000D01*
X150797360Y-95212310D01*
G36*
X150797360Y-95212310D02*
G01*
X150295000Y-95212310D01*
X150295000Y-94465000D01*
X150797360Y-94465000D01*
X150797360Y-95212310D01*
G37*
X150747830Y-100458560D02*
X150345000Y-100458560D01*
X150345000Y-100005000D01*
X150747830Y-100005000D01*
X150747830Y-100458560D01*
G36*
X150747830Y-100458560D02*
G01*
X150345000Y-100458560D01*
X150345000Y-100005000D01*
X150747830Y-100005000D01*
X150747830Y-100458560D01*
G37*
X150751530Y-101014880D02*
X150345000Y-101014880D01*
X150345000Y-100655000D01*
X150751530Y-100655000D01*
X150751530Y-101014880D01*
G36*
X150751530Y-101014880D02*
G01*
X150345000Y-101014880D01*
X150345000Y-100655000D01*
X150751530Y-100655000D01*
X150751530Y-101014880D01*
G37*
%TO.C,U4*%
X158920000Y-93020000D02*
X157280000Y-93020000D01*
X157280000Y-91380000D01*
X158920000Y-91380000D01*
X158920000Y-93020000D01*
G36*
X158920000Y-93020000D02*
G01*
X157280000Y-93020000D01*
X157280000Y-91380000D01*
X158920000Y-91380000D01*
X158920000Y-93020000D01*
G37*
X158920000Y-95620000D02*
X157280000Y-95620000D01*
X157280000Y-93980000D01*
X158920000Y-93980000D01*
X158920000Y-95620000D01*
G36*
X158920000Y-95620000D02*
G01*
X157280000Y-95620000D01*
X157280000Y-93980000D01*
X158920000Y-93980000D01*
X158920000Y-95620000D01*
G37*
X161520000Y-93020000D02*
X159880000Y-93020000D01*
X159880000Y-91380000D01*
X161520000Y-91380000D01*
X161520000Y-93020000D01*
G36*
X161520000Y-93020000D02*
G01*
X159880000Y-93020000D01*
X159880000Y-91380000D01*
X161520000Y-91380000D01*
X161520000Y-93020000D01*
G37*
X161520000Y-95620000D02*
X159880000Y-95620000D01*
X159880000Y-93980000D01*
X161520000Y-93980000D01*
X161520000Y-95620000D01*
G36*
X161520000Y-95620000D02*
G01*
X159880000Y-95620000D01*
X159880000Y-93980000D01*
X161520000Y-93980000D01*
X161520000Y-95620000D01*
G37*
%TO.C,Q4*%
X143905000Y-102577960D02*
X143541040Y-102577960D01*
X143541040Y-102185000D01*
X143905000Y-102185000D01*
X143905000Y-102577960D01*
G36*
X143905000Y-102577960D02*
G01*
X143541040Y-102577960D01*
X143541040Y-102185000D01*
X143905000Y-102185000D01*
X143905000Y-102577960D01*
G37*
X143905000Y-106401530D02*
X143545120Y-106401530D01*
X143545120Y-105995000D01*
X143905000Y-105995000D01*
X143905000Y-106401530D01*
G36*
X143905000Y-106401530D02*
G01*
X143545120Y-106401530D01*
X143545120Y-105995000D01*
X143905000Y-105995000D01*
X143905000Y-106401530D01*
G37*
X143905000Y-105127512D02*
X143545780Y-105127512D01*
X143545780Y-104725000D01*
X143905000Y-104725000D01*
X143905000Y-105127512D01*
G36*
X143905000Y-105127512D02*
G01*
X143545780Y-105127512D01*
X143545780Y-104725000D01*
X143905000Y-104725000D01*
X143905000Y-105127512D01*
G37*
X143905000Y-103854149D02*
X143547670Y-103854149D01*
X143547670Y-103455000D01*
X143905000Y-103455000D01*
X143905000Y-103854149D01*
G36*
X143905000Y-103854149D02*
G01*
X143547670Y-103854149D01*
X143547670Y-103455000D01*
X143905000Y-103455000D01*
X143905000Y-103854149D01*
G37*
X144555000Y-102919050D02*
X144092670Y-102919050D01*
X144092670Y-102025000D01*
X144555000Y-102025000D01*
X144555000Y-102919050D01*
G36*
X144555000Y-102919050D02*
G01*
X144092670Y-102919050D01*
X144092670Y-102025000D01*
X144555000Y-102025000D01*
X144555000Y-102919050D01*
G37*
X144555000Y-104024241D02*
X144095160Y-104024241D01*
X144095160Y-103125000D01*
X144555000Y-103125000D01*
X144555000Y-104024241D01*
G36*
X144555000Y-104024241D02*
G01*
X144095160Y-104024241D01*
X144095160Y-103125000D01*
X144555000Y-103125000D01*
X144555000Y-104024241D01*
G37*
X144555000Y-105126265D02*
X144101130Y-105126265D01*
X144101130Y-104225000D01*
X144555000Y-104225000D01*
X144555000Y-105126265D01*
G36*
X144555000Y-105126265D02*
G01*
X144101130Y-105126265D01*
X144101130Y-104225000D01*
X144555000Y-104225000D01*
X144555000Y-105126265D01*
G37*
X144555000Y-106397830D02*
X144101440Y-106397830D01*
X144101440Y-105995000D01*
X144555000Y-105995000D01*
X144555000Y-106397830D01*
G36*
X144555000Y-106397830D02*
G01*
X144101440Y-106397830D01*
X144101440Y-105995000D01*
X144555000Y-105995000D01*
X144555000Y-106397830D01*
G37*
X147365000Y-105897060D02*
X145860904Y-105897060D01*
X145860904Y-104390000D01*
X147365000Y-104390000D01*
X147365000Y-105897060D01*
G36*
X147365000Y-105897060D02*
G01*
X145860904Y-105897060D01*
X145860904Y-104390000D01*
X147365000Y-104390000D01*
X147365000Y-105897060D01*
G37*
X147365000Y-104189851D02*
X145861855Y-104189851D01*
X145861855Y-102690000D01*
X147365000Y-102690000D01*
X147365000Y-104189851D01*
G36*
X147365000Y-104189851D02*
G01*
X145861855Y-104189851D01*
X145861855Y-102690000D01*
X147365000Y-102690000D01*
X147365000Y-104189851D01*
G37*
X149065000Y-104189884D02*
X147566904Y-104189884D01*
X147566904Y-102690000D01*
X149065000Y-102690000D01*
X149065000Y-104189884D01*
G36*
X149065000Y-104189884D02*
G01*
X147566904Y-104189884D01*
X147566904Y-102690000D01*
X149065000Y-102690000D01*
X149065000Y-104189884D01*
G37*
X149065000Y-105896350D02*
X147567838Y-105896350D01*
X147567838Y-104390000D01*
X149065000Y-104390000D01*
X149065000Y-105896350D01*
G36*
X149065000Y-105896350D02*
G01*
X147567838Y-105896350D01*
X147567838Y-104390000D01*
X149065000Y-104390000D01*
X149065000Y-105896350D01*
G37*
X150095000Y-102633460D02*
X149347430Y-102633460D01*
X149347430Y-102135000D01*
X150095000Y-102135000D01*
X150095000Y-102633460D01*
G36*
X150095000Y-102633460D02*
G01*
X149347430Y-102633460D01*
X149347430Y-102135000D01*
X150095000Y-102135000D01*
X150095000Y-102633460D01*
G37*
X150095000Y-106447360D02*
X149347690Y-106447360D01*
X149347690Y-105945000D01*
X150095000Y-105945000D01*
X150095000Y-106447360D01*
G36*
X150095000Y-106447360D02*
G01*
X149347690Y-106447360D01*
X149347690Y-105945000D01*
X150095000Y-105945000D01*
X150095000Y-106447360D01*
G37*
X150095000Y-105178244D02*
X149353680Y-105178244D01*
X149353680Y-104675000D01*
X150095000Y-104675000D01*
X150095000Y-105178244D01*
G36*
X150095000Y-105178244D02*
G01*
X149353680Y-105178244D01*
X149353680Y-104675000D01*
X150095000Y-104675000D01*
X150095000Y-105178244D01*
G37*
X150095000Y-103903630D02*
X149355460Y-103903630D01*
X149355460Y-103405000D01*
X150095000Y-103405000D01*
X150095000Y-103903630D01*
G36*
X150095000Y-103903630D02*
G01*
X149355460Y-103903630D01*
X149355460Y-103405000D01*
X150095000Y-103405000D01*
X150095000Y-103903630D01*
G37*
%TO.C,Q5*%
X134394540Y-105065000D02*
X133655000Y-105065000D01*
X133655000Y-104566370D01*
X134394540Y-104566370D01*
X134394540Y-105065000D01*
G36*
X134394540Y-105065000D02*
G01*
X133655000Y-105065000D01*
X133655000Y-104566370D01*
X134394540Y-104566370D01*
X134394540Y-105065000D01*
G37*
X134396320Y-103795000D02*
X133655000Y-103795000D01*
X133655000Y-103291756D01*
X134396320Y-103291756D01*
X134396320Y-103795000D01*
G36*
X134396320Y-103795000D02*
G01*
X133655000Y-103795000D01*
X133655000Y-103291756D01*
X134396320Y-103291756D01*
X134396320Y-103795000D01*
G37*
X134402310Y-102525000D02*
X133655000Y-102525000D01*
X133655000Y-102022640D01*
X134402310Y-102022640D01*
X134402310Y-102525000D01*
G36*
X134402310Y-102525000D02*
G01*
X133655000Y-102525000D01*
X133655000Y-102022640D01*
X134402310Y-102022640D01*
X134402310Y-102525000D01*
G37*
X134402570Y-106335000D02*
X133655000Y-106335000D01*
X133655000Y-105836540D01*
X134402570Y-105836540D01*
X134402570Y-106335000D01*
G36*
X134402570Y-106335000D02*
G01*
X133655000Y-106335000D01*
X133655000Y-105836540D01*
X134402570Y-105836540D01*
X134402570Y-106335000D01*
G37*
X136182162Y-104080000D02*
X134685000Y-104080000D01*
X134685000Y-102573650D01*
X136182162Y-102573650D01*
X136182162Y-104080000D01*
G36*
X136182162Y-104080000D02*
G01*
X134685000Y-104080000D01*
X134685000Y-102573650D01*
X136182162Y-102573650D01*
X136182162Y-104080000D01*
G37*
X136183096Y-105780000D02*
X134685000Y-105780000D01*
X134685000Y-104280116D01*
X136183096Y-104280116D01*
X136183096Y-105780000D01*
G36*
X136183096Y-105780000D02*
G01*
X134685000Y-105780000D01*
X134685000Y-104280116D01*
X136183096Y-104280116D01*
X136183096Y-105780000D01*
G37*
X137888145Y-105780000D02*
X136385000Y-105780000D01*
X136385000Y-104280149D01*
X137888145Y-104280149D01*
X137888145Y-105780000D01*
G36*
X137888145Y-105780000D02*
G01*
X136385000Y-105780000D01*
X136385000Y-104280149D01*
X137888145Y-104280149D01*
X137888145Y-105780000D01*
G37*
X137889096Y-104080000D02*
X136385000Y-104080000D01*
X136385000Y-102572940D01*
X137889096Y-102572940D01*
X137889096Y-104080000D01*
G36*
X137889096Y-104080000D02*
G01*
X136385000Y-104080000D01*
X136385000Y-102572940D01*
X137889096Y-102572940D01*
X137889096Y-104080000D01*
G37*
X139648560Y-102475000D02*
X139195000Y-102475000D01*
X139195000Y-102072170D01*
X139648560Y-102072170D01*
X139648560Y-102475000D01*
G36*
X139648560Y-102475000D02*
G01*
X139195000Y-102475000D01*
X139195000Y-102072170D01*
X139648560Y-102072170D01*
X139648560Y-102475000D01*
G37*
X139648870Y-104245000D02*
X139195000Y-104245000D01*
X139195000Y-103343735D01*
X139648870Y-103343735D01*
X139648870Y-104245000D01*
G36*
X139648870Y-104245000D02*
G01*
X139195000Y-104245000D01*
X139195000Y-103343735D01*
X139648870Y-103343735D01*
X139648870Y-104245000D01*
G37*
X139654840Y-105345000D02*
X139195000Y-105345000D01*
X139195000Y-104445759D01*
X139654840Y-104445759D01*
X139654840Y-105345000D01*
G36*
X139654840Y-105345000D02*
G01*
X139195000Y-105345000D01*
X139195000Y-104445759D01*
X139654840Y-104445759D01*
X139654840Y-105345000D01*
G37*
X139657330Y-106445000D02*
X139195000Y-106445000D01*
X139195000Y-105550950D01*
X139657330Y-105550950D01*
X139657330Y-106445000D01*
G36*
X139657330Y-106445000D02*
G01*
X139195000Y-106445000D01*
X139195000Y-105550950D01*
X139657330Y-105550950D01*
X139657330Y-106445000D01*
G37*
X140202330Y-105015000D02*
X139845000Y-105015000D01*
X139845000Y-104615851D01*
X140202330Y-104615851D01*
X140202330Y-105015000D01*
G36*
X140202330Y-105015000D02*
G01*
X139845000Y-105015000D01*
X139845000Y-104615851D01*
X140202330Y-104615851D01*
X140202330Y-105015000D01*
G37*
X140204220Y-103745000D02*
X139845000Y-103745000D01*
X139845000Y-103342488D01*
X140204220Y-103342488D01*
X140204220Y-103745000D01*
G36*
X140204220Y-103745000D02*
G01*
X139845000Y-103745000D01*
X139845000Y-103342488D01*
X140204220Y-103342488D01*
X140204220Y-103745000D01*
G37*
X140204880Y-102475000D02*
X139845000Y-102475000D01*
X139845000Y-102068470D01*
X140204880Y-102068470D01*
X140204880Y-102475000D01*
G36*
X140204880Y-102475000D02*
G01*
X139845000Y-102475000D01*
X139845000Y-102068470D01*
X140204880Y-102068470D01*
X140204880Y-102475000D01*
G37*
X140208960Y-106285000D02*
X139845000Y-106285000D01*
X139845000Y-105892040D01*
X140208960Y-105892040D01*
X140208960Y-106285000D01*
G36*
X140208960Y-106285000D02*
G01*
X139845000Y-106285000D01*
X139845000Y-105892040D01*
X140208960Y-105892040D01*
X140208960Y-106285000D01*
G37*
%TO.C,U16*%
X144876238Y-55600000D02*
X143723654Y-56752584D01*
X142571070Y-55600000D01*
X143723654Y-54447416D01*
X144876238Y-55600000D01*
G36*
X144876238Y-55600000D02*
G01*
X143723654Y-56752584D01*
X142571070Y-55600000D01*
X143723654Y-54447416D01*
X144876238Y-55600000D01*
G37*
X146502584Y-53973654D02*
X145350000Y-55126238D01*
X144197416Y-53973654D01*
X145350000Y-52821070D01*
X146502584Y-53973654D01*
G36*
X146502584Y-53973654D02*
G01*
X145350000Y-55126238D01*
X144197416Y-53973654D01*
X145350000Y-52821070D01*
X146502584Y-53973654D01*
G37*
X146502584Y-57226346D02*
X145350000Y-58378930D01*
X144197416Y-57226346D01*
X145350000Y-56073762D01*
X146502584Y-57226346D01*
G36*
X146502584Y-57226346D02*
G01*
X145350000Y-58378930D01*
X144197416Y-57226346D01*
X145350000Y-56073762D01*
X146502584Y-57226346D01*
G37*
X148128930Y-55600000D02*
X146976346Y-56752584D01*
X145823762Y-55600000D01*
X146976346Y-54447416D01*
X148128930Y-55600000D01*
G36*
X148128930Y-55600000D02*
G01*
X146976346Y-56752584D01*
X145823762Y-55600000D01*
X146976346Y-54447416D01*
X148128930Y-55600000D01*
G37*
%TO.C,Q3*%
X123409050Y-100467330D02*
X122515000Y-100467330D01*
X122515000Y-100005000D01*
X123409050Y-100005000D01*
X123409050Y-100467330D01*
G36*
X123409050Y-100467330D02*
G01*
X122515000Y-100467330D01*
X122515000Y-100005000D01*
X123409050Y-100005000D01*
X123409050Y-100467330D01*
G37*
X123123460Y-95212570D02*
X122625000Y-95212570D01*
X122625000Y-94465000D01*
X123123460Y-94465000D01*
X123123460Y-95212570D01*
G36*
X123123460Y-95212570D02*
G01*
X122625000Y-95212570D01*
X122625000Y-94465000D01*
X123123460Y-94465000D01*
X123123460Y-95212570D01*
G37*
X123067960Y-101018960D02*
X122675000Y-101018960D01*
X122675000Y-100655000D01*
X123067960Y-100655000D01*
X123067960Y-101018960D01*
G36*
X123067960Y-101018960D02*
G01*
X122675000Y-101018960D01*
X122675000Y-100655000D01*
X123067960Y-100655000D01*
X123067960Y-101018960D01*
G37*
X124679884Y-96993096D02*
X123180000Y-96993096D01*
X123180000Y-95495000D01*
X124679884Y-95495000D01*
X124679884Y-96993096D01*
G36*
X124679884Y-96993096D02*
G01*
X123180000Y-96993096D01*
X123180000Y-95495000D01*
X124679884Y-95495000D01*
X124679884Y-96993096D01*
G37*
X124679851Y-98698145D02*
X123180000Y-98698145D01*
X123180000Y-97195000D01*
X124679851Y-97195000D01*
X124679851Y-98698145D01*
G36*
X124679851Y-98698145D02*
G01*
X123180000Y-98698145D01*
X123180000Y-97195000D01*
X124679851Y-97195000D01*
X124679851Y-98698145D01*
G37*
X124514241Y-100464840D02*
X123615000Y-100464840D01*
X123615000Y-100005000D01*
X124514241Y-100005000D01*
X124514241Y-100464840D01*
G36*
X124514241Y-100464840D02*
G01*
X123615000Y-100464840D01*
X123615000Y-100005000D01*
X124514241Y-100005000D01*
X124514241Y-100464840D01*
G37*
X124393630Y-95204540D02*
X123895000Y-95204540D01*
X123895000Y-94465000D01*
X124393630Y-94465000D01*
X124393630Y-95204540D01*
G36*
X124393630Y-95204540D02*
G01*
X123895000Y-95204540D01*
X123895000Y-94465000D01*
X124393630Y-94465000D01*
X124393630Y-95204540D01*
G37*
X124344149Y-101012330D02*
X123945000Y-101012330D01*
X123945000Y-100655000D01*
X124344149Y-100655000D01*
X124344149Y-101012330D01*
G36*
X124344149Y-101012330D02*
G01*
X123945000Y-101012330D01*
X123945000Y-100655000D01*
X124344149Y-100655000D01*
X124344149Y-101012330D01*
G37*
X125616265Y-100458870D02*
X124715000Y-100458870D01*
X124715000Y-100005000D01*
X125616265Y-100005000D01*
X125616265Y-100458870D01*
G36*
X125616265Y-100458870D02*
G01*
X124715000Y-100458870D01*
X124715000Y-100005000D01*
X125616265Y-100005000D01*
X125616265Y-100458870D01*
G37*
X126386350Y-96992162D02*
X124880000Y-96992162D01*
X124880000Y-95495000D01*
X126386350Y-95495000D01*
X126386350Y-96992162D01*
G36*
X126386350Y-96992162D02*
G01*
X124880000Y-96992162D01*
X124880000Y-95495000D01*
X126386350Y-95495000D01*
X126386350Y-96992162D01*
G37*
X126387060Y-98699096D02*
X124880000Y-98699096D01*
X124880000Y-97195000D01*
X126387060Y-97195000D01*
X126387060Y-98699096D01*
G36*
X126387060Y-98699096D02*
G01*
X124880000Y-98699096D01*
X124880000Y-97195000D01*
X126387060Y-97195000D01*
X126387060Y-98699096D01*
G37*
X125668244Y-95206320D02*
X125165000Y-95206320D01*
X125165000Y-94465000D01*
X125668244Y-94465000D01*
X125668244Y-95206320D01*
G36*
X125668244Y-95206320D02*
G01*
X125165000Y-95206320D01*
X125165000Y-94465000D01*
X125668244Y-94465000D01*
X125668244Y-95206320D01*
G37*
X125617512Y-101014220D02*
X125215000Y-101014220D01*
X125215000Y-100655000D01*
X125617512Y-100655000D01*
X125617512Y-101014220D01*
G36*
X125617512Y-101014220D02*
G01*
X125215000Y-101014220D01*
X125215000Y-100655000D01*
X125617512Y-100655000D01*
X125617512Y-101014220D01*
G37*
X126937360Y-95212310D02*
X126435000Y-95212310D01*
X126435000Y-94465000D01*
X126937360Y-94465000D01*
X126937360Y-95212310D01*
G36*
X126937360Y-95212310D02*
G01*
X126435000Y-95212310D01*
X126435000Y-94465000D01*
X126937360Y-94465000D01*
X126937360Y-95212310D01*
G37*
X126887830Y-100458560D02*
X126485000Y-100458560D01*
X126485000Y-100005000D01*
X126887830Y-100005000D01*
X126887830Y-100458560D01*
G36*
X126887830Y-100458560D02*
G01*
X126485000Y-100458560D01*
X126485000Y-100005000D01*
X126887830Y-100005000D01*
X126887830Y-100458560D01*
G37*
X126891530Y-101014880D02*
X126485000Y-101014880D01*
X126485000Y-100655000D01*
X126891530Y-100655000D01*
X126891530Y-101014880D01*
G36*
X126891530Y-101014880D02*
G01*
X126485000Y-101014880D01*
X126485000Y-100655000D01*
X126891530Y-100655000D01*
X126891530Y-101014880D01*
G37*
D11*
%TO.C,U14*%
G36*
X157898600Y-56274800D02*
G01*
X156425400Y-56274800D01*
X156425400Y-53125200D01*
X157898600Y-53125200D01*
X157898600Y-56274800D01*
G37*
%TD*%
D12*
%TO.C,R25*%
X156900000Y-84300000D03*
X156900000Y-85320000D03*
%TD*%
D13*
%TO.C,C43*%
X128250000Y-90300000D03*
X128250000Y-87350000D03*
%TD*%
D14*
%TO.C,R3*%
X163810000Y-70790000D03*
X162790000Y-70790000D03*
%TD*%
D15*
%TO.C,C3*%
X161200000Y-100600000D03*
X160240000Y-100600000D03*
%TD*%
D16*
%TO.C,D6*%
X160550000Y-111500000D03*
X163050000Y-111500000D03*
%TD*%
D15*
%TO.C,C25*%
X154280000Y-93600000D03*
X153320000Y-93600000D03*
%TD*%
D17*
%TO.C,U15*%
X138800000Y-61550000D03*
X138128249Y-60878249D03*
X137456498Y-60206498D03*
X135847830Y-61815166D03*
X136519581Y-62486917D03*
X137191332Y-63158668D03*
%TD*%
D13*
%TO.C,C41*%
X124850000Y-90300000D03*
X124850000Y-87350000D03*
%TD*%
D14*
%TO.C,R21*%
X156710000Y-86700000D03*
X155690000Y-86700000D03*
%TD*%
D12*
%TO.C,R44*%
X139500000Y-74100000D03*
X139500000Y-75120000D03*
%TD*%
D14*
%TO.C,R16*%
X161210000Y-104000000D03*
X160190000Y-104000000D03*
%TD*%
D18*
%TO.C,U7*%
X129377881Y-66997487D03*
X129377881Y-67497487D03*
X129377881Y-67997487D03*
X129377881Y-68497487D03*
D19*
X130140381Y-68759987D03*
X130640381Y-68759988D03*
X131140381Y-68759987D03*
D18*
X131902881Y-68497487D03*
X131902881Y-67997487D03*
X131902881Y-67497487D03*
X131902881Y-66997487D03*
D19*
X131140381Y-66734987D03*
X130640381Y-66734986D03*
X130140381Y-66734987D03*
%TD*%
D15*
%TO.C,C36*%
X130180000Y-70100000D03*
X129220000Y-70100000D03*
%TD*%
%TO.C,C19*%
X154260000Y-96900000D03*
X153300000Y-96900000D03*
%TD*%
D14*
%TO.C,R50*%
X156900000Y-79800000D03*
X155880000Y-79800000D03*
%TD*%
D20*
%TO.C,D2*%
X141000000Y-75950000D03*
X141000000Y-74375000D03*
%TD*%
D21*
%TO.C,R43*%
X137500000Y-71820000D03*
X137500000Y-70800000D03*
%TD*%
D13*
%TO.C,C42*%
X149450000Y-90300000D03*
X149450000Y-87350000D03*
%TD*%
D22*
%TO.C,C62*%
X139800000Y-58050000D03*
X139121178Y-58728822D03*
%TD*%
D23*
%TO.C,C21*%
X154000000Y-91200000D03*
X152450000Y-91200000D03*
%TD*%
D14*
%TO.C,R10*%
X161220000Y-101600000D03*
X160200000Y-101600000D03*
%TD*%
D15*
%TO.C,C12*%
X154360000Y-55400000D03*
X153400000Y-55400000D03*
%TD*%
D24*
%TO.C,C59*%
X139921178Y-56621178D03*
X140600000Y-57300000D03*
%TD*%
D25*
%TO.C,C4*%
X162520000Y-104000000D03*
X163480000Y-104000000D03*
%TD*%
D26*
%TO.C,TH1*%
X141380000Y-101610000D03*
X142400000Y-101610000D03*
%TD*%
D27*
%TO.C,U4*%
X162150000Y-90080000D03*
X161650000Y-90080000D03*
X161150000Y-90080000D03*
X160650000Y-90080000D03*
X160150000Y-90080000D03*
X159650000Y-90080000D03*
X159150000Y-90080000D03*
X158650000Y-90080000D03*
X158150000Y-90080000D03*
X157650000Y-90080000D03*
X157150000Y-90080000D03*
X156650000Y-90080000D03*
D28*
X155980000Y-90750000D03*
X155980000Y-91250000D03*
X155980000Y-91750000D03*
X155980000Y-92250000D03*
X155980000Y-92750000D03*
X155980000Y-93250000D03*
X155980000Y-93750000D03*
X155980000Y-94250000D03*
X155980000Y-94750000D03*
X155980000Y-95250000D03*
X155980000Y-95750000D03*
X155980000Y-96250000D03*
D27*
X156650000Y-96920000D03*
X157150000Y-96920000D03*
X157650000Y-96920000D03*
X158150000Y-96920000D03*
X158650000Y-96920000D03*
X159150000Y-96920000D03*
X159650000Y-96920000D03*
X160150000Y-96920000D03*
X160650000Y-96920000D03*
X161150000Y-96920000D03*
X161650000Y-96920000D03*
X162150000Y-96920000D03*
D28*
X162820000Y-96250000D03*
X162820000Y-95750000D03*
X162820000Y-95250000D03*
X162820000Y-94750000D03*
X162820000Y-94250000D03*
X162820000Y-93750000D03*
X162820000Y-93250000D03*
X162820000Y-92750000D03*
X162820000Y-92250000D03*
X162820000Y-91750000D03*
X162820000Y-91250000D03*
X162820000Y-90750000D03*
%TD*%
D25*
%TO.C,C13*%
X151440000Y-55400000D03*
X152400000Y-55400000D03*
%TD*%
D14*
%TO.C,R11*%
X134310000Y-67600000D03*
X133290000Y-67600000D03*
%TD*%
D12*
%TO.C,R7*%
X148150000Y-74890000D03*
X148150000Y-75910000D03*
%TD*%
D29*
%TO.C,C65*%
X144500000Y-47900000D03*
X143821178Y-47221178D03*
%TD*%
D16*
%TO.C,D4*%
X160550000Y-113700000D03*
X163050000Y-113700000D03*
%TD*%
D30*
%TO.C,Y1*%
X153909000Y-52150000D03*
X151709000Y-52150000D03*
X151709000Y-53850000D03*
X153909000Y-53850000D03*
%TD*%
D20*
%TO.C,D1*%
X143850000Y-75920000D03*
X143850000Y-74345000D03*
%TD*%
D31*
%TO.C,R46*%
X129400000Y-62500000D03*
X130121248Y-63221248D03*
%TD*%
%TO.C,R45*%
X127739375Y-60839376D03*
X128460625Y-61560624D03*
%TD*%
D13*
%TO.C,C39*%
X146050000Y-90325000D03*
X146050000Y-87375000D03*
%TD*%
D26*
%TO.C,R24*%
X162300000Y-101600000D03*
X163320000Y-101600000D03*
%TD*%
D32*
%TO.C,C56*%
X157000000Y-58400000D03*
X157000000Y-59360000D03*
%TD*%
D20*
%TO.C,D3*%
X146747500Y-75920000D03*
X146747500Y-74345000D03*
%TD*%
D14*
%TO.C,R8*%
X134310000Y-68800000D03*
X133290000Y-68800000D03*
%TD*%
D16*
%TO.C,D5*%
X160550000Y-107000000D03*
X163050000Y-107000000D03*
%TD*%
D14*
%TO.C,R15*%
X161210000Y-105000000D03*
X160190000Y-105000000D03*
%TD*%
D33*
%TO.C,U16*%
X145880330Y-59241600D03*
X146163173Y-58958757D03*
X146446016Y-58675914D03*
X146728858Y-58393072D03*
X147011701Y-58110229D03*
X147294544Y-57827386D03*
X147577386Y-57544544D03*
X147860229Y-57261701D03*
X148143072Y-56978858D03*
X148425914Y-56696016D03*
X148708757Y-56413173D03*
X148991600Y-56130330D03*
D34*
X148991600Y-55069670D03*
X148708757Y-54786827D03*
X148425914Y-54503984D03*
X148143072Y-54221142D03*
X147860229Y-53938299D03*
X147577386Y-53655456D03*
X147294544Y-53372614D03*
X147011701Y-53089771D03*
X146728858Y-52806928D03*
X146446016Y-52524086D03*
X146163173Y-52241243D03*
X145880330Y-51958400D03*
D33*
X144819670Y-51958400D03*
X144536827Y-52241243D03*
X144253984Y-52524086D03*
X143971142Y-52806928D03*
X143688299Y-53089771D03*
X143405456Y-53372614D03*
X143122614Y-53655456D03*
X142839771Y-53938299D03*
X142556928Y-54221142D03*
X142274086Y-54503984D03*
X141991243Y-54786827D03*
X141708400Y-55069670D03*
D34*
X141708400Y-56130330D03*
X141991243Y-56413173D03*
X142274086Y-56696016D03*
X142556928Y-56978858D03*
X142839771Y-57261701D03*
X143122614Y-57544544D03*
X143405456Y-57827386D03*
X143688299Y-58110229D03*
X143971142Y-58393072D03*
X144253984Y-58675914D03*
X144536827Y-58958757D03*
X144819670Y-59241600D03*
%TD*%
D21*
%TO.C,R6*%
X142400000Y-75950000D03*
X142400000Y-74930000D03*
%TD*%
D35*
%TO.C,Q7*%
X139246411Y-72300000D03*
X141146411Y-72300000D03*
X140196411Y-70425000D03*
%TD*%
D25*
%TO.C,C16*%
X163420000Y-60400000D03*
X164380000Y-60400000D03*
%TD*%
D36*
%TO.C,D10*%
X136877604Y-67286862D03*
X138645370Y-65519096D03*
%TD*%
D37*
%TO.C,Y2*%
X141143934Y-60433883D03*
X142133883Y-59443934D03*
X141356066Y-58666117D03*
X140366117Y-59656066D03*
%TD*%
D38*
%TO.C,J9*%
X137159833Y-56676669D03*
X136594148Y-57242354D03*
D39*
X135780975Y-58055527D03*
X135073868Y-58762634D03*
X134720315Y-59116187D03*
X134013208Y-59823294D03*
D38*
X133200035Y-60636467D03*
X132634350Y-61202152D03*
X132634350Y-61202152D03*
X133200035Y-60636467D03*
D39*
X133659655Y-60176848D03*
X134366762Y-59469741D03*
X135427422Y-58409081D03*
X136134529Y-57701974D03*
D38*
X136594148Y-57242354D03*
X137159833Y-56676669D03*
%TD*%
D25*
%TO.C,C55*%
X163420000Y-59400000D03*
X164380000Y-59400000D03*
%TD*%
D14*
%TO.C,R4*%
X163810000Y-71900000D03*
X162790000Y-71900000D03*
%TD*%
D15*
%TO.C,C24*%
X154280000Y-94700000D03*
X153320000Y-94700000D03*
%TD*%
D40*
%TO.C,U14*%
X163700000Y-57000000D03*
D41*
X157162000Y-54700000D03*
D40*
X163700000Y-54700000D03*
X163700000Y-52400000D03*
%TD*%
D42*
%TO.C,U2*%
X158975000Y-82495000D03*
X158975000Y-83765000D03*
X158975000Y-85035000D03*
X158975000Y-86305000D03*
X163925000Y-86305000D03*
X163925000Y-85035000D03*
X163925000Y-83765000D03*
X163925000Y-82495000D03*
%TD*%
D16*
%TO.C,D7*%
X160550000Y-109300000D03*
X163050000Y-109300000D03*
%TD*%
D14*
%TO.C,R2*%
X163810000Y-69700000D03*
X162790000Y-69700000D03*
%TD*%
D21*
%TO.C,R51*%
X155700000Y-85320000D03*
X155700000Y-84300000D03*
%TD*%
D15*
%TO.C,C20*%
X154280000Y-95800000D03*
X153320000Y-95800000D03*
%TD*%
D43*
%TO.C,U1*%
X157850000Y-62325000D03*
X157350000Y-62325000D03*
X156850000Y-62325000D03*
X156350000Y-62325000D03*
X155850000Y-62325000D03*
X155350000Y-62325000D03*
X154850000Y-62325000D03*
X154350000Y-62325000D03*
X153850000Y-62325000D03*
X153350000Y-62325000D03*
X152850000Y-62325000D03*
X152350000Y-62325000D03*
X151850000Y-62325000D03*
X151350000Y-62325000D03*
X150850000Y-62325000D03*
X150350000Y-62325000D03*
D44*
X148425000Y-64250000D03*
X148425000Y-64750000D03*
X148425000Y-65250000D03*
X148425000Y-65750000D03*
X148425000Y-66250000D03*
X148425000Y-66750000D03*
X148425000Y-67250000D03*
X148425000Y-67750000D03*
X148425000Y-68250000D03*
X148425000Y-68750000D03*
X148425000Y-69250000D03*
X148425000Y-69750000D03*
X148425000Y-70250000D03*
X148425000Y-70750000D03*
X148425000Y-71250000D03*
X148425000Y-71750000D03*
D43*
X150350000Y-73675000D03*
X150850000Y-73675000D03*
X151350000Y-73675000D03*
X151850000Y-73675000D03*
X152350000Y-73675000D03*
X152850000Y-73675000D03*
X153350000Y-73675000D03*
X153850000Y-73675000D03*
X154350000Y-73675000D03*
X154850000Y-73675000D03*
X155350000Y-73675000D03*
X155850000Y-73675000D03*
X156350000Y-73675000D03*
X156850000Y-73675000D03*
X157350000Y-73675000D03*
X157850000Y-73675000D03*
D44*
X159775000Y-71750000D03*
X159775000Y-71250000D03*
X159775000Y-70750000D03*
X159775000Y-70250000D03*
X159775000Y-69750000D03*
X159775000Y-69250000D03*
X159775000Y-68750000D03*
X159775000Y-68250000D03*
X159775000Y-67750000D03*
X159775000Y-67250000D03*
X159775000Y-66750000D03*
X159775000Y-66250000D03*
X159775000Y-65750000D03*
X159775000Y-65250000D03*
X159775000Y-64750000D03*
X159775000Y-64250000D03*
%TD*%
D45*
%TO.C,L2*%
X143735894Y-50314106D03*
X143050000Y-51000000D03*
%TD*%
D46*
%TO.C,D9*%
X161938300Y-59600000D03*
X158661700Y-59600000D03*
%TD*%
D26*
%TO.C,R13*%
X162490000Y-105000000D03*
X163510000Y-105000000D03*
%TD*%
D12*
%TO.C,R5*%
X145250000Y-74890000D03*
X145250000Y-75910000D03*
%TD*%
D22*
%TO.C,C63*%
X141878822Y-52171178D03*
X141200000Y-52850000D03*
%TD*%
D47*
%TO.C,J10*%
X141910660Y-49860660D03*
D48*
X139807017Y-49842983D03*
D47*
X139789340Y-47739340D03*
D48*
X141892983Y-47757017D03*
%TD*%
D26*
%TO.C,R12*%
X160180000Y-102600000D03*
X161200000Y-102600000D03*
%TD*%
M02*
