%TF.GenerationSoftware,KiCad,Pcbnew,9.0.1*%
%TF.CreationDate,2025-08-11T19:05:14-04:00*%
%TF.ProjectId,resc,72657363-2e6b-4696-9361-645f70636258,rev?*%
%TF.SameCoordinates,Original*%
%TF.FileFunction,Legend,Bot*%
%TF.FilePolarity,Positive*%
%FSLAX46Y46*%
G04 Gerber Fmt 4.6, Leading zero omitted, Abs format (unit mm)*
G04 Created by KiCad (PCBNEW 9.0.1) date 2025-08-11 19:05:14*
%MOMM*%
%LPD*%
G01*
G04 APERTURE LIST*
%ADD10C,0.150000*%
%ADD11C,0.120000*%
%ADD12C,0.127000*%
G04 APERTURE END LIST*
D10*
X163734819Y-64523929D02*
X163734819Y-65142976D01*
X163734819Y-65142976D02*
X164115771Y-64809643D01*
X164115771Y-64809643D02*
X164115771Y-64952500D01*
X164115771Y-64952500D02*
X164163390Y-65047738D01*
X164163390Y-65047738D02*
X164211009Y-65095357D01*
X164211009Y-65095357D02*
X164306247Y-65142976D01*
X164306247Y-65142976D02*
X164544342Y-65142976D01*
X164544342Y-65142976D02*
X164639580Y-65095357D01*
X164639580Y-65095357D02*
X164687200Y-65047738D01*
X164687200Y-65047738D02*
X164734819Y-64952500D01*
X164734819Y-64952500D02*
X164734819Y-64666786D01*
X164734819Y-64666786D02*
X164687200Y-64571548D01*
X164687200Y-64571548D02*
X164639580Y-64523929D01*
X164639580Y-65571548D02*
X164687200Y-65619167D01*
X164687200Y-65619167D02*
X164734819Y-65571548D01*
X164734819Y-65571548D02*
X164687200Y-65523929D01*
X164687200Y-65523929D02*
X164639580Y-65571548D01*
X164639580Y-65571548D02*
X164734819Y-65571548D01*
X163734819Y-65952500D02*
X163734819Y-66571547D01*
X163734819Y-66571547D02*
X164115771Y-66238214D01*
X164115771Y-66238214D02*
X164115771Y-66381071D01*
X164115771Y-66381071D02*
X164163390Y-66476309D01*
X164163390Y-66476309D02*
X164211009Y-66523928D01*
X164211009Y-66523928D02*
X164306247Y-66571547D01*
X164306247Y-66571547D02*
X164544342Y-66571547D01*
X164544342Y-66571547D02*
X164639580Y-66523928D01*
X164639580Y-66523928D02*
X164687200Y-66476309D01*
X164687200Y-66476309D02*
X164734819Y-66381071D01*
X164734819Y-66381071D02*
X164734819Y-66095357D01*
X164734819Y-66095357D02*
X164687200Y-66000119D01*
X164687200Y-66000119D02*
X164639580Y-65952500D01*
X164068152Y-66904881D02*
X164734819Y-67142976D01*
X164734819Y-67142976D02*
X164068152Y-67381071D01*
X163634819Y-57309642D02*
X163634819Y-56833452D01*
X163634819Y-56833452D02*
X164111009Y-56785833D01*
X164111009Y-56785833D02*
X164063390Y-56833452D01*
X164063390Y-56833452D02*
X164015771Y-56928690D01*
X164015771Y-56928690D02*
X164015771Y-57166785D01*
X164015771Y-57166785D02*
X164063390Y-57262023D01*
X164063390Y-57262023D02*
X164111009Y-57309642D01*
X164111009Y-57309642D02*
X164206247Y-57357261D01*
X164206247Y-57357261D02*
X164444342Y-57357261D01*
X164444342Y-57357261D02*
X164539580Y-57309642D01*
X164539580Y-57309642D02*
X164587200Y-57262023D01*
X164587200Y-57262023D02*
X164634819Y-57166785D01*
X164634819Y-57166785D02*
X164634819Y-56928690D01*
X164634819Y-56928690D02*
X164587200Y-56833452D01*
X164587200Y-56833452D02*
X164539580Y-56785833D01*
X163968152Y-57690595D02*
X164634819Y-57928690D01*
X164634819Y-57928690D02*
X163968152Y-58166785D01*
D11*
%TO.C,C14*%
X146927836Y-70940000D02*
X146712164Y-70940000D01*
X146927836Y-71660000D02*
X146712164Y-71660000D01*
%TO.C,TP4*%
X144475000Y-114963000D02*
X144475000Y-119363000D01*
X144475000Y-119363000D02*
X150375000Y-119363000D01*
X150375000Y-114963000D02*
X144475000Y-114963000D01*
X150375000Y-119363000D02*
X150375000Y-114963000D01*
%TO.C,C17*%
X163340000Y-89642164D02*
X163340000Y-89857836D01*
X164060000Y-89642164D02*
X164060000Y-89857836D01*
%TO.C,R41*%
X160820000Y-103143641D02*
X160820000Y-102836359D01*
X161580000Y-103143641D02*
X161580000Y-102836359D01*
D12*
%TO.C,U5*%
X139192301Y-68466170D02*
X140076185Y-69350054D01*
X141730815Y-67695424D02*
X140846931Y-66811540D01*
D11*
%TO.C,C25*%
X160786252Y-94040000D02*
X159363748Y-94040000D01*
X160786252Y-96760000D02*
X159363748Y-96760000D01*
%TO.C,C21*%
X162140000Y-89642164D02*
X162140000Y-89857836D01*
X162860000Y-89642164D02*
X162860000Y-89857836D01*
%TO.C,C32*%
X164230000Y-106347836D02*
X164230000Y-106132164D01*
X164950000Y-106347836D02*
X164950000Y-106132164D01*
%TO.C,R25*%
X163956359Y-101520000D02*
X164263641Y-101520000D01*
X163956359Y-102280000D02*
X164263641Y-102280000D01*
%TO.C,C53*%
X120190000Y-80440000D02*
X126300000Y-80440000D01*
X120190000Y-96195563D02*
X120190000Y-80440000D01*
X121254437Y-97260000D02*
X120190000Y-96195563D01*
X121254437Y-97260000D02*
X126400000Y-97260000D01*
X135660000Y-99500000D02*
X135660000Y-97500000D01*
X135945563Y-97260000D02*
X130800000Y-97260000D01*
X135945563Y-97260000D02*
X137010000Y-96195563D01*
X136660000Y-98500000D02*
X134660000Y-98500000D01*
X137010000Y-80440000D02*
X130900000Y-80440000D01*
X137010000Y-96195563D02*
X137010000Y-80440000D01*
%TO.C,TP5*%
X132525000Y-114963000D02*
X132525000Y-119363000D01*
X132525000Y-119363000D02*
X138425000Y-119363000D01*
X138425000Y-114963000D02*
X132525000Y-114963000D01*
X138425000Y-119363000D02*
X138425000Y-114963000D01*
%TO.C,D8*%
X159950000Y-90760000D02*
X159950000Y-88100000D01*
X161650000Y-90760000D02*
X159950000Y-90760000D01*
X161650000Y-90760000D02*
X161650000Y-88100000D01*
D12*
%TO.C,U3*%
X141172200Y-66486271D02*
X142056084Y-67370155D01*
X143710714Y-65715525D02*
X142826830Y-64831641D01*
D11*
%TO.C,R21*%
X160920000Y-106353641D02*
X160920000Y-106046359D01*
X161680000Y-106353641D02*
X161680000Y-106046359D01*
%TO.C,C28*%
X156660000Y-96907836D02*
X156660000Y-96692164D01*
X157380000Y-96907836D02*
X157380000Y-96692164D01*
%TO.C,R9*%
X148120000Y-64756359D02*
X148120000Y-65063641D01*
X148880000Y-64756359D02*
X148880000Y-65063641D01*
%TO.C,C2*%
X146940000Y-64772164D02*
X146940000Y-64987836D01*
X147660000Y-64772164D02*
X147660000Y-64987836D01*
%TO.C,C30*%
X142110647Y-69316704D02*
X142263150Y-69164201D01*
X142619764Y-69825821D02*
X142772267Y-69673318D01*
%TO.C,C33*%
X154716781Y-100540000D02*
X154932453Y-100540000D01*
X154716781Y-101260000D02*
X154932453Y-101260000D01*
%TO.C,R29*%
X140784253Y-72029028D02*
X141001534Y-71811747D01*
X141321654Y-72566429D02*
X141538935Y-72349148D01*
%TO.C,C7*%
X156590000Y-64792164D02*
X156590000Y-65007836D01*
X157310000Y-64792164D02*
X157310000Y-65007836D01*
D12*
%TO.C,R36*%
X120875000Y-105933000D02*
X120875000Y-110393000D01*
X126375000Y-105933000D02*
X126375000Y-110393000D01*
D11*
%TO.C,C54*%
X137290000Y-80440000D02*
X143400000Y-80440000D01*
X137290000Y-96195563D02*
X137290000Y-80440000D01*
X138354437Y-97260000D02*
X137290000Y-96195563D01*
X138354437Y-97260000D02*
X143500000Y-97260000D01*
X152760000Y-99500000D02*
X152760000Y-97500000D01*
X153045563Y-97260000D02*
X147900000Y-97260000D01*
X153045563Y-97260000D02*
X154110000Y-96195563D01*
X153760000Y-98500000D02*
X151760000Y-98500000D01*
X154110000Y-80440000D02*
X148000000Y-80440000D01*
X154110000Y-96195563D02*
X154110000Y-80440000D01*
D12*
%TO.C,U11*%
X133512402Y-68446069D02*
X134396286Y-69329953D01*
X136050916Y-67675323D02*
X135167032Y-66791439D01*
%TO.C,L1*%
X156300000Y-89070000D02*
X156300000Y-89430000D01*
X159300000Y-89070000D02*
X159300000Y-89430000D01*
D11*
%TO.C,R26*%
X143478330Y-70749165D02*
X143695611Y-70531884D01*
X144015731Y-71286566D02*
X144233012Y-71069285D01*
%TO.C,C36*%
X131332282Y-66041399D02*
X131179779Y-65888896D01*
X131841399Y-65532282D02*
X131688896Y-65379779D01*
%TO.C,C64*%
X143229779Y-61011104D02*
X143382282Y-60858601D01*
X143738896Y-61520221D02*
X143891399Y-61367718D01*
D12*
%TO.C,R35*%
X132725000Y-105933000D02*
X132725000Y-110393000D01*
X138225000Y-105933000D02*
X138225000Y-110393000D01*
%TO.C,U6*%
X137212402Y-70446069D02*
X138096286Y-71329953D01*
X139750916Y-69675323D02*
X138867032Y-68791439D01*
D11*
%TO.C,U8*%
X156400000Y-114280000D02*
X154450000Y-114280000D01*
X156400000Y-114280000D02*
X158350000Y-114280000D01*
X156400000Y-119400000D02*
X154450000Y-119400000D01*
X156400000Y-119400000D02*
X158350000Y-119400000D01*
X153940000Y-119635000D02*
X153460000Y-119635000D01*
X153700000Y-119305000D01*
X153940000Y-119635000D01*
G36*
X153940000Y-119635000D02*
G01*
X153460000Y-119635000D01*
X153700000Y-119305000D01*
X153940000Y-119635000D01*
G37*
%TO.C,C23*%
X160786252Y-97240000D02*
X159363748Y-97240000D01*
X160786252Y-99960000D02*
X159363748Y-99960000D01*
%TO.C,C61*%
X144029779Y-61861104D02*
X144182282Y-61708601D01*
X144538896Y-62370221D02*
X144691399Y-62217718D01*
%TO.C,C60*%
X148829779Y-55711104D02*
X148982282Y-55558601D01*
X149338896Y-56220221D02*
X149491399Y-56067718D01*
%TO.C,C49*%
X162040000Y-109307836D02*
X162040000Y-109092164D01*
X162760000Y-109307836D02*
X162760000Y-109092164D01*
%TO.C,C37*%
X129932282Y-67441399D02*
X129779779Y-67288896D01*
X130441399Y-66932282D02*
X130288896Y-66779779D01*
%TO.C,C35*%
X140130748Y-71296603D02*
X140283251Y-71144100D01*
X140639865Y-71805720D02*
X140792368Y-71653217D01*
%TO.C,R17*%
X148446359Y-51320000D02*
X148753641Y-51320000D01*
X148446359Y-52080000D02*
X148753641Y-52080000D01*
%TO.C,C44*%
X161592164Y-116640000D02*
X161807836Y-116640000D01*
X161592164Y-117360000D02*
X161807836Y-117360000D01*
%TO.C,C8*%
X157690000Y-64772164D02*
X157690000Y-64987836D01*
X158410000Y-64772164D02*
X158410000Y-64987836D01*
%TO.C,C40*%
X140440000Y-100863748D02*
X140440000Y-102286252D01*
X143160000Y-100863748D02*
X143160000Y-102286252D01*
%TO.C,C45*%
X161592164Y-110440000D02*
X161807836Y-110440000D01*
X161592164Y-111160000D02*
X161807836Y-111160000D01*
%TO.C,C15*%
X157040000Y-75272164D02*
X157040000Y-75487836D01*
X157760000Y-75272164D02*
X157760000Y-75487836D01*
%TO.C,R20*%
X145528940Y-68839976D02*
X145746221Y-68622695D01*
X146066341Y-69377377D02*
X146283622Y-69160096D01*
%TO.C,C58*%
X145511104Y-58929779D02*
X145358601Y-59082282D01*
X146020221Y-59438896D02*
X145867718Y-59591399D01*
%TO.C,U10*%
X156425000Y-108075000D02*
X154475000Y-108075000D01*
X156425000Y-108075000D02*
X158375000Y-108075000D01*
X156425000Y-113195000D02*
X154475000Y-113195000D01*
X156425000Y-113195000D02*
X158375000Y-113195000D01*
X153965000Y-113430000D02*
X153485000Y-113430000D01*
X153725000Y-113100000D01*
X153965000Y-113430000D01*
G36*
X153965000Y-113430000D02*
G01*
X153485000Y-113430000D01*
X153725000Y-113100000D01*
X153965000Y-113430000D01*
G37*
%TO.C,C1*%
X156540000Y-71407836D02*
X156540000Y-71192164D01*
X157260000Y-71407836D02*
X157260000Y-71192164D01*
%TO.C,R40*%
X160845000Y-115553641D02*
X160845000Y-115246359D01*
X161605000Y-115553641D02*
X161605000Y-115246359D01*
%TO.C,C9*%
X157740000Y-71407836D02*
X157740000Y-71192164D01*
X158460000Y-71407836D02*
X158460000Y-71192164D01*
%TO.C,R27*%
X163110000Y-106056359D02*
X163110000Y-106363641D01*
X163870000Y-106056359D02*
X163870000Y-106363641D01*
%TO.C,U9*%
X156425000Y-101875000D02*
X154475000Y-101875000D01*
X156425000Y-101875000D02*
X158375000Y-101875000D01*
X156425000Y-106995000D02*
X154475000Y-106995000D01*
X156425000Y-106995000D02*
X158375000Y-106995000D01*
X153965000Y-107230000D02*
X153485000Y-107230000D01*
X153725000Y-106900000D01*
X153965000Y-107230000D01*
G36*
X153965000Y-107230000D02*
G01*
X153485000Y-107230000D01*
X153725000Y-106900000D01*
X153965000Y-107230000D01*
G37*
%TO.C,R30*%
X141491360Y-72736135D02*
X141708641Y-72518854D01*
X142028761Y-73273536D02*
X142246042Y-73056255D01*
%TO.C,R42*%
X160820000Y-109363641D02*
X160820000Y-109056359D01*
X161580000Y-109363641D02*
X161580000Y-109056359D01*
%TO.C,R23*%
X142771223Y-70042058D02*
X142988504Y-69824777D01*
X143308624Y-70579459D02*
X143525905Y-70362178D01*
%TO.C,R1*%
X154720000Y-68236359D02*
X154720000Y-68543641D01*
X155480000Y-68236359D02*
X155480000Y-68543641D01*
%TO.C,C51*%
X134638707Y-64300418D02*
X134486204Y-64452921D01*
X135147824Y-64809535D02*
X134995321Y-64962038D01*
%TO.C,C46*%
X161592164Y-104240000D02*
X161807836Y-104240000D01*
X161592164Y-104960000D02*
X161807836Y-104960000D01*
%TO.C,C11*%
X160840000Y-118492164D02*
X160840000Y-118707836D01*
X161560000Y-118492164D02*
X161560000Y-118707836D01*
%TO.C,R28*%
X163620000Y-96656359D02*
X163620000Y-96963641D01*
X164380000Y-96656359D02*
X164380000Y-96963641D01*
%TO.C,C10*%
X151340000Y-64792164D02*
X151340000Y-65007836D01*
X152060000Y-64792164D02*
X152060000Y-65007836D01*
D12*
%TO.C,R34*%
X144675000Y-105933000D02*
X144675000Y-110393000D01*
X150175000Y-105933000D02*
X150175000Y-110393000D01*
D11*
%TO.C,R18*%
X162120000Y-84246359D02*
X162120000Y-84553641D01*
X162880000Y-84246359D02*
X162880000Y-84553641D01*
%TO.C,C48*%
X162065000Y-103097836D02*
X162065000Y-102882164D01*
X162785000Y-103097836D02*
X162785000Y-102882164D01*
%TO.C,C57*%
X156675000Y-56385000D02*
X157300000Y-56385000D01*
X156987500Y-56697500D02*
X156987500Y-56072500D01*
X157540000Y-53004437D02*
X157540000Y-53640000D01*
X157540000Y-53004437D02*
X158604437Y-51940000D01*
X157540000Y-56395563D02*
X157540000Y-55760000D01*
X157540000Y-56395563D02*
X158604437Y-57460000D01*
X158604437Y-51940000D02*
X163060000Y-51940000D01*
X158604437Y-57460000D02*
X163060000Y-57460000D01*
X163060000Y-51940000D02*
X163060000Y-53640000D01*
X163060000Y-57460000D02*
X163060000Y-55760000D01*
%TO.C,C47*%
X162040000Y-115487836D02*
X162040000Y-115272164D01*
X162760000Y-115487836D02*
X162760000Y-115272164D01*
%TO.C,C5*%
X148090000Y-72822164D02*
X148090000Y-73037836D01*
X148810000Y-72822164D02*
X148810000Y-73037836D01*
D12*
%TO.C,U13*%
X137472200Y-64486271D02*
X138356084Y-65370155D01*
X140010714Y-63715525D02*
X139126830Y-62831641D01*
D11*
%TO.C,C27*%
X156660000Y-99387836D02*
X156660000Y-99172164D01*
X157380000Y-99387836D02*
X157380000Y-99172164D01*
D12*
%TO.C,U12*%
X135492301Y-66466170D02*
X136376185Y-67350054D01*
X138030815Y-65695424D02*
X137146931Y-64811540D01*
D11*
%TO.C,R19*%
X144779406Y-68104585D02*
X144996687Y-67887304D01*
X145316807Y-68641986D02*
X145534088Y-68424705D01*
%TO.C,C38*%
X129440000Y-100888748D02*
X129440000Y-102311252D01*
X132160000Y-100888748D02*
X132160000Y-102311252D01*
%TO.C,TP3*%
X120900000Y-71300000D02*
X120900000Y-77200000D01*
X120900000Y-77200000D02*
X125300000Y-77200000D01*
X125300000Y-71300000D02*
X120900000Y-71300000D01*
X125300000Y-77200000D02*
X125300000Y-71300000D01*
%TO.C,C50*%
X132658808Y-66280317D02*
X132506305Y-66432820D01*
X133167925Y-66789434D02*
X133015422Y-66941937D01*
%TO.C,C52*%
X136618606Y-62320519D02*
X136466103Y-62473022D01*
X137127723Y-62829636D02*
X136975220Y-62982139D01*
%TO.C,SW1*%
X163200000Y-58600000D02*
X163200000Y-64100000D01*
X163200000Y-64100000D02*
X165150000Y-64100000D01*
X165150000Y-58600000D02*
X163200000Y-58600000D01*
X165150000Y-64100000D02*
X165150000Y-58600000D01*
%TO.C,C22*%
X144090546Y-67336805D02*
X144243049Y-67184302D01*
X144599663Y-67845922D02*
X144752166Y-67693419D01*
%TO.C,C29*%
X156660000Y-94407836D02*
X156660000Y-94192164D01*
X157380000Y-94407836D02*
X157380000Y-94192164D01*
%TO.C,C20*%
X155040000Y-80440000D02*
X156740000Y-80440000D01*
X155040000Y-84895563D02*
X155040000Y-80440000D01*
X156104437Y-85960000D02*
X155040000Y-84895563D01*
X156104437Y-85960000D02*
X156740000Y-85960000D01*
X159485000Y-86825000D02*
X159485000Y-86200000D01*
X159495563Y-85960000D02*
X158860000Y-85960000D01*
X159495563Y-85960000D02*
X160560000Y-84895563D01*
X159797500Y-86512500D02*
X159172500Y-86512500D01*
X160560000Y-80440000D02*
X158860000Y-80440000D01*
X160560000Y-84895563D02*
X160560000Y-80440000D01*
%TO.C,C6*%
X150240000Y-64792164D02*
X150240000Y-65007836D01*
X150960000Y-64792164D02*
X150960000Y-65007836D01*
%TO.C,C31*%
X162030000Y-106132164D02*
X162030000Y-106347836D01*
X162750000Y-106132164D02*
X162750000Y-106347836D01*
%TO.C,R14*%
X156656359Y-51320000D02*
X156963641Y-51320000D01*
X156656359Y-52080000D02*
X156963641Y-52080000D01*
%TO.C,TP6*%
X120675000Y-114963000D02*
X120675000Y-119363000D01*
X120675000Y-119363000D02*
X126575000Y-119363000D01*
X126575000Y-114963000D02*
X120675000Y-114963000D01*
X126575000Y-119363000D02*
X126575000Y-114963000D01*
%TD*%
M02*
