%TF.GenerationSoftware,KiCad,Pcbnew,9.0.1*%
%TF.CreationDate,2025-08-11T19:05:14-04:00*%
%TF.ProjectId,resc,72657363-2e6b-4696-9361-645f70636258,rev?*%
%TF.SameCoordinates,Original*%
%TF.FileFunction,Soldermask,Top*%
%TF.FilePolarity,Negative*%
%FSLAX46Y46*%
G04 Gerber Fmt 4.6, Leading zero omitted, Abs format (unit mm)*
G04 Created by KiCad (PCBNEW 9.0.1) date 2025-08-11 19:05:14*
%MOMM*%
%LPD*%
G01*
G04 APERTURE LIST*
G04 Aperture macros list*
%AMRoundRect*
0 Rectangle with rounded corners*
0 $1 Rounding radius*
0 $2 $3 $4 $5 $6 $7 $8 $9 X,Y pos of 4 corners*
0 Add a 4 corners polygon primitive as box body*
4,1,4,$2,$3,$4,$5,$6,$7,$8,$9,$2,$3,0*
0 Add four circle primitives for the rounded corners*
1,1,$1+$1,$2,$3*
1,1,$1+$1,$4,$5*
1,1,$1+$1,$6,$7*
1,1,$1+$1,$8,$9*
0 Add four rect primitives between the rounded corners*
20,1,$1+$1,$2,$3,$4,$5,0*
20,1,$1+$1,$4,$5,$6,$7,0*
20,1,$1+$1,$6,$7,$8,$9,0*
20,1,$1+$1,$8,$9,$2,$3,0*%
%AMHorizOval*
0 Thick line with rounded ends*
0 $1 width*
0 $2 $3 position (X,Y) of the first rounded end (center of the circle)*
0 $4 $5 position (X,Y) of the second rounded end (center of the circle)*
0 Add line between two ends*
20,1,$1,$2,$3,$4,$5,0*
0 Add two circle primitives to create the rounded ends*
1,1,$1,$2,$3*
1,1,$1,$4,$5*%
%AMRotRect*
0 Rectangle, with rotation*
0 The origin of the aperture is its center*
0 $1 length*
0 $2 width*
0 $3 Rotation angle, in degrees counterclockwise*
0 Add horizontal line*
21,1,$1,$2,0,0,$3*%
G04 Aperture macros list end*
%ADD10C,0.000100*%
%ADD11C,0.000000*%
%ADD12R,4.000000X5.500000*%
%ADD13RoundRect,0.250000X1.100000X-0.325000X1.100000X0.325000X-1.100000X0.325000X-1.100000X-0.325000X0*%
%ADD14RoundRect,0.135000X0.135000X0.185000X-0.135000X0.185000X-0.135000X-0.185000X0.135000X-0.185000X0*%
%ADD15C,3.200000*%
%ADD16RoundRect,0.135000X-0.185000X0.135000X-0.185000X-0.135000X0.185000X-0.135000X0.185000X0.135000X0*%
%ADD17RoundRect,0.112500X-0.187500X-0.112500X0.187500X-0.112500X0.187500X0.112500X-0.187500X0.112500X0*%
%ADD18RoundRect,0.150000X0.256326X0.468458X-0.468458X-0.256326X-0.256326X-0.468458X0.468458X0.256326X0*%
%ADD19RoundRect,0.140000X0.170000X-0.140000X0.170000X0.140000X-0.170000X0.140000X-0.170000X-0.140000X0*%
%ADD20RoundRect,0.135000X0.185000X-0.135000X0.185000X0.135000X-0.185000X0.135000X-0.185000X-0.135000X0*%
%ADD21RotRect,0.675000X0.250000X225.000000*%
%ADD22RotRect,0.250000X0.675000X225.000000*%
%ADD23RoundRect,0.250000X0.625000X-0.350000X0.625000X0.350000X-0.625000X0.350000X-0.625000X-0.350000X0*%
%ADD24O,1.750000X1.200000*%
%ADD25RoundRect,0.135000X-0.135000X-0.185000X0.135000X-0.185000X0.135000X0.185000X-0.135000X0.185000X0*%
%ADD26RoundRect,0.218750X0.256250X-0.218750X0.256250X0.218750X-0.256250X0.218750X-0.256250X-0.218750X0*%
%ADD27RoundRect,0.140000X-0.021213X0.219203X-0.219203X0.021213X0.021213X-0.219203X0.219203X-0.021213X0*%
%ADD28RoundRect,0.140000X-0.170000X0.140000X-0.170000X-0.140000X0.170000X-0.140000X0.170000X0.140000X0*%
%ADD29RoundRect,0.140000X-0.219203X-0.021213X-0.021213X-0.219203X0.219203X0.021213X0.021213X0.219203X0*%
%ADD30RoundRect,0.140000X-0.140000X-0.170000X0.140000X-0.170000X0.140000X0.170000X-0.140000X0.170000X0*%
%ADD31RoundRect,0.140000X0.219203X0.021213X0.021213X0.219203X-0.219203X-0.021213X-0.021213X-0.219203X0*%
%ADD32R,1.400000X1.200000*%
%ADD33RoundRect,0.135000X-0.226274X-0.035355X-0.035355X-0.226274X0.226274X0.035355X0.035355X0.226274X0*%
%ADD34RoundRect,0.112500X0.187500X0.112500X-0.187500X0.112500X-0.187500X-0.112500X0.187500X-0.112500X0*%
%ADD35RoundRect,0.135000X0.226274X0.035355X0.035355X0.226274X-0.226274X-0.035355X-0.035355X-0.226274X0*%
%ADD36RoundRect,0.102000X0.364160X-0.208597X-0.208597X0.364160X-0.364160X0.208597X0.208597X-0.364160X0*%
%ADD37RoundRect,0.102000X0.364160X0.208597X0.208597X0.364160X-0.364160X-0.208597X-0.208597X-0.364160X0*%
%ADD38RoundRect,0.102000X3.252691X0.000000X0.000000X3.252691X-3.252691X0.000000X0.000000X-3.252691X0*%
%ADD39RoundRect,0.140000X0.140000X0.170000X-0.140000X0.170000X-0.140000X-0.170000X0.140000X-0.170000X0*%
%ADD40RoundRect,0.150000X0.150000X-0.587500X0.150000X0.587500X-0.150000X0.587500X-0.150000X-0.587500X0*%
%ADD41RoundRect,0.250000X0.350000X0.625000X-0.350000X0.625000X-0.350000X-0.625000X0.350000X-0.625000X0*%
%ADD42O,1.200000X1.750000*%
%ADD43RotRect,0.900000X0.800000X45.000000*%
%ADD44RoundRect,0.060500X0.826500X0.181500X-0.826500X0.181500X-0.826500X-0.181500X0.826500X-0.181500X0*%
%ADD45RoundRect,0.102000X1.617500X3.175000X-1.617500X3.175000X-1.617500X-3.175000X1.617500X-3.175000X0*%
%ADD46C,0.650000*%
%ADD47RotRect,0.600000X1.240000X225.000000*%
%ADD48RotRect,0.300000X1.240000X225.000000*%
%ADD49HorizOval,1.000000X-0.388909X0.388909X0.388909X-0.388909X0*%
%ADD50HorizOval,1.000000X-0.282843X0.282843X0.282843X-0.282843X0*%
%ADD51R,1.473200X0.889000*%
%ADD52R,1.473200X3.149600*%
%ADD53RoundRect,0.150000X-0.825000X-0.150000X0.825000X-0.150000X0.825000X0.150000X-0.825000X0.150000X0*%
%ADD54RoundRect,0.075000X-0.075000X0.700000X-0.075000X-0.700000X0.075000X-0.700000X0.075000X0.700000X0*%
%ADD55RoundRect,0.075000X-0.700000X0.075000X-0.700000X-0.075000X0.700000X-0.075000X0.700000X0.075000X0*%
%ADD56RoundRect,0.147500X-0.017678X0.226274X-0.226274X0.017678X0.017678X-0.226274X0.226274X-0.017678X0*%
%ADD57R,0.914400X1.219200*%
%ADD58RoundRect,0.100000X0.000000X0.565685X-0.565685X0.000000X0.000000X-0.565685X0.565685X0.000000X0*%
%ADD59RoundRect,0.105000X-0.406586X1.000556X-1.000556X0.406586X0.406586X-1.000556X1.000556X-0.406586X0*%
G04 APERTURE END LIST*
D10*
%TO.C,Q2*%
X138795000Y-101060000D02*
X138295000Y-101060000D01*
X138295000Y-99960000D01*
X138795000Y-99960000D01*
X138795000Y-101060000D01*
G36*
X138795000Y-101060000D02*
G01*
X138295000Y-101060000D01*
X138295000Y-99960000D01*
X138795000Y-99960000D01*
X138795000Y-101060000D01*
G37*
X137525000Y-101060000D02*
X137025000Y-101060000D01*
X137025000Y-100560000D01*
X136255000Y-100560000D01*
X136255000Y-101060000D01*
X135755000Y-101060000D01*
X135755000Y-100560000D01*
X134985000Y-100560000D01*
X134985000Y-101060000D01*
X134485000Y-101060000D01*
X134485000Y-100560000D01*
X134325000Y-100560000D01*
X134325000Y-99960000D01*
X137525000Y-99960000D01*
X137525000Y-101060000D01*
G36*
X137525000Y-101060000D02*
G01*
X137025000Y-101060000D01*
X137025000Y-100560000D01*
X136255000Y-100560000D01*
X136255000Y-101060000D01*
X135755000Y-101060000D01*
X135755000Y-100560000D01*
X134985000Y-100560000D01*
X134985000Y-101060000D01*
X134485000Y-101060000D01*
X134485000Y-100560000D01*
X134325000Y-100560000D01*
X134325000Y-99960000D01*
X137525000Y-99960000D01*
X137525000Y-101060000D01*
G37*
X135035000Y-95210000D02*
X135705000Y-95210000D01*
X135705000Y-94410000D01*
X136305000Y-94410000D01*
X136305000Y-95210000D01*
X136975000Y-95210000D01*
X136975000Y-94410000D01*
X137575000Y-94410000D01*
X137575000Y-95210000D01*
X138245000Y-95210000D01*
X138245000Y-94410000D01*
X138845000Y-94410000D01*
X138845000Y-98960000D01*
X134435000Y-98960000D01*
X134435000Y-94410000D01*
X135035000Y-94410000D01*
X135035000Y-95210000D01*
G36*
X135035000Y-95210000D02*
G01*
X135705000Y-95210000D01*
X135705000Y-94410000D01*
X136305000Y-94410000D01*
X136305000Y-95210000D01*
X136975000Y-95210000D01*
X136975000Y-94410000D01*
X137575000Y-94410000D01*
X137575000Y-95210000D01*
X138245000Y-95210000D01*
X138245000Y-94410000D01*
X138845000Y-94410000D01*
X138845000Y-98960000D01*
X134435000Y-98960000D01*
X134435000Y-94410000D01*
X135035000Y-94410000D01*
X135035000Y-95210000D01*
G37*
%TO.C,Q6*%
X128450000Y-102525000D02*
X127350000Y-102525000D01*
X127350000Y-102025000D01*
X128450000Y-102025000D01*
X128450000Y-102525000D01*
G36*
X128450000Y-102525000D02*
G01*
X127350000Y-102525000D01*
X127350000Y-102025000D01*
X128450000Y-102025000D01*
X128450000Y-102525000D01*
G37*
X128450000Y-103795000D02*
X127950000Y-103795000D01*
X127950000Y-104565000D01*
X128450000Y-104565000D01*
X128450000Y-105065000D01*
X127950000Y-105065000D01*
X127950000Y-105835000D01*
X128450000Y-105835000D01*
X128450000Y-106335000D01*
X127950000Y-106335000D01*
X127950000Y-106495000D01*
X127350000Y-106495000D01*
X127350000Y-103295000D01*
X128450000Y-103295000D01*
X128450000Y-103795000D01*
G36*
X128450000Y-103795000D02*
G01*
X127950000Y-103795000D01*
X127950000Y-104565000D01*
X128450000Y-104565000D01*
X128450000Y-105065000D01*
X127950000Y-105065000D01*
X127950000Y-105835000D01*
X128450000Y-105835000D01*
X128450000Y-106335000D01*
X127950000Y-106335000D01*
X127950000Y-106495000D01*
X127350000Y-106495000D01*
X127350000Y-103295000D01*
X128450000Y-103295000D01*
X128450000Y-103795000D01*
G37*
X126350000Y-106385000D02*
X121800000Y-106385000D01*
X121800000Y-105785000D01*
X122600000Y-105785000D01*
X122600000Y-105115000D01*
X121800000Y-105115000D01*
X121800000Y-104515000D01*
X122600000Y-104515000D01*
X122600000Y-103845000D01*
X121800000Y-103845000D01*
X121800000Y-103245000D01*
X122600000Y-103245000D01*
X122600000Y-102575000D01*
X121800000Y-102575000D01*
X121800000Y-101975000D01*
X126350000Y-101975000D01*
X126350000Y-106385000D01*
G36*
X126350000Y-106385000D02*
G01*
X121800000Y-106385000D01*
X121800000Y-105785000D01*
X122600000Y-105785000D01*
X122600000Y-105115000D01*
X121800000Y-105115000D01*
X121800000Y-104515000D01*
X122600000Y-104515000D01*
X122600000Y-103845000D01*
X121800000Y-103845000D01*
X121800000Y-103245000D01*
X122600000Y-103245000D01*
X122600000Y-102575000D01*
X121800000Y-102575000D01*
X121800000Y-101975000D01*
X126350000Y-101975000D01*
X126350000Y-106385000D01*
G37*
%TO.C,Q1*%
X150795000Y-101060000D02*
X150295000Y-101060000D01*
X150295000Y-99960000D01*
X150795000Y-99960000D01*
X150795000Y-101060000D01*
G36*
X150795000Y-101060000D02*
G01*
X150295000Y-101060000D01*
X150295000Y-99960000D01*
X150795000Y-99960000D01*
X150795000Y-101060000D01*
G37*
X149525000Y-101060000D02*
X149025000Y-101060000D01*
X149025000Y-100560000D01*
X148255000Y-100560000D01*
X148255000Y-101060000D01*
X147755000Y-101060000D01*
X147755000Y-100560000D01*
X146985000Y-100560000D01*
X146985000Y-101060000D01*
X146485000Y-101060000D01*
X146485000Y-100560000D01*
X146325000Y-100560000D01*
X146325000Y-99960000D01*
X149525000Y-99960000D01*
X149525000Y-101060000D01*
G36*
X149525000Y-101060000D02*
G01*
X149025000Y-101060000D01*
X149025000Y-100560000D01*
X148255000Y-100560000D01*
X148255000Y-101060000D01*
X147755000Y-101060000D01*
X147755000Y-100560000D01*
X146985000Y-100560000D01*
X146985000Y-101060000D01*
X146485000Y-101060000D01*
X146485000Y-100560000D01*
X146325000Y-100560000D01*
X146325000Y-99960000D01*
X149525000Y-99960000D01*
X149525000Y-101060000D01*
G37*
X147035000Y-95210000D02*
X147705000Y-95210000D01*
X147705000Y-94410000D01*
X148305000Y-94410000D01*
X148305000Y-95210000D01*
X148975000Y-95210000D01*
X148975000Y-94410000D01*
X149575000Y-94410000D01*
X149575000Y-95210000D01*
X150245000Y-95210000D01*
X150245000Y-94410000D01*
X150845000Y-94410000D01*
X150845000Y-98960000D01*
X146435000Y-98960000D01*
X146435000Y-94410000D01*
X147035000Y-94410000D01*
X147035000Y-95210000D01*
G36*
X147035000Y-95210000D02*
G01*
X147705000Y-95210000D01*
X147705000Y-94410000D01*
X148305000Y-94410000D01*
X148305000Y-95210000D01*
X148975000Y-95210000D01*
X148975000Y-94410000D01*
X149575000Y-94410000D01*
X149575000Y-95210000D01*
X150245000Y-95210000D01*
X150245000Y-94410000D01*
X150845000Y-94410000D01*
X150845000Y-98960000D01*
X146435000Y-98960000D01*
X146435000Y-94410000D01*
X147035000Y-94410000D01*
X147035000Y-95210000D01*
G37*
%TO.C,Q4*%
X144600000Y-106445000D02*
X143500000Y-106445000D01*
X143500000Y-105945000D01*
X144600000Y-105945000D01*
X144600000Y-106445000D01*
G36*
X144600000Y-106445000D02*
G01*
X143500000Y-106445000D01*
X143500000Y-105945000D01*
X144600000Y-105945000D01*
X144600000Y-106445000D01*
G37*
X144600000Y-105175000D02*
X143500000Y-105175000D01*
X143500000Y-104675000D01*
X144000000Y-104675000D01*
X144000000Y-103905000D01*
X143500000Y-103905000D01*
X143500000Y-103405000D01*
X144000000Y-103405000D01*
X144000000Y-102635000D01*
X143500000Y-102635000D01*
X143500000Y-102135000D01*
X144000000Y-102135000D01*
X144000000Y-101975000D01*
X144600000Y-101975000D01*
X144600000Y-105175000D01*
G36*
X144600000Y-105175000D02*
G01*
X143500000Y-105175000D01*
X143500000Y-104675000D01*
X144000000Y-104675000D01*
X144000000Y-103905000D01*
X143500000Y-103905000D01*
X143500000Y-103405000D01*
X144000000Y-103405000D01*
X144000000Y-102635000D01*
X143500000Y-102635000D01*
X143500000Y-102135000D01*
X144000000Y-102135000D01*
X144000000Y-101975000D01*
X144600000Y-101975000D01*
X144600000Y-105175000D01*
G37*
X150150000Y-102685000D02*
X149350000Y-102685000D01*
X149350000Y-103355000D01*
X150150000Y-103355000D01*
X150150000Y-103955000D01*
X149350000Y-103955000D01*
X149350000Y-104625000D01*
X150150000Y-104625000D01*
X150150000Y-105225000D01*
X149350000Y-105225000D01*
X149350000Y-105895000D01*
X150150000Y-105895000D01*
X150150000Y-106495000D01*
X145600000Y-106495000D01*
X145600000Y-102085000D01*
X150150000Y-102085000D01*
X150150000Y-102685000D01*
G36*
X150150000Y-102685000D02*
G01*
X149350000Y-102685000D01*
X149350000Y-103355000D01*
X150150000Y-103355000D01*
X150150000Y-103955000D01*
X149350000Y-103955000D01*
X149350000Y-104625000D01*
X150150000Y-104625000D01*
X150150000Y-105225000D01*
X149350000Y-105225000D01*
X149350000Y-105895000D01*
X150150000Y-105895000D01*
X150150000Y-106495000D01*
X145600000Y-106495000D01*
X145600000Y-102085000D01*
X150150000Y-102085000D01*
X150150000Y-102685000D01*
G37*
%TO.C,Q5*%
X140250000Y-102525000D02*
X139150000Y-102525000D01*
X139150000Y-102025000D01*
X140250000Y-102025000D01*
X140250000Y-102525000D01*
G36*
X140250000Y-102525000D02*
G01*
X139150000Y-102525000D01*
X139150000Y-102025000D01*
X140250000Y-102025000D01*
X140250000Y-102525000D01*
G37*
X140250000Y-103795000D02*
X139750000Y-103795000D01*
X139750000Y-104565000D01*
X140250000Y-104565000D01*
X140250000Y-105065000D01*
X139750000Y-105065000D01*
X139750000Y-105835000D01*
X140250000Y-105835000D01*
X140250000Y-106335000D01*
X139750000Y-106335000D01*
X139750000Y-106495000D01*
X139150000Y-106495000D01*
X139150000Y-103295000D01*
X140250000Y-103295000D01*
X140250000Y-103795000D01*
G36*
X140250000Y-103795000D02*
G01*
X139750000Y-103795000D01*
X139750000Y-104565000D01*
X140250000Y-104565000D01*
X140250000Y-105065000D01*
X139750000Y-105065000D01*
X139750000Y-105835000D01*
X140250000Y-105835000D01*
X140250000Y-106335000D01*
X139750000Y-106335000D01*
X139750000Y-106495000D01*
X139150000Y-106495000D01*
X139150000Y-103295000D01*
X140250000Y-103295000D01*
X140250000Y-103795000D01*
G37*
X138150000Y-106385000D02*
X133600000Y-106385000D01*
X133600000Y-105785000D01*
X134400000Y-105785000D01*
X134400000Y-105115000D01*
X133600000Y-105115000D01*
X133600000Y-104515000D01*
X134400000Y-104515000D01*
X134400000Y-103845000D01*
X133600000Y-103845000D01*
X133600000Y-103245000D01*
X134400000Y-103245000D01*
X134400000Y-102575000D01*
X133600000Y-102575000D01*
X133600000Y-101975000D01*
X138150000Y-101975000D01*
X138150000Y-106385000D01*
G36*
X138150000Y-106385000D02*
G01*
X133600000Y-106385000D01*
X133600000Y-105785000D01*
X134400000Y-105785000D01*
X134400000Y-105115000D01*
X133600000Y-105115000D01*
X133600000Y-104515000D01*
X134400000Y-104515000D01*
X134400000Y-103845000D01*
X133600000Y-103845000D01*
X133600000Y-103245000D01*
X134400000Y-103245000D01*
X134400000Y-102575000D01*
X133600000Y-102575000D01*
X133600000Y-101975000D01*
X138150000Y-101975000D01*
X138150000Y-106385000D01*
G37*
%TO.C,Q3*%
X126935000Y-101060000D02*
X126435000Y-101060000D01*
X126435000Y-99960000D01*
X126935000Y-99960000D01*
X126935000Y-101060000D01*
G36*
X126935000Y-101060000D02*
G01*
X126435000Y-101060000D01*
X126435000Y-99960000D01*
X126935000Y-99960000D01*
X126935000Y-101060000D01*
G37*
X125665000Y-101060000D02*
X125165000Y-101060000D01*
X125165000Y-100560000D01*
X124395000Y-100560000D01*
X124395000Y-101060000D01*
X123895000Y-101060000D01*
X123895000Y-100560000D01*
X123125000Y-100560000D01*
X123125000Y-101060000D01*
X122625000Y-101060000D01*
X122625000Y-100560000D01*
X122465000Y-100560000D01*
X122465000Y-99960000D01*
X125665000Y-99960000D01*
X125665000Y-101060000D01*
G36*
X125665000Y-101060000D02*
G01*
X125165000Y-101060000D01*
X125165000Y-100560000D01*
X124395000Y-100560000D01*
X124395000Y-101060000D01*
X123895000Y-101060000D01*
X123895000Y-100560000D01*
X123125000Y-100560000D01*
X123125000Y-101060000D01*
X122625000Y-101060000D01*
X122625000Y-100560000D01*
X122465000Y-100560000D01*
X122465000Y-99960000D01*
X125665000Y-99960000D01*
X125665000Y-101060000D01*
G37*
X123175000Y-95210000D02*
X123845000Y-95210000D01*
X123845000Y-94410000D01*
X124445000Y-94410000D01*
X124445000Y-95210000D01*
X125115000Y-95210000D01*
X125115000Y-94410000D01*
X125715000Y-94410000D01*
X125715000Y-95210000D01*
X126385000Y-95210000D01*
X126385000Y-94410000D01*
X126985000Y-94410000D01*
X126985000Y-98960000D01*
X122575000Y-98960000D01*
X122575000Y-94410000D01*
X123175000Y-94410000D01*
X123175000Y-95210000D01*
G36*
X123175000Y-95210000D02*
G01*
X123845000Y-95210000D01*
X123845000Y-94410000D01*
X124445000Y-94410000D01*
X124445000Y-95210000D01*
X125115000Y-95210000D01*
X125115000Y-94410000D01*
X125715000Y-94410000D01*
X125715000Y-95210000D01*
X126385000Y-95210000D01*
X126385000Y-94410000D01*
X126985000Y-94410000D01*
X126985000Y-98960000D01*
X122575000Y-98960000D01*
X122575000Y-94410000D01*
X123175000Y-94410000D01*
X123175000Y-95210000D01*
G37*
D11*
%TO.C,U14*%
G36*
X157898600Y-56274800D02*
G01*
X156425400Y-56274800D01*
X156425400Y-53125200D01*
X157898600Y-53125200D01*
X157898600Y-56274800D01*
G37*
%TD*%
D12*
%TO.C,TP7*%
X123100000Y-74250000D03*
%TD*%
D13*
%TO.C,C43*%
X128250000Y-90300000D03*
X128250000Y-87350000D03*
%TD*%
D14*
%TO.C,R3*%
X163810000Y-70790000D03*
X162790000Y-70790000D03*
%TD*%
D15*
%TO.C,H2*%
X161900000Y-76450000D03*
%TD*%
D16*
%TO.C,R24*%
X159340000Y-105357500D03*
X159340000Y-106377500D03*
%TD*%
D17*
%TO.C,D5*%
X162650000Y-113500000D03*
X164750000Y-113500000D03*
%TD*%
D18*
%TO.C,U15*%
X138800000Y-61550000D03*
X138128249Y-60878249D03*
X137456498Y-60206498D03*
X135847830Y-61815166D03*
X136519581Y-62486917D03*
X137191332Y-63158668D03*
%TD*%
D19*
%TO.C,C24*%
X161050000Y-89230000D03*
X161050000Y-88270000D03*
%TD*%
D13*
%TO.C,C41*%
X124850000Y-90300000D03*
X124850000Y-87350000D03*
%TD*%
D20*
%TO.C,R44*%
X153852500Y-59410000D03*
X153852500Y-58390000D03*
%TD*%
D21*
%TO.C,U7*%
X132723052Y-65887608D03*
X132369499Y-65534054D03*
X132015946Y-65180501D03*
X131662392Y-64826948D03*
D22*
X130937608Y-65180501D03*
X130584054Y-65534054D03*
X130230501Y-65887608D03*
D21*
X129876948Y-66612392D03*
X130230501Y-66965946D03*
X130584054Y-67319499D03*
X130937608Y-67673052D03*
D22*
X131662392Y-67319499D03*
X132015946Y-66965946D03*
X132369499Y-66612392D03*
%TD*%
D15*
%TO.C,H1*%
X125300000Y-65800000D03*
%TD*%
D14*
%TO.C,R13*%
X164510000Y-109800000D03*
X163490000Y-109800000D03*
%TD*%
D23*
%TO.C,J3*%
X167700000Y-93700000D03*
D24*
X167700000Y-91700000D03*
X167700000Y-89700000D03*
X167700000Y-87700000D03*
X167700000Y-85700000D03*
X167700000Y-83700000D03*
X167700000Y-81700000D03*
X167700000Y-79700000D03*
%TD*%
D25*
%TO.C,R10*%
X160250000Y-111550000D03*
X161270000Y-111550000D03*
%TD*%
D23*
%TO.C,J5*%
X167700000Y-59900000D03*
D24*
X167700000Y-57900000D03*
X167700000Y-55900000D03*
%TD*%
D26*
%TO.C,D2*%
X141000000Y-75950000D03*
X141000000Y-74375000D03*
%TD*%
D14*
%TO.C,R31*%
X153930000Y-99300000D03*
X152910000Y-99300000D03*
%TD*%
D20*
%TO.C,R43*%
X149152500Y-59410000D03*
X149152500Y-58390000D03*
%TD*%
D17*
%TO.C,D6*%
X159800000Y-108650000D03*
X161900000Y-108650000D03*
%TD*%
D13*
%TO.C,C42*%
X149450000Y-90300000D03*
X149450000Y-87350000D03*
%TD*%
D27*
%TO.C,C62*%
X139800000Y-58050000D03*
X139121178Y-58728822D03*
%TD*%
D28*
%TO.C,C12*%
X154459000Y-55300000D03*
X154459000Y-56260000D03*
%TD*%
D29*
%TO.C,C59*%
X139921178Y-56621178D03*
X140600000Y-57300000D03*
%TD*%
D23*
%TO.C,J1*%
X167700000Y-104600000D03*
D24*
X167700000Y-102600000D03*
X167700000Y-100600000D03*
X167700000Y-98600000D03*
%TD*%
D30*
%TO.C,C18*%
X163420000Y-61400000D03*
X164380000Y-61400000D03*
%TD*%
D25*
%TO.C,TH1*%
X141380000Y-101610000D03*
X142400000Y-101610000D03*
%TD*%
%TO.C,R12*%
X160250000Y-112730000D03*
X161270000Y-112730000D03*
%TD*%
D28*
%TO.C,C13*%
X152900000Y-55300000D03*
X152900000Y-56260000D03*
%TD*%
D14*
%TO.C,R16*%
X161270000Y-115100000D03*
X160250000Y-115100000D03*
%TD*%
D16*
%TO.C,R7*%
X148150000Y-74890000D03*
X148150000Y-75910000D03*
%TD*%
D31*
%TO.C,C65*%
X144500000Y-47900000D03*
X143821178Y-47221178D03*
%TD*%
D32*
%TO.C,Y1*%
X153909000Y-52150000D03*
X151709000Y-52150000D03*
X151709000Y-53850000D03*
X153909000Y-53850000D03*
%TD*%
D26*
%TO.C,D1*%
X143850000Y-75920000D03*
X143850000Y-74345000D03*
%TD*%
D33*
%TO.C,R46*%
X129400000Y-62500000D03*
X130121248Y-63221248D03*
%TD*%
%TO.C,R45*%
X127739375Y-60839376D03*
X128460625Y-61560624D03*
%TD*%
D13*
%TO.C,C39*%
X146050000Y-90325000D03*
X146050000Y-87375000D03*
%TD*%
D17*
%TO.C,D4*%
X162650000Y-111500000D03*
X164750000Y-111500000D03*
%TD*%
D28*
%TO.C,C56*%
X157000000Y-58400000D03*
X157000000Y-59360000D03*
%TD*%
D23*
%TO.C,J4*%
X167700000Y-49400000D03*
D24*
X167700000Y-47400000D03*
%TD*%
D28*
%TO.C,C34*%
X164800000Y-98500000D03*
X164800000Y-99460000D03*
%TD*%
D34*
%TO.C,D7*%
X164700000Y-117400000D03*
X162600000Y-117400000D03*
%TD*%
D26*
%TO.C,D3*%
X146747500Y-75920000D03*
X146747500Y-74345000D03*
%TD*%
D15*
%TO.C,H4*%
X141400000Y-113800000D03*
%TD*%
%TO.C,H3*%
X129600000Y-113800000D03*
%TD*%
D35*
%TO.C,R8*%
X133770624Y-68721248D03*
X133049376Y-68000000D03*
%TD*%
D30*
%TO.C,C3*%
X160250000Y-110350000D03*
X161210000Y-110350000D03*
%TD*%
D36*
%TO.C,U16*%
X145880330Y-59241600D03*
X146163173Y-58958757D03*
X146446016Y-58675914D03*
X146728858Y-58393072D03*
X147011701Y-58110229D03*
X147294544Y-57827386D03*
X147577386Y-57544544D03*
X147860229Y-57261701D03*
X148143072Y-56978858D03*
X148425914Y-56696016D03*
X148708757Y-56413173D03*
X148991600Y-56130330D03*
D37*
X148991600Y-55069670D03*
X148708757Y-54786827D03*
X148425914Y-54503984D03*
X148143072Y-54221142D03*
X147860229Y-53938299D03*
X147577386Y-53655456D03*
X147294544Y-53372614D03*
X147011701Y-53089771D03*
X146728858Y-52806928D03*
X146446016Y-52524086D03*
X146163173Y-52241243D03*
X145880330Y-51958400D03*
D36*
X144819670Y-51958400D03*
X144536827Y-52241243D03*
X144253984Y-52524086D03*
X143971142Y-52806928D03*
X143688299Y-53089771D03*
X143405456Y-53372614D03*
X143122614Y-53655456D03*
X142839771Y-53938299D03*
X142556928Y-54221142D03*
X142274086Y-54503984D03*
X141991243Y-54786827D03*
X141708400Y-55069670D03*
D37*
X141708400Y-56130330D03*
X141991243Y-56413173D03*
X142274086Y-56696016D03*
X142556928Y-56978858D03*
X142839771Y-57261701D03*
X143122614Y-57544544D03*
X143405456Y-57827386D03*
X143688299Y-58110229D03*
X143971142Y-58393072D03*
X144253984Y-58675914D03*
X144536827Y-58958757D03*
X144819670Y-59241600D03*
D38*
X145350000Y-55600000D03*
%TD*%
D19*
%TO.C,C19*%
X159900000Y-89230000D03*
X159900000Y-88270000D03*
%TD*%
D20*
%TO.C,R6*%
X142400000Y-75950000D03*
X142400000Y-74930000D03*
%TD*%
D39*
%TO.C,C4*%
X164500000Y-108700000D03*
X163540000Y-108700000D03*
%TD*%
D40*
%TO.C,Q7*%
X150602500Y-59875000D03*
X152502500Y-59875000D03*
X151552500Y-58000000D03*
%TD*%
D14*
%TO.C,R37*%
X153930000Y-98300000D03*
X152910000Y-98300000D03*
%TD*%
%TO.C,R38*%
X153930000Y-95800000D03*
X152910000Y-95800000D03*
%TD*%
D30*
%TO.C,C16*%
X163420000Y-60400000D03*
X164380000Y-60400000D03*
%TD*%
D14*
%TO.C,R39*%
X153930000Y-93300000D03*
X152910000Y-93300000D03*
%TD*%
D28*
%TO.C,C26*%
X164800000Y-96570000D03*
X164800000Y-97530000D03*
%TD*%
D23*
%TO.C,J2*%
X167700000Y-74800000D03*
D24*
X167700000Y-72800000D03*
X167700000Y-70800000D03*
X167700000Y-68800000D03*
X167700000Y-66800000D03*
X167700000Y-64800000D03*
%TD*%
D41*
%TO.C,J7*%
X163000000Y-48300000D03*
D42*
X161000000Y-48300000D03*
X159000000Y-48300000D03*
%TD*%
D43*
%TO.C,Y2*%
X141143934Y-60433883D03*
X142133883Y-59443934D03*
X141356066Y-58666117D03*
X140366117Y-59656066D03*
%TD*%
D44*
%TO.C,U4*%
X162990000Y-103800000D03*
X162990000Y-103300000D03*
X162990000Y-102800000D03*
X162990000Y-102300000D03*
X162990000Y-101800000D03*
X162990000Y-101300000D03*
X162990000Y-100800000D03*
X162990000Y-100300000D03*
X162990000Y-99800000D03*
X162990000Y-99300000D03*
X162990000Y-98800000D03*
X162990000Y-98300000D03*
X162990000Y-97800000D03*
X162990000Y-97300000D03*
X162990000Y-96800000D03*
X162990000Y-96300000D03*
X162990000Y-95800000D03*
X162990000Y-95300000D03*
X162990000Y-94800000D03*
X162990000Y-94300000D03*
X162990000Y-93800000D03*
X162990000Y-93300000D03*
X162990000Y-92800000D03*
X162990000Y-92300000D03*
X162990000Y-91800000D03*
X162990000Y-91300000D03*
X162990000Y-90800000D03*
X162990000Y-90300000D03*
X155550000Y-90300000D03*
X155550000Y-90800000D03*
X155550000Y-91300000D03*
X155550000Y-91800000D03*
X155550000Y-92300000D03*
X155550000Y-92800000D03*
X155550000Y-93300000D03*
X155550000Y-93800000D03*
X155550000Y-94300000D03*
X155550000Y-94800000D03*
X155550000Y-95300000D03*
X155550000Y-95800000D03*
X155550000Y-96300000D03*
X155550000Y-96800000D03*
X155550000Y-97300000D03*
X155550000Y-97800000D03*
X155550000Y-98300000D03*
X155550000Y-98800000D03*
X155550000Y-99300000D03*
X155550000Y-99800000D03*
X155550000Y-100300000D03*
X155550000Y-100800000D03*
X155550000Y-101300000D03*
X155550000Y-101800000D03*
X155550000Y-102300000D03*
X155550000Y-102800000D03*
X155550000Y-103300000D03*
X155550000Y-103800000D03*
D45*
X159270000Y-97050000D03*
%TD*%
D46*
%TO.C,J9*%
X136148671Y-56103913D03*
X132061594Y-60190990D03*
D47*
X137159833Y-56676669D03*
X136594148Y-57242354D03*
D48*
X135780975Y-58055527D03*
X135073868Y-58762634D03*
X134720315Y-59116187D03*
X134013208Y-59823294D03*
D47*
X133200035Y-60636467D03*
X132634350Y-61202152D03*
X132634350Y-61202152D03*
X133200035Y-60636467D03*
D48*
X133659655Y-60176848D03*
X134366762Y-59469741D03*
X135427422Y-58409081D03*
X136134529Y-57701974D03*
D47*
X136594148Y-57242354D03*
X137159833Y-56676669D03*
D49*
X137527529Y-55460445D03*
D50*
X134557681Y-52490597D03*
D49*
X131418126Y-61569848D03*
D50*
X128448278Y-58600000D03*
%TD*%
D30*
%TO.C,C55*%
X163420000Y-59400000D03*
X164380000Y-59400000D03*
%TD*%
D14*
%TO.C,R15*%
X161270000Y-113900000D03*
X160250000Y-113900000D03*
%TD*%
%TO.C,R4*%
X163810000Y-71900000D03*
X162790000Y-71900000D03*
%TD*%
D51*
%TO.C,U14*%
X163700000Y-57000000D03*
D52*
X157162000Y-54700000D03*
D51*
X163700000Y-54700000D03*
X163700000Y-52400000D03*
%TD*%
D14*
%TO.C,R32*%
X153930000Y-96800000D03*
X152910000Y-96800000D03*
%TD*%
D53*
%TO.C,U2*%
X158975000Y-82495000D03*
X158975000Y-83765000D03*
X158975000Y-85035000D03*
X158975000Y-86305000D03*
X163925000Y-86305000D03*
X163925000Y-85035000D03*
X163925000Y-83765000D03*
X163925000Y-82495000D03*
%TD*%
D14*
%TO.C,R2*%
X163810000Y-69700000D03*
X162790000Y-69700000D03*
%TD*%
D23*
%TO.C,J6*%
X167700000Y-117500000D03*
D24*
X167700000Y-115500000D03*
X167700000Y-113500000D03*
X167700000Y-111500000D03*
X167700000Y-109500000D03*
%TD*%
D41*
%TO.C,J8*%
X154100000Y-48300000D03*
D42*
X152100000Y-48300000D03*
X150100000Y-48300000D03*
%TD*%
D14*
%TO.C,R33*%
X153930000Y-94300000D03*
X152910000Y-94300000D03*
%TD*%
D54*
%TO.C,U1*%
X157850000Y-62325000D03*
X157350000Y-62325000D03*
X156850000Y-62325000D03*
X156350000Y-62325000D03*
X155850000Y-62325000D03*
X155350000Y-62325000D03*
X154850000Y-62325000D03*
X154350000Y-62325000D03*
X153850000Y-62325000D03*
X153350000Y-62325000D03*
X152850000Y-62325000D03*
X152350000Y-62325000D03*
X151850000Y-62325000D03*
X151350000Y-62325000D03*
X150850000Y-62325000D03*
X150350000Y-62325000D03*
D55*
X148425000Y-64250000D03*
X148425000Y-64750000D03*
X148425000Y-65250000D03*
X148425000Y-65750000D03*
X148425000Y-66250000D03*
X148425000Y-66750000D03*
X148425000Y-67250000D03*
X148425000Y-67750000D03*
X148425000Y-68250000D03*
X148425000Y-68750000D03*
X148425000Y-69250000D03*
X148425000Y-69750000D03*
X148425000Y-70250000D03*
X148425000Y-70750000D03*
X148425000Y-71250000D03*
X148425000Y-71750000D03*
D54*
X150350000Y-73675000D03*
X150850000Y-73675000D03*
X151350000Y-73675000D03*
X151850000Y-73675000D03*
X152350000Y-73675000D03*
X152850000Y-73675000D03*
X153350000Y-73675000D03*
X153850000Y-73675000D03*
X154350000Y-73675000D03*
X154850000Y-73675000D03*
X155350000Y-73675000D03*
X155850000Y-73675000D03*
X156350000Y-73675000D03*
X156850000Y-73675000D03*
X157350000Y-73675000D03*
X157850000Y-73675000D03*
D55*
X159775000Y-71750000D03*
X159775000Y-71250000D03*
X159775000Y-70750000D03*
X159775000Y-70250000D03*
X159775000Y-69750000D03*
X159775000Y-69250000D03*
X159775000Y-68750000D03*
X159775000Y-68250000D03*
X159775000Y-67750000D03*
X159775000Y-67250000D03*
X159775000Y-66750000D03*
X159775000Y-66250000D03*
X159775000Y-65750000D03*
X159775000Y-65250000D03*
X159775000Y-64750000D03*
X159775000Y-64250000D03*
%TD*%
D20*
%TO.C,R22*%
X160450000Y-106370000D03*
X160450000Y-105350000D03*
%TD*%
D35*
%TO.C,R11*%
X134600000Y-67900000D03*
X133878752Y-67178752D03*
%TD*%
D56*
%TO.C,L2*%
X143735894Y-50314106D03*
X143050000Y-51000000D03*
%TD*%
D57*
%TO.C,D9*%
X161938300Y-59600000D03*
X158661700Y-59600000D03*
%TD*%
D16*
%TO.C,R5*%
X145250000Y-74890000D03*
X145250000Y-75910000D03*
%TD*%
D27*
%TO.C,C63*%
X141878822Y-52171178D03*
X141200000Y-52850000D03*
%TD*%
D58*
%TO.C,J10*%
X141910660Y-49860660D03*
D59*
X139807017Y-49842983D03*
D58*
X139789340Y-47739340D03*
D59*
X141892983Y-47757017D03*
%TD*%
M02*
