%TF.GenerationSoftware,KiCad,Pcbnew,9.0.1*%
%TF.CreationDate,2025-08-11T19:05:14-04:00*%
%TF.ProjectId,resc,72657363-2e6b-4696-9361-645f70636258,rev?*%
%TF.SameCoordinates,Original*%
%TF.FileFunction,Legend,Top*%
%TF.FilePolarity,Positive*%
%FSLAX46Y46*%
G04 Gerber Fmt 4.6, Leading zero omitted, Abs format (unit mm)*
G04 Created by KiCad (PCBNEW 9.0.1) date 2025-08-11 19:05:14*
%MOMM*%
%LPD*%
G01*
G04 APERTURE LIST*
%ADD10C,0.300000*%
%ADD11C,0.250000*%
%ADD12C,0.150000*%
%ADD13C,0.120000*%
%ADD14C,0.100000*%
%ADD15C,0.127000*%
%ADD16C,0.200000*%
%ADD17C,0.152400*%
G04 APERTURE END LIST*
D10*
G36*
X146120377Y-85745000D02*
G01*
X146347248Y-84606797D01*
X146725244Y-84606797D01*
X146660123Y-84930205D01*
X146622296Y-84837790D01*
X146679716Y-84753730D01*
X146745957Y-84690226D01*
X146821781Y-84644624D01*
X146906193Y-84613923D01*
X147002173Y-84594675D01*
X147111667Y-84587930D01*
X147042333Y-84946967D01*
X146996079Y-84941837D01*
X146952024Y-84940738D01*
X146867173Y-84948222D01*
X146797060Y-84969234D01*
X146738800Y-85002654D01*
X146692060Y-85049733D01*
X146654996Y-85116185D01*
X146628616Y-85207360D01*
X146519439Y-85745000D01*
X146120377Y-85745000D01*
G37*
G36*
X147677425Y-85763867D02*
G01*
X147557014Y-85756246D01*
X147451723Y-85734513D01*
X147359329Y-85699845D01*
X147274490Y-85650500D01*
X147204675Y-85590515D01*
X147148212Y-85519319D01*
X147106836Y-85438591D01*
X147081453Y-85347960D01*
X147072649Y-85245187D01*
X147082579Y-85121573D01*
X147111441Y-85009968D01*
X147158745Y-84908224D01*
X147223600Y-84816666D01*
X147303594Y-84738926D01*
X147400271Y-84674025D01*
X147506960Y-84627042D01*
X147626529Y-84598015D01*
X147761506Y-84587930D01*
X147876331Y-84595490D01*
X147975251Y-84616924D01*
X148060734Y-84650944D01*
X148138644Y-84699081D01*
X148202539Y-84757297D01*
X148253899Y-84826250D01*
X148291254Y-84903744D01*
X148314190Y-84990261D01*
X148322135Y-85087742D01*
X148315815Y-85184371D01*
X148299054Y-85274588D01*
X147385524Y-85274588D01*
X147423352Y-85064569D01*
X148114223Y-85064569D01*
X147948352Y-85125478D01*
X147955341Y-85047189D01*
X147943131Y-84987999D01*
X147913698Y-84938621D01*
X147869583Y-84901904D01*
X147814035Y-84879494D01*
X147742546Y-84871404D01*
X147679817Y-84877205D01*
X147627672Y-84893564D01*
X147584002Y-84919764D01*
X147530627Y-84975740D01*
X147491587Y-85051014D01*
X147468949Y-85136349D01*
X147461179Y-85230532D01*
X147469352Y-85306136D01*
X147491518Y-85362302D01*
X147526208Y-85403823D01*
X147572901Y-85432976D01*
X147636323Y-85452229D01*
X147721572Y-85459419D01*
X147796261Y-85453389D01*
X147869583Y-85435239D01*
X147938241Y-85405739D01*
X147996712Y-85367003D01*
X148162583Y-85616864D01*
X148088732Y-85665241D01*
X148011545Y-85702920D01*
X147930491Y-85730345D01*
X147804617Y-85755506D01*
X147677425Y-85763867D01*
G37*
G36*
X148669448Y-85745000D02*
G01*
X148427922Y-84606797D01*
X148822680Y-84606797D01*
X149011724Y-85560169D01*
X148805919Y-85560169D01*
X149383400Y-84606797D01*
X149778250Y-84606797D01*
X149083073Y-85745000D01*
X148669448Y-85745000D01*
G37*
G36*
X150422226Y-85745000D02*
G01*
X150684726Y-84430393D01*
X150829623Y-84596264D01*
X150378171Y-84596264D01*
X150443201Y-84274963D01*
X151132057Y-84274963D01*
X150838050Y-85745000D01*
X150422226Y-85745000D01*
G37*
G36*
X122257257Y-83243867D02*
G01*
X122136846Y-83236246D01*
X122031555Y-83214513D01*
X121939161Y-83179845D01*
X121854322Y-83130500D01*
X121784507Y-83070515D01*
X121728044Y-82999319D01*
X121686668Y-82918591D01*
X121661285Y-82827960D01*
X121652481Y-82725187D01*
X121662410Y-82601573D01*
X121691273Y-82489968D01*
X121738577Y-82388224D01*
X121803431Y-82296666D01*
X121883426Y-82218926D01*
X121980102Y-82154025D01*
X122086792Y-82107042D01*
X122206361Y-82078015D01*
X122341338Y-82067930D01*
X122456163Y-82075490D01*
X122555083Y-82096924D01*
X122640566Y-82130944D01*
X122718476Y-82179081D01*
X122782371Y-82237297D01*
X122833731Y-82306250D01*
X122871086Y-82383744D01*
X122894022Y-82470261D01*
X122901967Y-82567742D01*
X122895647Y-82664371D01*
X122878886Y-82754588D01*
X121965356Y-82754588D01*
X122003183Y-82544569D01*
X122694055Y-82544569D01*
X122528183Y-82605478D01*
X122535173Y-82527189D01*
X122522963Y-82467999D01*
X122493530Y-82418621D01*
X122449415Y-82381904D01*
X122393867Y-82359494D01*
X122322378Y-82351404D01*
X122259649Y-82357205D01*
X122207504Y-82373564D01*
X122163834Y-82399764D01*
X122110459Y-82455740D01*
X122071419Y-82531014D01*
X122048781Y-82616349D01*
X122041010Y-82710532D01*
X122049184Y-82786136D01*
X122071350Y-82842302D01*
X122106040Y-82883823D01*
X122152732Y-82912976D01*
X122216155Y-82932229D01*
X122301404Y-82939419D01*
X122376093Y-82933389D01*
X122449415Y-82915239D01*
X122518073Y-82885739D01*
X122576543Y-82847003D01*
X122742415Y-83096864D01*
X122668563Y-83145241D01*
X122591377Y-83182920D01*
X122510323Y-83210345D01*
X122384449Y-83235506D01*
X122257257Y-83243867D01*
G37*
G36*
X122954082Y-83225000D02*
G01*
X123264942Y-81666761D01*
X123663913Y-81666761D01*
X123353144Y-83225000D01*
X122954082Y-83225000D01*
G37*
G36*
X124253210Y-83243867D02*
G01*
X124132798Y-83236246D01*
X124027507Y-83214513D01*
X123935114Y-83179845D01*
X123850275Y-83130500D01*
X123780460Y-83070515D01*
X123723996Y-82999319D01*
X123682621Y-82918591D01*
X123657237Y-82827960D01*
X123648434Y-82725187D01*
X123658363Y-82601573D01*
X123687226Y-82489968D01*
X123734529Y-82388224D01*
X123799384Y-82296666D01*
X123879378Y-82218926D01*
X123976055Y-82154025D01*
X124082745Y-82107042D01*
X124202313Y-82078015D01*
X124337290Y-82067930D01*
X124452115Y-82075490D01*
X124551035Y-82096924D01*
X124636518Y-82130944D01*
X124714428Y-82179081D01*
X124778324Y-82237297D01*
X124829684Y-82306250D01*
X124867039Y-82383744D01*
X124889975Y-82470261D01*
X124897919Y-82567742D01*
X124891599Y-82664371D01*
X124874838Y-82754588D01*
X123961309Y-82754588D01*
X123999136Y-82544569D01*
X124690007Y-82544569D01*
X124524136Y-82605478D01*
X124531125Y-82527189D01*
X124518915Y-82467999D01*
X124489483Y-82418621D01*
X124445368Y-82381904D01*
X124389820Y-82359494D01*
X124318331Y-82351404D01*
X124255602Y-82357205D01*
X124203456Y-82373564D01*
X124159787Y-82399764D01*
X124106412Y-82455740D01*
X124067371Y-82531014D01*
X124044734Y-82616349D01*
X124036963Y-82710532D01*
X124045136Y-82786136D01*
X124067303Y-82842302D01*
X124101993Y-82883823D01*
X124148685Y-82912976D01*
X124212107Y-82932229D01*
X124297356Y-82939419D01*
X124372045Y-82933389D01*
X124445368Y-82915239D01*
X124514025Y-82885739D01*
X124572496Y-82847003D01*
X124738367Y-83096864D01*
X124664516Y-83145241D01*
X124587330Y-83182920D01*
X124506276Y-83210345D01*
X124380401Y-83235506D01*
X124253210Y-83243867D01*
G37*
G36*
X125586409Y-83243867D02*
G01*
X125465986Y-83236115D01*
X125361030Y-83214035D01*
X125269229Y-83178838D01*
X125185126Y-83128869D01*
X125116037Y-83068517D01*
X125060310Y-82997213D01*
X125019434Y-82916577D01*
X124994412Y-82826606D01*
X124985755Y-82725187D01*
X124996132Y-82601789D01*
X125026354Y-82490211D01*
X125076064Y-82388224D01*
X125143606Y-82296780D01*
X125226361Y-82219009D01*
X125325924Y-82154025D01*
X125435309Y-82106911D01*
X125556363Y-82077944D01*
X125691372Y-82067930D01*
X125817974Y-82077585D01*
X125928739Y-82105239D01*
X126026321Y-82149812D01*
X126112833Y-82212064D01*
X126180490Y-82287179D01*
X126231119Y-82376591D01*
X125890858Y-82538341D01*
X125865746Y-82488112D01*
X125835980Y-82450306D01*
X125801557Y-82422845D01*
X125740560Y-82396231D01*
X125670398Y-82387124D01*
X125594113Y-82397481D01*
X125526509Y-82428066D01*
X125469722Y-82475929D01*
X125426766Y-82538341D01*
X125400415Y-82611916D01*
X125391045Y-82702106D01*
X125397789Y-82765711D01*
X125416854Y-82818119D01*
X125447740Y-82861749D01*
X125489335Y-82894403D01*
X125543388Y-82915053D01*
X125613703Y-82922566D01*
X125688216Y-82913715D01*
X125753288Y-82887944D01*
X125809107Y-82843831D01*
X125859351Y-82773456D01*
X126151251Y-82949860D01*
X126089543Y-83035257D01*
X126013399Y-83107052D01*
X125921266Y-83166198D01*
X125820015Y-83208786D01*
X125709032Y-83234880D01*
X125586409Y-83243867D01*
G37*
G36*
X126736335Y-83243867D02*
G01*
X126649403Y-83237727D01*
X126574456Y-83220285D01*
X126509556Y-83192485D01*
X126452368Y-83152594D01*
X126407946Y-83102628D01*
X126375100Y-83041268D01*
X126356522Y-82973728D01*
X126351670Y-82895166D01*
X126362552Y-82802856D01*
X126555717Y-81832724D01*
X126954780Y-81832724D01*
X126761523Y-82800841D01*
X126760440Y-82861126D01*
X126776269Y-82900584D01*
X126808342Y-82925700D01*
X126862364Y-82935205D01*
X126923272Y-82926871D01*
X126982074Y-82901591D01*
X127032449Y-83176731D01*
X126966685Y-83207147D01*
X126892773Y-83228114D01*
X126815511Y-83239911D01*
X126736335Y-83243867D01*
G37*
G36*
X126270136Y-82426967D02*
G01*
X126331045Y-82128838D01*
X127154265Y-82128838D01*
X127095464Y-82426967D01*
X126270136Y-82426967D01*
G37*
G36*
X127170202Y-83225000D02*
G01*
X127397073Y-82086797D01*
X127775069Y-82086797D01*
X127709948Y-82410205D01*
X127672121Y-82317790D01*
X127729541Y-82233730D01*
X127795782Y-82170226D01*
X127871606Y-82124624D01*
X127956017Y-82093923D01*
X128051998Y-82074675D01*
X128161492Y-82067930D01*
X128092158Y-82426967D01*
X128045904Y-82421837D01*
X128001849Y-82420738D01*
X127916998Y-82428222D01*
X127846885Y-82449234D01*
X127788625Y-82482654D01*
X127741885Y-82529733D01*
X127704820Y-82596185D01*
X127678441Y-82687360D01*
X127569264Y-83225000D01*
X127170202Y-83225000D01*
G37*
G36*
X128940145Y-82075587D02*
G01*
X129044711Y-82097349D01*
X129135746Y-82131952D01*
X129219177Y-82181201D01*
X129287556Y-82240849D01*
X129342559Y-82311470D01*
X129382748Y-82391378D01*
X129407498Y-82481630D01*
X129416106Y-82584503D01*
X129405748Y-82707918D01*
X129375542Y-82819879D01*
X129325798Y-82922566D01*
X129258297Y-83014772D01*
X129176166Y-83092850D01*
X129077952Y-83157772D01*
X128969999Y-83204885D01*
X128850387Y-83233851D01*
X128716809Y-83243867D01*
X128597814Y-83236146D01*
X128493519Y-83214095D01*
X128401735Y-83178838D01*
X128317692Y-83128829D01*
X128248958Y-83068478D01*
X128193824Y-82997213D01*
X128153576Y-82916643D01*
X128128908Y-82826667D01*
X128120368Y-82725187D01*
X128121955Y-82706319D01*
X128525658Y-82706319D01*
X128532471Y-82771260D01*
X128551594Y-82823919D01*
X128582353Y-82866970D01*
X128623684Y-82899424D01*
X128675198Y-82919572D01*
X128739890Y-82926779D01*
X128815681Y-82916329D01*
X128880573Y-82885838D01*
X128934451Y-82837832D01*
X128976103Y-82773547D01*
X129001704Y-82697880D01*
X129010816Y-82605478D01*
X129004316Y-82544581D01*
X128985690Y-82492751D01*
X128955129Y-82448032D01*
X128914166Y-82413835D01*
X128862412Y-82392626D01*
X128796584Y-82385018D01*
X128720727Y-82395229D01*
X128655901Y-82424952D01*
X128602129Y-82472257D01*
X128560280Y-82537242D01*
X128534721Y-82613774D01*
X128525658Y-82706319D01*
X128121955Y-82706319D01*
X128130745Y-82601789D01*
X128160967Y-82490211D01*
X128210676Y-82388224D01*
X128278109Y-82296641D01*
X128360204Y-82218884D01*
X128458430Y-82154025D01*
X128566442Y-82106909D01*
X128686086Y-82077945D01*
X128819665Y-82067930D01*
X128940145Y-82075587D01*
G37*
G36*
X130418479Y-82067930D02*
G01*
X130513505Y-82075107D01*
X130594592Y-82095439D01*
X130664126Y-82127830D01*
X130724631Y-82173722D01*
X130772309Y-82231897D01*
X130808016Y-82304234D01*
X130827276Y-82382977D01*
X130830818Y-82478521D01*
X130815435Y-82595036D01*
X130689405Y-83225000D01*
X130290435Y-83225000D01*
X130408038Y-82632772D01*
X130416903Y-82560059D01*
X130411263Y-82505655D01*
X130394299Y-82464794D01*
X130364998Y-82433570D01*
X130321655Y-82413538D01*
X130258927Y-82405992D01*
X130194144Y-82413242D01*
X130138078Y-82434208D01*
X130088751Y-82469007D01*
X130049370Y-82515249D01*
X130016874Y-82578241D01*
X129992214Y-82662172D01*
X129878825Y-83225000D01*
X129479762Y-83225000D01*
X129706633Y-82086797D01*
X130084630Y-82086797D01*
X130019508Y-82405992D01*
X129969133Y-82313577D01*
X130029515Y-82234278D01*
X130096851Y-82172656D01*
X130171733Y-82126731D01*
X130253855Y-82093740D01*
X130335812Y-82074350D01*
X130418479Y-82067930D01*
G37*
G36*
X130940823Y-83225000D02*
G01*
X131167694Y-82086797D01*
X131564558Y-82086797D01*
X131337779Y-83225000D01*
X130940823Y-83225000D01*
G37*
G36*
X131421768Y-81960768D02*
G01*
X131353955Y-81953800D01*
X131299211Y-81934300D01*
X131254706Y-81903066D01*
X131219975Y-81861327D01*
X131199676Y-81815323D01*
X131192790Y-81763389D01*
X131200729Y-81702030D01*
X131223901Y-81648841D01*
X131263132Y-81601731D01*
X131313579Y-81566329D01*
X131374589Y-81544393D01*
X131449062Y-81536610D01*
X131517062Y-81543226D01*
X131572148Y-81561722D01*
X131617040Y-81591198D01*
X131652329Y-81631050D01*
X131673000Y-81675930D01*
X131680054Y-81727669D01*
X131671838Y-81793145D01*
X131648163Y-81848350D01*
X131608613Y-81895738D01*
X131557609Y-81931121D01*
X131496266Y-81953014D01*
X131421768Y-81960768D01*
G37*
G36*
X132232257Y-83243867D02*
G01*
X132111833Y-83236115D01*
X132006878Y-83214035D01*
X131915077Y-83178838D01*
X131830974Y-83128869D01*
X131761885Y-83068517D01*
X131706158Y-82997213D01*
X131665282Y-82916577D01*
X131640260Y-82826606D01*
X131631603Y-82725187D01*
X131641980Y-82601789D01*
X131672202Y-82490211D01*
X131721912Y-82388224D01*
X131789454Y-82296780D01*
X131872209Y-82219009D01*
X131971772Y-82154025D01*
X132081157Y-82106911D01*
X132202211Y-82077944D01*
X132337220Y-82067930D01*
X132463822Y-82077585D01*
X132574587Y-82105239D01*
X132672169Y-82149812D01*
X132758681Y-82212064D01*
X132826338Y-82287179D01*
X132876967Y-82376591D01*
X132536706Y-82538341D01*
X132511594Y-82488112D01*
X132481828Y-82450306D01*
X132447404Y-82422845D01*
X132386408Y-82396231D01*
X132316246Y-82387124D01*
X132239961Y-82397481D01*
X132172356Y-82428066D01*
X132115570Y-82475929D01*
X132072614Y-82538341D01*
X132046263Y-82611916D01*
X132036893Y-82702106D01*
X132043637Y-82765711D01*
X132062702Y-82818119D01*
X132093588Y-82861749D01*
X132135183Y-82894403D01*
X132189236Y-82915053D01*
X132259551Y-82922566D01*
X132334064Y-82913715D01*
X132399136Y-82887944D01*
X132454955Y-82843831D01*
X132505198Y-82773456D01*
X132797099Y-82949860D01*
X132735391Y-83035257D01*
X132659247Y-83107052D01*
X132567114Y-83166198D01*
X132465863Y-83208786D01*
X132354879Y-83234880D01*
X132232257Y-83243867D01*
G37*
G36*
X133915426Y-83243867D02*
G01*
X133766850Y-83235559D01*
X133629845Y-83211352D01*
X133504341Y-83172964D01*
X133421933Y-83132584D01*
X133566830Y-82853323D01*
X133651582Y-82897156D01*
X133753676Y-82930992D01*
X133860435Y-82951616D01*
X133961680Y-82958286D01*
X134052856Y-82951669D01*
X134102272Y-82936304D01*
X134134460Y-82909337D01*
X134144312Y-82876404D01*
X134134500Y-82848378D01*
X134101264Y-82827036D01*
X134055005Y-82813291D01*
X133990989Y-82800841D01*
X133849297Y-82773547D01*
X133776327Y-82752946D01*
X133707514Y-82725187D01*
X133646200Y-82686968D01*
X133597330Y-82635977D01*
X133574316Y-82595320D01*
X133559601Y-82544685D01*
X133554282Y-82481555D01*
X133563572Y-82393557D01*
X133590247Y-82318196D01*
X133634058Y-82252760D01*
X133691936Y-82197639D01*
X133763628Y-82151398D01*
X133851404Y-82114183D01*
X133944218Y-82089059D01*
X134047042Y-82073378D01*
X134161165Y-82067930D01*
X134281605Y-82073772D01*
X134396371Y-82091010D01*
X134504915Y-82120216D01*
X134593750Y-82158238D01*
X134453066Y-82437500D01*
X134367135Y-82394902D01*
X134280874Y-82369264D01*
X134193732Y-82355704D01*
X134114911Y-82351404D01*
X134023974Y-82358932D01*
X133974228Y-82376591D01*
X133941873Y-82405743D01*
X133932279Y-82437500D01*
X133941861Y-82464192D01*
X133975327Y-82486867D01*
X134021527Y-82502435D01*
X134084503Y-82516268D01*
X134226195Y-82543562D01*
X134299925Y-82563407D01*
X134367978Y-82590823D01*
X134428527Y-82628782D01*
X134477154Y-82679025D01*
X134500130Y-82718996D01*
X134514861Y-82769195D01*
X134520202Y-82832257D01*
X134510850Y-82918841D01*
X134483876Y-82993598D01*
X134439327Y-83059128D01*
X134380876Y-83114352D01*
X134309132Y-83160580D01*
X134221981Y-83197705D01*
X134129898Y-83222798D01*
X134028129Y-83238438D01*
X133915426Y-83243867D01*
G37*
G36*
X135610143Y-82074693D02*
G01*
X135687828Y-82094868D01*
X135763184Y-82128838D01*
X135831595Y-82174990D01*
X135890883Y-82233018D01*
X135941695Y-82304143D01*
X135978609Y-82383190D01*
X136001817Y-82475710D01*
X136010022Y-82584503D01*
X136004456Y-82678735D01*
X135988203Y-82765915D01*
X135961662Y-82847003D01*
X135925044Y-82924060D01*
X135880646Y-82993502D01*
X135828306Y-83056014D01*
X135768513Y-83111228D01*
X135703255Y-83157277D01*
X135632026Y-83194591D01*
X135556494Y-83221818D01*
X135476968Y-83238283D01*
X135392607Y-83243867D01*
X135302925Y-83237537D01*
X135224409Y-83219433D01*
X135155294Y-83190378D01*
X135095022Y-83148076D01*
X135046245Y-83091149D01*
X135044469Y-83087685D01*
X134934835Y-83632397D01*
X134535772Y-83632397D01*
X134720768Y-82706319D01*
X135119574Y-82706319D01*
X135126363Y-82769817D01*
X135145456Y-82821430D01*
X135176269Y-82863764D01*
X135217568Y-82895531D01*
X135269717Y-82915411D01*
X135335912Y-82922566D01*
X135411775Y-82912376D01*
X135476596Y-82882724D01*
X135530427Y-82835523D01*
X135572125Y-82771441D01*
X135597778Y-82696034D01*
X135606838Y-82605478D01*
X135600063Y-82541964D01*
X135580955Y-82489984D01*
X135550052Y-82447025D01*
X135508669Y-82414612D01*
X135456545Y-82394390D01*
X135390500Y-82387124D01*
X135316362Y-82397473D01*
X135250824Y-82428066D01*
X135196114Y-82476162D01*
X135154195Y-82540448D01*
X135128614Y-82615770D01*
X135119574Y-82706319D01*
X134720768Y-82706319D01*
X134844526Y-82086797D01*
X135222522Y-82086797D01*
X135199620Y-82196364D01*
X135263372Y-82144591D01*
X135342741Y-82102421D01*
X135430620Y-82076768D01*
X135529077Y-82067930D01*
X135610143Y-82074693D01*
G37*
G36*
X136718387Y-83243867D02*
G01*
X136597976Y-83236246D01*
X136492685Y-83214513D01*
X136400292Y-83179845D01*
X136315452Y-83130500D01*
X136245638Y-83070515D01*
X136189174Y-82999319D01*
X136147798Y-82918591D01*
X136122415Y-82827960D01*
X136113612Y-82725187D01*
X136123541Y-82601573D01*
X136152403Y-82489968D01*
X136199707Y-82388224D01*
X136264562Y-82296666D01*
X136344556Y-82218926D01*
X136441233Y-82154025D01*
X136547923Y-82107042D01*
X136667491Y-82078015D01*
X136802468Y-82067930D01*
X136917293Y-82075490D01*
X137016213Y-82096924D01*
X137101696Y-82130944D01*
X137179606Y-82179081D01*
X137243502Y-82237297D01*
X137294862Y-82306250D01*
X137332217Y-82383744D01*
X137355152Y-82470261D01*
X137363097Y-82567742D01*
X137356777Y-82664371D01*
X137340016Y-82754588D01*
X136426487Y-82754588D01*
X136464314Y-82544569D01*
X137155185Y-82544569D01*
X136989314Y-82605478D01*
X136996303Y-82527189D01*
X136984093Y-82467999D01*
X136954660Y-82418621D01*
X136910546Y-82381904D01*
X136854997Y-82359494D01*
X136783509Y-82351404D01*
X136720780Y-82357205D01*
X136668634Y-82373564D01*
X136624965Y-82399764D01*
X136571590Y-82455740D01*
X136532549Y-82531014D01*
X136509912Y-82616349D01*
X136502141Y-82710532D01*
X136510314Y-82786136D01*
X136532481Y-82842302D01*
X136567171Y-82883823D01*
X136613863Y-82912976D01*
X136677285Y-82932229D01*
X136762534Y-82939419D01*
X136837223Y-82933389D01*
X136910546Y-82915239D01*
X136979203Y-82885739D01*
X137037674Y-82847003D01*
X137203545Y-83096864D01*
X137129694Y-83145241D01*
X137052508Y-83182920D01*
X136971454Y-83210345D01*
X136845579Y-83235506D01*
X136718387Y-83243867D01*
G37*
G36*
X138057815Y-83243867D02*
G01*
X137937404Y-83236246D01*
X137832113Y-83214513D01*
X137739719Y-83179845D01*
X137654880Y-83130500D01*
X137585065Y-83070515D01*
X137528602Y-82999319D01*
X137487226Y-82918591D01*
X137461843Y-82827960D01*
X137453039Y-82725187D01*
X137462969Y-82601573D01*
X137491831Y-82489968D01*
X137539135Y-82388224D01*
X137603990Y-82296666D01*
X137683984Y-82218926D01*
X137780661Y-82154025D01*
X137887350Y-82107042D01*
X138006919Y-82078015D01*
X138141896Y-82067930D01*
X138256721Y-82075490D01*
X138355641Y-82096924D01*
X138441124Y-82130944D01*
X138519034Y-82179081D01*
X138582929Y-82237297D01*
X138634289Y-82306250D01*
X138671645Y-82383744D01*
X138694580Y-82470261D01*
X138702525Y-82567742D01*
X138696205Y-82664371D01*
X138679444Y-82754588D01*
X137765915Y-82754588D01*
X137803742Y-82544569D01*
X138494613Y-82544569D01*
X138328742Y-82605478D01*
X138335731Y-82527189D01*
X138323521Y-82467999D01*
X138294088Y-82418621D01*
X138249973Y-82381904D01*
X138194425Y-82359494D01*
X138122937Y-82351404D01*
X138060207Y-82357205D01*
X138008062Y-82373564D01*
X137964392Y-82399764D01*
X137911017Y-82455740D01*
X137871977Y-82531014D01*
X137849339Y-82616349D01*
X137841569Y-82710532D01*
X137849742Y-82786136D01*
X137871908Y-82842302D01*
X137906598Y-82883823D01*
X137953291Y-82912976D01*
X138016713Y-82932229D01*
X138101962Y-82939419D01*
X138176651Y-82933389D01*
X138249973Y-82915239D01*
X138318631Y-82885739D01*
X138377102Y-82847003D01*
X138542973Y-83096864D01*
X138469122Y-83145241D01*
X138391935Y-83182920D01*
X138310881Y-83210345D01*
X138185007Y-83235506D01*
X138057815Y-83243867D01*
G37*
G36*
X139964283Y-83225000D02*
G01*
X139586287Y-83225000D01*
X139609763Y-83112681D01*
X139583255Y-83137848D01*
X139518052Y-83183051D01*
X139446549Y-83216413D01*
X139367609Y-83236826D01*
X139279640Y-83243867D01*
X139200020Y-83237154D01*
X139123026Y-83217050D01*
X139047640Y-83183051D01*
X138979221Y-83136829D01*
X138919551Y-83078455D01*
X138868030Y-83006646D01*
X138830563Y-82926842D01*
X138807073Y-82833929D01*
X138798787Y-82725187D01*
X138799899Y-82706319D01*
X139204077Y-82706319D01*
X139210866Y-82769817D01*
X139229960Y-82821430D01*
X139260772Y-82863764D01*
X139302026Y-82895628D01*
X139353538Y-82915461D01*
X139418309Y-82922566D01*
X139495832Y-82912276D01*
X139560000Y-82882724D01*
X139613013Y-82835603D01*
X139654522Y-82771441D01*
X139680106Y-82696039D01*
X139689144Y-82605478D01*
X139682378Y-82541958D01*
X139663299Y-82489977D01*
X139632449Y-82447025D01*
X139591113Y-82414513D01*
X139539626Y-82394339D01*
X139475004Y-82387124D01*
X139400801Y-82397478D01*
X139335327Y-82428066D01*
X139280618Y-82476162D01*
X139238699Y-82540448D01*
X139213118Y-82615770D01*
X139204077Y-82706319D01*
X138799899Y-82706319D01*
X138804343Y-82630951D01*
X138820566Y-82543771D01*
X138847056Y-82462687D01*
X138883764Y-82385666D01*
X138928168Y-82316604D01*
X138980412Y-82254775D01*
X139040239Y-82200236D01*
X139105853Y-82154533D01*
X139177791Y-82117297D01*
X139254037Y-82089990D01*
X139333939Y-82073508D01*
X139418309Y-82067930D01*
X139500017Y-82072919D01*
X139571974Y-82087180D01*
X139635563Y-82109970D01*
X139693149Y-82143509D01*
X139741520Y-82188213D01*
X139764466Y-82220953D01*
X139876081Y-81666761D01*
X140275052Y-81666761D01*
X139964283Y-83225000D01*
G37*
G36*
X141467568Y-83243867D02*
G01*
X141347144Y-83236115D01*
X141242189Y-83214035D01*
X141150388Y-83178838D01*
X141066285Y-83128869D01*
X140997196Y-83068517D01*
X140941468Y-82997213D01*
X140900592Y-82916577D01*
X140875570Y-82826606D01*
X140866913Y-82725187D01*
X140877291Y-82601789D01*
X140907512Y-82490211D01*
X140957222Y-82388224D01*
X141024764Y-82296780D01*
X141107519Y-82219009D01*
X141207083Y-82154025D01*
X141316467Y-82106911D01*
X141437522Y-82077944D01*
X141572531Y-82067930D01*
X141699133Y-82077585D01*
X141809898Y-82105239D01*
X141907479Y-82149812D01*
X141993991Y-82212064D01*
X142061648Y-82287179D01*
X142112277Y-82376591D01*
X141772016Y-82538341D01*
X141746904Y-82488112D01*
X141717138Y-82450306D01*
X141682715Y-82422845D01*
X141621719Y-82396231D01*
X141551557Y-82387124D01*
X141475272Y-82397481D01*
X141407667Y-82428066D01*
X141350880Y-82475929D01*
X141307924Y-82538341D01*
X141281574Y-82611916D01*
X141272204Y-82702106D01*
X141278947Y-82765711D01*
X141298012Y-82818119D01*
X141328899Y-82861749D01*
X141370494Y-82894403D01*
X141424546Y-82915053D01*
X141494862Y-82922566D01*
X141569374Y-82913715D01*
X141634446Y-82887944D01*
X141690265Y-82843831D01*
X141740509Y-82773456D01*
X142032410Y-82949860D01*
X141970702Y-83035257D01*
X141894558Y-83107052D01*
X141802424Y-83166198D01*
X141701174Y-83208786D01*
X141590190Y-83234880D01*
X141467568Y-83243867D01*
G37*
G36*
X142938191Y-82075587D02*
G01*
X143042757Y-82097349D01*
X143133792Y-82131952D01*
X143217223Y-82181201D01*
X143285602Y-82240849D01*
X143340605Y-82311470D01*
X143380794Y-82391378D01*
X143405544Y-82481630D01*
X143414153Y-82584503D01*
X143403794Y-82707918D01*
X143373589Y-82819879D01*
X143323844Y-82922566D01*
X143256343Y-83014772D01*
X143174212Y-83092850D01*
X143075998Y-83157772D01*
X142968045Y-83204885D01*
X142848433Y-83233851D01*
X142714855Y-83243867D01*
X142595860Y-83236146D01*
X142491565Y-83214095D01*
X142399781Y-83178838D01*
X142315739Y-83128829D01*
X142247004Y-83068478D01*
X142191870Y-82997213D01*
X142151622Y-82916643D01*
X142126954Y-82826667D01*
X142118414Y-82725187D01*
X142120001Y-82706319D01*
X142523704Y-82706319D01*
X142530517Y-82771260D01*
X142549640Y-82823919D01*
X142580399Y-82866970D01*
X142621730Y-82899424D01*
X142673244Y-82919572D01*
X142737936Y-82926779D01*
X142813727Y-82916329D01*
X142878620Y-82885838D01*
X142932497Y-82837832D01*
X142974149Y-82773547D01*
X142999750Y-82697880D01*
X143008862Y-82605478D01*
X143002362Y-82544581D01*
X142983736Y-82492751D01*
X142953175Y-82448032D01*
X142912212Y-82413835D01*
X142860458Y-82392626D01*
X142794631Y-82385018D01*
X142718773Y-82395229D01*
X142653947Y-82424952D01*
X142600175Y-82472257D01*
X142558326Y-82537242D01*
X142532767Y-82613774D01*
X142523704Y-82706319D01*
X142120001Y-82706319D01*
X142128791Y-82601789D01*
X142159013Y-82490211D01*
X142208722Y-82388224D01*
X142276155Y-82296641D01*
X142358250Y-82218884D01*
X142456476Y-82154025D01*
X142564488Y-82106909D01*
X142684132Y-82077945D01*
X142817711Y-82067930D01*
X142938191Y-82075587D01*
G37*
G36*
X144416525Y-82067930D02*
G01*
X144511551Y-82075107D01*
X144592638Y-82095439D01*
X144662172Y-82127830D01*
X144722677Y-82173722D01*
X144770355Y-82231897D01*
X144806062Y-82304234D01*
X144825322Y-82382977D01*
X144828864Y-82478521D01*
X144813481Y-82595036D01*
X144687452Y-83225000D01*
X144288481Y-83225000D01*
X144406084Y-82632772D01*
X144414949Y-82560059D01*
X144409309Y-82505655D01*
X144392345Y-82464794D01*
X144363044Y-82433570D01*
X144319701Y-82413538D01*
X144256974Y-82405992D01*
X144192190Y-82413242D01*
X144136124Y-82434208D01*
X144086797Y-82469007D01*
X144047416Y-82515249D01*
X144014920Y-82578241D01*
X143990260Y-82662172D01*
X143876871Y-83225000D01*
X143477808Y-83225000D01*
X143704679Y-82086797D01*
X144082676Y-82086797D01*
X144017554Y-82405992D01*
X143967179Y-82313577D01*
X144027561Y-82234278D01*
X144094897Y-82172656D01*
X144169779Y-82126731D01*
X144251902Y-82093740D01*
X144333858Y-82074350D01*
X144416525Y-82067930D01*
G37*
G36*
X145442895Y-83243867D02*
G01*
X145355963Y-83237727D01*
X145281015Y-83220285D01*
X145216115Y-83192485D01*
X145158928Y-83152594D01*
X145114506Y-83102628D01*
X145081659Y-83041268D01*
X145063081Y-82973728D01*
X145058229Y-82895166D01*
X145069112Y-82802856D01*
X145262277Y-81832724D01*
X145661339Y-81832724D01*
X145468082Y-82800841D01*
X145467000Y-82861126D01*
X145482828Y-82900584D01*
X145514902Y-82925700D01*
X145568924Y-82935205D01*
X145629832Y-82926871D01*
X145688633Y-82901591D01*
X145739009Y-83176731D01*
X145673245Y-83207147D01*
X145599332Y-83228114D01*
X145522071Y-83239911D01*
X145442895Y-83243867D01*
G37*
G36*
X144976696Y-82426967D02*
G01*
X145037604Y-82128838D01*
X145860825Y-82128838D01*
X145802023Y-82426967D01*
X144976696Y-82426967D01*
G37*
G36*
X145876762Y-83225000D02*
G01*
X146103633Y-82086797D01*
X146481629Y-82086797D01*
X146416508Y-82410205D01*
X146378681Y-82317790D01*
X146436101Y-82233730D01*
X146502342Y-82170226D01*
X146578166Y-82124624D01*
X146662577Y-82093923D01*
X146758558Y-82074675D01*
X146868052Y-82067930D01*
X146798717Y-82426967D01*
X146752464Y-82421837D01*
X146708408Y-82420738D01*
X146623558Y-82428222D01*
X146553444Y-82449234D01*
X146495184Y-82482654D01*
X146448445Y-82529733D01*
X146411380Y-82596185D01*
X146385000Y-82687360D01*
X146275824Y-83225000D01*
X145876762Y-83225000D01*
G37*
G36*
X147646704Y-82075587D02*
G01*
X147751271Y-82097349D01*
X147842306Y-82131952D01*
X147925737Y-82181201D01*
X147994115Y-82240849D01*
X148049118Y-82311470D01*
X148089307Y-82391378D01*
X148114058Y-82481630D01*
X148122666Y-82584503D01*
X148112308Y-82707918D01*
X148082102Y-82819879D01*
X148032357Y-82922566D01*
X147964857Y-83014772D01*
X147882726Y-83092850D01*
X147784512Y-83157772D01*
X147676559Y-83204885D01*
X147556947Y-83233851D01*
X147423368Y-83243867D01*
X147304374Y-83236146D01*
X147200079Y-83214095D01*
X147108295Y-83178838D01*
X147024252Y-83128829D01*
X146955518Y-83068478D01*
X146900383Y-82997213D01*
X146860135Y-82916643D01*
X146835467Y-82826667D01*
X146826927Y-82725187D01*
X146828514Y-82706319D01*
X147232218Y-82706319D01*
X147239030Y-82771260D01*
X147258154Y-82823919D01*
X147288913Y-82866970D01*
X147330244Y-82899424D01*
X147381758Y-82919572D01*
X147446449Y-82926779D01*
X147522241Y-82916329D01*
X147587133Y-82885838D01*
X147641011Y-82837832D01*
X147682663Y-82773547D01*
X147708264Y-82697880D01*
X147717376Y-82605478D01*
X147710876Y-82544581D01*
X147692249Y-82492751D01*
X147661688Y-82448032D01*
X147620726Y-82413835D01*
X147568971Y-82392626D01*
X147503144Y-82385018D01*
X147427287Y-82395229D01*
X147362460Y-82424952D01*
X147308689Y-82472257D01*
X147266839Y-82537242D01*
X147241280Y-82613774D01*
X147232218Y-82706319D01*
X146828514Y-82706319D01*
X146837305Y-82601789D01*
X146867526Y-82490211D01*
X146917236Y-82388224D01*
X146984669Y-82296641D01*
X147066764Y-82218884D01*
X147164990Y-82154025D01*
X147273002Y-82106909D01*
X147392646Y-82077945D01*
X147526225Y-82067930D01*
X147646704Y-82075587D01*
G37*
G36*
X148186322Y-83225000D02*
G01*
X148497182Y-81666761D01*
X148896153Y-81666761D01*
X148585384Y-83225000D01*
X148186322Y-83225000D01*
G37*
G36*
X148842847Y-83225000D02*
G01*
X149153707Y-81666761D01*
X149552677Y-81666761D01*
X149241909Y-83225000D01*
X148842847Y-83225000D01*
G37*
G36*
X150141974Y-83243867D02*
G01*
X150021563Y-83236246D01*
X149916272Y-83214513D01*
X149823879Y-83179845D01*
X149739039Y-83130500D01*
X149669224Y-83070515D01*
X149612761Y-82999319D01*
X149571385Y-82918591D01*
X149546002Y-82827960D01*
X149537199Y-82725187D01*
X149547128Y-82601573D01*
X149575990Y-82489968D01*
X149623294Y-82388224D01*
X149688149Y-82296666D01*
X149768143Y-82218926D01*
X149864820Y-82154025D01*
X149971509Y-82107042D01*
X150091078Y-82078015D01*
X150226055Y-82067930D01*
X150340880Y-82075490D01*
X150439800Y-82096924D01*
X150525283Y-82130944D01*
X150603193Y-82179081D01*
X150667088Y-82237297D01*
X150718449Y-82306250D01*
X150755804Y-82383744D01*
X150778739Y-82470261D01*
X150786684Y-82567742D01*
X150780364Y-82664371D01*
X150763603Y-82754588D01*
X149850074Y-82754588D01*
X149887901Y-82544569D01*
X150578772Y-82544569D01*
X150412901Y-82605478D01*
X150419890Y-82527189D01*
X150407680Y-82467999D01*
X150378247Y-82418621D01*
X150334132Y-82381904D01*
X150278584Y-82359494D01*
X150207096Y-82351404D01*
X150144366Y-82357205D01*
X150092221Y-82373564D01*
X150048551Y-82399764D01*
X149995177Y-82455740D01*
X149956136Y-82531014D01*
X149933498Y-82616349D01*
X149925728Y-82710532D01*
X149933901Y-82786136D01*
X149956068Y-82842302D01*
X149990758Y-82883823D01*
X150037450Y-82912976D01*
X150100872Y-82932229D01*
X150186121Y-82939419D01*
X150260810Y-82933389D01*
X150334132Y-82915239D01*
X150402790Y-82885739D01*
X150461261Y-82847003D01*
X150627132Y-83096864D01*
X150553281Y-83145241D01*
X150476094Y-83182920D01*
X150395040Y-83210345D01*
X150269166Y-83235506D01*
X150141974Y-83243867D01*
G37*
G36*
X150838799Y-83225000D02*
G01*
X151065670Y-82086797D01*
X151443667Y-82086797D01*
X151378545Y-82410205D01*
X151340718Y-82317790D01*
X151398138Y-82233730D01*
X151464379Y-82170226D01*
X151540204Y-82124624D01*
X151624615Y-82093923D01*
X151720595Y-82074675D01*
X151830089Y-82067930D01*
X151760755Y-82426967D01*
X151714501Y-82421837D01*
X151670446Y-82420738D01*
X151585595Y-82428222D01*
X151515482Y-82449234D01*
X151457222Y-82482654D01*
X151410482Y-82529733D01*
X151373418Y-82596185D01*
X151347038Y-82687360D01*
X151237862Y-83225000D01*
X150838799Y-83225000D01*
G37*
G36*
X122223610Y-84694544D02*
G01*
X122224260Y-84693925D01*
X122288764Y-84648838D01*
X122359630Y-84615452D01*
X122438186Y-84594997D01*
X122526077Y-84587930D01*
X122607142Y-84594693D01*
X122684828Y-84614868D01*
X122760184Y-84648838D01*
X122828594Y-84694990D01*
X122887882Y-84753018D01*
X122938695Y-84824143D01*
X122975609Y-84903190D01*
X122998816Y-84995710D01*
X123007021Y-85104503D01*
X123001455Y-85198735D01*
X122985202Y-85285915D01*
X122958661Y-85367003D01*
X122922043Y-85444060D01*
X122877645Y-85513502D01*
X122825305Y-85576014D01*
X122765512Y-85631228D01*
X122700254Y-85677277D01*
X122629025Y-85714591D01*
X122553493Y-85741818D01*
X122473967Y-85758283D01*
X122389606Y-85763867D01*
X122309312Y-85758811D01*
X122237606Y-85744258D01*
X122173268Y-85720819D01*
X122115061Y-85686595D01*
X122066365Y-85641494D01*
X122026373Y-85584505D01*
X121994757Y-85745000D01*
X121614654Y-85745000D01*
X121718128Y-85226319D01*
X122116573Y-85226319D01*
X122123362Y-85289817D01*
X122142456Y-85341430D01*
X122173268Y-85383764D01*
X122214567Y-85415531D01*
X122266716Y-85435411D01*
X122332911Y-85442566D01*
X122408775Y-85432376D01*
X122473595Y-85402724D01*
X122527426Y-85355523D01*
X122569125Y-85291441D01*
X122594777Y-85216034D01*
X122603838Y-85125478D01*
X122597062Y-85061964D01*
X122577954Y-85009984D01*
X122547051Y-84967025D01*
X122505668Y-84934612D01*
X122453544Y-84914390D01*
X122387500Y-84907124D01*
X122313361Y-84917473D01*
X122247823Y-84948066D01*
X122193113Y-84996162D01*
X122151195Y-85060448D01*
X122125613Y-85135770D01*
X122116573Y-85226319D01*
X121718128Y-85226319D01*
X121925514Y-84186761D01*
X122324485Y-84186761D01*
X122223610Y-84694544D01*
G37*
G36*
X123174358Y-86171264D02*
G01*
X123084675Y-86164494D01*
X122994840Y-86143970D01*
X122911905Y-86111043D01*
X122853057Y-86072621D01*
X123031568Y-85791161D01*
X123069242Y-85817600D01*
X123111344Y-85838422D01*
X123156999Y-85851711D01*
X123207972Y-85856283D01*
X123263435Y-85848675D01*
X123308722Y-85826882D01*
X123347825Y-85791237D01*
X123388590Y-85734467D01*
X123470472Y-85602209D01*
X123504086Y-85562275D01*
X124077355Y-84606797D01*
X124467991Y-84606797D01*
X123739292Y-85795375D01*
X123647920Y-85930013D01*
X123567009Y-86022154D01*
X123508221Y-86072638D01*
X123448865Y-86110722D01*
X123388498Y-86137650D01*
X123290138Y-86162481D01*
X123174358Y-86171264D01*
G37*
G36*
X123384377Y-85793268D02*
G01*
X123117663Y-84606797D01*
X123514528Y-84606797D01*
X123703572Y-85526555D01*
X123384377Y-85793268D01*
G37*
G36*
X124954431Y-85745000D02*
G01*
X125181302Y-84606797D01*
X125559298Y-84606797D01*
X125494177Y-84930205D01*
X125456350Y-84837790D01*
X125513770Y-84753730D01*
X125580011Y-84690226D01*
X125655835Y-84644624D01*
X125740246Y-84613923D01*
X125836227Y-84594675D01*
X125945721Y-84587930D01*
X125876386Y-84946967D01*
X125830133Y-84941837D01*
X125786078Y-84940738D01*
X125701227Y-84948222D01*
X125631114Y-84969234D01*
X125572854Y-85002654D01*
X125526114Y-85049733D01*
X125489049Y-85116185D01*
X125462670Y-85207360D01*
X125353493Y-85745000D01*
X124954431Y-85745000D01*
G37*
G36*
X126511479Y-85763867D02*
G01*
X126391068Y-85756246D01*
X126285777Y-85734513D01*
X126193383Y-85699845D01*
X126108544Y-85650500D01*
X126038729Y-85590515D01*
X125982266Y-85519319D01*
X125940890Y-85438591D01*
X125915506Y-85347960D01*
X125906703Y-85245187D01*
X125916632Y-85121573D01*
X125945495Y-85009968D01*
X125992799Y-84908224D01*
X126057653Y-84816666D01*
X126137648Y-84738926D01*
X126234324Y-84674025D01*
X126341014Y-84627042D01*
X126460583Y-84598015D01*
X126595560Y-84587930D01*
X126710384Y-84595490D01*
X126809305Y-84616924D01*
X126894788Y-84650944D01*
X126972698Y-84699081D01*
X127036593Y-84757297D01*
X127087953Y-84826250D01*
X127125308Y-84903744D01*
X127148244Y-84990261D01*
X127156188Y-85087742D01*
X127149869Y-85184371D01*
X127133107Y-85274588D01*
X126219578Y-85274588D01*
X126257405Y-85064569D01*
X126948277Y-85064569D01*
X126782405Y-85125478D01*
X126789395Y-85047189D01*
X126777185Y-84987999D01*
X126747752Y-84938621D01*
X126703637Y-84901904D01*
X126648089Y-84879494D01*
X126576600Y-84871404D01*
X126513871Y-84877205D01*
X126461726Y-84893564D01*
X126418056Y-84919764D01*
X126364681Y-84975740D01*
X126325641Y-85051014D01*
X126303003Y-85136349D01*
X126295232Y-85230532D01*
X126303406Y-85306136D01*
X126325572Y-85362302D01*
X126360262Y-85403823D01*
X126406954Y-85432976D01*
X126470376Y-85452229D01*
X126555626Y-85459419D01*
X126630314Y-85453389D01*
X126703637Y-85435239D01*
X126772295Y-85405739D01*
X126830765Y-85367003D01*
X126996637Y-85616864D01*
X126922785Y-85665241D01*
X126845599Y-85702920D01*
X126764545Y-85730345D01*
X126638671Y-85755506D01*
X126511479Y-85763867D01*
G37*
G36*
X127318671Y-86171264D02*
G01*
X127228988Y-86164494D01*
X127139153Y-86143970D01*
X127056217Y-86111043D01*
X126997370Y-86072621D01*
X127175881Y-85791161D01*
X127213554Y-85817600D01*
X127255656Y-85838422D01*
X127301312Y-85851711D01*
X127352285Y-85856283D01*
X127407747Y-85848675D01*
X127453035Y-85826882D01*
X127492137Y-85791237D01*
X127532903Y-85734467D01*
X127614785Y-85602209D01*
X127648399Y-85562275D01*
X128221667Y-84606797D01*
X128612303Y-84606797D01*
X127883605Y-85795375D01*
X127792232Y-85930013D01*
X127711322Y-86022154D01*
X127652534Y-86072638D01*
X127593177Y-86110722D01*
X127532811Y-86137650D01*
X127434451Y-86162481D01*
X127318671Y-86171264D01*
G37*
G36*
X127528689Y-85793268D02*
G01*
X127261976Y-84606797D01*
X127658840Y-84606797D01*
X127847884Y-85526555D01*
X127528689Y-85793268D01*
G37*
G36*
X128876177Y-85551834D02*
G01*
X128964379Y-85056235D01*
X129495699Y-84606797D01*
X129999725Y-84606797D01*
X129365457Y-85154878D01*
X129138677Y-85320841D01*
X128876177Y-85551834D01*
G37*
G36*
X128487648Y-85745000D02*
G01*
X128798508Y-84186761D01*
X129197479Y-84186761D01*
X128886710Y-85745000D01*
X128487648Y-85745000D01*
G37*
G36*
X129331934Y-85745000D02*
G01*
X129069434Y-85308202D01*
X129350802Y-85003661D01*
X129798133Y-85745000D01*
X129331934Y-85745000D01*
G37*
G36*
X130583677Y-84594322D02*
G01*
X130662459Y-84612503D01*
X130730896Y-84641510D01*
X130790597Y-84683646D01*
X130839015Y-84740221D01*
X130840610Y-84743323D01*
X130868466Y-84606797D01*
X131267437Y-84606797D01*
X131040657Y-85745000D01*
X130662661Y-85745000D01*
X130685476Y-85635842D01*
X130622727Y-85687297D01*
X130544027Y-85729302D01*
X130455896Y-85754979D01*
X130356106Y-85763867D01*
X130276407Y-85757168D01*
X130199042Y-85737076D01*
X130123006Y-85703051D01*
X130054020Y-85656730D01*
X129994374Y-85598346D01*
X129943396Y-85526646D01*
X129906497Y-85446906D01*
X129883336Y-85353989D01*
X129875161Y-85245187D01*
X129876273Y-85226319D01*
X130278345Y-85226319D01*
X130285133Y-85289817D01*
X130304227Y-85341430D01*
X130335040Y-85383764D01*
X130376338Y-85415531D01*
X130428488Y-85435411D01*
X130494683Y-85442566D01*
X130570546Y-85432376D01*
X130635367Y-85402724D01*
X130689198Y-85355523D01*
X130730896Y-85291441D01*
X130756549Y-85216034D01*
X130765609Y-85125478D01*
X130758843Y-85061958D01*
X130739764Y-85009977D01*
X130708914Y-84967025D01*
X130667530Y-84934616D01*
X130615378Y-84914392D01*
X130549271Y-84907124D01*
X130475133Y-84917473D01*
X130409595Y-84948066D01*
X130354885Y-84996162D01*
X130312966Y-85060448D01*
X130287385Y-85135770D01*
X130278345Y-85226319D01*
X129876273Y-85226319D01*
X129880717Y-85150951D01*
X129896940Y-85063771D01*
X129923429Y-84982687D01*
X129960138Y-84905666D01*
X130004542Y-84836604D01*
X130056786Y-84774775D01*
X130116613Y-84720236D01*
X130182227Y-84674533D01*
X130254165Y-84637297D01*
X130330389Y-84609931D01*
X130409603Y-84593479D01*
X130492576Y-84587930D01*
X130583677Y-84594322D01*
G37*
G36*
X131799489Y-85763867D02*
G01*
X131712557Y-85757727D01*
X131637610Y-85740285D01*
X131572710Y-85712485D01*
X131515522Y-85672594D01*
X131471101Y-85622628D01*
X131438254Y-85561268D01*
X131419676Y-85493728D01*
X131414824Y-85415166D01*
X131425706Y-85322856D01*
X131618872Y-84352724D01*
X132017934Y-84352724D01*
X131824677Y-85320841D01*
X131823595Y-85381126D01*
X131839423Y-85420584D01*
X131871497Y-85445700D01*
X131925519Y-85455205D01*
X131986427Y-85446871D01*
X132045228Y-85421591D01*
X132095603Y-85696731D01*
X132029840Y-85727147D01*
X131955927Y-85748114D01*
X131878665Y-85759911D01*
X131799489Y-85763867D01*
G37*
G36*
X131333291Y-84946967D02*
G01*
X131394199Y-84648838D01*
X132217419Y-84648838D01*
X132158618Y-84946967D01*
X131333291Y-84946967D01*
G37*
G36*
X133055148Y-84595587D02*
G01*
X133159715Y-84617349D01*
X133250750Y-84651952D01*
X133334181Y-84701201D01*
X133402559Y-84760849D01*
X133457562Y-84831470D01*
X133497751Y-84911378D01*
X133522501Y-85001630D01*
X133531110Y-85104503D01*
X133520752Y-85227918D01*
X133490546Y-85339879D01*
X133440801Y-85442566D01*
X133373300Y-85534772D01*
X133291170Y-85612850D01*
X133192956Y-85677772D01*
X133085002Y-85724885D01*
X132965391Y-85753851D01*
X132831812Y-85763867D01*
X132712818Y-85756146D01*
X132608523Y-85734095D01*
X132516739Y-85698838D01*
X132432696Y-85648829D01*
X132363962Y-85588478D01*
X132308827Y-85517213D01*
X132268579Y-85436643D01*
X132243911Y-85346667D01*
X132235371Y-85245187D01*
X132236958Y-85226319D01*
X132640662Y-85226319D01*
X132647474Y-85291260D01*
X132666597Y-85343919D01*
X132697356Y-85386970D01*
X132738688Y-85419424D01*
X132790202Y-85439572D01*
X132854893Y-85446779D01*
X132930684Y-85436329D01*
X132995577Y-85405838D01*
X133049455Y-85357832D01*
X133091106Y-85293547D01*
X133116708Y-85217880D01*
X133125819Y-85125478D01*
X133119320Y-85064581D01*
X133100693Y-85012751D01*
X133070132Y-84968032D01*
X133029169Y-84933835D01*
X132977415Y-84912626D01*
X132911588Y-84905018D01*
X132835731Y-84915229D01*
X132770904Y-84944952D01*
X132717132Y-84992257D01*
X132675283Y-85057242D01*
X132649724Y-85133774D01*
X132640662Y-85226319D01*
X132236958Y-85226319D01*
X132245748Y-85121789D01*
X132275970Y-85010211D01*
X132325680Y-84908224D01*
X132393113Y-84816641D01*
X132475207Y-84738884D01*
X132573434Y-84674025D01*
X132681446Y-84626909D01*
X132801090Y-84597945D01*
X132934669Y-84587930D01*
X133055148Y-84595587D01*
G37*
D11*
G36*
X144566416Y-80930000D02*
G01*
X144601404Y-80756404D01*
X145029806Y-80423196D01*
X145108147Y-80353220D01*
X145133012Y-80323279D01*
X145148080Y-80297227D01*
X145157077Y-80270307D01*
X145159987Y-80243982D01*
X145156486Y-80218370D01*
X145146336Y-80196787D01*
X145129152Y-80178220D01*
X145107237Y-80164886D01*
X145078493Y-80156202D01*
X145040980Y-80153002D01*
X144991843Y-80159377D01*
X144943710Y-80178892D01*
X144899655Y-80209385D01*
X144859019Y-80251004D01*
X144674188Y-80129188D01*
X144718079Y-80073441D01*
X144773124Y-80025249D01*
X144840762Y-79984291D01*
X144914366Y-79954720D01*
X144994686Y-79936605D01*
X145082990Y-79930375D01*
X145153262Y-79934517D01*
X145215676Y-79946394D01*
X145271301Y-79965423D01*
X145323185Y-79992475D01*
X145365213Y-80024437D01*
X145398674Y-80061350D01*
X145423895Y-80103844D01*
X145439044Y-80150331D01*
X145444225Y-80201973D01*
X145438968Y-80259766D01*
X145423220Y-80315423D01*
X145396192Y-80368722D01*
X145352512Y-80426737D01*
X145296647Y-80482909D01*
X145214576Y-80550629D01*
X144880024Y-80809588D01*
X144842227Y-80710181D01*
X145374188Y-80710181D01*
X145329370Y-80930000D01*
X144566416Y-80930000D01*
G37*
G36*
X146090005Y-79935688D02*
G01*
X146154139Y-79950860D01*
X146210354Y-79975193D01*
X146260858Y-80009395D01*
X146303093Y-80052051D01*
X146337726Y-80104031D01*
X146362246Y-80161697D01*
X146377733Y-80229182D01*
X146383217Y-80308401D01*
X146378804Y-80397359D01*
X146365863Y-80480924D01*
X146344687Y-80559727D01*
X146315061Y-80635592D01*
X146279110Y-80703457D01*
X146236915Y-80764098D01*
X146187401Y-80818573D01*
X146132708Y-80863878D01*
X146072418Y-80900629D01*
X146007413Y-80927631D01*
X145937753Y-80944011D01*
X145862430Y-80949600D01*
X145788885Y-80944307D01*
X145724508Y-80929167D01*
X145667829Y-80904842D01*
X145616909Y-80870572D01*
X145574675Y-80827910D01*
X145540396Y-80776004D01*
X145516283Y-80718345D01*
X145501038Y-80650835D01*
X145495638Y-80571573D01*
X145495977Y-80564612D01*
X145774258Y-80564612D01*
X145778543Y-80620969D01*
X145789628Y-80660063D01*
X145805704Y-80686428D01*
X145828816Y-80706549D01*
X145856156Y-80718615D01*
X145889052Y-80722821D01*
X145923749Y-80718273D01*
X145955138Y-80704768D01*
X145984246Y-80681543D01*
X146020643Y-80635865D01*
X146051413Y-80577191D01*
X146074610Y-80512759D01*
X146091346Y-80444200D01*
X146101495Y-80375402D01*
X146104658Y-80315423D01*
X146100363Y-80259030D01*
X146089256Y-80219942D01*
X146073150Y-80193607D01*
X146050040Y-80173483D01*
X146022719Y-80161419D01*
X145989863Y-80157215D01*
X145955126Y-80161764D01*
X145923717Y-80175271D01*
X145894609Y-80198492D01*
X145858250Y-80244113D01*
X145827442Y-80302784D01*
X145804246Y-80367224D01*
X145787508Y-80435835D01*
X145777406Y-80504633D01*
X145774258Y-80564612D01*
X145495977Y-80564612D01*
X145499969Y-80482592D01*
X145512668Y-80399044D01*
X145533435Y-80320308D01*
X145562735Y-80244464D01*
X145598680Y-80176581D01*
X145641207Y-80115877D01*
X145691165Y-80061376D01*
X145746109Y-80016093D01*
X145806437Y-79979406D01*
X145871444Y-79952370D01*
X145941104Y-79935970D01*
X146016425Y-79930375D01*
X146090005Y-79935688D01*
G37*
G36*
X146353297Y-80930000D02*
G01*
X146388285Y-80756404D01*
X146816687Y-80423196D01*
X146895027Y-80353220D01*
X146919893Y-80323279D01*
X146934961Y-80297227D01*
X146943957Y-80270307D01*
X146946868Y-80243982D01*
X146943366Y-80218370D01*
X146933217Y-80196787D01*
X146916032Y-80178220D01*
X146894118Y-80164886D01*
X146865373Y-80156202D01*
X146827861Y-80153002D01*
X146778724Y-80159377D01*
X146730591Y-80178892D01*
X146686536Y-80209385D01*
X146645900Y-80251004D01*
X146461069Y-80129188D01*
X146504960Y-80073441D01*
X146560005Y-80025249D01*
X146627643Y-79984291D01*
X146701247Y-79954720D01*
X146781567Y-79936605D01*
X146869870Y-79930375D01*
X146940143Y-79934517D01*
X147002556Y-79946394D01*
X147058182Y-79965423D01*
X147110066Y-79992475D01*
X147152094Y-80024437D01*
X147185554Y-80061350D01*
X147210776Y-80103844D01*
X147225925Y-80150331D01*
X147231106Y-80201973D01*
X147225849Y-80259766D01*
X147210101Y-80315423D01*
X147183073Y-80368722D01*
X147139392Y-80426737D01*
X147083528Y-80482909D01*
X147001456Y-80550629D01*
X146666905Y-80809588D01*
X146629108Y-80710181D01*
X147161069Y-80710181D01*
X147116250Y-80930000D01*
X146353297Y-80930000D01*
G37*
G36*
X147556926Y-80949600D02*
G01*
X147452326Y-80942669D01*
X147354570Y-80922306D01*
X147292259Y-80900705D01*
X147237240Y-80873829D01*
X147188729Y-80841828D01*
X147317506Y-80644419D01*
X147372708Y-80678741D01*
X147437247Y-80704624D01*
X147505794Y-80720398D01*
X147575122Y-80725629D01*
X147631562Y-80721711D01*
X147674206Y-80711221D01*
X147706036Y-80695526D01*
X147731584Y-80672540D01*
X147746421Y-80645256D01*
X147751526Y-80612178D01*
X147747580Y-80586048D01*
X147736142Y-80564520D01*
X147716538Y-80546416D01*
X147691705Y-80534546D01*
X147652849Y-80525991D01*
X147594722Y-80522602D01*
X147313293Y-80522602D01*
X147477119Y-79949975D01*
X148100122Y-79949975D01*
X148056707Y-80164176D01*
X147531707Y-80164176D01*
X147698342Y-80042421D01*
X147587700Y-80428813D01*
X147471502Y-80306997D01*
X147664698Y-80306997D01*
X147756862Y-80312275D01*
X147831240Y-80326766D01*
X147890899Y-80348886D01*
X147938433Y-80377705D01*
X147978830Y-80416445D01*
X148007531Y-80462042D01*
X148025291Y-80515860D01*
X148031550Y-80580000D01*
X148024446Y-80653547D01*
X148003857Y-80718538D01*
X147969940Y-80776737D01*
X147924641Y-80827224D01*
X147868892Y-80869860D01*
X147801229Y-80904842D01*
X147728541Y-80929180D01*
X147647534Y-80944331D01*
X147556926Y-80949600D01*
G37*
G36*
X148125889Y-80633183D02*
G01*
X148166495Y-80428813D01*
X148573892Y-80428813D01*
X148533286Y-80633183D01*
X148125889Y-80633183D01*
G37*
G36*
X149271024Y-79935688D02*
G01*
X149335158Y-79950860D01*
X149391372Y-79975193D01*
X149441877Y-80009395D01*
X149484112Y-80052051D01*
X149518745Y-80104031D01*
X149543265Y-80161697D01*
X149558752Y-80229182D01*
X149564235Y-80308401D01*
X149559823Y-80397359D01*
X149546882Y-80480924D01*
X149525706Y-80559727D01*
X149496080Y-80635592D01*
X149460129Y-80703457D01*
X149417934Y-80764098D01*
X149368420Y-80818573D01*
X149313727Y-80863878D01*
X149253436Y-80900629D01*
X149188432Y-80927631D01*
X149118772Y-80944011D01*
X149043449Y-80949600D01*
X148969904Y-80944307D01*
X148905527Y-80929167D01*
X148848848Y-80904842D01*
X148797928Y-80870572D01*
X148755694Y-80827910D01*
X148721414Y-80776004D01*
X148697302Y-80718345D01*
X148682057Y-80650835D01*
X148676657Y-80571573D01*
X148676996Y-80564612D01*
X148955277Y-80564612D01*
X148959562Y-80620969D01*
X148970646Y-80660063D01*
X148986723Y-80686428D01*
X149009834Y-80706549D01*
X149037174Y-80718615D01*
X149070071Y-80722821D01*
X149104768Y-80718273D01*
X149136157Y-80704768D01*
X149165265Y-80681543D01*
X149201662Y-80635865D01*
X149232431Y-80577191D01*
X149255629Y-80512759D01*
X149272365Y-80444200D01*
X149282514Y-80375402D01*
X149285676Y-80315423D01*
X149281382Y-80259030D01*
X149270275Y-80219942D01*
X149254169Y-80193607D01*
X149231059Y-80173483D01*
X149203738Y-80161419D01*
X149170882Y-80157215D01*
X149136145Y-80161764D01*
X149104736Y-80175271D01*
X149075628Y-80198492D01*
X149039269Y-80244113D01*
X149008461Y-80302784D01*
X148985265Y-80367224D01*
X148968527Y-80435835D01*
X148958425Y-80504633D01*
X148955277Y-80564612D01*
X148676996Y-80564612D01*
X148680988Y-80482592D01*
X148693687Y-80399044D01*
X148714453Y-80320308D01*
X148743753Y-80244464D01*
X148779699Y-80176581D01*
X148822226Y-80115877D01*
X148872184Y-80061376D01*
X148927128Y-80016093D01*
X148987456Y-79979406D01*
X149052463Y-79952370D01*
X149122123Y-79935970D01*
X149197444Y-79930375D01*
X149271024Y-79935688D01*
G37*
G36*
X150197358Y-79934312D02*
G01*
X150263207Y-79945519D01*
X150321022Y-79963286D01*
X150375495Y-79989018D01*
X150419323Y-80019397D01*
X150454012Y-80054328D01*
X150480410Y-80095174D01*
X150496224Y-80140237D01*
X150501639Y-80190799D01*
X150495670Y-80252515D01*
X150478529Y-80305848D01*
X150450532Y-80352487D01*
X150413026Y-80392466D01*
X150366379Y-80426048D01*
X150351042Y-80433354D01*
X150361823Y-80440408D01*
X150399424Y-80476379D01*
X150428113Y-80518945D01*
X150445340Y-80566522D01*
X150451264Y-80620605D01*
X150444781Y-80686845D01*
X150426053Y-80744859D01*
X150395272Y-80796338D01*
X150354178Y-80840708D01*
X150303099Y-80878480D01*
X150240544Y-80909727D01*
X150173630Y-80931333D01*
X150098241Y-80944869D01*
X150013093Y-80949600D01*
X149931454Y-80945405D01*
X149860005Y-80933483D01*
X149797426Y-80914612D01*
X149738584Y-80887095D01*
X149691058Y-80854178D01*
X149653262Y-80815938D01*
X149624485Y-80771167D01*
X149607329Y-80722349D01*
X149601482Y-80668171D01*
X149603969Y-80643014D01*
X149878698Y-80643014D01*
X149883190Y-80675610D01*
X149896101Y-80702430D01*
X149917838Y-80724897D01*
X149945399Y-80741223D01*
X149978113Y-80751399D01*
X150017245Y-80755000D01*
X150062732Y-80750751D01*
X150099722Y-80738878D01*
X150129963Y-80720012D01*
X150153448Y-80694076D01*
X150167645Y-80662467D01*
X150172644Y-80623414D01*
X150168283Y-80589753D01*
X150155933Y-80562768D01*
X150135519Y-80540860D01*
X150109294Y-80525105D01*
X150076505Y-80515059D01*
X150035441Y-80511428D01*
X149989986Y-80515659D01*
X149952746Y-80527520D01*
X149922051Y-80546416D01*
X149898162Y-80572403D01*
X149883761Y-80604013D01*
X149878698Y-80643014D01*
X149603969Y-80643014D01*
X149608021Y-80602026D01*
X149626789Y-80545029D01*
X149657475Y-80495308D01*
X149698459Y-80452833D01*
X149749488Y-80416912D01*
X149793771Y-80396149D01*
X149767384Y-80370744D01*
X149740573Y-80330717D01*
X149724561Y-80286576D01*
X149719240Y-80238426D01*
X149994897Y-80238426D01*
X149998417Y-80265903D01*
X150008410Y-80288119D01*
X150024938Y-80306325D01*
X150058585Y-80324315D01*
X150104073Y-80330811D01*
X150139341Y-80327225D01*
X150168550Y-80317085D01*
X150192978Y-80300708D01*
X150211738Y-80278573D01*
X150223221Y-80251327D01*
X150227294Y-80217421D01*
X150223710Y-80188993D01*
X150213651Y-80166596D01*
X150197191Y-80148789D01*
X150163599Y-80131310D01*
X150118056Y-80124975D01*
X150082788Y-80128561D01*
X150053579Y-80138701D01*
X150029152Y-80155078D01*
X150010430Y-80177209D01*
X149998965Y-80204474D01*
X149994897Y-80238426D01*
X149719240Y-80238426D01*
X149719085Y-80237021D01*
X149725126Y-80174381D01*
X149742487Y-80120111D01*
X149770865Y-80072524D01*
X149808846Y-80031475D01*
X149855981Y-79996491D01*
X149913625Y-79967500D01*
X149975374Y-79947348D01*
X150044546Y-79934763D01*
X150122269Y-79930375D01*
X150197358Y-79934312D01*
G37*
G36*
X150565387Y-80633183D02*
G01*
X150605992Y-80428813D01*
X151013389Y-80428813D01*
X150972784Y-80633183D01*
X150565387Y-80633183D01*
G37*
G36*
X151139357Y-80930000D02*
G01*
X151314357Y-80053595D01*
X151410956Y-80164176D01*
X151109987Y-80164176D01*
X151153340Y-79949975D01*
X151612578Y-79949975D01*
X151416573Y-80930000D01*
X151139357Y-80930000D01*
G37*
G36*
X151706001Y-80930000D02*
G01*
X151881001Y-80053595D01*
X151977599Y-80164176D01*
X151676631Y-80164176D01*
X151719984Y-79949975D01*
X152179221Y-79949975D01*
X151983217Y-80930000D01*
X151706001Y-80930000D01*
G37*
D10*
G36*
X124743963Y-81035000D02*
G01*
X125424576Y-77620393D01*
X126558565Y-77620393D01*
X126363202Y-78590617D01*
X126249720Y-78313371D01*
X126421980Y-78061192D01*
X126620703Y-77870678D01*
X126848176Y-77733874D01*
X127101410Y-77641769D01*
X127389352Y-77584027D01*
X127717834Y-77563790D01*
X127509830Y-78640901D01*
X127371070Y-78625513D01*
X127238904Y-78622216D01*
X126984352Y-78644668D01*
X126774012Y-78707704D01*
X126599232Y-78807963D01*
X126459013Y-78949200D01*
X126347819Y-79148555D01*
X126268680Y-79422081D01*
X125941150Y-81035000D01*
X124743963Y-81035000D01*
G37*
G36*
X129252717Y-78332330D02*
G01*
X131300052Y-78332330D01*
X131117328Y-79264636D01*
X129069993Y-79264636D01*
X129252717Y-78332330D01*
G37*
G36*
X128994430Y-80071095D02*
G01*
X131306372Y-80071095D01*
X131104688Y-81035000D01*
X127570555Y-81035000D01*
X128452577Y-76624890D01*
X131904828Y-76624890D01*
X131709739Y-77588794D01*
X129485724Y-77588794D01*
X128994430Y-80071095D01*
G37*
G36*
X133448504Y-81123202D02*
G01*
X133075081Y-81107958D01*
X132723927Y-81063301D01*
X132387336Y-80989250D01*
X132093872Y-80893217D01*
X131823629Y-80773775D01*
X131608897Y-80650592D01*
X132100191Y-79718286D01*
X132331482Y-79846848D01*
X132569504Y-79954591D01*
X132814978Y-80040543D01*
X133064096Y-80102694D01*
X133316889Y-80140468D01*
X133568305Y-80152978D01*
X133798517Y-80140194D01*
X133977717Y-80105717D01*
X134133129Y-80045136D01*
X134236004Y-79970253D01*
X134302397Y-79873648D01*
X134324206Y-79762525D01*
X134295544Y-79644394D01*
X134207702Y-79551499D01*
X134079855Y-79481242D01*
X133902154Y-79416036D01*
X133483125Y-79299532D01*
X133023155Y-79154452D01*
X132801889Y-79057399D01*
X132604400Y-78940129D01*
X132433793Y-78793245D01*
X132298852Y-78609576D01*
X132213285Y-78391862D01*
X132182349Y-78111687D01*
X132212137Y-77801097D01*
X132298463Y-77526396D01*
X132440635Y-77280224D01*
X132631635Y-77067385D01*
X132873600Y-76884744D01*
X133174555Y-76732051D01*
X133497387Y-76626848D01*
X133869544Y-76560211D01*
X134298927Y-76536687D01*
X134762095Y-76561853D01*
X135180949Y-76634507D01*
X135570748Y-76756762D01*
X135886566Y-76914775D01*
X135432916Y-77841036D01*
X135163122Y-77697606D01*
X134862761Y-77592091D01*
X134547477Y-77528273D01*
X134223364Y-77506912D01*
X133981279Y-77522233D01*
X133791695Y-77563790D01*
X133628307Y-77634129D01*
X133520769Y-77718212D01*
X133451704Y-77822802D01*
X133429544Y-77935283D01*
X133457129Y-78048892D01*
X133543025Y-78143286D01*
X133668963Y-78215618D01*
X133848573Y-78282047D01*
X134270625Y-78398551D01*
X134727298Y-78537036D01*
X134946966Y-78628799D01*
X135149350Y-78745040D01*
X135324920Y-78891450D01*
X135458195Y-79069547D01*
X135541464Y-79280611D01*
X135571676Y-79554521D01*
X135542013Y-79861085D01*
X135455808Y-80133866D01*
X135313389Y-80379940D01*
X135122280Y-80592411D01*
X134879308Y-80774988D01*
X134576173Y-80927838D01*
X134251371Y-81033119D01*
X133878046Y-81099720D01*
X133448504Y-81123202D01*
G37*
G36*
X138286161Y-81123202D02*
G01*
X137842256Y-81094041D01*
X137453368Y-81010760D01*
X137111230Y-80877554D01*
X136798275Y-80689104D01*
X136543146Y-80462057D01*
X136339392Y-80194193D01*
X136190849Y-79891998D01*
X136100070Y-79557280D01*
X136068741Y-79182753D01*
X136091827Y-78804755D01*
X136159411Y-78453310D01*
X136270150Y-78124602D01*
X136423876Y-77813630D01*
X136612541Y-77534230D01*
X136837281Y-77283521D01*
X137094242Y-77065736D01*
X137383866Y-76882092D01*
X137709686Y-76732051D01*
X138052937Y-76625236D01*
X138426365Y-76559370D01*
X138834333Y-76536687D01*
X139237209Y-76561901D01*
X139596283Y-76634392D01*
X139917764Y-76751010D01*
X140211900Y-76918876D01*
X140444574Y-77123977D01*
X140623656Y-77368426D01*
X139722675Y-78086683D01*
X139610221Y-77930226D01*
X139479439Y-77803106D01*
X139328925Y-77702550D01*
X139162359Y-77630708D01*
X138971743Y-77585842D01*
X138752451Y-77570109D01*
X138441870Y-77599319D01*
X138169657Y-77683591D01*
X137926056Y-77820752D01*
X137719303Y-78004801D01*
X137553362Y-78228964D01*
X137429418Y-78493073D01*
X137354376Y-78781627D01*
X137328576Y-79100871D01*
X137343660Y-79294862D01*
X137387140Y-79466910D01*
X137457719Y-79620742D01*
X137555813Y-79757951D01*
X137678768Y-79872935D01*
X137829487Y-79967231D01*
X137995489Y-80033684D01*
X138186148Y-80075391D01*
X138405962Y-80090054D01*
X138696291Y-80060238D01*
X138976116Y-79970528D01*
X139149374Y-79877027D01*
X139318080Y-79748276D01*
X139483347Y-79579801D01*
X140220289Y-80304103D01*
X139954103Y-80578340D01*
X139669421Y-80787366D01*
X139363546Y-80937455D01*
X139035391Y-81038950D01*
X138677675Y-81101605D01*
X138286161Y-81123202D01*
G37*
D12*
X159885819Y-55938094D02*
X160695342Y-55938094D01*
X160695342Y-55938094D02*
X160790580Y-55890475D01*
X160790580Y-55890475D02*
X160838200Y-55842856D01*
X160838200Y-55842856D02*
X160885819Y-55747618D01*
X160885819Y-55747618D02*
X160885819Y-55557142D01*
X160885819Y-55557142D02*
X160838200Y-55461904D01*
X160838200Y-55461904D02*
X160790580Y-55414285D01*
X160790580Y-55414285D02*
X160695342Y-55366666D01*
X160695342Y-55366666D02*
X159885819Y-55366666D01*
X160885819Y-54366666D02*
X160885819Y-54938094D01*
X160885819Y-54652380D02*
X159885819Y-54652380D01*
X159885819Y-54652380D02*
X160028676Y-54747618D01*
X160028676Y-54747618D02*
X160123914Y-54842856D01*
X160123914Y-54842856D02*
X160171533Y-54938094D01*
X160219152Y-53509523D02*
X160885819Y-53509523D01*
X159838200Y-53747618D02*
X160552485Y-53985713D01*
X160552485Y-53985713D02*
X160552485Y-53366666D01*
D13*
%TO.C,TP7*%
X120900000Y-71300000D02*
X125300000Y-71300000D01*
X120900000Y-77200000D02*
X120900000Y-71300000D01*
X125300000Y-71300000D02*
X125300000Y-77200000D01*
X125300000Y-77200000D02*
X120900000Y-77200000D01*
%TO.C,C43*%
X126890000Y-89536252D02*
X126890000Y-88113748D01*
X129610000Y-89536252D02*
X129610000Y-88113748D01*
%TO.C,R3*%
X163453641Y-70410000D02*
X163146359Y-70410000D01*
X163453641Y-71170000D02*
X163146359Y-71170000D01*
%TO.C,R24*%
X158960000Y-105713859D02*
X158960000Y-106021141D01*
X159720000Y-105713859D02*
X159720000Y-106021141D01*
%TO.C,D5*%
X162090000Y-112650000D02*
X162090000Y-114350000D01*
X162090000Y-112650000D02*
X164750000Y-112650000D01*
X162090000Y-114350000D02*
X164750000Y-114350000D01*
%TO.C,U15*%
X136220828Y-60579496D02*
X135655143Y-61145182D01*
X136220828Y-60579496D02*
X136786514Y-60013811D01*
X138427002Y-62785670D02*
X137861316Y-63351355D01*
X138427002Y-62785670D02*
X138992687Y-62219984D01*
X139713936Y-61894715D02*
X139374525Y-62234126D01*
X139310885Y-61831075D01*
X139713936Y-61894715D01*
G36*
X139713936Y-61894715D02*
G01*
X139374525Y-62234126D01*
X139310885Y-61831075D01*
X139713936Y-61894715D01*
G37*
%TO.C,C24*%
X160690000Y-88857836D02*
X160690000Y-88642164D01*
X161410000Y-88857836D02*
X161410000Y-88642164D01*
%TO.C,C41*%
X123490000Y-89536252D02*
X123490000Y-88113748D01*
X126210000Y-89536252D02*
X126210000Y-88113748D01*
%TO.C,R44*%
X153472500Y-59053641D02*
X153472500Y-58746359D01*
X154232500Y-59053641D02*
X154232500Y-58746359D01*
D14*
%TO.C,U7*%
X129214035Y-66426777D02*
X129723152Y-65917660D01*
X129369598Y-66582340D02*
X129214035Y-66426777D01*
X131123223Y-68335965D02*
X130967660Y-68180402D01*
X131476777Y-64164035D02*
X130967660Y-64673152D01*
X131476777Y-64164035D02*
X131632340Y-64319598D01*
X131632340Y-67826848D02*
X131123223Y-68335965D01*
X133244544Y-66214645D02*
X132876848Y-66582340D01*
X133640523Y-66327782D02*
X133385965Y-66073223D01*
X133640523Y-65818665D01*
X133640523Y-66327782D01*
G36*
X133640523Y-66327782D02*
G01*
X133385965Y-66073223D01*
X133640523Y-65818665D01*
X133640523Y-66327782D01*
G37*
D13*
%TO.C,R13*%
X164153641Y-109420000D02*
X163846359Y-109420000D01*
X164153641Y-110180000D02*
X163846359Y-110180000D01*
%TO.C,J3*%
X165590000Y-94810000D02*
X165590000Y-96060000D01*
X165590000Y-96060000D02*
X166840000Y-96060000D01*
X165690000Y-94000000D02*
X165690000Y-94300000D01*
X165690000Y-94300000D02*
X165890000Y-94300000D01*
X165790000Y-94000000D02*
X165790000Y-94300000D01*
X165890000Y-77640000D02*
X165890000Y-95760000D01*
X165890000Y-93200000D02*
X166500000Y-93200000D01*
X165890000Y-94000000D02*
X165690000Y-94000000D01*
X165890000Y-95760000D02*
X170610000Y-95760000D01*
X166500000Y-78250000D02*
X166500000Y-80200000D01*
X166500000Y-80200000D02*
X165890000Y-80200000D01*
X166500000Y-93200000D02*
X166500000Y-95150000D01*
X166500000Y-95150000D02*
X170000000Y-95150000D01*
X167200000Y-77640000D02*
X167200000Y-78250000D01*
X167200000Y-95760000D02*
X167200000Y-95150000D01*
X168500000Y-77640000D02*
X168500000Y-78250000D01*
X168500000Y-95760000D02*
X168500000Y-95150000D01*
X169500000Y-80600000D02*
X170000000Y-80600000D01*
X169500000Y-80800000D02*
X169500000Y-80600000D01*
X169500000Y-82600000D02*
X170000000Y-82600000D01*
X169500000Y-82800000D02*
X169500000Y-82600000D01*
X169500000Y-84600000D02*
X170000000Y-84600000D01*
X169500000Y-84800000D02*
X169500000Y-84600000D01*
X169500000Y-86600000D02*
X170000000Y-86600000D01*
X169500000Y-86800000D02*
X169500000Y-86600000D01*
X169500000Y-88600000D02*
X170000000Y-88600000D01*
X169500000Y-88800000D02*
X169500000Y-88600000D01*
X169500000Y-90600000D02*
X170000000Y-90600000D01*
X169500000Y-90800000D02*
X169500000Y-90600000D01*
X169500000Y-92600000D02*
X170000000Y-92600000D01*
X169500000Y-92800000D02*
X169500000Y-92600000D01*
X170000000Y-78250000D02*
X166500000Y-78250000D01*
X170000000Y-80700000D02*
X169500000Y-80700000D01*
X170000000Y-80800000D02*
X169500000Y-80800000D01*
X170000000Y-82700000D02*
X169500000Y-82700000D01*
X170000000Y-82800000D02*
X169500000Y-82800000D01*
X170000000Y-84700000D02*
X169500000Y-84700000D01*
X170000000Y-84800000D02*
X169500000Y-84800000D01*
X170000000Y-86700000D02*
X169500000Y-86700000D01*
X170000000Y-86800000D02*
X169500000Y-86800000D01*
X170000000Y-88700000D02*
X169500000Y-88700000D01*
X170000000Y-88800000D02*
X169500000Y-88800000D01*
X170000000Y-90700000D02*
X169500000Y-90700000D01*
X170000000Y-90800000D02*
X169500000Y-90800000D01*
X170000000Y-92700000D02*
X169500000Y-92700000D01*
X170000000Y-92800000D02*
X169500000Y-92800000D01*
X170000000Y-95150000D02*
X170000000Y-78250000D01*
X170610000Y-77640000D02*
X165890000Y-77640000D01*
X170610000Y-95760000D02*
X170610000Y-77640000D01*
%TO.C,R10*%
X160606359Y-111170000D02*
X160913641Y-111170000D01*
X160606359Y-111930000D02*
X160913641Y-111930000D01*
%TO.C,J5*%
X165590000Y-61010000D02*
X165590000Y-62260000D01*
X165590000Y-62260000D02*
X166840000Y-62260000D01*
X165690000Y-60200000D02*
X165690000Y-60500000D01*
X165690000Y-60500000D02*
X165890000Y-60500000D01*
X165790000Y-60200000D02*
X165790000Y-60500000D01*
X165890000Y-53840000D02*
X165890000Y-61960000D01*
X165890000Y-59400000D02*
X166500000Y-59400000D01*
X165890000Y-60200000D02*
X165690000Y-60200000D01*
X165890000Y-61960000D02*
X170610000Y-61960000D01*
X166500000Y-54450000D02*
X166500000Y-56400000D01*
X166500000Y-56400000D02*
X165890000Y-56400000D01*
X166500000Y-59400000D02*
X166500000Y-61350000D01*
X166500000Y-61350000D02*
X170000000Y-61350000D01*
X167200000Y-53840000D02*
X167200000Y-54450000D01*
X167200000Y-61960000D02*
X167200000Y-61350000D01*
X168500000Y-53840000D02*
X168500000Y-54450000D01*
X168500000Y-61960000D02*
X168500000Y-61350000D01*
X169500000Y-56800000D02*
X170000000Y-56800000D01*
X169500000Y-57000000D02*
X169500000Y-56800000D01*
X169500000Y-58800000D02*
X170000000Y-58800000D01*
X169500000Y-59000000D02*
X169500000Y-58800000D01*
X170000000Y-54450000D02*
X166500000Y-54450000D01*
X170000000Y-56900000D02*
X169500000Y-56900000D01*
X170000000Y-57000000D02*
X169500000Y-57000000D01*
X170000000Y-58900000D02*
X169500000Y-58900000D01*
X170000000Y-59000000D02*
X169500000Y-59000000D01*
X170000000Y-61350000D02*
X170000000Y-54450000D01*
X170610000Y-53840000D02*
X165890000Y-53840000D01*
X170610000Y-61960000D02*
X170610000Y-53840000D01*
%TO.C,D2*%
X140265000Y-74362500D02*
X140265000Y-76647500D01*
X140265000Y-76647500D02*
X141735000Y-76647500D01*
X141735000Y-76647500D02*
X141735000Y-74362500D01*
%TO.C,R31*%
X153573641Y-98920000D02*
X153266359Y-98920000D01*
X153573641Y-99680000D02*
X153266359Y-99680000D01*
%TO.C,R43*%
X148772500Y-59053641D02*
X148772500Y-58746359D01*
X149532500Y-59053641D02*
X149532500Y-58746359D01*
%TO.C,D6*%
X159240000Y-107800000D02*
X159240000Y-109500000D01*
X159240000Y-107800000D02*
X161900000Y-107800000D01*
X159240000Y-109500000D02*
X161900000Y-109500000D01*
%TO.C,C42*%
X148090000Y-89536252D02*
X148090000Y-88113748D01*
X150810000Y-89536252D02*
X150810000Y-88113748D01*
%TO.C,C62*%
X139282282Y-58058601D02*
X139129779Y-58211104D01*
X139791399Y-58567718D02*
X139638896Y-58720221D01*
%TO.C,C12*%
X154099000Y-55672164D02*
X154099000Y-55887836D01*
X154819000Y-55672164D02*
X154819000Y-55887836D01*
%TO.C,C59*%
X139929779Y-57138896D02*
X140082282Y-57291399D01*
X140438896Y-56629779D02*
X140591399Y-56782282D01*
%TO.C,J1*%
X165590000Y-105710000D02*
X165590000Y-106960000D01*
X165590000Y-106960000D02*
X166840000Y-106960000D01*
X165690000Y-104900000D02*
X165690000Y-105200000D01*
X165690000Y-105200000D02*
X165890000Y-105200000D01*
X165790000Y-104900000D02*
X165790000Y-105200000D01*
X165890000Y-96540000D02*
X165890000Y-106660000D01*
X165890000Y-104100000D02*
X166500000Y-104100000D01*
X165890000Y-104900000D02*
X165690000Y-104900000D01*
X165890000Y-106660000D02*
X170610000Y-106660000D01*
X166500000Y-97150000D02*
X166500000Y-99100000D01*
X166500000Y-99100000D02*
X165890000Y-99100000D01*
X166500000Y-104100000D02*
X166500000Y-106050000D01*
X166500000Y-106050000D02*
X170000000Y-106050000D01*
X167200000Y-96540000D02*
X167200000Y-97150000D01*
X167200000Y-106660000D02*
X167200000Y-106050000D01*
X168500000Y-96540000D02*
X168500000Y-97150000D01*
X168500000Y-106660000D02*
X168500000Y-106050000D01*
X169500000Y-99500000D02*
X170000000Y-99500000D01*
X169500000Y-99700000D02*
X169500000Y-99500000D01*
X169500000Y-101500000D02*
X170000000Y-101500000D01*
X169500000Y-101700000D02*
X169500000Y-101500000D01*
X169500000Y-103500000D02*
X170000000Y-103500000D01*
X169500000Y-103700000D02*
X169500000Y-103500000D01*
X170000000Y-97150000D02*
X166500000Y-97150000D01*
X170000000Y-99600000D02*
X169500000Y-99600000D01*
X170000000Y-99700000D02*
X169500000Y-99700000D01*
X170000000Y-101600000D02*
X169500000Y-101600000D01*
X170000000Y-101700000D02*
X169500000Y-101700000D01*
X170000000Y-103600000D02*
X169500000Y-103600000D01*
X170000000Y-103700000D02*
X169500000Y-103700000D01*
X170000000Y-106050000D02*
X170000000Y-97150000D01*
X170610000Y-96540000D02*
X165890000Y-96540000D01*
X170610000Y-106660000D02*
X170610000Y-96540000D01*
%TO.C,C18*%
X163792164Y-61040000D02*
X164007836Y-61040000D01*
X163792164Y-61760000D02*
X164007836Y-61760000D01*
%TO.C,TH1*%
X141736359Y-101230000D02*
X142043641Y-101230000D01*
X141736359Y-101990000D02*
X142043641Y-101990000D01*
%TO.C,R12*%
X160606359Y-112350000D02*
X160913641Y-112350000D01*
X160606359Y-113110000D02*
X160913641Y-113110000D01*
%TO.C,C13*%
X152540000Y-55672164D02*
X152540000Y-55887836D01*
X153260000Y-55672164D02*
X153260000Y-55887836D01*
%TO.C,R16*%
X160913641Y-114720000D02*
X160606359Y-114720000D01*
X160913641Y-115480000D02*
X160606359Y-115480000D01*
%TO.C,R7*%
X147770000Y-75246359D02*
X147770000Y-75553641D01*
X148530000Y-75246359D02*
X148530000Y-75553641D01*
%TO.C,C65*%
X143982282Y-47891399D02*
X143829779Y-47738896D01*
X144491399Y-47382282D02*
X144338896Y-47229779D01*
%TO.C,Y1*%
X154809000Y-51350000D02*
X150809000Y-51350000D01*
X154809000Y-54650000D02*
X154809000Y-51350000D01*
%TO.C,D1*%
X143115000Y-74332500D02*
X143115000Y-76617500D01*
X143115000Y-76617500D02*
X144585000Y-76617500D01*
X144585000Y-76617500D02*
X144585000Y-74332500D01*
%TO.C,R46*%
X129383283Y-63020684D02*
X129600564Y-63237965D01*
X129920684Y-62483283D02*
X130137965Y-62700564D01*
%TO.C,R45*%
X127722659Y-61360060D02*
X127939940Y-61577341D01*
X128260060Y-60822659D02*
X128477341Y-61039940D01*
%TO.C,C39*%
X144690000Y-89561252D02*
X144690000Y-88138748D01*
X147410000Y-89561252D02*
X147410000Y-88138748D01*
%TO.C,D4*%
X162090000Y-110650000D02*
X162090000Y-112350000D01*
X162090000Y-110650000D02*
X164750000Y-110650000D01*
X162090000Y-112350000D02*
X164750000Y-112350000D01*
%TO.C,C56*%
X156640000Y-58772164D02*
X156640000Y-58987836D01*
X157360000Y-58772164D02*
X157360000Y-58987836D01*
%TO.C,J4*%
X165590000Y-50510000D02*
X165590000Y-51760000D01*
X165590000Y-51760000D02*
X166840000Y-51760000D01*
X165690000Y-49700000D02*
X165690000Y-50000000D01*
X165690000Y-50000000D02*
X165890000Y-50000000D01*
X165790000Y-49700000D02*
X165790000Y-50000000D01*
X165890000Y-45340000D02*
X165890000Y-51460000D01*
X165890000Y-48900000D02*
X166500000Y-48900000D01*
X165890000Y-49700000D02*
X165690000Y-49700000D01*
X165890000Y-51460000D02*
X170610000Y-51460000D01*
X166500000Y-45950000D02*
X166500000Y-47900000D01*
X166500000Y-47900000D02*
X165890000Y-47900000D01*
X166500000Y-48900000D02*
X166500000Y-50850000D01*
X166500000Y-50850000D02*
X170000000Y-50850000D01*
X167200000Y-45340000D02*
X167200000Y-45950000D01*
X167200000Y-51460000D02*
X167200000Y-50850000D01*
X168500000Y-45340000D02*
X168500000Y-45950000D01*
X168500000Y-51460000D02*
X168500000Y-50850000D01*
X169500000Y-48300000D02*
X170000000Y-48300000D01*
X169500000Y-48500000D02*
X169500000Y-48300000D01*
X170000000Y-45950000D02*
X166500000Y-45950000D01*
X170000000Y-48400000D02*
X169500000Y-48400000D01*
X170000000Y-48500000D02*
X169500000Y-48500000D01*
X170000000Y-50850000D02*
X170000000Y-45950000D01*
X170610000Y-45340000D02*
X165890000Y-45340000D01*
X170610000Y-51460000D02*
X170610000Y-45340000D01*
%TO.C,C34*%
X164440000Y-98872164D02*
X164440000Y-99087836D01*
X165160000Y-98872164D02*
X165160000Y-99087836D01*
%TO.C,D7*%
X165260000Y-116550000D02*
X162600000Y-116550000D01*
X165260000Y-118250000D02*
X162600000Y-118250000D01*
X165260000Y-118250000D02*
X165260000Y-116550000D01*
%TO.C,D3*%
X146012500Y-74332500D02*
X146012500Y-76617500D01*
X146012500Y-76617500D02*
X147482500Y-76617500D01*
X147482500Y-76617500D02*
X147482500Y-74332500D01*
%TO.C,R8*%
X133249940Y-68737965D02*
X133032659Y-68520684D01*
X133787341Y-68200564D02*
X133570060Y-67983283D01*
%TO.C,C3*%
X160622164Y-109990000D02*
X160837836Y-109990000D01*
X160622164Y-110710000D02*
X160837836Y-110710000D01*
D15*
%TO.C,U16*%
X141107359Y-55600000D02*
X141368989Y-55338370D01*
X141368989Y-55861630D02*
X141107359Y-55600000D01*
X145088370Y-51618989D02*
X145350000Y-51357359D01*
X145350000Y-51357359D02*
X145611630Y-51618989D01*
X145350000Y-59842641D02*
X145088370Y-59581011D01*
X145611630Y-59581011D02*
X145350000Y-59842641D01*
X149331011Y-55338370D02*
X149592641Y-55600000D01*
X149592641Y-55600000D02*
X149331011Y-55861630D01*
D16*
X146584905Y-59846176D02*
G75*
G02*
X146384907Y-59846176I-99999J0D01*
G01*
X146384907Y-59846176D02*
G75*
G02*
X146584905Y-59846176I99999J0D01*
G01*
D13*
%TO.C,C19*%
X159540000Y-88857836D02*
X159540000Y-88642164D01*
X160260000Y-88857836D02*
X160260000Y-88642164D01*
%TO.C,R6*%
X142020000Y-75593641D02*
X142020000Y-75286359D01*
X142780000Y-75593641D02*
X142780000Y-75286359D01*
%TO.C,C4*%
X164127836Y-108340000D02*
X163912164Y-108340000D01*
X164127836Y-109060000D02*
X163912164Y-109060000D01*
%TO.C,Q7*%
X149992500Y-58937500D02*
X149992500Y-58287500D01*
X149992500Y-58937500D02*
X149992500Y-59587500D01*
X153112500Y-58937500D02*
X153112500Y-58287500D01*
X153112500Y-58937500D02*
X153112500Y-59587500D01*
X150042500Y-60100000D02*
X149712500Y-60340000D01*
X149712500Y-59860000D01*
X150042500Y-60100000D01*
G36*
X150042500Y-60100000D02*
G01*
X149712500Y-60340000D01*
X149712500Y-59860000D01*
X150042500Y-60100000D01*
G37*
%TO.C,R37*%
X153573641Y-97920000D02*
X153266359Y-97920000D01*
X153573641Y-98680000D02*
X153266359Y-98680000D01*
%TO.C,R38*%
X153573641Y-95420000D02*
X153266359Y-95420000D01*
X153573641Y-96180000D02*
X153266359Y-96180000D01*
%TO.C,C16*%
X163792164Y-60040000D02*
X164007836Y-60040000D01*
X163792164Y-60760000D02*
X164007836Y-60760000D01*
%TO.C,R39*%
X153573641Y-92920000D02*
X153266359Y-92920000D01*
X153573641Y-93680000D02*
X153266359Y-93680000D01*
%TO.C,C26*%
X164440000Y-96942164D02*
X164440000Y-97157836D01*
X165160000Y-96942164D02*
X165160000Y-97157836D01*
%TO.C,J2*%
X165590000Y-75910000D02*
X165590000Y-77160000D01*
X165590000Y-77160000D02*
X166840000Y-77160000D01*
X165690000Y-75100000D02*
X165690000Y-75400000D01*
X165690000Y-75400000D02*
X165890000Y-75400000D01*
X165790000Y-75100000D02*
X165790000Y-75400000D01*
X165890000Y-62740000D02*
X165890000Y-76860000D01*
X165890000Y-74300000D02*
X166500000Y-74300000D01*
X165890000Y-75100000D02*
X165690000Y-75100000D01*
X165890000Y-76860000D02*
X170610000Y-76860000D01*
X166500000Y-63350000D02*
X166500000Y-65300000D01*
X166500000Y-65300000D02*
X165890000Y-65300000D01*
X166500000Y-74300000D02*
X166500000Y-76250000D01*
X166500000Y-76250000D02*
X170000000Y-76250000D01*
X167200000Y-62740000D02*
X167200000Y-63350000D01*
X167200000Y-76860000D02*
X167200000Y-76250000D01*
X168500000Y-62740000D02*
X168500000Y-63350000D01*
X168500000Y-76860000D02*
X168500000Y-76250000D01*
X169500000Y-65700000D02*
X170000000Y-65700000D01*
X169500000Y-65900000D02*
X169500000Y-65700000D01*
X169500000Y-67700000D02*
X170000000Y-67700000D01*
X169500000Y-67900000D02*
X169500000Y-67700000D01*
X169500000Y-69700000D02*
X170000000Y-69700000D01*
X169500000Y-69900000D02*
X169500000Y-69700000D01*
X169500000Y-71700000D02*
X170000000Y-71700000D01*
X169500000Y-71900000D02*
X169500000Y-71700000D01*
X169500000Y-73700000D02*
X170000000Y-73700000D01*
X169500000Y-73900000D02*
X169500000Y-73700000D01*
X170000000Y-63350000D02*
X166500000Y-63350000D01*
X170000000Y-65800000D02*
X169500000Y-65800000D01*
X170000000Y-65900000D02*
X169500000Y-65900000D01*
X170000000Y-67800000D02*
X169500000Y-67800000D01*
X170000000Y-67900000D02*
X169500000Y-67900000D01*
X170000000Y-69800000D02*
X169500000Y-69800000D01*
X170000000Y-69900000D02*
X169500000Y-69900000D01*
X170000000Y-71800000D02*
X169500000Y-71800000D01*
X170000000Y-71900000D02*
X169500000Y-71900000D01*
X170000000Y-73800000D02*
X169500000Y-73800000D01*
X170000000Y-73900000D02*
X169500000Y-73900000D01*
X170000000Y-76250000D02*
X170000000Y-63350000D01*
X170610000Y-62740000D02*
X165890000Y-62740000D01*
X170610000Y-76860000D02*
X170610000Y-62740000D01*
%TO.C,J7*%
X156940000Y-45390000D02*
X156940000Y-50110000D01*
X156940000Y-47500000D02*
X157550000Y-47500000D01*
X156940000Y-48800000D02*
X157550000Y-48800000D01*
X156940000Y-50110000D02*
X165060000Y-50110000D01*
X157550000Y-46000000D02*
X157550000Y-49500000D01*
X157550000Y-49500000D02*
X159500000Y-49500000D01*
X159500000Y-49500000D02*
X159500000Y-50110000D01*
X159900000Y-46500000D02*
X159900000Y-46000000D01*
X160000000Y-46000000D02*
X160000000Y-46500000D01*
X160100000Y-46000000D02*
X160100000Y-46500000D01*
X160100000Y-46500000D02*
X159900000Y-46500000D01*
X161900000Y-46500000D02*
X161900000Y-46000000D01*
X162000000Y-46000000D02*
X162000000Y-46500000D01*
X162100000Y-46000000D02*
X162100000Y-46500000D01*
X162100000Y-46500000D02*
X161900000Y-46500000D01*
X162500000Y-49500000D02*
X164450000Y-49500000D01*
X162500000Y-50110000D02*
X162500000Y-49500000D01*
X163300000Y-50110000D02*
X163300000Y-50310000D01*
X163300000Y-50210000D02*
X163600000Y-50210000D01*
X163300000Y-50310000D02*
X163600000Y-50310000D01*
X163600000Y-50310000D02*
X163600000Y-50110000D01*
X164110000Y-50410000D02*
X165360000Y-50410000D01*
X164450000Y-46000000D02*
X157550000Y-46000000D01*
X164450000Y-49500000D02*
X164450000Y-46000000D01*
X165060000Y-45390000D02*
X156940000Y-45390000D01*
X165060000Y-47500000D02*
X164450000Y-47500000D01*
X165060000Y-48800000D02*
X164450000Y-48800000D01*
X165060000Y-50110000D02*
X165060000Y-45390000D01*
X165360000Y-50410000D02*
X165360000Y-49160000D01*
%TO.C,Y2*%
X139482233Y-59691421D02*
X141108579Y-61317767D01*
X141108579Y-61317767D02*
X143017767Y-59408579D01*
D15*
%TO.C,U4*%
X162370000Y-90000000D02*
X156170000Y-90000000D01*
X162370000Y-104100000D02*
X156170000Y-104100000D01*
D16*
X164256000Y-103775000D02*
G75*
G02*
X164056000Y-103775000I-100000J0D01*
G01*
X164056000Y-103775000D02*
G75*
G02*
X164256000Y-103775000I100000J0D01*
G01*
D13*
%TO.C,J9*%
X126348171Y-56867588D02*
X132825269Y-50390490D01*
X127553788Y-58073205D02*
X126348171Y-56867588D01*
X128975072Y-59494490D02*
X130332717Y-60852135D01*
X132825269Y-50390490D02*
X134030886Y-51596107D01*
X136809816Y-54375036D02*
X135452171Y-53017391D01*
%TO.C,C55*%
X163792164Y-59040000D02*
X164007836Y-59040000D01*
X163792164Y-59760000D02*
X164007836Y-59760000D01*
%TO.C,R15*%
X160913641Y-113520000D02*
X160606359Y-113520000D01*
X160913641Y-114280000D02*
X160606359Y-114280000D01*
%TO.C,R4*%
X163453641Y-71520000D02*
X163146359Y-71520000D01*
X163453641Y-72280000D02*
X163146359Y-72280000D01*
D17*
%TO.C,U14*%
X158454000Y-51222999D02*
X158454000Y-58177001D01*
X158454000Y-58177001D02*
X162408000Y-58177001D01*
X162408000Y-51222999D02*
X158454000Y-51222999D01*
X162408000Y-58177001D02*
X162408000Y-51222999D01*
D13*
%TO.C,R32*%
X153573641Y-96420000D02*
X153266359Y-96420000D01*
X153573641Y-97180000D02*
X153266359Y-97180000D01*
%TO.C,U2*%
X161450000Y-81840000D02*
X159500000Y-81840000D01*
X161450000Y-81840000D02*
X163400000Y-81840000D01*
X161450000Y-86960000D02*
X159500000Y-86960000D01*
X161450000Y-86960000D02*
X163400000Y-86960000D01*
X158750000Y-81935000D02*
X158510000Y-81605000D01*
X158990000Y-81605000D01*
X158750000Y-81935000D01*
G36*
X158750000Y-81935000D02*
G01*
X158510000Y-81605000D01*
X158990000Y-81605000D01*
X158750000Y-81935000D01*
G37*
%TO.C,R2*%
X163453641Y-69320000D02*
X163146359Y-69320000D01*
X163453641Y-70080000D02*
X163146359Y-70080000D01*
%TO.C,J6*%
X165590000Y-118610000D02*
X165590000Y-119860000D01*
X165590000Y-119860000D02*
X166840000Y-119860000D01*
X165690000Y-117800000D02*
X165690000Y-118100000D01*
X165690000Y-118100000D02*
X165890000Y-118100000D01*
X165790000Y-117800000D02*
X165790000Y-118100000D01*
X165890000Y-107440000D02*
X165890000Y-119560000D01*
X165890000Y-117000000D02*
X166500000Y-117000000D01*
X165890000Y-117800000D02*
X165690000Y-117800000D01*
X165890000Y-119560000D02*
X170610000Y-119560000D01*
X166500000Y-108050000D02*
X166500000Y-110000000D01*
X166500000Y-110000000D02*
X165890000Y-110000000D01*
X166500000Y-117000000D02*
X166500000Y-118950000D01*
X166500000Y-118950000D02*
X170000000Y-118950000D01*
X167200000Y-107440000D02*
X167200000Y-108050000D01*
X167200000Y-119560000D02*
X167200000Y-118950000D01*
X168500000Y-107440000D02*
X168500000Y-108050000D01*
X168500000Y-119560000D02*
X168500000Y-118950000D01*
X169500000Y-110400000D02*
X170000000Y-110400000D01*
X169500000Y-110600000D02*
X169500000Y-110400000D01*
X169500000Y-112400000D02*
X170000000Y-112400000D01*
X169500000Y-112600000D02*
X169500000Y-112400000D01*
X169500000Y-114400000D02*
X170000000Y-114400000D01*
X169500000Y-114600000D02*
X169500000Y-114400000D01*
X169500000Y-116400000D02*
X170000000Y-116400000D01*
X169500000Y-116600000D02*
X169500000Y-116400000D01*
X170000000Y-108050000D02*
X166500000Y-108050000D01*
X170000000Y-110500000D02*
X169500000Y-110500000D01*
X170000000Y-110600000D02*
X169500000Y-110600000D01*
X170000000Y-112500000D02*
X169500000Y-112500000D01*
X170000000Y-112600000D02*
X169500000Y-112600000D01*
X170000000Y-114500000D02*
X169500000Y-114500000D01*
X170000000Y-114600000D02*
X169500000Y-114600000D01*
X170000000Y-116500000D02*
X169500000Y-116500000D01*
X170000000Y-116600000D02*
X169500000Y-116600000D01*
X170000000Y-118950000D02*
X170000000Y-108050000D01*
X170610000Y-107440000D02*
X165890000Y-107440000D01*
X170610000Y-119560000D02*
X170610000Y-107440000D01*
%TO.C,J8*%
X148040000Y-45390000D02*
X148040000Y-50110000D01*
X148040000Y-47500000D02*
X148650000Y-47500000D01*
X148040000Y-48800000D02*
X148650000Y-48800000D01*
X148040000Y-50110000D02*
X156160000Y-50110000D01*
X148650000Y-46000000D02*
X148650000Y-49500000D01*
X148650000Y-49500000D02*
X150600000Y-49500000D01*
X150600000Y-49500000D02*
X150600000Y-50110000D01*
X151000000Y-46500000D02*
X151000000Y-46000000D01*
X151100000Y-46000000D02*
X151100000Y-46500000D01*
X151200000Y-46000000D02*
X151200000Y-46500000D01*
X151200000Y-46500000D02*
X151000000Y-46500000D01*
X153000000Y-46500000D02*
X153000000Y-46000000D01*
X153100000Y-46000000D02*
X153100000Y-46500000D01*
X153200000Y-46000000D02*
X153200000Y-46500000D01*
X153200000Y-46500000D02*
X153000000Y-46500000D01*
X153600000Y-49500000D02*
X155550000Y-49500000D01*
X153600000Y-50110000D02*
X153600000Y-49500000D01*
X154400000Y-50110000D02*
X154400000Y-50310000D01*
X154400000Y-50210000D02*
X154700000Y-50210000D01*
X154400000Y-50310000D02*
X154700000Y-50310000D01*
X154700000Y-50310000D02*
X154700000Y-50110000D01*
X155210000Y-50410000D02*
X156460000Y-50410000D01*
X155550000Y-46000000D02*
X148650000Y-46000000D01*
X155550000Y-49500000D02*
X155550000Y-46000000D01*
X156160000Y-45390000D02*
X148040000Y-45390000D01*
X156160000Y-47500000D02*
X155550000Y-47500000D01*
X156160000Y-48800000D02*
X155550000Y-48800000D01*
X156160000Y-50110000D02*
X156160000Y-45390000D01*
X156460000Y-50410000D02*
X156460000Y-49160000D01*
%TO.C,R33*%
X153573641Y-93920000D02*
X153266359Y-93920000D01*
X153573641Y-94680000D02*
X153266359Y-94680000D01*
%TO.C,U1*%
X148990000Y-62890000D02*
X149940000Y-62890000D01*
X148990000Y-63840000D02*
X148990000Y-62890000D01*
X148990000Y-72160000D02*
X148990000Y-73110000D01*
X148990000Y-73110000D02*
X149940000Y-73110000D01*
X159210000Y-62890000D02*
X158260000Y-62890000D01*
X159210000Y-63840000D02*
X159210000Y-62890000D01*
X159210000Y-72160000D02*
X159210000Y-73110000D01*
X159210000Y-73110000D02*
X158260000Y-73110000D01*
X158730000Y-62615000D02*
X158260000Y-62275000D01*
X158730000Y-61935000D01*
X158730000Y-62615000D01*
G36*
X158730000Y-62615000D02*
G01*
X158260000Y-62275000D01*
X158730000Y-61935000D01*
X158730000Y-62615000D01*
G37*
%TO.C,R22*%
X160070000Y-106013641D02*
X160070000Y-105706359D01*
X160830000Y-106013641D02*
X160830000Y-105706359D01*
%TO.C,R11*%
X134079316Y-67916717D02*
X133862035Y-67699436D01*
X134616717Y-67379316D02*
X134399436Y-67162035D01*
%TO.C,R5*%
X144870000Y-75246359D02*
X144870000Y-75553641D01*
X145630000Y-75246359D02*
X145630000Y-75553641D01*
%TO.C,C63*%
X141361104Y-52179779D02*
X141208601Y-52332282D01*
X141870221Y-52688896D02*
X141717718Y-52841399D01*
%TO.C,J10*%
X138728680Y-48800000D02*
X139294365Y-48234315D01*
X138870101Y-48941421D02*
X138728680Y-48800000D01*
X139294365Y-48234315D02*
X138940812Y-47880761D01*
X140284315Y-47244365D02*
X139930761Y-46890812D01*
X140284315Y-47244365D02*
X140708579Y-46820101D01*
X140708579Y-46820101D02*
X140991421Y-46820101D01*
X140850000Y-50921320D02*
X140708579Y-50779899D01*
X141415685Y-50355635D02*
X140850000Y-50921320D01*
X142829899Y-48658579D02*
X142971320Y-48800000D01*
X142971320Y-48800000D02*
X142405635Y-49365685D01*
%TD*%
M02*
