%TF.GenerationSoftware,KiCad,Pcbnew,9.0.1*%
%TF.CreationDate,2025-08-11T19:05:14-04:00*%
%TF.ProjectId,resc,72657363-2e6b-4696-9361-645f70636258,rev?*%
%TF.SameCoordinates,Original*%
%TF.FileFunction,Paste,Bot*%
%TF.FilePolarity,Positive*%
%FSLAX46Y46*%
G04 Gerber Fmt 4.6, Leading zero omitted, Abs format (unit mm)*
G04 Created by KiCad (PCBNEW 9.0.1) date 2025-08-11 19:05:14*
%MOMM*%
%LPD*%
G01*
G04 APERTURE LIST*
G04 Aperture macros list*
%AMRoundRect*
0 Rectangle with rounded corners*
0 $1 Rounding radius*
0 $2 $3 $4 $5 $6 $7 $8 $9 X,Y pos of 4 corners*
0 Add a 4 corners polygon primitive as box body*
4,1,4,$2,$3,$4,$5,$6,$7,$8,$9,$2,$3,0*
0 Add four circle primitives for the rounded corners*
1,1,$1+$1,$2,$3*
1,1,$1+$1,$4,$5*
1,1,$1+$1,$6,$7*
1,1,$1+$1,$8,$9*
0 Add four rect primitives between the rounded corners*
20,1,$1+$1,$2,$3,$4,$5,0*
20,1,$1+$1,$4,$5,$6,$7,0*
20,1,$1+$1,$6,$7,$8,$9,0*
20,1,$1+$1,$8,$9,$2,$3,0*%
G04 Aperture macros list end*
%ADD10RoundRect,0.140000X0.140000X0.170000X-0.140000X0.170000X-0.140000X-0.170000X0.140000X-0.170000X0*%
%ADD11RoundRect,0.140000X-0.170000X0.140000X-0.170000X-0.140000X0.170000X-0.140000X0.170000X0.140000X0*%
%ADD12RoundRect,0.135000X0.185000X-0.135000X0.185000X0.135000X-0.185000X0.135000X-0.185000X-0.135000X0*%
%ADD13RoundRect,0.050000X0.491439X-0.279307X-0.279307X0.491439X-0.491439X0.279307X0.279307X-0.491439X0*%
%ADD14RoundRect,0.250000X0.325000X1.100000X-0.325000X1.100000X-0.325000X-1.100000X0.325000X-1.100000X0*%
%ADD15RoundRect,0.140000X0.170000X-0.140000X0.170000X0.140000X-0.170000X0.140000X-0.170000X-0.140000X0*%
%ADD16RoundRect,0.135000X-0.135000X-0.185000X0.135000X-0.185000X0.135000X0.185000X-0.135000X0.185000X0*%
%ADD17RoundRect,0.128204X1.871796X-3.771796X1.871796X3.771796X-1.871796X3.771796X-1.871796X-3.771796X0*%
%ADD18RoundRect,0.112500X0.112500X-0.187500X0.112500X0.187500X-0.112500X0.187500X-0.112500X-0.187500X0*%
%ADD19RoundRect,0.135000X-0.185000X0.135000X-0.185000X-0.135000X0.185000X-0.135000X0.185000X0.135000X0*%
%ADD20RoundRect,0.140000X0.021213X-0.219203X0.219203X-0.021213X-0.021213X0.219203X-0.219203X0.021213X0*%
%ADD21RoundRect,0.140000X-0.140000X-0.170000X0.140000X-0.170000X0.140000X0.170000X-0.140000X0.170000X0*%
%ADD22RoundRect,0.135000X0.035355X-0.226274X0.226274X-0.035355X-0.035355X0.226274X-0.226274X0.035355X0*%
%ADD23R,5.510000X2.960000*%
%ADD24RoundRect,0.050000X-0.491439X0.279307X0.279307X-0.491439X0.491439X-0.279307X-0.279307X0.491439X0*%
%ADD25R,3.000000X1.000000*%
%ADD26RoundRect,0.140000X0.219203X0.021213X0.021213X0.219203X-0.219203X-0.021213X-0.021213X-0.219203X0*%
%ADD27RoundRect,0.150000X-0.825000X-0.150000X0.825000X-0.150000X0.825000X0.150000X-0.825000X0.150000X0*%
%ADD28RoundRect,0.250000X-1.100000X0.325000X-1.100000X-0.325000X1.100000X-0.325000X1.100000X0.325000X0*%
%ADD29RoundRect,0.140000X-0.021213X0.219203X-0.219203X0.021213X0.021213X-0.219203X0.219203X-0.021213X0*%
%ADD30RoundRect,0.250000X-1.250000X-0.550000X1.250000X-0.550000X1.250000X0.550000X-1.250000X0.550000X0*%
%ADD31RoundRect,0.250000X0.550000X-1.250000X0.550000X1.250000X-0.550000X1.250000X-0.550000X-1.250000X0*%
G04 APERTURE END LIST*
D10*
%TO.C,C14*%
X147300000Y-71300000D03*
X146340000Y-71300000D03*
%TD*%
D11*
%TO.C,C17*%
X163700000Y-89270000D03*
X163700000Y-90230000D03*
%TD*%
D12*
%TO.C,R41*%
X161200000Y-103500000D03*
X161200000Y-102480000D03*
%TD*%
D13*
%TO.C,U5*%
X141600000Y-68300000D03*
X141140381Y-68759620D03*
X140680761Y-69219239D03*
X139323116Y-67861594D03*
X140242355Y-66942355D03*
%TD*%
D14*
%TO.C,C25*%
X161550000Y-95400000D03*
X158600000Y-95400000D03*
%TD*%
D11*
%TO.C,C21*%
X162500000Y-89270000D03*
X162500000Y-90230000D03*
%TD*%
D15*
%TO.C,C32*%
X164590000Y-106720000D03*
X164590000Y-105760000D03*
%TD*%
D16*
%TO.C,R25*%
X163600000Y-101900000D03*
X164620000Y-101900000D03*
%TD*%
D17*
%TO.C,C53*%
X128600000Y-95100000D03*
X128600000Y-82600000D03*
%TD*%
D18*
%TO.C,D8*%
X160800000Y-90200000D03*
X160800000Y-88100000D03*
%TD*%
D13*
%TO.C,U3*%
X143579899Y-66320101D03*
X143120280Y-66779721D03*
X142660660Y-67239340D03*
X141303015Y-65881695D03*
X142222254Y-64962456D03*
%TD*%
D12*
%TO.C,R21*%
X161300000Y-106710000D03*
X161300000Y-105690000D03*
%TD*%
D15*
%TO.C,C28*%
X157020000Y-97280000D03*
X157020000Y-96320000D03*
%TD*%
D19*
%TO.C,R9*%
X148500000Y-64400000D03*
X148500000Y-65420000D03*
%TD*%
D11*
%TO.C,C2*%
X147300000Y-64400000D03*
X147300000Y-65360000D03*
%TD*%
D20*
%TO.C,C30*%
X142102046Y-69834422D03*
X142780868Y-69155600D03*
%TD*%
D21*
%TO.C,C33*%
X154344617Y-100900000D03*
X155304617Y-100900000D03*
%TD*%
D22*
%TO.C,R29*%
X140800970Y-72549712D03*
X141522218Y-71828464D03*
%TD*%
D11*
%TO.C,C7*%
X156950000Y-64420000D03*
X156950000Y-65380000D03*
%TD*%
D23*
%TO.C,R36*%
X123625000Y-104136000D03*
X123625000Y-112190000D03*
%TD*%
D17*
%TO.C,C54*%
X145700000Y-95100000D03*
X145700000Y-82600000D03*
%TD*%
D24*
%TO.C,U11*%
X133643217Y-67841493D03*
X134102836Y-67381873D03*
X134562456Y-66922254D03*
X135920101Y-68279899D03*
X135000862Y-69199138D03*
%TD*%
D25*
%TO.C,L1*%
X157800000Y-88250000D03*
X157800000Y-90250000D03*
%TD*%
D22*
%TO.C,R26*%
X143495047Y-71269849D03*
X144216295Y-70548601D03*
%TD*%
D26*
%TO.C,C36*%
X131850000Y-66050000D03*
X131171178Y-65371178D03*
%TD*%
D20*
%TO.C,C64*%
X143221178Y-61528822D03*
X143900000Y-60850000D03*
%TD*%
D23*
%TO.C,R35*%
X135475000Y-104136000D03*
X135475000Y-112190000D03*
%TD*%
D13*
%TO.C,U6*%
X139620101Y-70279899D03*
X139160482Y-70739519D03*
X138700862Y-71199138D03*
X137343217Y-69841493D03*
X138262456Y-68922254D03*
%TD*%
D27*
%TO.C,U8*%
X153925000Y-118745000D03*
X153925000Y-117475000D03*
X153925000Y-116205000D03*
X153925000Y-114935000D03*
X158875000Y-114935000D03*
X158875000Y-116205000D03*
X158875000Y-117475000D03*
X158875000Y-118745000D03*
%TD*%
D14*
%TO.C,C23*%
X161550000Y-98600000D03*
X158600000Y-98600000D03*
%TD*%
D20*
%TO.C,C61*%
X144021178Y-62378822D03*
X144700000Y-61700000D03*
%TD*%
%TO.C,C60*%
X148821178Y-56228822D03*
X149500000Y-55550000D03*
%TD*%
D15*
%TO.C,C49*%
X162400000Y-109680000D03*
X162400000Y-108720000D03*
%TD*%
D26*
%TO.C,C37*%
X130450000Y-67450000D03*
X129771178Y-66771178D03*
%TD*%
D20*
%TO.C,C35*%
X140122147Y-71814321D03*
X140800969Y-71135499D03*
%TD*%
D16*
%TO.C,R17*%
X148090000Y-51700000D03*
X149110000Y-51700000D03*
%TD*%
D21*
%TO.C,C44*%
X161220000Y-117000000D03*
X162180000Y-117000000D03*
%TD*%
D11*
%TO.C,C8*%
X158050000Y-64400000D03*
X158050000Y-65360000D03*
%TD*%
D28*
%TO.C,C40*%
X141800000Y-100100000D03*
X141800000Y-103050000D03*
%TD*%
D21*
%TO.C,C45*%
X161220000Y-110800000D03*
X162180000Y-110800000D03*
%TD*%
D11*
%TO.C,C15*%
X157400000Y-74900000D03*
X157400000Y-75860000D03*
%TD*%
D22*
%TO.C,R20*%
X145545657Y-69360660D03*
X146266905Y-68639412D03*
%TD*%
D29*
%TO.C,C58*%
X146028822Y-58921178D03*
X145350000Y-59600000D03*
%TD*%
D27*
%TO.C,U10*%
X153950000Y-112540000D03*
X153950000Y-111270000D03*
X153950000Y-110000000D03*
X153950000Y-108730000D03*
X158900000Y-108730000D03*
X158900000Y-110000000D03*
X158900000Y-111270000D03*
X158900000Y-112540000D03*
%TD*%
D15*
%TO.C,C1*%
X156900000Y-71780000D03*
X156900000Y-70820000D03*
%TD*%
D12*
%TO.C,R40*%
X161225000Y-115910000D03*
X161225000Y-114890000D03*
%TD*%
D15*
%TO.C,C9*%
X158100000Y-71780000D03*
X158100000Y-70820000D03*
%TD*%
D19*
%TO.C,R27*%
X163490000Y-105700000D03*
X163490000Y-106720000D03*
%TD*%
D27*
%TO.C,U9*%
X153950000Y-106340000D03*
X153950000Y-105070000D03*
X153950000Y-103800000D03*
X153950000Y-102530000D03*
X158900000Y-102530000D03*
X158900000Y-103800000D03*
X158900000Y-105070000D03*
X158900000Y-106340000D03*
%TD*%
D22*
%TO.C,R30*%
X141508077Y-73256819D03*
X142229325Y-72535571D03*
%TD*%
D12*
%TO.C,R42*%
X161200000Y-109720000D03*
X161200000Y-108700000D03*
%TD*%
D22*
%TO.C,R23*%
X142787940Y-70562742D03*
X143509188Y-69841494D03*
%TD*%
D19*
%TO.C,R1*%
X155100000Y-67880000D03*
X155100000Y-68900000D03*
%TD*%
D29*
%TO.C,C51*%
X135156425Y-64291817D03*
X134477603Y-64970639D03*
%TD*%
D21*
%TO.C,C46*%
X161220000Y-104600000D03*
X162180000Y-104600000D03*
%TD*%
D11*
%TO.C,C11*%
X161200000Y-118120000D03*
X161200000Y-119080000D03*
%TD*%
D19*
%TO.C,R28*%
X164000000Y-96300000D03*
X164000000Y-97320000D03*
%TD*%
D11*
%TO.C,C10*%
X151700000Y-64420000D03*
X151700000Y-65380000D03*
%TD*%
D23*
%TO.C,R34*%
X147425000Y-104136000D03*
X147425000Y-112190000D03*
%TD*%
D19*
%TO.C,R18*%
X162500000Y-83890000D03*
X162500000Y-84910000D03*
%TD*%
D15*
%TO.C,C48*%
X162425000Y-103470000D03*
X162425000Y-102510000D03*
%TD*%
D30*
%TO.C,C57*%
X158100000Y-54700000D03*
X162500000Y-54700000D03*
%TD*%
D15*
%TO.C,C47*%
X162400000Y-115860000D03*
X162400000Y-114900000D03*
%TD*%
D11*
%TO.C,C5*%
X148450000Y-72450000D03*
X148450000Y-73410000D03*
%TD*%
D24*
%TO.C,U13*%
X137603015Y-63881695D03*
X138062634Y-63422075D03*
X138522254Y-62962456D03*
X139879899Y-64320101D03*
X138960660Y-65239340D03*
%TD*%
D15*
%TO.C,C27*%
X157020000Y-99760000D03*
X157020000Y-98800000D03*
%TD*%
D24*
%TO.C,U12*%
X135623116Y-65861594D03*
X136082735Y-65401974D03*
X136542355Y-64942355D03*
X137900000Y-66300000D03*
X136980761Y-67219239D03*
%TD*%
D22*
%TO.C,R19*%
X144796123Y-68625269D03*
X145517371Y-67904021D03*
%TD*%
D28*
%TO.C,C38*%
X130800000Y-100125000D03*
X130800000Y-103075000D03*
%TD*%
D29*
%TO.C,C50*%
X133176526Y-66271716D03*
X132497704Y-66950538D03*
%TD*%
%TO.C,C52*%
X137136324Y-62311918D03*
X136457502Y-62990740D03*
%TD*%
D20*
%TO.C,C22*%
X144081945Y-67854523D03*
X144760767Y-67175701D03*
%TD*%
D15*
%TO.C,C29*%
X157020000Y-94780000D03*
X157020000Y-93820000D03*
%TD*%
D31*
%TO.C,C20*%
X157800000Y-85400000D03*
X157800000Y-81000000D03*
%TD*%
D11*
%TO.C,C6*%
X150600000Y-64420000D03*
X150600000Y-65380000D03*
%TD*%
%TO.C,C31*%
X162390000Y-105760000D03*
X162390000Y-106720000D03*
%TD*%
D16*
%TO.C,R14*%
X156300000Y-51700000D03*
X157320000Y-51700000D03*
%TD*%
M02*
