M48
; DRILL file {KiCad 9.0.1} date 2025-08-11T19:05:15-0400
; FORMAT={-:-/ absolute / inch / decimal}
; #@! TF.CreationDate,2025-08-11T19:05:15-04:00
; #@! TF.GenerationSoftware,Kicad,Pcbnew,9.0.1
; #@! TF.FileFunction,Plated,1,4,PTH
FMAT,2
INCH
; #@! TA.AperFunction,Plated,PTH,ViaDrill
T1C0.0118
; #@! TA.AperFunction,Plated,PTH,ComponentDrill
T2C0.0236
; #@! TA.AperFunction,Plated,PTH,ComponentDrill
T3C0.0295
%
G90
G05
T1
X4.7963Y-4.3793
X4.7963Y-4.408
X4.7963Y-4.4344
X4.7963Y-4.462
X4.7963Y-4.4896
X4.7963Y-4.5171
X4.7963Y-4.5447
X4.7963Y-4.5733
X4.7963Y-4.6009
X4.7963Y-4.6285
X4.7963Y-4.656
X4.8238Y-4.3793
X4.8238Y-4.408
X4.8238Y-4.4344
X4.8238Y-4.462
X4.8238Y-4.4896
X4.8238Y-4.5171
X4.8238Y-4.5447
X4.8238Y-4.5733
X4.8238Y-4.6009
X4.8238Y-4.6285
X4.8238Y-4.656
X4.8278Y-4.0014
X4.8278Y-4.0289
X4.8278Y-4.0565
X4.8278Y-4.0841
X4.8278Y-4.1116
X4.8278Y-4.1398
X4.8425Y-3.9567
X4.8435Y-3.7376
X4.8435Y-3.7652
X4.8435Y-3.7927
X4.8435Y-3.8203
X4.8435Y-3.8478
X4.8435Y-3.8754
X4.8514Y-4.3793
X4.8514Y-4.408
X4.8514Y-4.4344
X4.8514Y-4.462
X4.8514Y-4.4896
X4.8514Y-4.5171
X4.8514Y-4.5447
X4.8514Y-4.5733
X4.8514Y-4.6009
X4.8514Y-4.6285
X4.8514Y-4.656
X4.8553Y-4.0014
X4.8553Y-4.0289
X4.8553Y-4.0565
X4.8553Y-4.0841
X4.8553Y-4.1116
X4.8553Y-4.1398
X4.8701Y-3.9567
X4.8711Y-3.7376
X4.8711Y-3.7652
X4.8711Y-3.7927
X4.8711Y-3.8203
X4.8711Y-3.8478
X4.8711Y-3.8754
X4.872Y-3.4252
X4.872Y-3.4528
X4.872Y-3.5433
X4.872Y-3.5709
X4.8789Y-4.3793
X4.8789Y-4.408
X4.8789Y-4.4344
X4.8789Y-4.462
X4.8789Y-4.4896
X4.8789Y-4.5171
X4.8789Y-4.5447
X4.8789Y-4.5733
X4.8789Y-4.6009
X4.8789Y-4.6285
X4.8789Y-4.656
X4.8829Y-4.0014
X4.8829Y-4.0289
X4.8829Y-4.0565
X4.8829Y-4.0841
X4.8829Y-4.1116
X4.8829Y-4.1398
X4.8976Y-3.9567
X4.8986Y-3.7376
X4.8986Y-3.7652
X4.8986Y-3.7927
X4.8986Y-3.8203
X4.8986Y-3.8478
X4.8986Y-3.8754
X4.8996Y-3.4252
X4.8996Y-3.4528
X4.8996Y-3.5433
X4.8996Y-3.5709
X4.9065Y-4.3793
X4.9065Y-4.408
X4.9065Y-4.4344
X4.9065Y-4.462
X4.9065Y-4.4896
X4.9065Y-4.5171
X4.9065Y-4.5447
X4.9065Y-4.5733
X4.9065Y-4.6009
X4.9065Y-4.6285
X4.9065Y-4.656
X4.9094Y-4.1398
X4.9104Y-4.0014
X4.9104Y-4.0289
X4.9104Y-4.0565
X4.9104Y-4.0841
X4.9104Y-4.1116
X4.9242Y-3.9573
X4.9262Y-3.128
X4.9262Y-3.1555
X4.9262Y-3.1831
X4.9262Y-3.2106
X4.9262Y-3.2382
X4.9262Y-3.2657
X4.9262Y-3.2933
X4.9262Y-3.3209
X4.9262Y-3.3484
X4.9262Y-3.376
X4.9262Y-3.7376
X4.9262Y-3.7652
X4.9262Y-3.7927
X4.9262Y-3.8203
X4.9262Y-3.8478
X4.9262Y-3.8754
X4.9272Y-3.4252
X4.9272Y-3.4528
X4.9272Y-3.5433
X4.9272Y-3.5709
X4.9341Y-4.3793
X4.9341Y-4.408
X4.9341Y-4.4344
X4.9341Y-4.462
X4.9341Y-4.4896
X4.9341Y-4.5171
X4.9341Y-4.5447
X4.9341Y-4.5733
X4.9341Y-4.6009
X4.9341Y-4.6285
X4.9341Y-4.656
X4.937Y-4.1398
X4.938Y-4.0014
X4.938Y-4.0289
X4.938Y-4.0565
X4.938Y-4.0841
X4.938Y-4.1116
X4.9537Y-3.7376
X4.9537Y-3.7652
X4.9537Y-3.7927
X4.9537Y-3.8203
X4.9537Y-3.8478
X4.9537Y-3.8754
X4.9547Y-3.4252
X4.9547Y-3.4528
X4.9547Y-3.5433
X4.9547Y-3.5709
X4.9695Y-4.2927
X5.0079Y-3.126
X5.0079Y-3.1535
X5.0079Y-3.1811
X5.0079Y-3.2087
X5.0079Y-3.2362
X5.0079Y-3.2638
X5.0079Y-3.2913
X5.0079Y-3.3189
X5.0079Y-3.3465
X5.0079Y-3.374
X5.0079Y-3.4252
X5.0079Y-3.4528
X5.0079Y-3.5413
X5.0079Y-3.5689
X5.0167Y-4.3163
X5.0197Y-3.626
X5.0197Y-3.6535
X5.0197Y-3.6811
X5.0197Y-3.7087
X5.0207Y-3.7376
X5.0207Y-3.7652
X5.0207Y-3.7927
X5.0207Y-3.8203
X5.0207Y-3.8478
X5.0207Y-3.8754
X5.0354Y-3.126
X5.0354Y-3.1535
X5.0354Y-3.1811
X5.0354Y-3.2087
X5.0354Y-3.2362
X5.0354Y-3.2638
X5.0354Y-3.2913
X5.0354Y-3.3189
X5.0354Y-3.3465
X5.0354Y-3.374
X5.0354Y-3.4252
X5.0354Y-3.4528
X5.0354Y-3.5413
X5.0354Y-3.5689
X5.0354Y-4.0866
X5.0354Y-4.1142
X5.0354Y-4.1417
X5.0354Y-4.1693
X5.0472Y-3.626
X5.0472Y-3.6535
X5.0472Y-3.6811
X5.0472Y-3.7087
X5.0482Y-3.7376
X5.0482Y-3.7652
X5.0482Y-3.7927
X5.0482Y-3.8203
X5.0482Y-3.8478
X5.0482Y-3.8754
X5.063Y-3.126
X5.063Y-3.1535
X5.063Y-3.1811
X5.063Y-3.2087
X5.063Y-3.2362
X5.063Y-3.2638
X5.063Y-3.2913
X5.063Y-3.3189
X5.063Y-3.3465
X5.063Y-3.374
X5.063Y-3.4252
X5.063Y-3.4528
X5.063Y-3.5413
X5.063Y-3.5689
X5.0866Y-4.0447
X5.0866Y-4.0722
X5.0866Y-4.0998
X5.0866Y-4.1274
X5.0866Y-4.1549
X5.0866Y-4.1825
X5.0876Y-4.2106
X5.0886Y-2.8445
X5.0906Y-3.126
X5.0906Y-3.1535
X5.0906Y-3.1811
X5.0906Y-3.2087
X5.0906Y-3.2362
X5.0906Y-3.2638
X5.0906Y-3.2913
X5.0906Y-3.3189
X5.0906Y-3.3465
X5.0906Y-3.374
X5.0906Y-3.4252
X5.0906Y-3.4528
X5.0906Y-3.5413
X5.0906Y-3.5689
X5.1142Y-4.0447
X5.1142Y-4.0722
X5.1142Y-4.0998
X5.1142Y-4.1274
X5.1142Y-4.1549
X5.1142Y-4.1825
X5.1152Y-4.2106
X5.1181Y-2.8445
X5.1181Y-2.872
X5.1181Y-3.126
X5.1181Y-3.1535
X5.1181Y-3.1811
X5.1181Y-3.2087
X5.1181Y-3.2362
X5.1181Y-3.2638
X5.1181Y-3.2913
X5.1181Y-3.3189
X5.1181Y-3.3465
X5.1181Y-3.374
X5.1417Y-4.0447
X5.1417Y-4.0722
X5.1417Y-4.0998
X5.1417Y-4.1274
X5.1417Y-4.1549
X5.1417Y-4.1825
X5.1427Y-4.2106
X5.1437Y-2.8996
X5.1457Y-2.8445
X5.1457Y-2.872
X5.1634Y-2.628
X5.1693Y-4.0447
X5.1693Y-4.0722
X5.1693Y-4.0998
X5.1693Y-4.1274
X5.1693Y-4.1549
X5.1693Y-4.1825
X5.1703Y-4.2106
X5.1713Y-2.8996
X5.1713Y-2.9272
X5.1732Y-2.8445
X5.1732Y-2.872
X5.1969Y-4.0447
X5.1969Y-4.0722
X5.1969Y-4.0998
X5.1969Y-4.1274
X5.1969Y-4.1549
X5.1969Y-4.1825
X5.1978Y-4.2106
X5.1988Y-2.8996
X5.1988Y-2.9272
X5.1988Y-2.9547
X5.2008Y-2.8445
X5.2008Y-2.872
X5.2264Y-2.8996
X5.2264Y-2.9272
X5.2264Y-2.9547
X5.2264Y-2.9823
X5.2283Y-2.872
X5.2303Y-4.2933
X5.2402Y-4.2244
X5.2451Y-3.7376
X5.2451Y-3.7652
X5.2451Y-3.7927
X5.2451Y-3.8203
X5.2451Y-3.8478
X5.2451Y-3.8754
X5.2539Y-2.8996
X5.2539Y-2.9272
X5.2539Y-2.9547
X5.2539Y-2.9823
X5.2539Y-3.0098
X5.2579Y-4.2933
X5.2648Y-4.3793
X5.2648Y-4.408
X5.2648Y-4.4344
X5.2648Y-4.462
X5.2648Y-4.4896
X5.2648Y-4.5171
X5.2648Y-4.5447
X5.2648Y-4.5733
X5.2648Y-4.6009
X5.2648Y-4.6285
X5.2648Y-4.656
X5.2677Y-4.2244
X5.2726Y-3.7376
X5.2726Y-3.7652
X5.2726Y-3.7927
X5.2726Y-3.8203
X5.2726Y-3.8478
X5.2726Y-3.8754
X5.2815Y-2.9272
X5.2815Y-2.9547
X5.2815Y-2.9823
X5.2815Y-3.0098
X5.2815Y-3.0374
X5.2854Y-4.2933
X5.2923Y-4.3793
X5.2923Y-4.408
X5.2923Y-4.4344
X5.2923Y-4.462
X5.2923Y-4.4896
X5.2923Y-4.5171
X5.2923Y-4.5447
X5.2923Y-4.5733
X5.2923Y-4.6009
X5.2923Y-4.6285
X5.2923Y-4.656
X5.2953Y-2.4055
X5.2953Y-4.2244
X5.2963Y-4.0014
X5.2963Y-4.0289
X5.2963Y-4.0565
X5.2963Y-4.0841
X5.2963Y-4.1116
X5.2963Y-4.1378
X5.3091Y-2.9547
X5.3091Y-2.9823
X5.3091Y-3.0098
X5.3091Y-3.0374
X5.311Y-3.9567
X5.312Y-3.7376
X5.312Y-3.7652
X5.312Y-3.7927
X5.312Y-3.8203
X5.312Y-3.8478
X5.312Y-3.8754
X5.313Y-4.2933
X5.315Y-2.7244
X5.3199Y-4.3793
X5.3199Y-4.408
X5.3199Y-4.4344
X5.3199Y-4.462
X5.3199Y-4.4896
X5.3199Y-4.5171
X5.3199Y-4.5447
X5.3199Y-4.5733
X5.3199Y-4.6009
X5.3199Y-4.6285
X5.3199Y-4.656
X5.3228Y-4.2244
X5.3238Y-4.0014
X5.3238Y-4.0289
X5.3238Y-4.0565
X5.3238Y-4.0841
X5.3238Y-4.1116
X5.3238Y-4.1378
X5.3366Y-2.9823
X5.3366Y-3.0098
X5.3366Y-3.0374
X5.3386Y-2.5945
X5.3386Y-3.9567
X5.3396Y-3.7376
X5.3396Y-3.7652
X5.3396Y-3.7927
X5.3396Y-3.8203
X5.3396Y-3.8478
X5.3396Y-3.8754
X5.3406Y-4.2933
X5.3474Y-4.3793
X5.3474Y-4.408
X5.3474Y-4.4344
X5.3474Y-4.462
X5.3474Y-4.4896
X5.3474Y-4.5171
X5.3474Y-4.5447
X5.3474Y-4.5733
X5.3474Y-4.6009
X5.3474Y-4.6285
X5.3474Y-4.656
X5.3504Y-2.7677
X5.3504Y-4.2244
X5.3514Y-4.0014
X5.3514Y-4.0289
X5.3514Y-4.0565
X5.3514Y-4.0841
X5.3514Y-4.1116
X5.3514Y-4.1378
X5.3642Y-3.0098
X5.3642Y-3.0374
X5.3661Y-3.9567
X5.3671Y-3.7376
X5.3671Y-3.7652
X5.3671Y-3.7927
X5.3671Y-3.8203
X5.3671Y-3.8478
X5.3671Y-3.8754
X5.375Y-4.3793
X5.375Y-4.408
X5.375Y-4.4344
X5.375Y-4.462
X5.375Y-4.4896
X5.375Y-4.5171
X5.375Y-4.5447
X5.375Y-4.5733
X5.375Y-4.6009
X5.375Y-4.6285
X5.375Y-4.656
X5.3789Y-4.0014
X5.3789Y-4.0289
X5.3789Y-4.0565
X5.3789Y-4.0841
X5.3789Y-4.1116
X5.3799Y-4.1378
X5.3907Y-4.2258
X5.3917Y-3.0374
X5.3927Y-3.9573
X5.3947Y-3.7376
X5.3947Y-3.7652
X5.3947Y-3.7927
X5.3947Y-3.8203
X5.3947Y-3.8478
X5.3947Y-3.8754
X5.4016Y-2.2992
X5.4026Y-4.3793
X5.4026Y-4.408
X5.4026Y-4.4344
X5.4026Y-4.462
X5.4026Y-4.4896
X5.4026Y-4.5171
X5.4026Y-4.5447
X5.4026Y-4.5733
X5.4026Y-4.6009
X5.4026Y-4.6285
X5.4026Y-4.656
X5.4065Y-4.0014
X5.4065Y-4.0289
X5.4065Y-4.0565
X5.4065Y-4.0841
X5.4065Y-4.1116
X5.4075Y-4.1378
X5.4117Y-2.3703
X5.4174Y-2.515
X5.4222Y-3.7376
X5.4222Y-3.7652
X5.4222Y-3.7927
X5.4222Y-3.8203
X5.4222Y-3.8478
X5.4222Y-3.8754
X5.439Y-2.3297
X5.4434Y-2.7135
X5.4498Y-3.7376
X5.4498Y-3.7652
X5.4498Y-3.7927
X5.4498Y-3.8203
X5.4498Y-3.8478
X5.4498Y-3.8754
X5.4606Y-2.3504
X5.4608Y-4.25
X5.4646Y-2.4232
X5.4803Y-2.3701
X5.4892Y-3.7376
X5.4892Y-3.7652
X5.4892Y-3.7927
X5.4892Y-3.8203
X5.4892Y-3.8478
X5.4892Y-3.8754
X5.5Y-2.3898
X5.5Y-4.0866
X5.5Y-4.1142
X5.5Y-4.1417
X5.5Y-4.1693
X5.5071Y-2.5323
X5.5166Y-2.8273
X5.5167Y-3.7376
X5.5167Y-3.7652
X5.5167Y-3.7927
X5.5167Y-3.8203
X5.5167Y-3.8478
X5.5197Y-2.4094
X5.5335Y-2.2087
X5.5394Y-2.4291
X5.5443Y-4.0447
X5.5443Y-4.0722
X5.5443Y-4.0998
X5.5443Y-4.1274
X5.5443Y-4.1549
X5.5443Y-4.1825
X5.5453Y-4.3012
X5.5512Y-2.9281
X5.5591Y-2.1909
X5.563Y-4.0
X5.5631Y-2.5938
X5.564Y-2.125
X5.5709Y-3.0571
X5.5719Y-4.0447
X5.5719Y-4.0722
X5.5719Y-4.0998
X5.5719Y-4.1274
X5.5719Y-4.1549
X5.5719Y-4.1825
X5.5728Y-4.3012
X5.5787Y-2.4291
X5.5866Y-2.4646
X5.5984Y-2.4094
X5.5984Y-3.0571
X5.5994Y-4.0447
X5.5994Y-4.0722
X5.5994Y-4.0998
X5.5994Y-4.1274
X5.5994Y-4.1549
X5.6004Y-4.1831
X5.6004Y-4.3012
X5.6063Y-4.0
X5.6102Y-2.8976
X5.6181Y-2.3898
X5.6216Y-2.7781
X5.626Y-3.0571
X5.627Y-4.0447
X5.627Y-4.0722
X5.627Y-4.0998
X5.627Y-4.1274
X5.627Y-4.1549
X5.628Y-4.1831
X5.628Y-4.3012
X5.6441Y-2.8819
X5.6457Y-2.7086
X5.6535Y-3.0571
X5.6555Y-4.3012
X5.6654Y-2.3957
X5.6693Y-4.0394
X5.6693Y-4.0669
X5.6693Y-4.0945
X5.6693Y-4.122
X5.6725Y-2.6714
X5.6811Y-3.0571
X5.6811Y-3.126
X5.6811Y-3.1535
X5.6811Y-3.1811
X5.6811Y-3.2087
X5.6811Y-3.2362
X5.6811Y-3.2638
X5.6811Y-3.2913
X5.6811Y-3.3189
X5.6811Y-3.3465
X5.6811Y-3.374
X5.6929Y-2.0079
X5.6969Y-2.4291
X5.7087Y-3.0571
X5.7087Y-3.126
X5.7087Y-3.1535
X5.7087Y-3.1811
X5.7087Y-3.2087
X5.7087Y-3.2362
X5.7087Y-3.2638
X5.7087Y-3.2913
X5.7087Y-3.3189
X5.7087Y-3.3465
X5.7087Y-3.374
X5.7087Y-3.4252
X5.7087Y-3.4528
X5.7087Y-3.5413
X5.7087Y-3.5689
X5.7126Y-2.5079
X5.7126Y-2.5984
X5.7126Y-2.9016
X5.7165Y-3.626
X5.7165Y-3.6535
X5.7165Y-3.6811
X5.7165Y-3.7087
X5.7165Y-3.7376
X5.7165Y-3.7652
X5.7165Y-3.7927
X5.7165Y-3.8203
X5.7165Y-3.8478
X5.7165Y-3.8754
X5.7169Y-2.8622
X5.7175Y-4.0565
X5.7175Y-4.0841
X5.7175Y-4.1116
X5.7175Y-4.1392
X5.7205Y-2.0236
X5.7216Y-2.3456
X5.7301Y-2.4861
X5.7333Y-4.3793
X5.7333Y-4.408
X5.7333Y-4.4344
X5.7333Y-4.462
X5.7333Y-4.4896
X5.7333Y-4.5171
X5.7333Y-4.5447
X5.7333Y-4.5733
X5.7333Y-4.6009
X5.7333Y-4.6285
X5.7333Y-4.656
X5.7362Y-3.0571
X5.7362Y-3.126
X5.7362Y-3.1535
X5.7362Y-3.1811
X5.7362Y-3.2087
X5.7362Y-3.2362
X5.7362Y-3.2638
X5.7362Y-3.2913
X5.7362Y-3.3189
X5.7362Y-3.3465
X5.7362Y-3.374
X5.7362Y-3.4252
X5.7362Y-3.4528
X5.7362Y-3.5413
X5.7362Y-3.5689
X5.7441Y-3.626
X5.7441Y-3.6535
X5.7441Y-3.6811
X5.7441Y-3.7087
X5.7441Y-3.7376
X5.7441Y-3.7652
X5.7441Y-3.7927
X5.7441Y-3.8203
X5.7441Y-3.8478
X5.7441Y-3.8754
X5.7451Y-4.0289
X5.7451Y-4.0565
X5.7451Y-4.0841
X5.7451Y-4.1116
X5.7451Y-4.1392
X5.748Y-4.3012
X5.7512Y-2.6496
X5.7559Y-2.8071
X5.7562Y-2.4759
X5.7608Y-4.3793
X5.7608Y-4.408
X5.7608Y-4.4344
X5.7608Y-4.462
X5.7608Y-4.4896
X5.7608Y-4.5171
X5.7608Y-4.5447
X5.7608Y-4.5733
X5.7608Y-4.6009
X5.7608Y-4.6285
X5.7608Y-4.656
X5.7638Y-3.0571
X5.7638Y-3.126
X5.7638Y-3.1535
X5.7638Y-3.1811
X5.7638Y-3.2087
X5.7638Y-3.2362
X5.7638Y-3.2638
X5.7638Y-3.2913
X5.7638Y-3.3189
X5.7638Y-3.3465
X5.7638Y-3.374
X5.7638Y-3.4252
X5.7638Y-3.4528
X5.7638Y-3.5413
X5.7638Y-3.5689
X5.7687Y-4.0014
X5.7717Y-3.626
X5.7717Y-3.6535
X5.7717Y-3.6811
X5.7726Y-4.0289
X5.7726Y-4.0565
X5.7726Y-4.0841
X5.7726Y-4.1116
X5.7726Y-4.1392
X5.7756Y-2.8386
X5.7756Y-4.3012
X5.7768Y-2.9543
X5.7835Y-3.9567
X5.7844Y-3.7376
X5.7844Y-3.7652
X5.7844Y-3.7927
X5.7844Y-3.8203
X5.7844Y-3.8478
X5.7844Y-3.8754
X5.7884Y-4.3793
X5.7884Y-4.408
X5.7884Y-4.4344
X5.7884Y-4.462
X5.7884Y-4.4896
X5.7884Y-4.5171
X5.7884Y-4.5447
X5.7884Y-4.5733
X5.7884Y-4.6009
X5.7884Y-4.6285
X5.7884Y-4.656
X5.7913Y-3.0571
X5.7913Y-3.126
X5.7913Y-3.1535
X5.7913Y-3.1811
X5.7913Y-3.2087
X5.7913Y-3.2362
X5.7913Y-3.2638
X5.7913Y-3.2913
X5.7913Y-3.3189
X5.7913Y-3.3465
X5.7913Y-3.374
X5.7913Y-3.4252
X5.7913Y-3.4528
X5.7913Y-3.5413
X5.7913Y-3.5689
X5.7963Y-4.0014
X5.7975Y-2.7739
X5.7991Y-2.4571
X5.7992Y-2.5354
X5.7992Y-2.689
X5.7992Y-2.8071
X5.8002Y-4.0289
X5.8002Y-4.0565
X5.8002Y-4.0841
X5.8002Y-4.1116
X5.8002Y-4.1392
X5.8031Y-4.3012
X5.811Y-3.9567
X5.815Y-2.4055
X5.8159Y-4.3793
X5.8159Y-4.408
X5.8159Y-4.4344
X5.8159Y-4.462
X5.8159Y-4.4896
X5.8159Y-4.5171
X5.8159Y-4.5447
X5.8159Y-4.5733
X5.8159Y-4.6009
X5.8159Y-4.6285
X5.8159Y-4.656
X5.8189Y-3.0571
X5.8238Y-4.0014
X5.8278Y-4.0289
X5.8278Y-4.0565
X5.8278Y-4.0841
X5.8278Y-4.1116
X5.8278Y-4.1392
X5.8307Y-4.3012
X5.8386Y-3.9567
X5.8396Y-3.7376
X5.8396Y-3.7652
X5.8396Y-3.7927
X5.8396Y-3.8203
X5.8396Y-3.8478
X5.8396Y-3.8754
X5.8435Y-4.3793
X5.8435Y-4.408
X5.8435Y-4.4344
X5.8435Y-4.462
X5.8435Y-4.4896
X5.8435Y-4.5171
X5.8435Y-4.5447
X5.8435Y-4.5733
X5.8435Y-4.6009
X5.8435Y-4.6285
X5.8435Y-4.656
X5.8445Y-2.8524
X5.8445Y-2.8902
X5.8445Y-3.4252
X5.8445Y-3.4528
X5.8445Y-3.5433
X5.8445Y-3.5709
X5.8465Y-3.0571
X5.8504Y-2.4764
X5.8514Y-4.0014
X5.8543Y-2.4094
X5.8553Y-4.0289
X5.8553Y-4.0565
X5.8553Y-4.0841
X5.8553Y-4.1116
X5.8553Y-4.1392
X5.8583Y-4.3012
X5.8622Y-3.0315
X5.8661Y-3.9567
X5.8671Y-3.7376
X5.8671Y-3.7652
X5.8671Y-3.7927
X5.8671Y-3.8203
X5.8671Y-3.8478
X5.8671Y-3.8754
X5.8705Y-2.0354
X5.8711Y-4.3793
X5.8711Y-4.408
X5.8711Y-4.4344
X5.8711Y-4.462
X5.8711Y-4.4896
X5.8711Y-4.5171
X5.8711Y-4.5447
X5.8711Y-4.5733
X5.8711Y-4.6009
X5.8711Y-4.6285
X5.8711Y-4.656
X5.872Y-3.4252
X5.872Y-3.4528
X5.872Y-3.5433
X5.872Y-3.5709
X5.874Y-3.0571
X5.8799Y-4.002
X5.8819Y-2.4646
X5.8829Y-4.0289
X5.8829Y-4.0565
X5.8829Y-4.0841
X5.8829Y-4.1116
X5.8829Y-4.1392
X5.8858Y-2.187
X5.8947Y-3.7376
X5.8947Y-3.7652
X5.8947Y-3.7927
X5.8947Y-3.8203
X5.8947Y-3.8478
X5.8996Y-2.6673
X5.8996Y-3.4252
X5.8996Y-3.4528
X5.8996Y-3.5433
X5.8996Y-3.5709
X5.9016Y-2.2717
X5.9134Y-2.0236
X5.9134Y-2.0512
X5.9134Y-2.0787
X5.9134Y-2.1063
X5.9134Y-2.1339
X5.9197Y-2.8365
X5.9222Y-3.7652
X5.9222Y-3.7927
X5.9222Y-3.8203
X5.9222Y-3.8478
X5.9252Y-2.7992
X5.927Y-3.9571
X5.9272Y-3.4252
X5.9272Y-3.4528
X5.9272Y-3.5433
X5.9272Y-3.5709
X5.9291Y-2.3457
X5.9291Y-2.5374
X5.9291Y-2.5748
X5.937Y-3.9969
X5.939Y-2.9843
X5.9429Y-3.1713
X5.9429Y-3.1988
X5.9429Y-3.2264
X5.9429Y-3.2539
X5.9429Y-3.2815
X5.9429Y-3.3091
X5.9429Y-3.3366
X5.9429Y-3.3642
X5.9429Y-3.3917
X5.9449Y-2.2362
X5.9469Y-1.997
X5.9476Y-2.839
X5.9488Y-2.6024
X5.9567Y-3.937
X5.9587Y-2.9547
X5.9594Y-4.0965
X5.9594Y-4.1496
X5.97Y-3.8661
X5.9724Y-2.2165
X5.9724Y-2.5362
X5.9744Y-1.997
X5.9764Y-2.7559
X5.9764Y-3.1713
X5.9764Y-3.1988
X5.9764Y-3.2264
X5.9764Y-3.2539
X5.9764Y-3.2815
X5.9764Y-3.3091
X5.9764Y-3.3366
X5.9764Y-3.3642
X5.9764Y-3.3917
X5.9764Y-3.4193
X5.9783Y-2.9823
X5.9803Y-2.6024
X5.9902Y-4.2657
X5.9902Y-4.2933
X5.9961Y-2.7244
X5.9961Y-2.7835
X5.9976Y-4.6024
X5.998Y-2.9528
X5.998Y-4.5748
X5.998Y-4.6299
X6.002Y-1.997
X6.0037Y-4.3939
X6.0039Y-2.626
X6.0047Y-4.4421
X6.0079Y-2.5945
X6.0118Y-2.563
X6.0177Y-2.9726
X6.0197Y-3.7717
X6.0197Y-3.9094
X6.0201Y-3.811
X6.0201Y-3.8701
X6.024Y-2.7244
X6.0274Y-2.7834
X6.0295Y-1.997
X6.0358Y-2.5142
X6.0374Y-2.9528
X6.0378Y-2.4055
X6.0472Y-4.2421
X6.0512Y-4.0039
X6.0551Y-4.3602
X6.0571Y-1.997
X6.0571Y-2.4961
X6.061Y-4.0866
X6.061Y-4.1122
X6.061Y-4.1366
X6.063Y-3.4094
X6.0669Y-2.7795
X6.0688Y-3.9402
X6.0784Y-2.5142
X6.0787Y-2.8465
X6.0846Y-1.997
X6.0856Y-2.3632
X6.0906Y-3.4331
X6.0945Y-2.3898
X6.0969Y-2.9488
X6.0984Y-2.5945
X6.0991Y-2.4954
X6.1024Y-2.8228
X6.106Y-2.7602
X6.1063Y-1.8858
X6.1063Y-1.9134
X6.1063Y-2.6732
X6.117Y-3.0582
X6.1173Y-4.4165
X6.1181Y-4.1063
X6.122Y-3.1929
X6.122Y-3.4567
X6.127Y-2.0659
X6.127Y-2.0935
X6.127Y-2.1211
X6.127Y-2.1486
X6.1299Y-4.4685
X6.1358Y-2.8287
X6.1396Y-4.5919
X6.1398Y-4.6752
X6.1417Y-2.685
X6.1417Y-2.7126
X6.1457Y-2.5
X6.1457Y-2.7638
X6.1496Y-3.2165
X6.1535Y-2.9488
X6.1535Y-4.2972
X6.1535Y-4.3248
X6.1547Y-3.3159
X6.1575Y-4.4685
X6.1575Y-4.4957
X6.161Y-3.0886
X6.1673Y-4.6752
X6.1693Y-2.7126
X6.1732Y-4.6141
X6.1752Y-2.4114
X6.1752Y-4.0055
X6.1772Y-2.7638
X6.1772Y-3.9567
X6.1791Y-2.5362
X6.1811Y-2.6457
X6.1819Y-3.9275
X6.1819Y-3.6937
X6.1819Y-3.7315
X6.1819Y-3.7921
X6.1819Y-3.8299
X6.1819Y-3.8898
X6.1833Y-3.0472
X6.185Y-4.4961
X6.189Y-2.1535
X6.1927Y-3.2797
X6.1929Y-4.2205
X6.1937Y-2.0354
X6.1949Y-4.6752
X6.1969Y-2.622
X6.1969Y-2.9488
X6.2008Y-2.7047
X6.2026Y-3.073
X6.2047Y-2.374
X6.2047Y-4.1614
X6.2055Y-4.4224
X6.2126Y-2.6457
X6.2126Y-3.5531
X6.2224Y-2.5354
X6.2244Y-2.8248
X6.2283Y-2.3976
X6.2283Y-2.689
X6.2283Y-2.7205
X6.2323Y-3.0748
X6.2362Y-2.1535
X6.2402Y-3.5531
X6.2441Y-3.7264
X6.2441Y-3.7559
X6.2441Y-3.7835
X6.2441Y-3.8524
X6.2441Y-3.8819
X6.2441Y-3.9094
X6.248Y-4.4764
X6.252Y-2.4213
X6.252Y-3.1102
X6.2579Y-3.3484
X6.2598Y-2.0984
X6.2598Y-2.2087
X6.2638Y-3.1339
X6.2677Y-2.1535
X6.2677Y-2.311
X6.2756Y-2.4449
X6.2776Y-4.4902
X6.2795Y-3.1102
X6.2835Y-4.4626
X6.2874Y-2.0984
X6.2874Y-2.2087
X6.2913Y-2.3346
X6.2913Y-3.1339
X6.2992Y-2.4685
X6.3071Y-4.6575
X6.311Y-3.1713
X6.315Y-2.0984
X6.315Y-2.2087
X6.315Y-2.3583
X6.315Y-4.0591
X6.3228Y-2.4921
X6.3344Y-2.5671
X6.3346Y-2.8858
X6.3362Y-2.7507
X6.3386Y-2.3819
X6.3406Y-3.2343
X6.3425Y-2.0984
X6.3425Y-2.2087
X6.3465Y-2.9094
X6.3465Y-3.1929
X6.3504Y-4.161
X6.3549Y-3.9769
X6.3583Y-2.5862
X6.3602Y-2.626
X6.3602Y-2.6673
X6.3602Y-3.7283
X6.3602Y-3.7579
X6.3602Y-3.7854
X6.3602Y-3.8524
X6.3602Y-3.8819
X6.3602Y-3.9094
X6.3622Y-2.4055
X6.3622Y-2.8858
X6.3699Y-4.0039
X6.3701Y-2.0984
X6.3701Y-2.2087
X6.374Y-2.9094
X6.3755Y-2.3465
X6.378Y-4.4921
X6.3819Y-4.4173
X6.385Y-4.3622
X6.3858Y-2.4291
X6.3917Y-4.6791
X6.3933Y-4.3185
X6.3937Y-4.5614
X6.4065Y-2.7077
X6.4193Y-4.6791
X6.4232Y-2.622
X6.4291Y-4.1181
X6.4297Y-4.5515
X6.437Y-4.3228
X6.437Y-4.3661
X6.4409Y-2.2008
X6.4449Y-2.063
X6.4459Y-3.5148
X6.4469Y-4.6791
X6.4492Y-2.7441
X6.4492Y-2.787
X6.4492Y-2.8307
X6.4528Y-2.5787
X6.4537Y-3.2978
X6.4537Y-3.3478
X6.4567Y-1.8898
X6.4567Y-1.9173
X6.4585Y-3.7909
X6.4606Y-4.0669
X6.4608Y-2.9487
X6.4615Y-3.8929
X6.4646Y-2.4941
X6.4685Y-2.685
X6.4764Y-3.2008
X6.4764Y-3.6689
X6.4767Y-3.7075
X6.4774Y-3.7493
X6.4803Y-4.0394
X6.4811Y-4.0118
X6.4831Y-3.9622
X6.4843Y-2.8858
X6.4843Y-3.1378
X6.4843Y-4.0827
X6.4854Y-2.9664
X6.4882Y-4.122
X6.4998Y-3.6917
X6.5Y-3.7657
X6.5004Y-3.7323
X6.5039Y-3.3189
X6.5039Y-3.9429
X6.5063Y-3.0984
X6.5063Y-3.275
X6.5118Y-3.9724
X6.5394Y-1.9685
X6.5512Y-4.4567
X6.5512Y-4.4843
X6.5748Y-3.0276
X6.5866Y-1.9882
X6.5866Y-4.1614
X6.5906Y-2.4016
X6.5906Y-3.4961
X6.6063Y-3.0157
X6.6142Y-1.9882
X6.6142Y-4.1614
X6.6181Y-2.4016
X6.6181Y-2.9843
X6.6181Y-3.4961
X6.622Y-3.0472
X6.6457Y-2.9843
T3
X5.9094Y-1.9016
X5.9882Y-1.9016
X6.0669Y-1.9016
X6.2598Y-1.9016
X6.3386Y-1.9016
X6.4173Y-1.9016
X6.6024Y-1.8661
X6.6024Y-1.9449
X6.6024Y-2.2008
X6.6024Y-2.2795
X6.6024Y-2.3583
X6.6024Y-2.5512
X6.6024Y-2.6299
X6.6024Y-2.7087
X6.6024Y-2.7874
X6.6024Y-2.8661
X6.6024Y-2.9449
X6.6024Y-3.1378
X6.6024Y-3.2165
X6.6024Y-3.2953
X6.6024Y-3.374
X6.6024Y-3.4528
X6.6024Y-3.5315
X6.6024Y-3.6102
X6.6024Y-3.689
X6.6024Y-3.8819
X6.6024Y-3.9606
X6.6024Y-4.0394
X6.6024Y-4.1181
X6.6024Y-4.311
X6.6024Y-4.3898
X6.6024Y-4.4685
X6.6024Y-4.5472
X6.6024Y-4.626
T2
G00X5.0682Y-2.3182
M15
G01X5.0459Y-2.296
M16
G05
G00X5.1893Y-2.4393
M15
G01X5.1586Y-2.4087
M16
G05
G00X5.3087Y-2.0777
M15
G01X5.2864Y-2.0554
M16
G05
G00X5.4298Y-2.1988
M15
G01X5.3992Y-2.1682
M16
G05
M30
