%TF.GenerationSoftware,KiCad,Pcbnew,9.0.5*%
%TF.CreationDate,2025-10-17T23:29:40-04:00*%
%TF.ProjectId,resc,72657363-2e6b-4696-9361-645f70636258,rev?*%
%TF.SameCoordinates,Original*%
%TF.FileFunction,Soldermask,Bot*%
%TF.FilePolarity,Negative*%
%FSLAX46Y46*%
G04 Gerber Fmt 4.6, Leading zero omitted, Abs format (unit mm)*
G04 Created by KiCad (PCBNEW 9.0.5) date 2025-10-17 23:29:40*
%MOMM*%
%LPD*%
G01*
G04 APERTURE LIST*
G04 Aperture macros list*
%AMRoundRect*
0 Rectangle with rounded corners*
0 $1 Rounding radius*
0 $2 $3 $4 $5 $6 $7 $8 $9 X,Y pos of 4 corners*
0 Add a 4 corners polygon primitive as box body*
4,1,4,$2,$3,$4,$5,$6,$7,$8,$9,$2,$3,0*
0 Add four circle primitives for the rounded corners*
1,1,$1+$1,$2,$3*
1,1,$1+$1,$4,$5*
1,1,$1+$1,$6,$7*
1,1,$1+$1,$8,$9*
0 Add four rect primitives between the rounded corners*
20,1,$1+$1,$2,$3,$4,$5,0*
20,1,$1+$1,$4,$5,$6,$7,0*
20,1,$1+$1,$6,$7,$8,$9,0*
20,1,$1+$1,$8,$9,$2,$3,0*%
%AMHorizOval*
0 Thick line with rounded ends*
0 $1 width*
0 $2 $3 position (X,Y) of the first rounded end (center of the circle)*
0 $4 $5 position (X,Y) of the second rounded end (center of the circle)*
0 Add line between two ends*
20,1,$1,$2,$3,$4,$5,0*
0 Add two circle primitives to create the rounded ends*
1,1,$1,$2,$3*
1,1,$1,$4,$5*%
%AMFreePoly0*
4,1,6,1.000000,0.000000,0.500000,-0.750000,-0.500000,-0.750000,-0.500000,0.750000,0.500000,0.750000,1.000000,0.000000,1.000000,0.000000,$1*%
G04 Aperture macros list end*
%ADD10C,0.100000*%
%ADD11C,0.000000*%
%ADD12RoundRect,0.135000X0.185000X-0.135000X0.185000X0.135000X-0.185000X0.135000X-0.185000X-0.135000X0*%
%ADD13RoundRect,0.140000X0.170000X-0.140000X0.170000X0.140000X-0.170000X0.140000X-0.170000X-0.140000X0*%
%ADD14RoundRect,0.150000X-0.512500X-0.150000X0.512500X-0.150000X0.512500X0.150000X-0.512500X0.150000X0*%
%ADD15RoundRect,0.135000X-0.185000X0.135000X-0.185000X-0.135000X0.185000X-0.135000X0.185000X0.135000X0*%
%ADD16RoundRect,0.250000X-0.625000X0.350000X-0.625000X-0.350000X0.625000X-0.350000X0.625000X0.350000X0*%
%ADD17O,1.750000X1.200000*%
%ADD18C,0.650000*%
%ADD19HorizOval,1.000000X-0.388909X0.388909X0.388909X-0.388909X0*%
%ADD20HorizOval,1.000000X-0.282843X0.282843X0.282843X-0.282843X0*%
%ADD21RoundRect,0.140000X-0.140000X-0.170000X0.140000X-0.170000X0.140000X0.170000X-0.140000X0.170000X0*%
%ADD22C,1.000000*%
%ADD23RoundRect,0.250000X1.750000X1.000000X-1.750000X1.000000X-1.750000X-1.000000X1.750000X-1.000000X0*%
%ADD24RoundRect,0.140000X-0.170000X0.140000X-0.170000X-0.140000X0.170000X-0.140000X0.170000X0.140000X0*%
%ADD25R,5.500000X4.000000*%
%ADD26RoundRect,0.135000X-0.135000X-0.185000X0.135000X-0.185000X0.135000X0.185000X-0.135000X0.185000X0*%
%ADD27RoundRect,0.218750X0.256250X-0.218750X0.256250X0.218750X-0.256250X0.218750X-0.256250X-0.218750X0*%
%ADD28RoundRect,0.075500X0.226500X-0.621500X0.226500X0.621500X-0.226500X0.621500X-0.226500X-0.621500X0*%
%ADD29FreePoly0,180.000000*%
%ADD30FreePoly0,0.000000*%
%ADD31RoundRect,0.150000X-0.150000X0.825000X-0.150000X-0.825000X0.150000X-0.825000X0.150000X0.825000X0*%
%ADD32RoundRect,0.150000X0.587500X0.150000X-0.587500X0.150000X-0.587500X-0.150000X0.587500X-0.150000X0*%
%ADD33R,0.889000X1.473200*%
%ADD34R,3.149600X1.473200*%
G04 APERTURE END LIST*
D10*
X155400000Y-112550000D02*
X151450000Y-112550000D01*
X151450000Y-58150000D01*
X155400000Y-58150000D01*
X155400000Y-112550000D01*
G36*
X155400000Y-112550000D02*
G01*
X151450000Y-112550000D01*
X151450000Y-58150000D01*
X155400000Y-58150000D01*
X155400000Y-112550000D01*
G37*
X163400000Y-118250000D02*
X159450000Y-118250000D01*
X159450000Y-57750000D01*
X163400000Y-57750000D01*
X163400000Y-118250000D01*
G36*
X163400000Y-118250000D02*
G01*
X159450000Y-118250000D01*
X159450000Y-57750000D01*
X163400000Y-57750000D01*
X163400000Y-118250000D01*
G37*
%TO.C,SW1*%
G36*
X148200000Y-114350000D02*
G01*
X143200000Y-114350000D01*
X143200000Y-115850000D01*
X148200000Y-115850000D01*
X148200000Y-114350000D01*
G37*
D11*
%TO.C,U14*%
G36*
X138600200Y-96354200D02*
G01*
X135399800Y-96354200D01*
X135399800Y-94169800D01*
X138600200Y-94169800D01*
X138600200Y-96354200D01*
G37*
%TD*%
D12*
%TO.C,R6*%
X145100000Y-91090000D03*
X145100000Y-92110000D03*
%TD*%
D13*
%TO.C,C3*%
X136150000Y-116600000D03*
X136150000Y-115640000D03*
%TD*%
D14*
%TO.C,Q8*%
X139975000Y-115500000D03*
X137700000Y-114550000D03*
X137700000Y-116450000D03*
%TD*%
D15*
%TO.C,R12*%
X135150000Y-115630000D03*
X135150000Y-116650000D03*
%TD*%
D16*
%TO.C,J3*%
X124300000Y-96650000D03*
D17*
X124300000Y-98650000D03*
X124300000Y-100650000D03*
X124300000Y-102650000D03*
X124300000Y-104650000D03*
X124300000Y-106650000D03*
X124300000Y-108650000D03*
X124300000Y-110650000D03*
%TD*%
D16*
%TO.C,J5*%
X124300000Y-74850000D03*
D17*
X124300000Y-76850000D03*
X124300000Y-78850000D03*
%TD*%
D18*
%TO.C,J9*%
X136050393Y-65403913D03*
X131963316Y-69490990D03*
D19*
X137429251Y-64760445D03*
D20*
X134459403Y-61790597D03*
D19*
X131319848Y-70869848D03*
D20*
X128350000Y-67900000D03*
%TD*%
D16*
%TO.C,J1*%
X129800000Y-96650000D03*
D17*
X129800000Y-98650000D03*
X129800000Y-100650000D03*
X129800000Y-102650000D03*
%TD*%
D16*
%TO.C,J4*%
X124300000Y-115550000D03*
D17*
X124300000Y-117550000D03*
%TD*%
D16*
%TO.C,J2*%
X129800000Y-107550000D03*
D17*
X129800000Y-109550000D03*
X129800000Y-111550000D03*
X129800000Y-113550000D03*
X129800000Y-115550000D03*
X129800000Y-117550000D03*
%TD*%
D16*
%TO.C,J7*%
X129800000Y-87750000D03*
D17*
X129800000Y-89750000D03*
X129800000Y-91750000D03*
%TD*%
D16*
%TO.C,J6*%
X124300000Y-83750000D03*
D17*
X124300000Y-85750000D03*
X124300000Y-87750000D03*
X124300000Y-89750000D03*
X124300000Y-91750000D03*
%TD*%
D21*
%TO.C,C44*%
X145950000Y-118200000D03*
X146910000Y-118200000D03*
%TD*%
D15*
%TO.C,R11*%
X131100000Y-75250000D03*
X131100000Y-76270000D03*
%TD*%
D22*
%TO.C,TP1*%
X142550000Y-100300000D03*
%TD*%
D21*
%TO.C,C46*%
X135000000Y-118100000D03*
X135960000Y-118100000D03*
%TD*%
D23*
%TO.C,C25*%
X161370322Y-102705628D03*
X153370322Y-102705628D03*
%TD*%
D22*
%TO.C,TP10*%
X147650000Y-96650000D03*
%TD*%
D23*
%TO.C,C27*%
X161370322Y-70305628D03*
X153370322Y-70305628D03*
%TD*%
D12*
%TO.C,R1*%
X134370000Y-82450000D03*
X134370000Y-81430000D03*
%TD*%
D24*
%TO.C,C50*%
X142350000Y-110130000D03*
X142350000Y-111090000D03*
%TD*%
%TO.C,C52*%
X136550000Y-110200000D03*
X136550000Y-111160000D03*
%TD*%
D21*
%TO.C,C45*%
X140520000Y-118150000D03*
X141480000Y-118150000D03*
%TD*%
D25*
%TO.C,TP7*%
X153900000Y-110800000D03*
%TD*%
D26*
%TO.C,R4*%
X133190000Y-113150000D03*
X134210000Y-113150000D03*
%TD*%
D13*
%TO.C,C9*%
X145600000Y-85900000D03*
X145600000Y-84940000D03*
%TD*%
D24*
%TO.C,C56*%
X134200000Y-94700000D03*
X134200000Y-95660000D03*
%TD*%
D27*
%TO.C,D2*%
X143900000Y-92425000D03*
X143900000Y-90850000D03*
%TD*%
D15*
%TO.C,R14*%
X132950000Y-88690000D03*
X132950000Y-89710000D03*
%TD*%
D28*
%TO.C,U13*%
X137000000Y-108620000D03*
X136350000Y-108620000D03*
X135700000Y-108620000D03*
X135700000Y-106700000D03*
X137000000Y-106700000D03*
%TD*%
D23*
%TO.C,C26*%
X161370322Y-59455628D03*
X153370322Y-59455628D03*
%TD*%
D26*
%TO.C,R43*%
X143430000Y-102850000D03*
X144450000Y-102850000D03*
%TD*%
D24*
%TO.C,C5*%
X144800000Y-75470000D03*
X144800000Y-76430000D03*
%TD*%
%TO.C,C64*%
X143100000Y-65120000D03*
X143100000Y-66080000D03*
%TD*%
%TO.C,C15*%
X144500000Y-84950000D03*
X144500000Y-85910000D03*
%TD*%
D27*
%TO.C,D3*%
X141300000Y-92425000D03*
X141300000Y-90850000D03*
%TD*%
D24*
%TO.C,C2*%
X141450000Y-77500000D03*
X141450000Y-78460000D03*
%TD*%
D27*
%TO.C,D1*%
X146500000Y-92425000D03*
X146500000Y-90850000D03*
%TD*%
D15*
%TO.C,R7*%
X142500000Y-91090000D03*
X142500000Y-92110000D03*
%TD*%
D12*
%TO.C,R44*%
X148700000Y-92110000D03*
X148700000Y-91090000D03*
%TD*%
D23*
%TO.C,C53*%
X161370322Y-91905628D03*
X153370322Y-91905628D03*
%TD*%
D13*
%TO.C,C14*%
X138250000Y-82750000D03*
X138250000Y-81790000D03*
%TD*%
D26*
%TO.C,R2*%
X133190000Y-115350000D03*
X134210000Y-115350000D03*
%TD*%
D25*
%TO.C,TP3*%
X160700000Y-116700000D03*
%TD*%
D15*
%TO.C,R5*%
X147700000Y-91090000D03*
X147700000Y-92110000D03*
%TD*%
D24*
%TO.C,C55*%
X134700000Y-103600000D03*
X134700000Y-104560000D03*
%TD*%
D13*
%TO.C,C58*%
X139300000Y-64160000D03*
X139300000Y-63200000D03*
%TD*%
D24*
%TO.C,C63*%
X142050000Y-65120000D03*
X142050000Y-66080000D03*
%TD*%
%TO.C,C1*%
X135410000Y-81450000D03*
X135410000Y-82410000D03*
%TD*%
%TO.C,C7*%
X135450000Y-84620000D03*
X135450000Y-85580000D03*
%TD*%
%TO.C,C6*%
X134150000Y-77750000D03*
X134150000Y-78710000D03*
%TD*%
D15*
%TO.C,R9*%
X140400000Y-77490000D03*
X140400000Y-78510000D03*
%TD*%
D24*
%TO.C,C11*%
X143800000Y-75470000D03*
X143800000Y-76430000D03*
%TD*%
D26*
%TO.C,R3*%
X133190000Y-114250000D03*
X134210000Y-114250000D03*
%TD*%
D28*
%TO.C,U12*%
X140000000Y-108620000D03*
X139350000Y-108620000D03*
X138700000Y-108620000D03*
X138700000Y-106700000D03*
X140000000Y-106700000D03*
%TD*%
D24*
%TO.C,C8*%
X138850000Y-75450000D03*
X138850000Y-76410000D03*
%TD*%
D13*
%TO.C,C60*%
X147600000Y-64010000D03*
X147600000Y-63050000D03*
%TD*%
D24*
%TO.C,C61*%
X144150000Y-65120000D03*
X144150000Y-66080000D03*
%TD*%
D29*
%TO.C,SW1*%
X147700000Y-115100000D03*
D30*
X143700000Y-115100000D03*
%TD*%
D31*
%TO.C,U2*%
X127845000Y-78675000D03*
X129115000Y-78675000D03*
X130385000Y-78675000D03*
X131655000Y-78675000D03*
X131655000Y-83625000D03*
X130385000Y-83625000D03*
X129115000Y-83625000D03*
X127845000Y-83625000D03*
%TD*%
D23*
%TO.C,C28*%
X161370322Y-81105628D03*
X153370322Y-81105628D03*
%TD*%
D24*
%TO.C,C10*%
X145800000Y-75470000D03*
X145800000Y-76430000D03*
%TD*%
D32*
%TO.C,Q7*%
X148225001Y-101850000D03*
X148225001Y-103750000D03*
X146350000Y-102800000D03*
%TD*%
D28*
%TO.C,U11*%
X143000000Y-108600000D03*
X142350000Y-108600000D03*
X141700000Y-108600000D03*
X141700000Y-106680000D03*
X143000000Y-106680000D03*
%TD*%
D12*
%TO.C,R8*%
X132300000Y-76270000D03*
X132300000Y-75250000D03*
%TD*%
D33*
%TO.C,U14*%
X139300000Y-101800000D03*
X137000000Y-101800000D03*
D34*
X137000000Y-95262000D03*
D33*
X134700000Y-101800000D03*
%TD*%
D24*
%TO.C,C51*%
X139350000Y-110150000D03*
X139350000Y-111110000D03*
%TD*%
M02*
