%TF.GenerationSoftware,KiCad,Pcbnew,9.0.5*%
%TF.CreationDate,2025-10-17T23:29:40-04:00*%
%TF.ProjectId,resc,72657363-2e6b-4696-9361-645f70636258,rev?*%
%TF.SameCoordinates,Original*%
%TF.FileFunction,Paste,Top*%
%TF.FilePolarity,Positive*%
%FSLAX46Y46*%
G04 Gerber Fmt 4.6, Leading zero omitted, Abs format (unit mm)*
G04 Created by KiCad (PCBNEW 9.0.5) date 2025-10-17 23:29:40*
%MOMM*%
%LPD*%
G01*
G04 APERTURE LIST*
G04 Aperture macros list*
%AMRoundRect*
0 Rectangle with rounded corners*
0 $1 Rounding radius*
0 $2 $3 $4 $5 $6 $7 $8 $9 X,Y pos of 4 corners*
0 Add a 4 corners polygon primitive as box body*
4,1,4,$2,$3,$4,$5,$6,$7,$8,$9,$2,$3,0*
0 Add four circle primitives for the rounded corners*
1,1,$1+$1,$2,$3*
1,1,$1+$1,$4,$5*
1,1,$1+$1,$6,$7*
1,1,$1+$1,$8,$9*
0 Add four rect primitives between the rounded corners*
20,1,$1+$1,$2,$3,$4,$5,0*
20,1,$1+$1,$4,$5,$6,$7,0*
20,1,$1+$1,$6,$7,$8,$9,0*
20,1,$1+$1,$8,$9,$2,$3,0*%
%AMRotRect*
0 Rectangle, with rotation*
0 The origin of the aperture is its center*
0 $1 length*
0 $2 width*
0 $3 Rotation angle, in degrees counterclockwise*
0 Add horizontal line*
21,1,$1,$2,0,0,$3*%
G04 Aperture macros list end*
%ADD10C,0.010000*%
%ADD11C,0.000000*%
%ADD12RoundRect,0.250000X0.000000X0.353553X-0.353553X0.000000X0.000000X-0.353553X0.353553X0.000000X0*%
%ADD13RoundRect,0.135000X-0.185000X0.135000X-0.185000X-0.135000X0.185000X-0.135000X0.185000X0.135000X0*%
%ADD14RoundRect,0.140000X-0.021213X0.219203X-0.219203X0.021213X0.021213X-0.219203X0.219203X-0.021213X0*%
%ADD15RoundRect,0.140000X-0.170000X0.140000X-0.170000X-0.140000X0.170000X-0.140000X0.170000X0.140000X0*%
%ADD16RoundRect,0.250000X1.100000X-0.325000X1.100000X0.325000X-1.100000X0.325000X-1.100000X-0.325000X0*%
%ADD17R,5.510000X2.960000*%
%ADD18RoundRect,0.050000X0.150000X-0.545000X0.150000X0.545000X-0.150000X0.545000X-0.150000X-0.545000X0*%
%ADD19RoundRect,0.135000X-0.226274X-0.035355X-0.035355X-0.226274X0.226274X0.035355X0.035355X0.226274X0*%
%ADD20RoundRect,0.150000X-0.150000X0.825000X-0.150000X-0.825000X0.150000X-0.825000X0.150000X0.825000X0*%
%ADD21RoundRect,0.140000X-0.219203X-0.021213X-0.021213X-0.219203X0.219203X0.021213X0.021213X0.219203X0*%
%ADD22RoundRect,0.135000X0.185000X-0.135000X0.185000X0.135000X-0.185000X0.135000X-0.185000X-0.135000X0*%
%ADD23RoundRect,0.140000X-0.140000X-0.170000X0.140000X-0.170000X0.140000X0.170000X-0.140000X0.170000X0*%
%ADD24RoundRect,0.250000X0.565685X-0.070711X-0.070711X0.565685X-0.565685X0.070711X0.070711X-0.565685X0*%
%ADD25RoundRect,0.075000X-0.075000X0.700000X-0.075000X-0.700000X0.075000X-0.700000X0.075000X0.700000X0*%
%ADD26RoundRect,0.075000X-0.700000X0.075000X-0.700000X-0.075000X0.700000X-0.075000X0.700000X0.075000X0*%
%ADD27RoundRect,0.250000X-0.475000X0.250000X-0.475000X-0.250000X0.475000X-0.250000X0.475000X0.250000X0*%
%ADD28RotRect,0.600000X1.240000X225.000000*%
%ADD29RotRect,0.300000X1.240000X225.000000*%
%ADD30RoundRect,0.147500X0.017678X-0.226274X0.226274X-0.017678X-0.017678X0.226274X-0.226274X0.017678X0*%
%ADD31RoundRect,0.200000X-0.035355X-0.318198X0.318198X0.035355X0.035355X0.318198X-0.318198X-0.035355X0*%
%ADD32RoundRect,0.140000X0.219203X0.021213X0.021213X0.219203X-0.219203X-0.021213X-0.021213X-0.219203X0*%
%ADD33RoundRect,0.250000X0.325000X1.100000X-0.325000X1.100000X-0.325000X-1.100000X0.325000X-1.100000X0*%
%ADD34RoundRect,0.150000X0.256326X0.468458X-0.468458X-0.256326X-0.256326X-0.468458X0.468458X0.256326X0*%
%ADD35RoundRect,0.140000X0.021213X-0.219203X0.219203X-0.021213X-0.021213X0.219203X-0.219203X0.021213X0*%
%ADD36R,1.000000X3.000000*%
%ADD37RoundRect,0.250000X-0.548008X1.007627X-1.007627X0.548008X0.548008X-1.007627X1.007627X-0.548008X0*%
%ADD38RoundRect,0.135000X0.226274X0.035355X0.035355X0.226274X-0.226274X-0.035355X-0.035355X-0.226274X0*%
%ADD39R,0.675000X0.250000*%
%ADD40R,0.250000X0.675000*%
%ADD41RoundRect,0.250000X-0.250000X0.250000X-0.250000X-0.250000X0.250000X-0.250000X0.250000X0.250000X0*%
%ADD42RoundRect,0.140000X0.140000X0.170000X-0.140000X0.170000X-0.140000X-0.170000X0.140000X-0.170000X0*%
%ADD43RoundRect,0.135000X0.135000X0.185000X-0.135000X0.185000X-0.135000X-0.185000X0.135000X-0.185000X0*%
%ADD44R,0.220000X0.599999*%
%ADD45R,0.599999X0.220000*%
%ADD46RoundRect,0.140000X0.170000X-0.140000X0.170000X0.140000X-0.170000X0.140000X-0.170000X-0.140000X0*%
%ADD47RoundRect,0.250000X-1.100000X0.325000X-1.100000X-0.325000X1.100000X-0.325000X1.100000X0.325000X0*%
%ADD48RoundRect,0.100000X0.000000X-0.565685X0.565685X0.000000X0.000000X0.565685X-0.565685X0.000000X0*%
%ADD49RoundRect,0.105000X0.406586X-1.000556X1.000556X-0.406586X-0.406586X1.000556X-1.000556X0.406586X0*%
%ADD50RoundRect,0.135000X-0.135000X-0.185000X0.135000X-0.185000X0.135000X0.185000X-0.135000X0.185000X0*%
%ADD51RotRect,0.810000X0.220000X135.000000*%
%ADD52RotRect,0.220000X0.810000X135.000000*%
G04 APERTURE END LIST*
D10*
%TO.C,Q5*%
X157405000Y-94932960D02*
X157041040Y-94932960D01*
X157041040Y-94540000D01*
X157405000Y-94540000D01*
X157405000Y-94932960D01*
G36*
X157405000Y-94932960D02*
G01*
X157041040Y-94932960D01*
X157041040Y-94540000D01*
X157405000Y-94540000D01*
X157405000Y-94932960D01*
G37*
X157405000Y-98756530D02*
X157045120Y-98756530D01*
X157045120Y-98350000D01*
X157405000Y-98350000D01*
X157405000Y-98756530D01*
G36*
X157405000Y-98756530D02*
G01*
X157045120Y-98756530D01*
X157045120Y-98350000D01*
X157405000Y-98350000D01*
X157405000Y-98756530D01*
G37*
X157405000Y-97482512D02*
X157045780Y-97482512D01*
X157045780Y-97080000D01*
X157405000Y-97080000D01*
X157405000Y-97482512D01*
G36*
X157405000Y-97482512D02*
G01*
X157045780Y-97482512D01*
X157045780Y-97080000D01*
X157405000Y-97080000D01*
X157405000Y-97482512D01*
G37*
X157405000Y-96209149D02*
X157047670Y-96209149D01*
X157047670Y-95810000D01*
X157405000Y-95810000D01*
X157405000Y-96209149D01*
G36*
X157405000Y-96209149D02*
G01*
X157047670Y-96209149D01*
X157047670Y-95810000D01*
X157405000Y-95810000D01*
X157405000Y-96209149D01*
G37*
X158055000Y-95274050D02*
X157592670Y-95274050D01*
X157592670Y-94380000D01*
X158055000Y-94380000D01*
X158055000Y-95274050D01*
G36*
X158055000Y-95274050D02*
G01*
X157592670Y-95274050D01*
X157592670Y-94380000D01*
X158055000Y-94380000D01*
X158055000Y-95274050D01*
G37*
X158055000Y-96379241D02*
X157595160Y-96379241D01*
X157595160Y-95480000D01*
X158055000Y-95480000D01*
X158055000Y-96379241D01*
G36*
X158055000Y-96379241D02*
G01*
X157595160Y-96379241D01*
X157595160Y-95480000D01*
X158055000Y-95480000D01*
X158055000Y-96379241D01*
G37*
X158055000Y-97481265D02*
X157601130Y-97481265D01*
X157601130Y-96580000D01*
X158055000Y-96580000D01*
X158055000Y-97481265D01*
G36*
X158055000Y-97481265D02*
G01*
X157601130Y-97481265D01*
X157601130Y-96580000D01*
X158055000Y-96580000D01*
X158055000Y-97481265D01*
G37*
X158055000Y-98752830D02*
X157601440Y-98752830D01*
X157601440Y-98350000D01*
X158055000Y-98350000D01*
X158055000Y-98752830D01*
G36*
X158055000Y-98752830D02*
G01*
X157601440Y-98752830D01*
X157601440Y-98350000D01*
X158055000Y-98350000D01*
X158055000Y-98752830D01*
G37*
X160865000Y-98252060D02*
X159360904Y-98252060D01*
X159360904Y-96745000D01*
X160865000Y-96745000D01*
X160865000Y-98252060D01*
G36*
X160865000Y-98252060D02*
G01*
X159360904Y-98252060D01*
X159360904Y-96745000D01*
X160865000Y-96745000D01*
X160865000Y-98252060D01*
G37*
X160865000Y-96544851D02*
X159361855Y-96544851D01*
X159361855Y-95045000D01*
X160865000Y-95045000D01*
X160865000Y-96544851D01*
G36*
X160865000Y-96544851D02*
G01*
X159361855Y-96544851D01*
X159361855Y-95045000D01*
X160865000Y-95045000D01*
X160865000Y-96544851D01*
G37*
X162565000Y-96544884D02*
X161066904Y-96544884D01*
X161066904Y-95045000D01*
X162565000Y-95045000D01*
X162565000Y-96544884D01*
G36*
X162565000Y-96544884D02*
G01*
X161066904Y-96544884D01*
X161066904Y-95045000D01*
X162565000Y-95045000D01*
X162565000Y-96544884D01*
G37*
X162565000Y-98251350D02*
X161067838Y-98251350D01*
X161067838Y-96745000D01*
X162565000Y-96745000D01*
X162565000Y-98251350D01*
G36*
X162565000Y-98251350D02*
G01*
X161067838Y-98251350D01*
X161067838Y-96745000D01*
X162565000Y-96745000D01*
X162565000Y-98251350D01*
G37*
X163595000Y-94988460D02*
X162847430Y-94988460D01*
X162847430Y-94490000D01*
X163595000Y-94490000D01*
X163595000Y-94988460D01*
G36*
X163595000Y-94988460D02*
G01*
X162847430Y-94988460D01*
X162847430Y-94490000D01*
X163595000Y-94490000D01*
X163595000Y-94988460D01*
G37*
X163595000Y-98802360D02*
X162847690Y-98802360D01*
X162847690Y-98300000D01*
X163595000Y-98300000D01*
X163595000Y-98802360D01*
G36*
X163595000Y-98802360D02*
G01*
X162847690Y-98802360D01*
X162847690Y-98300000D01*
X163595000Y-98300000D01*
X163595000Y-98802360D01*
G37*
X163595000Y-97533244D02*
X162853680Y-97533244D01*
X162853680Y-97030000D01*
X163595000Y-97030000D01*
X163595000Y-97533244D01*
G36*
X163595000Y-97533244D02*
G01*
X162853680Y-97533244D01*
X162853680Y-97030000D01*
X163595000Y-97030000D01*
X163595000Y-97533244D01*
G37*
X163595000Y-96258630D02*
X162855460Y-96258630D01*
X162855460Y-95760000D01*
X163595000Y-95760000D01*
X163595000Y-96258630D01*
G36*
X163595000Y-96258630D02*
G01*
X162855460Y-96258630D01*
X162855460Y-95760000D01*
X163595000Y-95760000D01*
X163595000Y-96258630D01*
G37*
%TO.C,Q3*%
X157819750Y-78687467D02*
X157080210Y-78687467D01*
X157080210Y-78188837D01*
X157819750Y-78188837D01*
X157819750Y-78687467D01*
G36*
X157819750Y-78687467D02*
G01*
X157080210Y-78687467D01*
X157080210Y-78188837D01*
X157819750Y-78188837D01*
X157819750Y-78687467D01*
G37*
X157821530Y-77417467D02*
X157080210Y-77417467D01*
X157080210Y-76914223D01*
X157821530Y-76914223D01*
X157821530Y-77417467D01*
G36*
X157821530Y-77417467D02*
G01*
X157080210Y-77417467D01*
X157080210Y-76914223D01*
X157821530Y-76914223D01*
X157821530Y-77417467D01*
G37*
X157827520Y-76147467D02*
X157080210Y-76147467D01*
X157080210Y-75645107D01*
X157827520Y-75645107D01*
X157827520Y-76147467D01*
G36*
X157827520Y-76147467D02*
G01*
X157080210Y-76147467D01*
X157080210Y-75645107D01*
X157827520Y-75645107D01*
X157827520Y-76147467D01*
G37*
X157827780Y-79957467D02*
X157080210Y-79957467D01*
X157080210Y-79459007D01*
X157827780Y-79459007D01*
X157827780Y-79957467D01*
G36*
X157827780Y-79957467D02*
G01*
X157080210Y-79957467D01*
X157080210Y-79459007D01*
X157827780Y-79459007D01*
X157827780Y-79957467D01*
G37*
X159607372Y-77702467D02*
X158110210Y-77702467D01*
X158110210Y-76196117D01*
X159607372Y-76196117D01*
X159607372Y-77702467D01*
G36*
X159607372Y-77702467D02*
G01*
X158110210Y-77702467D01*
X158110210Y-76196117D01*
X159607372Y-76196117D01*
X159607372Y-77702467D01*
G37*
X159608306Y-79402467D02*
X158110210Y-79402467D01*
X158110210Y-77902583D01*
X159608306Y-77902583D01*
X159608306Y-79402467D01*
G36*
X159608306Y-79402467D02*
G01*
X158110210Y-79402467D01*
X158110210Y-77902583D01*
X159608306Y-77902583D01*
X159608306Y-79402467D01*
G37*
X161313355Y-79402467D02*
X159810210Y-79402467D01*
X159810210Y-77902616D01*
X161313355Y-77902616D01*
X161313355Y-79402467D01*
G36*
X161313355Y-79402467D02*
G01*
X159810210Y-79402467D01*
X159810210Y-77902616D01*
X161313355Y-77902616D01*
X161313355Y-79402467D01*
G37*
X161314306Y-77702467D02*
X159810210Y-77702467D01*
X159810210Y-76195407D01*
X161314306Y-76195407D01*
X161314306Y-77702467D01*
G36*
X161314306Y-77702467D02*
G01*
X159810210Y-77702467D01*
X159810210Y-76195407D01*
X161314306Y-76195407D01*
X161314306Y-77702467D01*
G37*
X163073770Y-76097467D02*
X162620210Y-76097467D01*
X162620210Y-75694637D01*
X163073770Y-75694637D01*
X163073770Y-76097467D01*
G36*
X163073770Y-76097467D02*
G01*
X162620210Y-76097467D01*
X162620210Y-75694637D01*
X163073770Y-75694637D01*
X163073770Y-76097467D01*
G37*
X163074080Y-77867467D02*
X162620210Y-77867467D01*
X162620210Y-76966202D01*
X163074080Y-76966202D01*
X163074080Y-77867467D01*
G36*
X163074080Y-77867467D02*
G01*
X162620210Y-77867467D01*
X162620210Y-76966202D01*
X163074080Y-76966202D01*
X163074080Y-77867467D01*
G37*
X163080050Y-78967467D02*
X162620210Y-78967467D01*
X162620210Y-78068226D01*
X163080050Y-78068226D01*
X163080050Y-78967467D01*
G36*
X163080050Y-78967467D02*
G01*
X162620210Y-78967467D01*
X162620210Y-78068226D01*
X163080050Y-78068226D01*
X163080050Y-78967467D01*
G37*
X163082540Y-80067467D02*
X162620210Y-80067467D01*
X162620210Y-79173417D01*
X163082540Y-79173417D01*
X163082540Y-80067467D01*
G36*
X163082540Y-80067467D02*
G01*
X162620210Y-80067467D01*
X162620210Y-79173417D01*
X163082540Y-79173417D01*
X163082540Y-80067467D01*
G37*
X163627540Y-78637467D02*
X163270210Y-78637467D01*
X163270210Y-78238318D01*
X163627540Y-78238318D01*
X163627540Y-78637467D01*
G36*
X163627540Y-78637467D02*
G01*
X163270210Y-78637467D01*
X163270210Y-78238318D01*
X163627540Y-78238318D01*
X163627540Y-78637467D01*
G37*
X163629430Y-77367467D02*
X163270210Y-77367467D01*
X163270210Y-76964955D01*
X163629430Y-76964955D01*
X163629430Y-77367467D01*
G36*
X163629430Y-77367467D02*
G01*
X163270210Y-77367467D01*
X163270210Y-76964955D01*
X163629430Y-76964955D01*
X163629430Y-77367467D01*
G37*
X163630090Y-76097467D02*
X163270210Y-76097467D01*
X163270210Y-75690937D01*
X163630090Y-75690937D01*
X163630090Y-76097467D01*
G36*
X163630090Y-76097467D02*
G01*
X163270210Y-76097467D01*
X163270210Y-75690937D01*
X163630090Y-75690937D01*
X163630090Y-76097467D01*
G37*
X163634170Y-79907467D02*
X163270210Y-79907467D01*
X163270210Y-79514507D01*
X163634170Y-79514507D01*
X163634170Y-79907467D01*
G36*
X163634170Y-79907467D02*
G01*
X163270210Y-79907467D01*
X163270210Y-79514507D01*
X163634170Y-79514507D01*
X163634170Y-79907467D01*
G37*
%TO.C,Q1*%
X157873961Y-117314148D02*
X157134421Y-117314148D01*
X157134421Y-116815518D01*
X157873961Y-116815518D01*
X157873961Y-117314148D01*
G36*
X157873961Y-117314148D02*
G01*
X157134421Y-117314148D01*
X157134421Y-116815518D01*
X157873961Y-116815518D01*
X157873961Y-117314148D01*
G37*
X157875741Y-116044148D02*
X157134421Y-116044148D01*
X157134421Y-115540904D01*
X157875741Y-115540904D01*
X157875741Y-116044148D01*
G36*
X157875741Y-116044148D02*
G01*
X157134421Y-116044148D01*
X157134421Y-115540904D01*
X157875741Y-115540904D01*
X157875741Y-116044148D01*
G37*
X157881731Y-114774148D02*
X157134421Y-114774148D01*
X157134421Y-114271788D01*
X157881731Y-114271788D01*
X157881731Y-114774148D01*
G36*
X157881731Y-114774148D02*
G01*
X157134421Y-114774148D01*
X157134421Y-114271788D01*
X157881731Y-114271788D01*
X157881731Y-114774148D01*
G37*
X157881991Y-118584148D02*
X157134421Y-118584148D01*
X157134421Y-118085688D01*
X157881991Y-118085688D01*
X157881991Y-118584148D01*
G36*
X157881991Y-118584148D02*
G01*
X157134421Y-118584148D01*
X157134421Y-118085688D01*
X157881991Y-118085688D01*
X157881991Y-118584148D01*
G37*
X159661583Y-116329148D02*
X158164421Y-116329148D01*
X158164421Y-114822798D01*
X159661583Y-114822798D01*
X159661583Y-116329148D01*
G36*
X159661583Y-116329148D02*
G01*
X158164421Y-116329148D01*
X158164421Y-114822798D01*
X159661583Y-114822798D01*
X159661583Y-116329148D01*
G37*
X159662517Y-118029148D02*
X158164421Y-118029148D01*
X158164421Y-116529264D01*
X159662517Y-116529264D01*
X159662517Y-118029148D01*
G36*
X159662517Y-118029148D02*
G01*
X158164421Y-118029148D01*
X158164421Y-116529264D01*
X159662517Y-116529264D01*
X159662517Y-118029148D01*
G37*
X161367566Y-118029148D02*
X159864421Y-118029148D01*
X159864421Y-116529297D01*
X161367566Y-116529297D01*
X161367566Y-118029148D01*
G36*
X161367566Y-118029148D02*
G01*
X159864421Y-118029148D01*
X159864421Y-116529297D01*
X161367566Y-116529297D01*
X161367566Y-118029148D01*
G37*
X161368517Y-116329148D02*
X159864421Y-116329148D01*
X159864421Y-114822088D01*
X161368517Y-114822088D01*
X161368517Y-116329148D01*
G36*
X161368517Y-116329148D02*
G01*
X159864421Y-116329148D01*
X159864421Y-114822088D01*
X161368517Y-114822088D01*
X161368517Y-116329148D01*
G37*
X163127981Y-114724148D02*
X162674421Y-114724148D01*
X162674421Y-114321318D01*
X163127981Y-114321318D01*
X163127981Y-114724148D01*
G36*
X163127981Y-114724148D02*
G01*
X162674421Y-114724148D01*
X162674421Y-114321318D01*
X163127981Y-114321318D01*
X163127981Y-114724148D01*
G37*
X163128291Y-116494148D02*
X162674421Y-116494148D01*
X162674421Y-115592883D01*
X163128291Y-115592883D01*
X163128291Y-116494148D01*
G36*
X163128291Y-116494148D02*
G01*
X162674421Y-116494148D01*
X162674421Y-115592883D01*
X163128291Y-115592883D01*
X163128291Y-116494148D01*
G37*
X163134261Y-117594148D02*
X162674421Y-117594148D01*
X162674421Y-116694907D01*
X163134261Y-116694907D01*
X163134261Y-117594148D01*
G36*
X163134261Y-117594148D02*
G01*
X162674421Y-117594148D01*
X162674421Y-116694907D01*
X163134261Y-116694907D01*
X163134261Y-117594148D01*
G37*
X163136751Y-118694148D02*
X162674421Y-118694148D01*
X162674421Y-117800098D01*
X163136751Y-117800098D01*
X163136751Y-118694148D01*
G36*
X163136751Y-118694148D02*
G01*
X162674421Y-118694148D01*
X162674421Y-117800098D01*
X163136751Y-117800098D01*
X163136751Y-118694148D01*
G37*
X163681751Y-117264148D02*
X163324421Y-117264148D01*
X163324421Y-116864999D01*
X163681751Y-116864999D01*
X163681751Y-117264148D01*
G36*
X163681751Y-117264148D02*
G01*
X163324421Y-117264148D01*
X163324421Y-116864999D01*
X163681751Y-116864999D01*
X163681751Y-117264148D01*
G37*
X163683641Y-115994148D02*
X163324421Y-115994148D01*
X163324421Y-115591636D01*
X163683641Y-115591636D01*
X163683641Y-115994148D01*
G36*
X163683641Y-115994148D02*
G01*
X163324421Y-115994148D01*
X163324421Y-115591636D01*
X163683641Y-115591636D01*
X163683641Y-115994148D01*
G37*
X163684301Y-114724148D02*
X163324421Y-114724148D01*
X163324421Y-114317618D01*
X163684301Y-114317618D01*
X163684301Y-114724148D01*
G36*
X163684301Y-114724148D02*
G01*
X163324421Y-114724148D01*
X163324421Y-114317618D01*
X163684301Y-114317618D01*
X163684301Y-114724148D01*
G37*
X163688381Y-118534148D02*
X163324421Y-118534148D01*
X163324421Y-118141188D01*
X163688381Y-118141188D01*
X163688381Y-118534148D01*
G36*
X163688381Y-118534148D02*
G01*
X163324421Y-118534148D01*
X163324421Y-118141188D01*
X163688381Y-118141188D01*
X163688381Y-118534148D01*
G37*
%TO.C,Q2*%
X157769540Y-91035000D02*
X157030000Y-91035000D01*
X157030000Y-90536370D01*
X157769540Y-90536370D01*
X157769540Y-91035000D01*
G36*
X157769540Y-91035000D02*
G01*
X157030000Y-91035000D01*
X157030000Y-90536370D01*
X157769540Y-90536370D01*
X157769540Y-91035000D01*
G37*
X157771320Y-89765000D02*
X157030000Y-89765000D01*
X157030000Y-89261756D01*
X157771320Y-89261756D01*
X157771320Y-89765000D01*
G36*
X157771320Y-89765000D02*
G01*
X157030000Y-89765000D01*
X157030000Y-89261756D01*
X157771320Y-89261756D01*
X157771320Y-89765000D01*
G37*
X157777310Y-88495000D02*
X157030000Y-88495000D01*
X157030000Y-87992640D01*
X157777310Y-87992640D01*
X157777310Y-88495000D01*
G36*
X157777310Y-88495000D02*
G01*
X157030000Y-88495000D01*
X157030000Y-87992640D01*
X157777310Y-87992640D01*
X157777310Y-88495000D01*
G37*
X157777570Y-92305000D02*
X157030000Y-92305000D01*
X157030000Y-91806540D01*
X157777570Y-91806540D01*
X157777570Y-92305000D01*
G36*
X157777570Y-92305000D02*
G01*
X157030000Y-92305000D01*
X157030000Y-91806540D01*
X157777570Y-91806540D01*
X157777570Y-92305000D01*
G37*
X159557162Y-90050000D02*
X158060000Y-90050000D01*
X158060000Y-88543650D01*
X159557162Y-88543650D01*
X159557162Y-90050000D01*
G36*
X159557162Y-90050000D02*
G01*
X158060000Y-90050000D01*
X158060000Y-88543650D01*
X159557162Y-88543650D01*
X159557162Y-90050000D01*
G37*
X159558096Y-91750000D02*
X158060000Y-91750000D01*
X158060000Y-90250116D01*
X159558096Y-90250116D01*
X159558096Y-91750000D01*
G36*
X159558096Y-91750000D02*
G01*
X158060000Y-91750000D01*
X158060000Y-90250116D01*
X159558096Y-90250116D01*
X159558096Y-91750000D01*
G37*
X161263145Y-91750000D02*
X159760000Y-91750000D01*
X159760000Y-90250149D01*
X161263145Y-90250149D01*
X161263145Y-91750000D01*
G36*
X161263145Y-91750000D02*
G01*
X159760000Y-91750000D01*
X159760000Y-90250149D01*
X161263145Y-90250149D01*
X161263145Y-91750000D01*
G37*
X161264096Y-90050000D02*
X159760000Y-90050000D01*
X159760000Y-88542940D01*
X161264096Y-88542940D01*
X161264096Y-90050000D01*
G36*
X161264096Y-90050000D02*
G01*
X159760000Y-90050000D01*
X159760000Y-88542940D01*
X161264096Y-88542940D01*
X161264096Y-90050000D01*
G37*
X163023560Y-88445000D02*
X162570000Y-88445000D01*
X162570000Y-88042170D01*
X163023560Y-88042170D01*
X163023560Y-88445000D01*
G36*
X163023560Y-88445000D02*
G01*
X162570000Y-88445000D01*
X162570000Y-88042170D01*
X163023560Y-88042170D01*
X163023560Y-88445000D01*
G37*
X163023870Y-90215000D02*
X162570000Y-90215000D01*
X162570000Y-89313735D01*
X163023870Y-89313735D01*
X163023870Y-90215000D01*
G36*
X163023870Y-90215000D02*
G01*
X162570000Y-90215000D01*
X162570000Y-89313735D01*
X163023870Y-89313735D01*
X163023870Y-90215000D01*
G37*
X163029840Y-91315000D02*
X162570000Y-91315000D01*
X162570000Y-90415759D01*
X163029840Y-90415759D01*
X163029840Y-91315000D01*
G36*
X163029840Y-91315000D02*
G01*
X162570000Y-91315000D01*
X162570000Y-90415759D01*
X163029840Y-90415759D01*
X163029840Y-91315000D01*
G37*
X163032330Y-92415000D02*
X162570000Y-92415000D01*
X162570000Y-91520950D01*
X163032330Y-91520950D01*
X163032330Y-92415000D01*
G36*
X163032330Y-92415000D02*
G01*
X162570000Y-92415000D01*
X162570000Y-91520950D01*
X163032330Y-91520950D01*
X163032330Y-92415000D01*
G37*
X163577330Y-90985000D02*
X163220000Y-90985000D01*
X163220000Y-90585851D01*
X163577330Y-90585851D01*
X163577330Y-90985000D01*
G36*
X163577330Y-90985000D02*
G01*
X163220000Y-90985000D01*
X163220000Y-90585851D01*
X163577330Y-90585851D01*
X163577330Y-90985000D01*
G37*
X163579220Y-89715000D02*
X163220000Y-89715000D01*
X163220000Y-89312488D01*
X163579220Y-89312488D01*
X163579220Y-89715000D01*
G36*
X163579220Y-89715000D02*
G01*
X163220000Y-89715000D01*
X163220000Y-89312488D01*
X163579220Y-89312488D01*
X163579220Y-89715000D01*
G37*
X163579880Y-88445000D02*
X163220000Y-88445000D01*
X163220000Y-88038470D01*
X163579880Y-88038470D01*
X163579880Y-88445000D01*
G36*
X163579880Y-88445000D02*
G01*
X163220000Y-88445000D01*
X163220000Y-88038470D01*
X163579880Y-88038470D01*
X163579880Y-88445000D01*
G37*
X163583960Y-92255000D02*
X163220000Y-92255000D01*
X163220000Y-91862040D01*
X163583960Y-91862040D01*
X163583960Y-92255000D01*
G36*
X163583960Y-92255000D02*
G01*
X163220000Y-92255000D01*
X163220000Y-91862040D01*
X163583960Y-91862040D01*
X163583960Y-92255000D01*
G37*
%TO.C,Q4*%
X157484421Y-108427108D02*
X157120461Y-108427108D01*
X157120461Y-108034148D01*
X157484421Y-108034148D01*
X157484421Y-108427108D01*
G36*
X157484421Y-108427108D02*
G01*
X157120461Y-108427108D01*
X157120461Y-108034148D01*
X157484421Y-108034148D01*
X157484421Y-108427108D01*
G37*
X157484421Y-112250678D02*
X157124541Y-112250678D01*
X157124541Y-111844148D01*
X157484421Y-111844148D01*
X157484421Y-112250678D01*
G36*
X157484421Y-112250678D02*
G01*
X157124541Y-112250678D01*
X157124541Y-111844148D01*
X157484421Y-111844148D01*
X157484421Y-112250678D01*
G37*
X157484421Y-110976660D02*
X157125201Y-110976660D01*
X157125201Y-110574148D01*
X157484421Y-110574148D01*
X157484421Y-110976660D01*
G36*
X157484421Y-110976660D02*
G01*
X157125201Y-110976660D01*
X157125201Y-110574148D01*
X157484421Y-110574148D01*
X157484421Y-110976660D01*
G37*
X157484421Y-109703297D02*
X157127091Y-109703297D01*
X157127091Y-109304148D01*
X157484421Y-109304148D01*
X157484421Y-109703297D01*
G36*
X157484421Y-109703297D02*
G01*
X157127091Y-109703297D01*
X157127091Y-109304148D01*
X157484421Y-109304148D01*
X157484421Y-109703297D01*
G37*
X158134421Y-108768198D02*
X157672091Y-108768198D01*
X157672091Y-107874148D01*
X158134421Y-107874148D01*
X158134421Y-108768198D01*
G36*
X158134421Y-108768198D02*
G01*
X157672091Y-108768198D01*
X157672091Y-107874148D01*
X158134421Y-107874148D01*
X158134421Y-108768198D01*
G37*
X158134421Y-109873389D02*
X157674581Y-109873389D01*
X157674581Y-108974148D01*
X158134421Y-108974148D01*
X158134421Y-109873389D01*
G36*
X158134421Y-109873389D02*
G01*
X157674581Y-109873389D01*
X157674581Y-108974148D01*
X158134421Y-108974148D01*
X158134421Y-109873389D01*
G37*
X158134421Y-110975413D02*
X157680551Y-110975413D01*
X157680551Y-110074148D01*
X158134421Y-110074148D01*
X158134421Y-110975413D01*
G36*
X158134421Y-110975413D02*
G01*
X157680551Y-110975413D01*
X157680551Y-110074148D01*
X158134421Y-110074148D01*
X158134421Y-110975413D01*
G37*
X158134421Y-112246978D02*
X157680861Y-112246978D01*
X157680861Y-111844148D01*
X158134421Y-111844148D01*
X158134421Y-112246978D01*
G36*
X158134421Y-112246978D02*
G01*
X157680861Y-112246978D01*
X157680861Y-111844148D01*
X158134421Y-111844148D01*
X158134421Y-112246978D01*
G37*
X160944421Y-111746208D02*
X159440325Y-111746208D01*
X159440325Y-110239148D01*
X160944421Y-110239148D01*
X160944421Y-111746208D01*
G36*
X160944421Y-111746208D02*
G01*
X159440325Y-111746208D01*
X159440325Y-110239148D01*
X160944421Y-110239148D01*
X160944421Y-111746208D01*
G37*
X160944421Y-110038999D02*
X159441276Y-110038999D01*
X159441276Y-108539148D01*
X160944421Y-108539148D01*
X160944421Y-110038999D01*
G36*
X160944421Y-110038999D02*
G01*
X159441276Y-110038999D01*
X159441276Y-108539148D01*
X160944421Y-108539148D01*
X160944421Y-110038999D01*
G37*
X162644421Y-110039032D02*
X161146325Y-110039032D01*
X161146325Y-108539148D01*
X162644421Y-108539148D01*
X162644421Y-110039032D01*
G36*
X162644421Y-110039032D02*
G01*
X161146325Y-110039032D01*
X161146325Y-108539148D01*
X162644421Y-108539148D01*
X162644421Y-110039032D01*
G37*
X162644421Y-111745498D02*
X161147259Y-111745498D01*
X161147259Y-110239148D01*
X162644421Y-110239148D01*
X162644421Y-111745498D01*
G36*
X162644421Y-111745498D02*
G01*
X161147259Y-111745498D01*
X161147259Y-110239148D01*
X162644421Y-110239148D01*
X162644421Y-111745498D01*
G37*
X163674421Y-108482608D02*
X162926851Y-108482608D01*
X162926851Y-107984148D01*
X163674421Y-107984148D01*
X163674421Y-108482608D01*
G36*
X163674421Y-108482608D02*
G01*
X162926851Y-108482608D01*
X162926851Y-107984148D01*
X163674421Y-107984148D01*
X163674421Y-108482608D01*
G37*
X163674421Y-112296508D02*
X162927111Y-112296508D01*
X162927111Y-111794148D01*
X163674421Y-111794148D01*
X163674421Y-112296508D01*
G36*
X163674421Y-112296508D02*
G01*
X162927111Y-112296508D01*
X162927111Y-111794148D01*
X163674421Y-111794148D01*
X163674421Y-112296508D01*
G37*
X163674421Y-111027392D02*
X162933101Y-111027392D01*
X162933101Y-110524148D01*
X163674421Y-110524148D01*
X163674421Y-111027392D01*
G36*
X163674421Y-111027392D02*
G01*
X162933101Y-111027392D01*
X162933101Y-110524148D01*
X163674421Y-110524148D01*
X163674421Y-111027392D01*
G37*
X163674421Y-109752778D02*
X162934881Y-109752778D01*
X162934881Y-109254148D01*
X163674421Y-109254148D01*
X163674421Y-109752778D01*
G36*
X163674421Y-109752778D02*
G01*
X162934881Y-109752778D01*
X162934881Y-109254148D01*
X163674421Y-109254148D01*
X163674421Y-109752778D01*
G37*
D11*
%TO.C,U4*%
G36*
X142872624Y-95296010D02*
G01*
X142882499Y-95299007D01*
X142891603Y-95303871D01*
X142899581Y-95310419D01*
X142906129Y-95318398D01*
X142910993Y-95327501D01*
X142913990Y-95337376D01*
X142915001Y-95347648D01*
X142915001Y-96412350D01*
X142913990Y-96422622D01*
X142910993Y-96432497D01*
X142906129Y-96441601D01*
X142899581Y-96449579D01*
X142891603Y-96456127D01*
X142882499Y-96460991D01*
X142872624Y-96463988D01*
X142862352Y-96464999D01*
X141797650Y-96464999D01*
X141787378Y-96463988D01*
X141777503Y-96460991D01*
X141768400Y-96456127D01*
X141760421Y-96449579D01*
X141753873Y-96441601D01*
X141749009Y-96432497D01*
X141746012Y-96422622D01*
X141745001Y-96412350D01*
X141745001Y-95347648D01*
X141746012Y-95337376D01*
X141749009Y-95327501D01*
X141753873Y-95318398D01*
X141760421Y-95310419D01*
X141768400Y-95303871D01*
X141777503Y-95299007D01*
X141787378Y-95296010D01*
X141797650Y-95294999D01*
X142862352Y-95294999D01*
X142872624Y-95296010D01*
G37*
G36*
X142872624Y-96666010D02*
G01*
X142882499Y-96669007D01*
X142891603Y-96673871D01*
X142899581Y-96680419D01*
X142906129Y-96688397D01*
X142910993Y-96697501D01*
X142913990Y-96707376D01*
X142915001Y-96717648D01*
X142915001Y-97782350D01*
X142913990Y-97792622D01*
X142910993Y-97802497D01*
X142906129Y-97811601D01*
X142899581Y-97819579D01*
X142891603Y-97826127D01*
X142882499Y-97830991D01*
X142872624Y-97833988D01*
X142862352Y-97834999D01*
X141797650Y-97834999D01*
X141787378Y-97833988D01*
X141777503Y-97830991D01*
X141768400Y-97826127D01*
X141760421Y-97819579D01*
X141753873Y-97811601D01*
X141749009Y-97802497D01*
X141746012Y-97792622D01*
X141745001Y-97782350D01*
X141745001Y-96717648D01*
X141746012Y-96707376D01*
X141749009Y-96697501D01*
X141753873Y-96688397D01*
X141760421Y-96680419D01*
X141768400Y-96673871D01*
X141777503Y-96669007D01*
X141787378Y-96666010D01*
X141797650Y-96664999D01*
X142862352Y-96664999D01*
X142872624Y-96666010D01*
G37*
G36*
X142872624Y-98036010D02*
G01*
X142882499Y-98039007D01*
X142891603Y-98043871D01*
X142899581Y-98050419D01*
X142906129Y-98058397D01*
X142910993Y-98067501D01*
X142913990Y-98077376D01*
X142915001Y-98087648D01*
X142915001Y-99152350D01*
X142913990Y-99162622D01*
X142910993Y-99172497D01*
X142906129Y-99181600D01*
X142899581Y-99189579D01*
X142891603Y-99196127D01*
X142882499Y-99200991D01*
X142872624Y-99203988D01*
X142862352Y-99204999D01*
X141797650Y-99204999D01*
X141787378Y-99203988D01*
X141777503Y-99200991D01*
X141768400Y-99196127D01*
X141760421Y-99189579D01*
X141753873Y-99181600D01*
X141749009Y-99172497D01*
X141746012Y-99162622D01*
X141745001Y-99152350D01*
X141745001Y-98087648D01*
X141746012Y-98077376D01*
X141749009Y-98067501D01*
X141753873Y-98058397D01*
X141760421Y-98050419D01*
X141768400Y-98043871D01*
X141777503Y-98039007D01*
X141787378Y-98036010D01*
X141797650Y-98034999D01*
X142862352Y-98034999D01*
X142872624Y-98036010D01*
G37*
G36*
X144242624Y-95296010D02*
G01*
X144252499Y-95299007D01*
X144261603Y-95303871D01*
X144269581Y-95310419D01*
X144276129Y-95318398D01*
X144280993Y-95327501D01*
X144283990Y-95337376D01*
X144285001Y-95347648D01*
X144285001Y-96412350D01*
X144283990Y-96422622D01*
X144280993Y-96432497D01*
X144276129Y-96441601D01*
X144269581Y-96449579D01*
X144261603Y-96456127D01*
X144252499Y-96460991D01*
X144242624Y-96463988D01*
X144232352Y-96464999D01*
X143167650Y-96464999D01*
X143157378Y-96463988D01*
X143147503Y-96460991D01*
X143138399Y-96456127D01*
X143130421Y-96449579D01*
X143123873Y-96441601D01*
X143119009Y-96432497D01*
X143116012Y-96422622D01*
X143115001Y-96412350D01*
X143115001Y-95347648D01*
X143116012Y-95337376D01*
X143119009Y-95327501D01*
X143123873Y-95318398D01*
X143130421Y-95310419D01*
X143138399Y-95303871D01*
X143147503Y-95299007D01*
X143157378Y-95296010D01*
X143167650Y-95294999D01*
X144232352Y-95294999D01*
X144242624Y-95296010D01*
G37*
G36*
X144242624Y-96666010D02*
G01*
X144252499Y-96669007D01*
X144261603Y-96673871D01*
X144269581Y-96680419D01*
X144276129Y-96688397D01*
X144280993Y-96697501D01*
X144283990Y-96707376D01*
X144285001Y-96717648D01*
X144285001Y-97782350D01*
X144283990Y-97792622D01*
X144280993Y-97802497D01*
X144276129Y-97811601D01*
X144269581Y-97819579D01*
X144261603Y-97826127D01*
X144252499Y-97830991D01*
X144242624Y-97833988D01*
X144232352Y-97834999D01*
X143167650Y-97834999D01*
X143157378Y-97833988D01*
X143147503Y-97830991D01*
X143138399Y-97826127D01*
X143130421Y-97819579D01*
X143123873Y-97811601D01*
X143119009Y-97802497D01*
X143116012Y-97792622D01*
X143115001Y-97782350D01*
X143115001Y-96717648D01*
X143116012Y-96707376D01*
X143119009Y-96697501D01*
X143123873Y-96688397D01*
X143130421Y-96680419D01*
X143138399Y-96673871D01*
X143147503Y-96669007D01*
X143157378Y-96666010D01*
X143167650Y-96664999D01*
X144232352Y-96664999D01*
X144242624Y-96666010D01*
G37*
G36*
X144242624Y-98036010D02*
G01*
X144252499Y-98039007D01*
X144261603Y-98043871D01*
X144269581Y-98050419D01*
X144276129Y-98058397D01*
X144280993Y-98067501D01*
X144283990Y-98077376D01*
X144285001Y-98087648D01*
X144285001Y-99152350D01*
X144283990Y-99162622D01*
X144280993Y-99172497D01*
X144276129Y-99181600D01*
X144269581Y-99189579D01*
X144261603Y-99196127D01*
X144252499Y-99200991D01*
X144242624Y-99203988D01*
X144232352Y-99204999D01*
X143167650Y-99204999D01*
X143157378Y-99203988D01*
X143147503Y-99200991D01*
X143138399Y-99196127D01*
X143130421Y-99189579D01*
X143123873Y-99181600D01*
X143119009Y-99172497D01*
X143116012Y-99162622D01*
X143115001Y-99152350D01*
X143115001Y-98087648D01*
X143116012Y-98077376D01*
X143119009Y-98067501D01*
X143123873Y-98058397D01*
X143130421Y-98050419D01*
X143138399Y-98043871D01*
X143147503Y-98039007D01*
X143157378Y-98036010D01*
X143167650Y-98034999D01*
X144232352Y-98034999D01*
X144242624Y-98036010D01*
G37*
G36*
X145612624Y-95296010D02*
G01*
X145622499Y-95299007D01*
X145631602Y-95303871D01*
X145639581Y-95310419D01*
X145646129Y-95318398D01*
X145650993Y-95327501D01*
X145653990Y-95337376D01*
X145655001Y-95347648D01*
X145655001Y-96412350D01*
X145653990Y-96422622D01*
X145650993Y-96432497D01*
X145646129Y-96441601D01*
X145639581Y-96449579D01*
X145631602Y-96456127D01*
X145622499Y-96460991D01*
X145612624Y-96463988D01*
X145602352Y-96464999D01*
X144537650Y-96464999D01*
X144527378Y-96463988D01*
X144517503Y-96460991D01*
X144508399Y-96456127D01*
X144500421Y-96449579D01*
X144493873Y-96441601D01*
X144489009Y-96432497D01*
X144486012Y-96422622D01*
X144485001Y-96412350D01*
X144485001Y-95347648D01*
X144486012Y-95337376D01*
X144489009Y-95327501D01*
X144493873Y-95318398D01*
X144500421Y-95310419D01*
X144508399Y-95303871D01*
X144517503Y-95299007D01*
X144527378Y-95296010D01*
X144537650Y-95294999D01*
X145602352Y-95294999D01*
X145612624Y-95296010D01*
G37*
G36*
X145612624Y-96666010D02*
G01*
X145622499Y-96669007D01*
X145631602Y-96673871D01*
X145639581Y-96680419D01*
X145646129Y-96688397D01*
X145650993Y-96697501D01*
X145653990Y-96707376D01*
X145655001Y-96717648D01*
X145655001Y-97782350D01*
X145653990Y-97792622D01*
X145650993Y-97802497D01*
X145646129Y-97811601D01*
X145639581Y-97819579D01*
X145631602Y-97826127D01*
X145622499Y-97830991D01*
X145612624Y-97833988D01*
X145602352Y-97834999D01*
X144537650Y-97834999D01*
X144527378Y-97833988D01*
X144517503Y-97830991D01*
X144508399Y-97826127D01*
X144500421Y-97819579D01*
X144493873Y-97811601D01*
X144489009Y-97802497D01*
X144486012Y-97792622D01*
X144485001Y-97782350D01*
X144485001Y-96717648D01*
X144486012Y-96707376D01*
X144489009Y-96697501D01*
X144493873Y-96688397D01*
X144500421Y-96680419D01*
X144508399Y-96673871D01*
X144517503Y-96669007D01*
X144527378Y-96666010D01*
X144537650Y-96664999D01*
X145602352Y-96664999D01*
X145612624Y-96666010D01*
G37*
G36*
X145612624Y-98036010D02*
G01*
X145622499Y-98039007D01*
X145631602Y-98043871D01*
X145639581Y-98050419D01*
X145646129Y-98058397D01*
X145650993Y-98067501D01*
X145653990Y-98077376D01*
X145655001Y-98087648D01*
X145655001Y-99152350D01*
X145653990Y-99162622D01*
X145650993Y-99172497D01*
X145646129Y-99181600D01*
X145639581Y-99189579D01*
X145631602Y-99196127D01*
X145622499Y-99200991D01*
X145612624Y-99203988D01*
X145602352Y-99204999D01*
X144537650Y-99204999D01*
X144527378Y-99203988D01*
X144517503Y-99200991D01*
X144508399Y-99196127D01*
X144500421Y-99189579D01*
X144493873Y-99181600D01*
X144489009Y-99172497D01*
X144486012Y-99162622D01*
X144485001Y-99152350D01*
X144485001Y-98087648D01*
X144486012Y-98077376D01*
X144489009Y-98067501D01*
X144493873Y-98058397D01*
X144500421Y-98050419D01*
X144508399Y-98043871D01*
X144517503Y-98039007D01*
X144527378Y-98036010D01*
X144537650Y-98034999D01*
X145602352Y-98034999D01*
X145612624Y-98036010D01*
G37*
D10*
%TO.C,Q6*%
X157430210Y-69800427D02*
X157066250Y-69800427D01*
X157066250Y-69407467D01*
X157430210Y-69407467D01*
X157430210Y-69800427D01*
G36*
X157430210Y-69800427D02*
G01*
X157066250Y-69800427D01*
X157066250Y-69407467D01*
X157430210Y-69407467D01*
X157430210Y-69800427D01*
G37*
X157430210Y-73623997D02*
X157070330Y-73623997D01*
X157070330Y-73217467D01*
X157430210Y-73217467D01*
X157430210Y-73623997D01*
G36*
X157430210Y-73623997D02*
G01*
X157070330Y-73623997D01*
X157070330Y-73217467D01*
X157430210Y-73217467D01*
X157430210Y-73623997D01*
G37*
X157430210Y-72349979D02*
X157070990Y-72349979D01*
X157070990Y-71947467D01*
X157430210Y-71947467D01*
X157430210Y-72349979D01*
G36*
X157430210Y-72349979D02*
G01*
X157070990Y-72349979D01*
X157070990Y-71947467D01*
X157430210Y-71947467D01*
X157430210Y-72349979D01*
G37*
X157430210Y-71076616D02*
X157072880Y-71076616D01*
X157072880Y-70677467D01*
X157430210Y-70677467D01*
X157430210Y-71076616D01*
G36*
X157430210Y-71076616D02*
G01*
X157072880Y-71076616D01*
X157072880Y-70677467D01*
X157430210Y-70677467D01*
X157430210Y-71076616D01*
G37*
X158080210Y-70141517D02*
X157617880Y-70141517D01*
X157617880Y-69247467D01*
X158080210Y-69247467D01*
X158080210Y-70141517D01*
G36*
X158080210Y-70141517D02*
G01*
X157617880Y-70141517D01*
X157617880Y-69247467D01*
X158080210Y-69247467D01*
X158080210Y-70141517D01*
G37*
X158080210Y-71246708D02*
X157620370Y-71246708D01*
X157620370Y-70347467D01*
X158080210Y-70347467D01*
X158080210Y-71246708D01*
G36*
X158080210Y-71246708D02*
G01*
X157620370Y-71246708D01*
X157620370Y-70347467D01*
X158080210Y-70347467D01*
X158080210Y-71246708D01*
G37*
X158080210Y-72348732D02*
X157626340Y-72348732D01*
X157626340Y-71447467D01*
X158080210Y-71447467D01*
X158080210Y-72348732D01*
G36*
X158080210Y-72348732D02*
G01*
X157626340Y-72348732D01*
X157626340Y-71447467D01*
X158080210Y-71447467D01*
X158080210Y-72348732D01*
G37*
X158080210Y-73620297D02*
X157626650Y-73620297D01*
X157626650Y-73217467D01*
X158080210Y-73217467D01*
X158080210Y-73620297D01*
G36*
X158080210Y-73620297D02*
G01*
X157626650Y-73620297D01*
X157626650Y-73217467D01*
X158080210Y-73217467D01*
X158080210Y-73620297D01*
G37*
X160890210Y-73119527D02*
X159386114Y-73119527D01*
X159386114Y-71612467D01*
X160890210Y-71612467D01*
X160890210Y-73119527D01*
G36*
X160890210Y-73119527D02*
G01*
X159386114Y-73119527D01*
X159386114Y-71612467D01*
X160890210Y-71612467D01*
X160890210Y-73119527D01*
G37*
X160890210Y-71412318D02*
X159387065Y-71412318D01*
X159387065Y-69912467D01*
X160890210Y-69912467D01*
X160890210Y-71412318D01*
G36*
X160890210Y-71412318D02*
G01*
X159387065Y-71412318D01*
X159387065Y-69912467D01*
X160890210Y-69912467D01*
X160890210Y-71412318D01*
G37*
X162590210Y-71412351D02*
X161092114Y-71412351D01*
X161092114Y-69912467D01*
X162590210Y-69912467D01*
X162590210Y-71412351D01*
G36*
X162590210Y-71412351D02*
G01*
X161092114Y-71412351D01*
X161092114Y-69912467D01*
X162590210Y-69912467D01*
X162590210Y-71412351D01*
G37*
X162590210Y-73118817D02*
X161093048Y-73118817D01*
X161093048Y-71612467D01*
X162590210Y-71612467D01*
X162590210Y-73118817D01*
G36*
X162590210Y-73118817D02*
G01*
X161093048Y-73118817D01*
X161093048Y-71612467D01*
X162590210Y-71612467D01*
X162590210Y-73118817D01*
G37*
X163620210Y-69855927D02*
X162872640Y-69855927D01*
X162872640Y-69357467D01*
X163620210Y-69357467D01*
X163620210Y-69855927D01*
G36*
X163620210Y-69855927D02*
G01*
X162872640Y-69855927D01*
X162872640Y-69357467D01*
X163620210Y-69357467D01*
X163620210Y-69855927D01*
G37*
X163620210Y-73669827D02*
X162872900Y-73669827D01*
X162872900Y-73167467D01*
X163620210Y-73167467D01*
X163620210Y-73669827D01*
G36*
X163620210Y-73669827D02*
G01*
X162872900Y-73669827D01*
X162872900Y-73167467D01*
X163620210Y-73167467D01*
X163620210Y-73669827D01*
G37*
X163620210Y-72400711D02*
X162878890Y-72400711D01*
X162878890Y-71897467D01*
X163620210Y-71897467D01*
X163620210Y-72400711D01*
G36*
X163620210Y-72400711D02*
G01*
X162878890Y-72400711D01*
X162878890Y-71897467D01*
X163620210Y-71897467D01*
X163620210Y-72400711D01*
G37*
X163620210Y-71126097D02*
X162880670Y-71126097D01*
X162880670Y-70627467D01*
X163620210Y-70627467D01*
X163620210Y-71126097D01*
G36*
X163620210Y-71126097D02*
G01*
X162880670Y-71126097D01*
X162880670Y-70627467D01*
X163620210Y-70627467D01*
X163620210Y-71126097D01*
G37*
%TO.C,U16*%
X142916009Y-63161701D02*
X141763425Y-64314285D01*
X140610841Y-63161701D01*
X141763425Y-62009117D01*
X142916009Y-63161701D01*
G36*
X142916009Y-63161701D02*
G01*
X141763425Y-64314285D01*
X140610841Y-63161701D01*
X141763425Y-62009117D01*
X142916009Y-63161701D01*
G37*
X144542355Y-61535355D02*
X143389771Y-62687939D01*
X142237187Y-61535355D01*
X143389771Y-60382771D01*
X144542355Y-61535355D01*
G36*
X144542355Y-61535355D02*
G01*
X143389771Y-62687939D01*
X142237187Y-61535355D01*
X143389771Y-60382771D01*
X144542355Y-61535355D01*
G37*
X144542355Y-64788047D02*
X143389771Y-65940631D01*
X142237187Y-64788047D01*
X143389771Y-63635463D01*
X144542355Y-64788047D01*
G36*
X144542355Y-64788047D02*
G01*
X143389771Y-65940631D01*
X142237187Y-64788047D01*
X143389771Y-63635463D01*
X144542355Y-64788047D01*
G37*
X146168701Y-63161701D02*
X145016117Y-64314285D01*
X143863533Y-63161701D01*
X145016117Y-62009117D01*
X146168701Y-63161701D01*
G36*
X146168701Y-63161701D02*
G01*
X145016117Y-64314285D01*
X143863533Y-63161701D01*
X145016117Y-62009117D01*
X146168701Y-63161701D01*
G37*
%TD*%
D12*
%TO.C,D10*%
X136083883Y-70316117D03*
X134316117Y-72083883D03*
%TD*%
D13*
%TO.C,R26*%
X141100000Y-110290000D03*
X141100000Y-111310000D03*
%TD*%
D14*
%TO.C,C59*%
X140062848Y-59710589D03*
X139384026Y-60389411D03*
%TD*%
D15*
%TO.C,C47*%
X145600000Y-110320000D03*
X145600000Y-111280000D03*
%TD*%
D16*
%TO.C,C41*%
X155000000Y-76000000D03*
X155000000Y-73050000D03*
%TD*%
%TO.C,C39*%
X155000000Y-90150000D03*
X155000000Y-87200000D03*
%TD*%
D17*
%TO.C,R36*%
X167690577Y-76888833D03*
X167690577Y-68834833D03*
%TD*%
D18*
%TO.C,U6*%
X134000000Y-108600000D03*
X134650000Y-108600000D03*
X135300000Y-108600000D03*
X135300000Y-106680000D03*
X134000000Y-106680000D03*
%TD*%
D19*
%TO.C,R46*%
X128700000Y-70600000D03*
X129421248Y-71321248D03*
%TD*%
D16*
%TO.C,C43*%
X155100000Y-114650000D03*
X155100000Y-111700000D03*
%TD*%
D20*
%TO.C,U10*%
X137570000Y-113175000D03*
X136300000Y-113175000D03*
X135030000Y-113175000D03*
X133760000Y-113175000D03*
X133760000Y-118125000D03*
X135030000Y-118125000D03*
X136300000Y-118125000D03*
X137570000Y-118125000D03*
%TD*%
D21*
%TO.C,C12*%
X146500000Y-71550000D03*
X147178822Y-72228822D03*
%TD*%
D22*
%TO.C,R10*%
X138400000Y-104120000D03*
X138400000Y-103100000D03*
%TD*%
D23*
%TO.C,C37*%
X129520000Y-74050000D03*
X130480000Y-74050000D03*
%TD*%
D24*
%TO.C,Y1*%
X149363782Y-69817588D03*
X147808147Y-68261953D03*
X146606066Y-69464034D03*
X148161701Y-71019669D03*
%TD*%
D13*
%TO.C,R29*%
X136700000Y-110240000D03*
X136700000Y-111260000D03*
%TD*%
D23*
%TO.C,C23*%
X134700000Y-101300000D03*
X135660000Y-101300000D03*
%TD*%
D17*
%TO.C,R34*%
X167700000Y-115400000D03*
X167700000Y-107346000D03*
%TD*%
D25*
%TO.C,U1*%
X144850000Y-74525000D03*
X144350000Y-74525000D03*
X143850000Y-74525000D03*
X143350000Y-74525000D03*
X142850000Y-74525000D03*
X142350000Y-74525000D03*
X141850000Y-74525000D03*
X141350000Y-74525000D03*
X140850000Y-74525000D03*
X140350000Y-74525000D03*
X139850000Y-74525000D03*
X139350000Y-74525000D03*
X138850000Y-74525000D03*
X138350000Y-74525000D03*
X137850000Y-74525000D03*
X137350000Y-74525000D03*
D26*
X135425000Y-76450000D03*
X135425000Y-76950000D03*
X135425000Y-77450000D03*
X135425000Y-77950000D03*
X135425000Y-78450000D03*
X135425000Y-78950000D03*
X135425000Y-79450000D03*
X135425000Y-79950000D03*
X135425000Y-80450000D03*
X135425000Y-80950000D03*
X135425000Y-81450000D03*
X135425000Y-81950000D03*
X135425000Y-82450000D03*
X135425000Y-82950000D03*
X135425000Y-83450000D03*
X135425000Y-83950000D03*
D25*
X137350000Y-85875000D03*
X137850000Y-85875000D03*
X138350000Y-85875000D03*
X138850000Y-85875000D03*
X139350000Y-85875000D03*
X139850000Y-85875000D03*
X140350000Y-85875000D03*
X140850000Y-85875000D03*
X141350000Y-85875000D03*
X141850000Y-85875000D03*
X142350000Y-85875000D03*
X142850000Y-85875000D03*
X143350000Y-85875000D03*
X143850000Y-85875000D03*
X144350000Y-85875000D03*
X144850000Y-85875000D03*
D26*
X146775000Y-83950000D03*
X146775000Y-83450000D03*
X146775000Y-82950000D03*
X146775000Y-82450000D03*
X146775000Y-81950000D03*
X146775000Y-81450000D03*
X146775000Y-80950000D03*
X146775000Y-80450000D03*
X146775000Y-79950000D03*
X146775000Y-79450000D03*
X146775000Y-78950000D03*
X146775000Y-78450000D03*
X146775000Y-77950000D03*
X146775000Y-77450000D03*
X146775000Y-76950000D03*
X146775000Y-76450000D03*
%TD*%
D22*
%TO.C,TH1*%
X156700000Y-103320000D03*
X156700000Y-102300000D03*
%TD*%
D27*
%TO.C,C19*%
X143400000Y-102900000D03*
X143400000Y-104799998D03*
%TD*%
D28*
%TO.C,J9*%
X137061555Y-65976669D03*
X136495870Y-66542354D03*
D29*
X135682697Y-67355527D03*
X134975590Y-68062634D03*
X134622037Y-68416187D03*
X133914930Y-69123294D03*
D28*
X133101757Y-69936467D03*
X132536072Y-70502152D03*
X132536072Y-70502152D03*
X133101757Y-69936467D03*
D29*
X133561377Y-69476848D03*
X134268484Y-68769741D03*
X135329144Y-67709081D03*
X136036251Y-67001974D03*
D28*
X136495870Y-66542354D03*
X137061555Y-65976669D03*
%TD*%
D15*
%TO.C,C49*%
X134700000Y-110250000D03*
X134700000Y-111210000D03*
%TD*%
D30*
%TO.C,L2*%
X145757053Y-57742947D03*
X146442947Y-57057053D03*
%TD*%
D31*
%TO.C,Y2*%
X137271894Y-60557177D03*
X138261843Y-59567228D03*
X137484026Y-58789411D03*
X136494077Y-59779360D03*
%TD*%
D23*
%TO.C,C20*%
X136920000Y-96200000D03*
X137880000Y-96200000D03*
%TD*%
D32*
%TO.C,C13*%
X145778750Y-70828750D03*
X145099928Y-70149928D03*
%TD*%
D33*
%TO.C,C38*%
X160450000Y-66900000D03*
X157500000Y-66900000D03*
%TD*%
D34*
%TO.C,U15*%
X140252170Y-68234834D03*
X139580419Y-67563083D03*
X138908668Y-66891332D03*
X137300000Y-68500000D03*
X137971751Y-69171751D03*
X138643502Y-69843502D03*
%TD*%
D35*
%TO.C,C65*%
X144979236Y-56965129D03*
X145658058Y-56286307D03*
%TD*%
D36*
%TO.C,L1*%
X136900000Y-98900000D03*
X134900000Y-98900000D03*
%TD*%
D37*
%TO.C,C21*%
X147242983Y-105457017D03*
X145157017Y-107542983D03*
%TD*%
D13*
%TO.C,R19*%
X147600000Y-110290000D03*
X147600000Y-111310000D03*
%TD*%
D18*
%TO.C,U5*%
X137000000Y-108600000D03*
X137650000Y-108600000D03*
X138300000Y-108600000D03*
X138300000Y-106680000D03*
X137000000Y-106680000D03*
%TD*%
D38*
%TO.C,R45*%
X127500000Y-69400000D03*
X126778752Y-68678752D03*
%TD*%
D22*
%TO.C,R22*%
X139450000Y-104120000D03*
X139450000Y-103100000D03*
%TD*%
D39*
%TO.C,U7*%
X130325000Y-77100000D03*
X130325000Y-76600000D03*
X130325000Y-76100000D03*
X130325000Y-75600000D03*
D40*
X129562500Y-75337500D03*
X129062500Y-75337500D03*
X128562500Y-75337500D03*
D39*
X127800000Y-75600000D03*
X127800000Y-76100000D03*
X127800000Y-76600000D03*
X127800000Y-77100000D03*
D40*
X128562500Y-77362500D03*
X129062500Y-77362500D03*
X129562500Y-77362500D03*
%TD*%
D41*
%TO.C,D8*%
X138800000Y-97850000D03*
X138800000Y-100350000D03*
%TD*%
D13*
%TO.C,R41*%
X139200000Y-110290000D03*
X139200000Y-111310000D03*
%TD*%
D18*
%TO.C,U3*%
X140000000Y-108600000D03*
X140650000Y-108600000D03*
X141300000Y-108600000D03*
X141300000Y-106680000D03*
X140000000Y-106680000D03*
%TD*%
D42*
%TO.C,C36*%
X128600000Y-78500000D03*
X127640000Y-78500000D03*
%TD*%
D43*
%TO.C,R13*%
X139760000Y-101590000D03*
X138740000Y-101590000D03*
%TD*%
D44*
%TO.C,U4*%
X141450000Y-100149998D03*
X141949999Y-100149998D03*
X142450001Y-100149998D03*
X142950000Y-100149998D03*
X143450001Y-100149998D03*
X143950001Y-100149998D03*
X144449999Y-100149998D03*
X144950001Y-100149998D03*
X145450000Y-100149998D03*
X145950002Y-100149998D03*
D45*
X146600000Y-99500000D03*
X146600000Y-99000001D03*
X146600000Y-98499999D03*
X146600000Y-98000000D03*
X146600000Y-97499999D03*
X146600000Y-96999999D03*
X146600000Y-96500001D03*
X146600000Y-95999999D03*
X146600000Y-95500000D03*
X146600000Y-94999998D03*
D44*
X145950002Y-94350000D03*
X145450000Y-94350000D03*
X144950001Y-94350000D03*
X144449999Y-94350000D03*
X143950001Y-94350000D03*
X143450001Y-94350000D03*
X142950000Y-94350000D03*
X142450001Y-94350000D03*
X141949999Y-94350000D03*
X141450000Y-94350000D03*
D45*
X140800002Y-94999998D03*
X140800002Y-95500000D03*
X140800002Y-95999999D03*
X140800002Y-96500001D03*
X140800002Y-96999999D03*
X140800002Y-97499999D03*
X140800002Y-98000000D03*
X140800002Y-98499999D03*
X140800002Y-99000001D03*
X140800002Y-99500000D03*
%TD*%
D46*
%TO.C,C22*%
X148550000Y-111280000D03*
X148550000Y-110320000D03*
%TD*%
D13*
%TO.C,R20*%
X146600000Y-110290000D03*
X146600000Y-111310000D03*
%TD*%
%TO.C,R23*%
X142100000Y-110290000D03*
X142100000Y-111310000D03*
%TD*%
%TO.C,R40*%
X144600000Y-110290000D03*
X144600000Y-111310000D03*
%TD*%
D33*
%TO.C,C40*%
X160550000Y-105500000D03*
X157600000Y-105500000D03*
%TD*%
D15*
%TO.C,C48*%
X140150000Y-110320000D03*
X140150000Y-111280000D03*
%TD*%
D13*
%TO.C,R21*%
X140550000Y-103100000D03*
X140550000Y-104120000D03*
%TD*%
D42*
%TO.C,C16*%
X130230000Y-84100000D03*
X129270000Y-84100000D03*
%TD*%
D46*
%TO.C,C18*%
X141600000Y-104080000D03*
X141600000Y-103120000D03*
%TD*%
D42*
%TO.C,C17*%
X130280000Y-80650000D03*
X129320000Y-80650000D03*
%TD*%
D17*
%TO.C,R35*%
X167655156Y-95565758D03*
X167655156Y-87511758D03*
%TD*%
D20*
%TO.C,U9*%
X143025000Y-113200000D03*
X141755000Y-113200000D03*
X140485000Y-113200000D03*
X139215000Y-113200000D03*
X139215000Y-118150000D03*
X140485000Y-118150000D03*
X141755000Y-118150000D03*
X143025000Y-118150000D03*
%TD*%
D13*
%TO.C,R42*%
X133700000Y-110240000D03*
X133700000Y-111260000D03*
%TD*%
D47*
%TO.C,C42*%
X155000000Y-91850000D03*
X155000000Y-94800000D03*
%TD*%
D48*
%TO.C,J10*%
X147668629Y-58118629D03*
D49*
X149772272Y-58136306D03*
D48*
X149789949Y-60239949D03*
D49*
X147686306Y-60222272D03*
%TD*%
D50*
%TO.C,R18*%
X129290000Y-83100000D03*
X130310000Y-83100000D03*
%TD*%
D23*
%TO.C,C24*%
X134700000Y-102400000D03*
X135660000Y-102400000D03*
%TD*%
D20*
%TO.C,U8*%
X148460000Y-113200000D03*
X147190000Y-113200000D03*
X145920000Y-113200000D03*
X144650000Y-113200000D03*
X144650000Y-118150000D03*
X145920000Y-118150000D03*
X147190000Y-118150000D03*
X148460000Y-118150000D03*
%TD*%
D51*
%TO.C,U16*%
X143920101Y-66803301D03*
X144202944Y-66520458D03*
X144485787Y-66237615D03*
X144768629Y-65954773D03*
X145051472Y-65671930D03*
X145334315Y-65389087D03*
X145617157Y-65106245D03*
X145900000Y-64823402D03*
X146182843Y-64540559D03*
X146465685Y-64257717D03*
X146748528Y-63974874D03*
X147031371Y-63692031D03*
D52*
X147031371Y-62631371D03*
X146748528Y-62348528D03*
X146465685Y-62065685D03*
X146182843Y-61782843D03*
X145900000Y-61500000D03*
X145617157Y-61217157D03*
X145334315Y-60934315D03*
X145051472Y-60651472D03*
X144768629Y-60368629D03*
X144485787Y-60085787D03*
X144202944Y-59802944D03*
X143920101Y-59520101D03*
D51*
X142859441Y-59520101D03*
X142576598Y-59802944D03*
X142293755Y-60085787D03*
X142010913Y-60368629D03*
X141728070Y-60651472D03*
X141445227Y-60934315D03*
X141162385Y-61217157D03*
X140879542Y-61500000D03*
X140596699Y-61782843D03*
X140313857Y-62065685D03*
X140031014Y-62348528D03*
X139748171Y-62631371D03*
D52*
X139748171Y-63692031D03*
X140031014Y-63974874D03*
X140313857Y-64257717D03*
X140596699Y-64540559D03*
X140879542Y-64823402D03*
X141162385Y-65106245D03*
X141445227Y-65389087D03*
X141728070Y-65671930D03*
X142010913Y-65954773D03*
X142293755Y-66237615D03*
X142576598Y-66520458D03*
X142859441Y-66803301D03*
%TD*%
D46*
%TO.C,C35*%
X137700000Y-111230000D03*
X137700000Y-110270000D03*
%TD*%
D13*
%TO.C,R30*%
X135700000Y-110240000D03*
X135700000Y-111260000D03*
%TD*%
D46*
%TO.C,C30*%
X143100000Y-111280000D03*
X143100000Y-110320000D03*
%TD*%
D35*
%TO.C,C62*%
X137944615Y-61728822D03*
X138623437Y-61050000D03*
%TD*%
M02*
