%TF.GenerationSoftware,KiCad,Pcbnew,9.0.5*%
%TF.CreationDate,2025-10-17T23:29:40-04:00*%
%TF.ProjectId,resc,72657363-2e6b-4696-9361-645f70636258,rev?*%
%TF.SameCoordinates,Original*%
%TF.FileFunction,Legend,Top*%
%TF.FilePolarity,Positive*%
%FSLAX46Y46*%
G04 Gerber Fmt 4.6, Leading zero omitted, Abs format (unit mm)*
G04 Created by KiCad (PCBNEW 9.0.5) date 2025-10-17 23:29:40*
%MOMM*%
%LPD*%
G01*
G04 APERTURE LIST*
%ADD10C,0.250000*%
%ADD11C,0.300000*%
%ADD12C,0.120000*%
%ADD13C,0.127000*%
%ADD14C,0.100000*%
%ADD15C,0.200000*%
G04 APERTURE END LIST*
D10*
G36*
X154802791Y-59600000D02*
G01*
X154954039Y-58841198D01*
X155206036Y-58841198D01*
X155162622Y-59056803D01*
X155137404Y-58995193D01*
X155175684Y-58939153D01*
X155219845Y-58896817D01*
X155270394Y-58866416D01*
X155326668Y-58845948D01*
X155390655Y-58833117D01*
X155463651Y-58828620D01*
X155417428Y-59067978D01*
X155386593Y-59064558D01*
X155357222Y-59063825D01*
X155300655Y-59068815D01*
X155253913Y-59082823D01*
X155215073Y-59105102D01*
X155183913Y-59136488D01*
X155159204Y-59180790D01*
X155141617Y-59241573D01*
X155068833Y-59600000D01*
X154802791Y-59600000D01*
G37*
G36*
X155840823Y-59612578D02*
G01*
X155760549Y-59607497D01*
X155690355Y-59593009D01*
X155628759Y-59569897D01*
X155572200Y-59537000D01*
X155525657Y-59497010D01*
X155488015Y-59449546D01*
X155460431Y-59395727D01*
X155443508Y-59335307D01*
X155437639Y-59266791D01*
X155444259Y-59184382D01*
X155463501Y-59109979D01*
X155495037Y-59042149D01*
X155538273Y-58981110D01*
X155591603Y-58929284D01*
X155656054Y-58886017D01*
X155727180Y-58854695D01*
X155806892Y-58835343D01*
X155896877Y-58828620D01*
X155973427Y-58833660D01*
X156039374Y-58847949D01*
X156096362Y-58870629D01*
X156148302Y-58902721D01*
X156190899Y-58941531D01*
X156225139Y-58987500D01*
X156250043Y-59039162D01*
X156265333Y-59096840D01*
X156270630Y-59161828D01*
X156266416Y-59226247D01*
X156255242Y-59286392D01*
X155646223Y-59286392D01*
X155671441Y-59146379D01*
X156132022Y-59146379D01*
X156021441Y-59186985D01*
X156026100Y-59134792D01*
X156017960Y-59095333D01*
X155998339Y-59062414D01*
X155968929Y-59037936D01*
X155931897Y-59022996D01*
X155884237Y-59017602D01*
X155842418Y-59021470D01*
X155807654Y-59032376D01*
X155778541Y-59049842D01*
X155742958Y-59087160D01*
X155716931Y-59137342D01*
X155701839Y-59194233D01*
X155696659Y-59257021D01*
X155702108Y-59307424D01*
X155716885Y-59344868D01*
X155740012Y-59372548D01*
X155771140Y-59391984D01*
X155813422Y-59404819D01*
X155870255Y-59409612D01*
X155920047Y-59405593D01*
X155968929Y-59393492D01*
X156014701Y-59373826D01*
X156053681Y-59348002D01*
X156164262Y-59514576D01*
X156115028Y-59546827D01*
X156063570Y-59571946D01*
X156009534Y-59590230D01*
X155925618Y-59607004D01*
X155840823Y-59612578D01*
G37*
G36*
X156502172Y-59600000D02*
G01*
X156341155Y-58841198D01*
X156604326Y-58841198D01*
X156730356Y-59476779D01*
X156593152Y-59476779D01*
X156978140Y-58841198D01*
X157241373Y-58841198D01*
X156777922Y-59600000D01*
X156502172Y-59600000D01*
G37*
G36*
X157869504Y-59619600D02*
G01*
X157765002Y-59612656D01*
X157667882Y-59592306D01*
X157605982Y-59570786D01*
X157550683Y-59543924D01*
X157501308Y-59511828D01*
X157630085Y-59314419D01*
X157686411Y-59348803D01*
X157751169Y-59374624D01*
X157819539Y-59390422D01*
X157887700Y-59395629D01*
X157942616Y-59392009D01*
X157984299Y-59382318D01*
X158019636Y-59365284D01*
X158043772Y-59343117D01*
X158058890Y-59314988D01*
X158064105Y-59280774D01*
X158060451Y-59255427D01*
X158050060Y-59235345D01*
X158032598Y-59219225D01*
X157995901Y-59204306D01*
X157933923Y-59198220D01*
X157814916Y-59198220D01*
X157849904Y-59023220D01*
X158164916Y-58738982D01*
X158180303Y-58834176D01*
X157676308Y-58834176D01*
X157719722Y-58619975D01*
X158428088Y-58619975D01*
X158394504Y-58793571D01*
X158079492Y-59077808D01*
X157953524Y-59003620D01*
X158015073Y-59003620D01*
X158082703Y-59007431D01*
X158140826Y-59018191D01*
X158190806Y-59035127D01*
X158237018Y-59059745D01*
X158274442Y-59089766D01*
X158304196Y-59125375D01*
X158326060Y-59166202D01*
X158339435Y-59212013D01*
X158344068Y-59263982D01*
X158337224Y-59330091D01*
X158317059Y-59390533D01*
X158283191Y-59446737D01*
X158238538Y-59495541D01*
X158182842Y-59537754D01*
X158114480Y-59573438D01*
X158041285Y-59598577D01*
X157960048Y-59614183D01*
X157869504Y-59619600D01*
G37*
G36*
X160915740Y-58879696D02*
G01*
X160916173Y-58879283D01*
X160959176Y-58849225D01*
X161006420Y-58826968D01*
X161058790Y-58813331D01*
X161117384Y-58808620D01*
X161171428Y-58813129D01*
X161223218Y-58826578D01*
X161273456Y-58849225D01*
X161319062Y-58879993D01*
X161358588Y-58918678D01*
X161392463Y-58966095D01*
X161417072Y-59018793D01*
X161432544Y-59080473D01*
X161438014Y-59153002D01*
X161434303Y-59215823D01*
X161423468Y-59273943D01*
X161405774Y-59328002D01*
X161381362Y-59379373D01*
X161351763Y-59425668D01*
X161316870Y-59467342D01*
X161277008Y-59504152D01*
X161233502Y-59534851D01*
X161186017Y-59559727D01*
X161135662Y-59577878D01*
X161082645Y-59588855D01*
X161026404Y-59592578D01*
X160972874Y-59589207D01*
X160925071Y-59579505D01*
X160882178Y-59563879D01*
X160843374Y-59541063D01*
X160810910Y-59510996D01*
X160784249Y-59473003D01*
X160763171Y-59580000D01*
X160509769Y-59580000D01*
X160578752Y-59234213D01*
X160844382Y-59234213D01*
X160848908Y-59276545D01*
X160861637Y-59310953D01*
X160882178Y-59339176D01*
X160909711Y-59360354D01*
X160944477Y-59373607D01*
X160988607Y-59378377D01*
X161039183Y-59371584D01*
X161082397Y-59351816D01*
X161118284Y-59320348D01*
X161146083Y-59277627D01*
X161163185Y-59227356D01*
X161169225Y-59166985D01*
X161164708Y-59124643D01*
X161151969Y-59089989D01*
X161131367Y-59061350D01*
X161103779Y-59039741D01*
X161069029Y-59026260D01*
X161025000Y-59021416D01*
X160975574Y-59028315D01*
X160931882Y-59048710D01*
X160895409Y-59080774D01*
X160867463Y-59123632D01*
X160850409Y-59173846D01*
X160844382Y-59234213D01*
X160578752Y-59234213D01*
X160717009Y-58541174D01*
X160982990Y-58541174D01*
X160915740Y-58879696D01*
G37*
G36*
X161549572Y-59864176D02*
G01*
X161489783Y-59859663D01*
X161429893Y-59845980D01*
X161374603Y-59824028D01*
X161335371Y-59798414D01*
X161454378Y-59610774D01*
X161479494Y-59628400D01*
X161507562Y-59642281D01*
X161537999Y-59651140D01*
X161571981Y-59654188D01*
X161608956Y-59649116D01*
X161639148Y-59634588D01*
X161665216Y-59610825D01*
X161692393Y-59572978D01*
X161746981Y-59484806D01*
X161769391Y-59458183D01*
X162151570Y-58821198D01*
X162411994Y-58821198D01*
X161926195Y-59613583D01*
X161865280Y-59703342D01*
X161811339Y-59764769D01*
X161772147Y-59798425D01*
X161732576Y-59823814D01*
X161692332Y-59841767D01*
X161626759Y-59858320D01*
X161549572Y-59864176D01*
G37*
G36*
X161689584Y-59612178D02*
G01*
X161511775Y-58821198D01*
X161776352Y-58821198D01*
X161902381Y-59434370D01*
X161689584Y-59612178D01*
G37*
G36*
X162736287Y-59580000D02*
G01*
X162887534Y-58821198D01*
X163139532Y-58821198D01*
X163096118Y-59036803D01*
X163070900Y-58975193D01*
X163109180Y-58919153D01*
X163153340Y-58876817D01*
X163203890Y-58846416D01*
X163260164Y-58825948D01*
X163324151Y-58813117D01*
X163397147Y-58808620D01*
X163350924Y-59047978D01*
X163320088Y-59044558D01*
X163290718Y-59043825D01*
X163234151Y-59048815D01*
X163187409Y-59062823D01*
X163148569Y-59085102D01*
X163117409Y-59116488D01*
X163092699Y-59160790D01*
X163075113Y-59221573D01*
X163002329Y-59580000D01*
X162736287Y-59580000D01*
G37*
G36*
X163774319Y-59592578D02*
G01*
X163694045Y-59587497D01*
X163623851Y-59573009D01*
X163562255Y-59549897D01*
X163505696Y-59517000D01*
X163459152Y-59477010D01*
X163421510Y-59429546D01*
X163393926Y-59375727D01*
X163377004Y-59315307D01*
X163371135Y-59246791D01*
X163377755Y-59164382D01*
X163396996Y-59089979D01*
X163428532Y-59022149D01*
X163471769Y-58961110D01*
X163525098Y-58909284D01*
X163589549Y-58866017D01*
X163660676Y-58834695D01*
X163740388Y-58815343D01*
X163830373Y-58808620D01*
X163906923Y-58813660D01*
X163972870Y-58827949D01*
X164029858Y-58850629D01*
X164081798Y-58882721D01*
X164124395Y-58921531D01*
X164158635Y-58967500D01*
X164183539Y-59019162D01*
X164198829Y-59076840D01*
X164204125Y-59141828D01*
X164199912Y-59206247D01*
X164188738Y-59266392D01*
X163579719Y-59266392D01*
X163604937Y-59126379D01*
X164065518Y-59126379D01*
X163954937Y-59166985D01*
X163959596Y-59114792D01*
X163951456Y-59075333D01*
X163931834Y-59042414D01*
X163902424Y-59017936D01*
X163865392Y-59002996D01*
X163817733Y-58997602D01*
X163775914Y-59001470D01*
X163741150Y-59012376D01*
X163712037Y-59029842D01*
X163676454Y-59067160D01*
X163650427Y-59117342D01*
X163635335Y-59174233D01*
X163630155Y-59237021D01*
X163635604Y-59287424D01*
X163650381Y-59324868D01*
X163673508Y-59352548D01*
X163704636Y-59371984D01*
X163746917Y-59384819D01*
X163803750Y-59389612D01*
X163853543Y-59385593D01*
X163902424Y-59373492D01*
X163948196Y-59353826D01*
X163987177Y-59328002D01*
X164097758Y-59494576D01*
X164048523Y-59526827D01*
X163997066Y-59551946D01*
X163943030Y-59570230D01*
X163859114Y-59587004D01*
X163774319Y-59592578D01*
G37*
G36*
X164312447Y-59864176D02*
G01*
X164252658Y-59859663D01*
X164192768Y-59845980D01*
X164137478Y-59824028D01*
X164098246Y-59798414D01*
X164217254Y-59610774D01*
X164242369Y-59628400D01*
X164270437Y-59642281D01*
X164300875Y-59651140D01*
X164334856Y-59654188D01*
X164371831Y-59649116D01*
X164402023Y-59634588D01*
X164428091Y-59610825D01*
X164455268Y-59572978D01*
X164509856Y-59484806D01*
X164532266Y-59458183D01*
X164914445Y-58821198D01*
X165174869Y-58821198D01*
X164689070Y-59613583D01*
X164628155Y-59703342D01*
X164574214Y-59764769D01*
X164535022Y-59798425D01*
X164495451Y-59823814D01*
X164455207Y-59841767D01*
X164389634Y-59858320D01*
X164312447Y-59864176D01*
G37*
G36*
X164452459Y-59612178D02*
G01*
X164274651Y-58821198D01*
X164539227Y-58821198D01*
X164665256Y-59434370D01*
X164452459Y-59612178D01*
G37*
G36*
X165350785Y-59451222D02*
G01*
X165409586Y-59120823D01*
X165763799Y-58821198D01*
X166099816Y-58821198D01*
X165676971Y-59186585D01*
X165525785Y-59297227D01*
X165350785Y-59451222D01*
G37*
G36*
X165091765Y-59580000D02*
G01*
X165299005Y-58541174D01*
X165564986Y-58541174D01*
X165357807Y-59580000D01*
X165091765Y-59580000D01*
G37*
G36*
X165654623Y-59580000D02*
G01*
X165479623Y-59288801D01*
X165667201Y-59085774D01*
X165965422Y-59580000D01*
X165654623Y-59580000D01*
G37*
G36*
X166489118Y-58812881D02*
G01*
X166541639Y-58825002D01*
X166587264Y-58844340D01*
X166627064Y-58872430D01*
X166659343Y-58910147D01*
X166660406Y-58912215D01*
X166678977Y-58821198D01*
X166944958Y-58821198D01*
X166793771Y-59580000D01*
X166541774Y-59580000D01*
X166556983Y-59507228D01*
X166515151Y-59541531D01*
X166462685Y-59569534D01*
X166403931Y-59586652D01*
X166337404Y-59592578D01*
X166284271Y-59588112D01*
X166232694Y-59574717D01*
X166182004Y-59552034D01*
X166136013Y-59521153D01*
X166096249Y-59482231D01*
X166062264Y-59434431D01*
X166037664Y-59381270D01*
X166022224Y-59319326D01*
X166016774Y-59246791D01*
X166017516Y-59234213D01*
X166285563Y-59234213D01*
X166290089Y-59276545D01*
X166302818Y-59310953D01*
X166323360Y-59339176D01*
X166350892Y-59360354D01*
X166385659Y-59373607D01*
X166429788Y-59378377D01*
X166480364Y-59371584D01*
X166523578Y-59351816D01*
X166559465Y-59320348D01*
X166587264Y-59277627D01*
X166604366Y-59227356D01*
X166610406Y-59166985D01*
X166605895Y-59124638D01*
X166593176Y-59089985D01*
X166572609Y-59061350D01*
X166545020Y-59039744D01*
X166510252Y-59026261D01*
X166466181Y-59021416D01*
X166416755Y-59028315D01*
X166373063Y-59048710D01*
X166336590Y-59080774D01*
X166308644Y-59123632D01*
X166291590Y-59173846D01*
X166285563Y-59234213D01*
X166017516Y-59234213D01*
X166020478Y-59183967D01*
X166031293Y-59125847D01*
X166048953Y-59071791D01*
X166073425Y-59020444D01*
X166103028Y-58974403D01*
X166137857Y-58933183D01*
X166177742Y-58896824D01*
X166221485Y-58866355D01*
X166269443Y-58841531D01*
X166320259Y-58823287D01*
X166373069Y-58812319D01*
X166428384Y-58808620D01*
X166489118Y-58812881D01*
G37*
G36*
X167299659Y-59592578D02*
G01*
X167241705Y-59588484D01*
X167191740Y-59576857D01*
X167148473Y-59558323D01*
X167110348Y-59531729D01*
X167080734Y-59498419D01*
X167058836Y-59457512D01*
X167046450Y-59412485D01*
X167043216Y-59360111D01*
X167050471Y-59298571D01*
X167179248Y-58651816D01*
X167445289Y-58651816D01*
X167316451Y-59297227D01*
X167315730Y-59337417D01*
X167326282Y-59363722D01*
X167347664Y-59380466D01*
X167383679Y-59386803D01*
X167424284Y-59381247D01*
X167463485Y-59364394D01*
X167497069Y-59547821D01*
X167453226Y-59568098D01*
X167403951Y-59582076D01*
X167352443Y-59589940D01*
X167299659Y-59592578D01*
G37*
G36*
X166988860Y-59047978D02*
G01*
X167029466Y-58849225D01*
X167578279Y-58849225D01*
X167539078Y-59047978D01*
X166988860Y-59047978D01*
G37*
G36*
X168136765Y-58813724D02*
G01*
X168206476Y-58828233D01*
X168267166Y-58851301D01*
X168322787Y-58884134D01*
X168368373Y-58923899D01*
X168405041Y-58970980D01*
X168431834Y-59024252D01*
X168448334Y-59084420D01*
X168454073Y-59153002D01*
X168447168Y-59235278D01*
X168427030Y-59309919D01*
X168393867Y-59378377D01*
X168348867Y-59439848D01*
X168294113Y-59491900D01*
X168228637Y-59535181D01*
X168156668Y-59566590D01*
X168076927Y-59585900D01*
X167987875Y-59592578D01*
X167908545Y-59587430D01*
X167839015Y-59572730D01*
X167777826Y-59549225D01*
X167721797Y-59515886D01*
X167675974Y-59475652D01*
X167639218Y-59428142D01*
X167612386Y-59374429D01*
X167595941Y-59314444D01*
X167590247Y-59246791D01*
X167591305Y-59234213D01*
X167860441Y-59234213D01*
X167864983Y-59277507D01*
X167877731Y-59312613D01*
X167898237Y-59341313D01*
X167925792Y-59362949D01*
X167960134Y-59376381D01*
X168003262Y-59381186D01*
X168053789Y-59374219D01*
X168097051Y-59353892D01*
X168132970Y-59321888D01*
X168160737Y-59279031D01*
X168177805Y-59228586D01*
X168183879Y-59166985D01*
X168179546Y-59126387D01*
X168167129Y-59091834D01*
X168146755Y-59062021D01*
X168119446Y-59039223D01*
X168084943Y-59025084D01*
X168041058Y-59020012D01*
X167990487Y-59026819D01*
X167947269Y-59046634D01*
X167911421Y-59078171D01*
X167883522Y-59121495D01*
X167866483Y-59172516D01*
X167860441Y-59234213D01*
X167591305Y-59234213D01*
X167597165Y-59164526D01*
X167617313Y-59090140D01*
X167650453Y-59022149D01*
X167695408Y-58961094D01*
X167750138Y-58909256D01*
X167815622Y-58866017D01*
X167887630Y-58834606D01*
X167967393Y-58815296D01*
X168056446Y-58808620D01*
X168136765Y-58813724D01*
G37*
G36*
X160516416Y-61080000D02*
G01*
X160551404Y-60906404D01*
X160979806Y-60573196D01*
X161058147Y-60503220D01*
X161083012Y-60473279D01*
X161098080Y-60447227D01*
X161107077Y-60420307D01*
X161109987Y-60393982D01*
X161106486Y-60368370D01*
X161096336Y-60346787D01*
X161079152Y-60328220D01*
X161057237Y-60314886D01*
X161028493Y-60306202D01*
X160990980Y-60303002D01*
X160941843Y-60309377D01*
X160893710Y-60328892D01*
X160849655Y-60359385D01*
X160809019Y-60401004D01*
X160624188Y-60279188D01*
X160668079Y-60223441D01*
X160723124Y-60175249D01*
X160790762Y-60134291D01*
X160864366Y-60104720D01*
X160944686Y-60086605D01*
X161032990Y-60080375D01*
X161103262Y-60084517D01*
X161165676Y-60096394D01*
X161221301Y-60115423D01*
X161273185Y-60142475D01*
X161315213Y-60174437D01*
X161348674Y-60211350D01*
X161373895Y-60253844D01*
X161389044Y-60300331D01*
X161394225Y-60351973D01*
X161388968Y-60409766D01*
X161373220Y-60465423D01*
X161346192Y-60518722D01*
X161302512Y-60576737D01*
X161246647Y-60632909D01*
X161164576Y-60700629D01*
X160830024Y-60959588D01*
X160792227Y-60860181D01*
X161324188Y-60860181D01*
X161279370Y-61080000D01*
X160516416Y-61080000D01*
G37*
G36*
X162040005Y-60085688D02*
G01*
X162104139Y-60100860D01*
X162160354Y-60125193D01*
X162210858Y-60159395D01*
X162253093Y-60202051D01*
X162287726Y-60254031D01*
X162312246Y-60311697D01*
X162327733Y-60379182D01*
X162333217Y-60458401D01*
X162328804Y-60547359D01*
X162315863Y-60630924D01*
X162294687Y-60709727D01*
X162265061Y-60785592D01*
X162229110Y-60853457D01*
X162186915Y-60914098D01*
X162137401Y-60968573D01*
X162082708Y-61013878D01*
X162022418Y-61050629D01*
X161957413Y-61077631D01*
X161887753Y-61094011D01*
X161812430Y-61099600D01*
X161738885Y-61094307D01*
X161674508Y-61079167D01*
X161617829Y-61054842D01*
X161566909Y-61020572D01*
X161524675Y-60977910D01*
X161490396Y-60926004D01*
X161466283Y-60868345D01*
X161451038Y-60800835D01*
X161445638Y-60721573D01*
X161445977Y-60714612D01*
X161724258Y-60714612D01*
X161728543Y-60770969D01*
X161739628Y-60810063D01*
X161755704Y-60836428D01*
X161778816Y-60856549D01*
X161806156Y-60868615D01*
X161839052Y-60872821D01*
X161873749Y-60868273D01*
X161905138Y-60854768D01*
X161934246Y-60831543D01*
X161970643Y-60785865D01*
X162001413Y-60727191D01*
X162024610Y-60662759D01*
X162041346Y-60594200D01*
X162051495Y-60525402D01*
X162054658Y-60465423D01*
X162050363Y-60409030D01*
X162039256Y-60369942D01*
X162023150Y-60343607D01*
X162000040Y-60323483D01*
X161972719Y-60311419D01*
X161939863Y-60307215D01*
X161905126Y-60311764D01*
X161873717Y-60325271D01*
X161844609Y-60348492D01*
X161808250Y-60394113D01*
X161777442Y-60452784D01*
X161754246Y-60517224D01*
X161737508Y-60585835D01*
X161727406Y-60654633D01*
X161724258Y-60714612D01*
X161445977Y-60714612D01*
X161449969Y-60632592D01*
X161462668Y-60549044D01*
X161483435Y-60470308D01*
X161512735Y-60394464D01*
X161548680Y-60326581D01*
X161591207Y-60265877D01*
X161641165Y-60211376D01*
X161696109Y-60166093D01*
X161756437Y-60129406D01*
X161821444Y-60102370D01*
X161891104Y-60085970D01*
X161966425Y-60080375D01*
X162040005Y-60085688D01*
G37*
G36*
X162303297Y-61080000D02*
G01*
X162338285Y-60906404D01*
X162766687Y-60573196D01*
X162845027Y-60503220D01*
X162869893Y-60473279D01*
X162884961Y-60447227D01*
X162893957Y-60420307D01*
X162896868Y-60393982D01*
X162893366Y-60368370D01*
X162883217Y-60346787D01*
X162866032Y-60328220D01*
X162844118Y-60314886D01*
X162815373Y-60306202D01*
X162777861Y-60303002D01*
X162728724Y-60309377D01*
X162680591Y-60328892D01*
X162636536Y-60359385D01*
X162595900Y-60401004D01*
X162411069Y-60279188D01*
X162454960Y-60223441D01*
X162510005Y-60175249D01*
X162577643Y-60134291D01*
X162651247Y-60104720D01*
X162731567Y-60086605D01*
X162819870Y-60080375D01*
X162890143Y-60084517D01*
X162952556Y-60096394D01*
X163008182Y-60115423D01*
X163060066Y-60142475D01*
X163102094Y-60174437D01*
X163135554Y-60211350D01*
X163160776Y-60253844D01*
X163175925Y-60300331D01*
X163181106Y-60351973D01*
X163175849Y-60409766D01*
X163160101Y-60465423D01*
X163133073Y-60518722D01*
X163089392Y-60576737D01*
X163033528Y-60632909D01*
X162951456Y-60700629D01*
X162616905Y-60959588D01*
X162579108Y-60860181D01*
X163111069Y-60860181D01*
X163066250Y-61080000D01*
X162303297Y-61080000D01*
G37*
G36*
X163506926Y-61099600D02*
G01*
X163402326Y-61092669D01*
X163304570Y-61072306D01*
X163242259Y-61050705D01*
X163187240Y-61023829D01*
X163138729Y-60991828D01*
X163267506Y-60794419D01*
X163322708Y-60828741D01*
X163387247Y-60854624D01*
X163455794Y-60870398D01*
X163525122Y-60875629D01*
X163581562Y-60871711D01*
X163624206Y-60861221D01*
X163656036Y-60845526D01*
X163681584Y-60822540D01*
X163696421Y-60795256D01*
X163701526Y-60762178D01*
X163697580Y-60736048D01*
X163686142Y-60714520D01*
X163666538Y-60696416D01*
X163641705Y-60684546D01*
X163602849Y-60675991D01*
X163544722Y-60672602D01*
X163263293Y-60672602D01*
X163427119Y-60099975D01*
X164050122Y-60099975D01*
X164006707Y-60314176D01*
X163481707Y-60314176D01*
X163648342Y-60192421D01*
X163537700Y-60578813D01*
X163421502Y-60456997D01*
X163614698Y-60456997D01*
X163706862Y-60462275D01*
X163781240Y-60476766D01*
X163840899Y-60498886D01*
X163888433Y-60527705D01*
X163928830Y-60566445D01*
X163957531Y-60612042D01*
X163975291Y-60665860D01*
X163981550Y-60730000D01*
X163974446Y-60803547D01*
X163953857Y-60868538D01*
X163919940Y-60926737D01*
X163874641Y-60977224D01*
X163818892Y-61019860D01*
X163751229Y-61054842D01*
X163678541Y-61079180D01*
X163597534Y-61094331D01*
X163506926Y-61099600D01*
G37*
G36*
X164075889Y-60783183D02*
G01*
X164116495Y-60578813D01*
X164523892Y-60578813D01*
X164483286Y-60783183D01*
X164075889Y-60783183D01*
G37*
G36*
X164649860Y-61080000D02*
G01*
X164824860Y-60203595D01*
X164921458Y-60314176D01*
X164620490Y-60314176D01*
X164663843Y-60099975D01*
X165123080Y-60099975D01*
X164927076Y-61080000D01*
X164649860Y-61080000D01*
G37*
G36*
X165753473Y-60085688D02*
G01*
X165817608Y-60100860D01*
X165873822Y-60125193D01*
X165924327Y-60159395D01*
X165966562Y-60202051D01*
X166001195Y-60254031D01*
X166025715Y-60311697D01*
X166041201Y-60379182D01*
X166046685Y-60458401D01*
X166042273Y-60547359D01*
X166029332Y-60630924D01*
X166008155Y-60709727D01*
X165978530Y-60785592D01*
X165942578Y-60853457D01*
X165900383Y-60914098D01*
X165850869Y-60968573D01*
X165796176Y-61013878D01*
X165735886Y-61050629D01*
X165670882Y-61077631D01*
X165601221Y-61094011D01*
X165525898Y-61099600D01*
X165452353Y-61094307D01*
X165387977Y-61079167D01*
X165331297Y-61054842D01*
X165280377Y-61020572D01*
X165238144Y-60977910D01*
X165203864Y-60926004D01*
X165179751Y-60868345D01*
X165164507Y-60800835D01*
X165159106Y-60721573D01*
X165159445Y-60714612D01*
X165437726Y-60714612D01*
X165442011Y-60770969D01*
X165453096Y-60810063D01*
X165469173Y-60836428D01*
X165492284Y-60856549D01*
X165519624Y-60868615D01*
X165552520Y-60872821D01*
X165587218Y-60868273D01*
X165618607Y-60854768D01*
X165647714Y-60831543D01*
X165684111Y-60785865D01*
X165714881Y-60727191D01*
X165738078Y-60662759D01*
X165754815Y-60594200D01*
X165764963Y-60525402D01*
X165768126Y-60465423D01*
X165763831Y-60409030D01*
X165752724Y-60369942D01*
X165736618Y-60343607D01*
X165713509Y-60323483D01*
X165686188Y-60311419D01*
X165653332Y-60307215D01*
X165618594Y-60311764D01*
X165587186Y-60325271D01*
X165558077Y-60348492D01*
X165521718Y-60394113D01*
X165490910Y-60452784D01*
X165467715Y-60517224D01*
X165450976Y-60585835D01*
X165440875Y-60654633D01*
X165437726Y-60714612D01*
X165159445Y-60714612D01*
X165163437Y-60632592D01*
X165176137Y-60549044D01*
X165196903Y-60470308D01*
X165226203Y-60394464D01*
X165262149Y-60326581D01*
X165304675Y-60265877D01*
X165354634Y-60211376D01*
X165409577Y-60166093D01*
X165469905Y-60129406D01*
X165534913Y-60102370D01*
X165604573Y-60085970D01*
X165679893Y-60080375D01*
X165753473Y-60085688D01*
G37*
G36*
X166114829Y-60783183D02*
G01*
X166155434Y-60578813D01*
X166562831Y-60578813D01*
X166522226Y-60783183D01*
X166114829Y-60783183D01*
G37*
G36*
X166688799Y-61080000D02*
G01*
X166863799Y-60203595D01*
X166960397Y-60314176D01*
X166659429Y-60314176D01*
X166702782Y-60099975D01*
X167162020Y-60099975D01*
X166966015Y-61080000D01*
X166688799Y-61080000D01*
G37*
G36*
X167472452Y-61099600D02*
G01*
X167367853Y-61092669D01*
X167270097Y-61072306D01*
X167207786Y-61050705D01*
X167152767Y-61023829D01*
X167104256Y-60991828D01*
X167233033Y-60794419D01*
X167288235Y-60828741D01*
X167352773Y-60854624D01*
X167421321Y-60870398D01*
X167490648Y-60875629D01*
X167547089Y-60871711D01*
X167589733Y-60861221D01*
X167621563Y-60845526D01*
X167647111Y-60822540D01*
X167661947Y-60795256D01*
X167667053Y-60762178D01*
X167663107Y-60736048D01*
X167651669Y-60714520D01*
X167632065Y-60696416D01*
X167607232Y-60684546D01*
X167568376Y-60675991D01*
X167510249Y-60672602D01*
X167228820Y-60672602D01*
X167392646Y-60099975D01*
X168015648Y-60099975D01*
X167972234Y-60314176D01*
X167447234Y-60314176D01*
X167613869Y-60192421D01*
X167503227Y-60578813D01*
X167387028Y-60456997D01*
X167580225Y-60456997D01*
X167672389Y-60462275D01*
X167746767Y-60476766D01*
X167806426Y-60498886D01*
X167853960Y-60527705D01*
X167894357Y-60566445D01*
X167923058Y-60612042D01*
X167940818Y-60665860D01*
X167947077Y-60730000D01*
X167939972Y-60803547D01*
X167919384Y-60868538D01*
X167885467Y-60926737D01*
X167840168Y-60977224D01*
X167784419Y-61019860D01*
X167716756Y-61054842D01*
X167644068Y-61079180D01*
X167563060Y-61094331D01*
X167472452Y-61099600D01*
G37*
D11*
G36*
X158461902Y-56910966D02*
G01*
X159974003Y-56910966D01*
X160422433Y-56187873D01*
X160322621Y-56188182D01*
X159422704Y-56187873D01*
X159224321Y-56187971D01*
X158974897Y-56187873D01*
X158804840Y-56187989D01*
X158730648Y-56187873D01*
X158820023Y-55947672D01*
X158949985Y-55597855D01*
X160818339Y-55597855D01*
X160871594Y-55604443D01*
X160922065Y-55623986D01*
X160968273Y-55655323D01*
X161010875Y-55698431D01*
X161048450Y-55751417D01*
X161081737Y-55814980D01*
X161114282Y-55901168D01*
X161120614Y-55921514D01*
X162033667Y-54874970D01*
X160607203Y-54876631D01*
X159643390Y-54876631D01*
X159645466Y-54883066D01*
X159216448Y-54876631D01*
X158072640Y-54876631D01*
X158101601Y-55211292D01*
X157550925Y-56699415D01*
X157120142Y-57860350D01*
X157120765Y-57860973D01*
X156984024Y-58005350D01*
X156929144Y-58049480D01*
X156889595Y-58075015D01*
X156991322Y-58222001D01*
X160635437Y-58222001D01*
X161084075Y-57497039D01*
X158243915Y-57497039D01*
X158461902Y-56910966D01*
G37*
G36*
X165211810Y-56647929D02*
G01*
X164950433Y-56550146D01*
X162919731Y-55788230D01*
X162949107Y-55708925D01*
X162995163Y-55626981D01*
X163022912Y-55603007D01*
X163051845Y-55592904D01*
X163056959Y-55592665D01*
X164866352Y-55592665D01*
X164918329Y-55599229D01*
X164967628Y-55618601D01*
X165013403Y-55649967D01*
X165055674Y-55692979D01*
X165093529Y-55746388D01*
X165127129Y-55810239D01*
X165161673Y-55901376D01*
X165168108Y-55921721D01*
X166078774Y-54876838D01*
X165127521Y-54876838D01*
X163246711Y-54877253D01*
X162262657Y-54876838D01*
X162264421Y-54883274D01*
X162109028Y-54877253D01*
X162138196Y-55214822D01*
X162139754Y-55214406D01*
X161973876Y-55655985D01*
X161856890Y-55969056D01*
X161845679Y-56001442D01*
X161845545Y-56001950D01*
X161830739Y-56079074D01*
X161826422Y-56145506D01*
X161832392Y-56220467D01*
X161856761Y-56298062D01*
X161892028Y-56342860D01*
X161904847Y-56351051D01*
X164171494Y-57298775D01*
X164138692Y-57380779D01*
X164092241Y-57463025D01*
X164064387Y-57487016D01*
X164035420Y-57497035D01*
X164030633Y-57497246D01*
X162007508Y-57497246D01*
X161955499Y-57490666D01*
X161906162Y-57471173D01*
X161860589Y-57439730D01*
X161818383Y-57396492D01*
X161780448Y-57342671D01*
X161746529Y-57278077D01*
X161710216Y-57182308D01*
X161027502Y-58222001D01*
X164815385Y-58222001D01*
X165262258Y-57030547D01*
X165289611Y-56916528D01*
X165293482Y-56857467D01*
X165290727Y-56801320D01*
X165281729Y-56750726D01*
X165266774Y-56707450D01*
X165247370Y-56675213D01*
X165223117Y-56653417D01*
X165211810Y-56647929D01*
G37*
G36*
X168619773Y-54877046D02*
G01*
X167700595Y-54877046D01*
X167703606Y-54883689D01*
X167353909Y-54877124D01*
X167330433Y-54877046D01*
X166193061Y-54877046D01*
X166223164Y-55224787D01*
X166227628Y-55209009D01*
X165388690Y-57457801D01*
X165363091Y-57537694D01*
X165344479Y-57619022D01*
X165332394Y-57702429D01*
X165327113Y-57784471D01*
X165328431Y-57864791D01*
X165336191Y-57940695D01*
X165349976Y-58010140D01*
X165369551Y-58072269D01*
X165393825Y-58124168D01*
X165423042Y-58166430D01*
X165455740Y-58196842D01*
X165492596Y-58215769D01*
X165531731Y-58222001D01*
X168784508Y-58222001D01*
X168953915Y-57748035D01*
X169030833Y-57549356D01*
X168104701Y-57542505D01*
X167669558Y-57540013D01*
X166755052Y-57536484D01*
X166349389Y-57534616D01*
X167068953Y-55598686D01*
X168960351Y-55598686D01*
X169012344Y-55611152D01*
X169061372Y-55636336D01*
X169105869Y-55672866D01*
X169146600Y-55720915D01*
X169182153Y-55778411D01*
X169213277Y-55846260D01*
X169232834Y-55901791D01*
X169239166Y-55922137D01*
X169523276Y-55598686D01*
X169527636Y-55598686D01*
X169538016Y-55581039D01*
X170158136Y-54874970D01*
X168619773Y-54877046D01*
G37*
G36*
X157400865Y-55560971D02*
G01*
X157391197Y-55525688D01*
X157376951Y-55498161D01*
X157358880Y-55479311D01*
X157337701Y-55470007D01*
X157328569Y-55469160D01*
X153776203Y-55469160D01*
X153803168Y-55744080D01*
X152877878Y-57925828D01*
X152750250Y-58044923D01*
X152698213Y-58081752D01*
X152660795Y-58102953D01*
X152756636Y-58224000D01*
X153682512Y-58224000D01*
X153935645Y-57626801D01*
X153929392Y-57632101D01*
X154139930Y-57144837D01*
X154390132Y-56555161D01*
X154485387Y-56330165D01*
X154548011Y-56182276D01*
X154549085Y-56180053D01*
X154598618Y-56063281D01*
X156288876Y-56063281D01*
X156298255Y-56075249D01*
X156294836Y-56101920D01*
X156214919Y-56290158D01*
X156104912Y-56549861D01*
X154710774Y-56547126D01*
X154319692Y-57147060D01*
X155153538Y-57147060D01*
X155732588Y-58223658D01*
X156663838Y-58223658D01*
X156189225Y-57340085D01*
X156975296Y-56693134D01*
X157379176Y-55741344D01*
X157402818Y-55651316D01*
X157405183Y-55605089D01*
X157400871Y-55561005D01*
X157400865Y-55560971D01*
G37*
D12*
%TO.C,TP8*%
X142950000Y-71950000D02*
G75*
G02*
X141550000Y-71950000I-700000J0D01*
G01*
X141550000Y-71950000D02*
G75*
G02*
X142950000Y-71950000I700000J0D01*
G01*
%TO.C,D10*%
X136020244Y-69177675D02*
X133715076Y-71482843D01*
X137222325Y-70379756D02*
X134917157Y-72684924D01*
X137222325Y-70379756D02*
X136020244Y-69177675D01*
%TO.C,R26*%
X140720000Y-110646359D02*
X140720000Y-110953641D01*
X141480000Y-110646359D02*
X141480000Y-110953641D01*
%TO.C,C59*%
X139545130Y-59719190D02*
X139392627Y-59871693D01*
X140054247Y-60228307D02*
X139901744Y-60380810D01*
%TO.C,C47*%
X145240000Y-110692164D02*
X145240000Y-110907836D01*
X145960000Y-110692164D02*
X145960000Y-110907836D01*
%TO.C,C41*%
X153640000Y-75236252D02*
X153640000Y-73813748D01*
X156360000Y-75236252D02*
X156360000Y-73813748D01*
%TO.C,C39*%
X153640000Y-89386252D02*
X153640000Y-87963748D01*
X156360000Y-89386252D02*
X156360000Y-87963748D01*
D13*
%TO.C,R36*%
X164940577Y-75091833D02*
X164940577Y-70631833D01*
X170440577Y-75091833D02*
X170440577Y-70631833D01*
%TO.C,U6*%
X133480000Y-108265000D02*
X133480000Y-107015000D01*
X135820000Y-107015000D02*
X135820000Y-108265000D01*
D12*
%TO.C,R46*%
X128683283Y-71120684D02*
X128900564Y-71337965D01*
X129220684Y-70583283D02*
X129437965Y-70800564D01*
%TO.C,C43*%
X153740000Y-113886252D02*
X153740000Y-112463748D01*
X156460000Y-113886252D02*
X156460000Y-112463748D01*
%TO.C,U10*%
X133105000Y-113590000D02*
X133200000Y-113590000D01*
X133105000Y-117710000D02*
X133105000Y-113590000D01*
X133200000Y-117710000D02*
X133105000Y-117710000D01*
X138130000Y-113590000D02*
X138225000Y-113590000D01*
X138225000Y-113590000D02*
X138225000Y-117710000D01*
X138225000Y-117710000D02*
X138130000Y-117710000D01*
X138465000Y-113290000D02*
X138135000Y-113050000D01*
X138465000Y-112810000D01*
X138465000Y-113290000D01*
G36*
X138465000Y-113290000D02*
G01*
X138135000Y-113050000D01*
X138465000Y-112810000D01*
X138465000Y-113290000D01*
G37*
%TO.C,C12*%
X146508601Y-72067718D02*
X146661104Y-72220221D01*
X147017718Y-71558601D02*
X147170221Y-71711104D01*
%TO.C,J3*%
X121390000Y-94590000D02*
X121390000Y-112710000D01*
X121390000Y-112710000D02*
X126110000Y-112710000D01*
X122000000Y-95200000D02*
X122000000Y-112100000D01*
X122000000Y-97550000D02*
X122500000Y-97550000D01*
X122000000Y-97650000D02*
X122500000Y-97650000D01*
X122000000Y-99550000D02*
X122500000Y-99550000D01*
X122000000Y-99650000D02*
X122500000Y-99650000D01*
X122000000Y-101550000D02*
X122500000Y-101550000D01*
X122000000Y-101650000D02*
X122500000Y-101650000D01*
X122000000Y-103550000D02*
X122500000Y-103550000D01*
X122000000Y-103650000D02*
X122500000Y-103650000D01*
X122000000Y-105550000D02*
X122500000Y-105550000D01*
X122000000Y-105650000D02*
X122500000Y-105650000D01*
X122000000Y-107550000D02*
X122500000Y-107550000D01*
X122000000Y-107650000D02*
X122500000Y-107650000D01*
X122000000Y-109550000D02*
X122500000Y-109550000D01*
X122000000Y-109650000D02*
X122500000Y-109650000D01*
X122000000Y-112100000D02*
X125500000Y-112100000D01*
X122500000Y-97550000D02*
X122500000Y-97750000D01*
X122500000Y-97750000D02*
X122000000Y-97750000D01*
X122500000Y-99550000D02*
X122500000Y-99750000D01*
X122500000Y-99750000D02*
X122000000Y-99750000D01*
X122500000Y-101550000D02*
X122500000Y-101750000D01*
X122500000Y-101750000D02*
X122000000Y-101750000D01*
X122500000Y-103550000D02*
X122500000Y-103750000D01*
X122500000Y-103750000D02*
X122000000Y-103750000D01*
X122500000Y-105550000D02*
X122500000Y-105750000D01*
X122500000Y-105750000D02*
X122000000Y-105750000D01*
X122500000Y-107550000D02*
X122500000Y-107750000D01*
X122500000Y-107750000D02*
X122000000Y-107750000D01*
X122500000Y-109550000D02*
X122500000Y-109750000D01*
X122500000Y-109750000D02*
X122000000Y-109750000D01*
X123500000Y-94590000D02*
X123500000Y-95200000D01*
X123500000Y-112710000D02*
X123500000Y-112100000D01*
X124800000Y-94590000D02*
X124800000Y-95200000D01*
X124800000Y-112710000D02*
X124800000Y-112100000D01*
X125500000Y-95200000D02*
X122000000Y-95200000D01*
X125500000Y-97150000D02*
X125500000Y-95200000D01*
X125500000Y-110150000D02*
X126110000Y-110150000D01*
X125500000Y-112100000D02*
X125500000Y-110150000D01*
X126110000Y-94590000D02*
X121390000Y-94590000D01*
X126110000Y-96350000D02*
X126310000Y-96350000D01*
X126110000Y-97150000D02*
X125500000Y-97150000D01*
X126110000Y-112710000D02*
X126110000Y-94590000D01*
X126210000Y-96350000D02*
X126210000Y-96050000D01*
X126310000Y-96050000D02*
X126110000Y-96050000D01*
X126310000Y-96350000D02*
X126310000Y-96050000D01*
X126410000Y-94290000D02*
X125160000Y-94290000D01*
X126410000Y-95540000D02*
X126410000Y-94290000D01*
%TO.C,R10*%
X138020000Y-103763641D02*
X138020000Y-103456359D01*
X138780000Y-103763641D02*
X138780000Y-103456359D01*
%TO.C,C37*%
X129892164Y-73690000D02*
X130107836Y-73690000D01*
X129892164Y-74410000D02*
X130107836Y-74410000D01*
%TO.C,Y1*%
X148232411Y-72306604D02*
X150650717Y-69888298D01*
X150650717Y-69888298D02*
X147737437Y-66975018D01*
%TO.C,J5*%
X121390000Y-72790000D02*
X121390000Y-80910000D01*
X121390000Y-80910000D02*
X126110000Y-80910000D01*
X122000000Y-73400000D02*
X122000000Y-80300000D01*
X122000000Y-75750000D02*
X122500000Y-75750000D01*
X122000000Y-75850000D02*
X122500000Y-75850000D01*
X122000000Y-77750000D02*
X122500000Y-77750000D01*
X122000000Y-77850000D02*
X122500000Y-77850000D01*
X122000000Y-80300000D02*
X125500000Y-80300000D01*
X122500000Y-75750000D02*
X122500000Y-75950000D01*
X122500000Y-75950000D02*
X122000000Y-75950000D01*
X122500000Y-77750000D02*
X122500000Y-77950000D01*
X122500000Y-77950000D02*
X122000000Y-77950000D01*
X123500000Y-72790000D02*
X123500000Y-73400000D01*
X123500000Y-80910000D02*
X123500000Y-80300000D01*
X124800000Y-72790000D02*
X124800000Y-73400000D01*
X124800000Y-80910000D02*
X124800000Y-80300000D01*
X125500000Y-73400000D02*
X122000000Y-73400000D01*
X125500000Y-75350000D02*
X125500000Y-73400000D01*
X125500000Y-78350000D02*
X126110000Y-78350000D01*
X125500000Y-80300000D02*
X125500000Y-78350000D01*
X126110000Y-72790000D02*
X121390000Y-72790000D01*
X126110000Y-74550000D02*
X126310000Y-74550000D01*
X126110000Y-75350000D02*
X125500000Y-75350000D01*
X126110000Y-80910000D02*
X126110000Y-72790000D01*
X126210000Y-74550000D02*
X126210000Y-74250000D01*
X126310000Y-74250000D02*
X126110000Y-74250000D01*
X126310000Y-74550000D02*
X126310000Y-74250000D01*
X126410000Y-72490000D02*
X125160000Y-72490000D01*
X126410000Y-73740000D02*
X126410000Y-72490000D01*
%TO.C,R29*%
X136320000Y-110596359D02*
X136320000Y-110903641D01*
X137080000Y-110596359D02*
X137080000Y-110903641D01*
%TO.C,C23*%
X135072164Y-100940000D02*
X135287836Y-100940000D01*
X135072164Y-101660000D02*
X135287836Y-101660000D01*
D13*
%TO.C,R34*%
X164950000Y-113603000D02*
X164950000Y-109143000D01*
X170450000Y-113603000D02*
X170450000Y-109143000D01*
D12*
%TO.C,U1*%
X135990000Y-75090000D02*
X136940000Y-75090000D01*
X135990000Y-76040000D02*
X135990000Y-75090000D01*
X135990000Y-85310000D02*
X135990000Y-84360000D01*
X136940000Y-85310000D02*
X135990000Y-85310000D01*
X145260000Y-75090000D02*
X146210000Y-75090000D01*
X146210000Y-75090000D02*
X146210000Y-76040000D01*
X146210000Y-84360000D02*
X146210000Y-85310000D01*
X146210000Y-85310000D02*
X145260000Y-85310000D01*
X145730000Y-74790000D02*
X145260000Y-74450000D01*
X145730000Y-74110000D01*
X145730000Y-74790000D01*
G36*
X145730000Y-74790000D02*
G01*
X145260000Y-74450000D01*
X145730000Y-74110000D01*
X145730000Y-74790000D01*
G37*
%TO.C,TP4*%
X164750000Y-100678495D02*
X170650000Y-100678495D01*
X164750000Y-105078495D02*
X164750000Y-100678495D01*
X170650000Y-100678495D02*
X170650000Y-105078495D01*
X170650000Y-105078495D02*
X164750000Y-105078495D01*
%TO.C,TH1*%
X156320000Y-102963641D02*
X156320000Y-102656359D01*
X157080000Y-102963641D02*
X157080000Y-102656359D01*
%TO.C,C19*%
X142665000Y-103588746D02*
X142665000Y-104111252D01*
X144135000Y-103588746D02*
X144135000Y-104111252D01*
%TO.C,J9*%
X126249893Y-66167588D02*
X132726991Y-59690490D01*
X127455510Y-67373205D02*
X126249893Y-66167588D01*
X128876794Y-68794490D02*
X130234439Y-70152135D01*
X132726991Y-59690490D02*
X133932608Y-60896107D01*
X136711538Y-63675036D02*
X135353893Y-62317391D01*
%TO.C,TP11*%
X143750000Y-88950000D02*
G75*
G02*
X142350000Y-88950000I-700000J0D01*
G01*
X142350000Y-88950000D02*
G75*
G02*
X143750000Y-88950000I700000J0D01*
G01*
%TO.C,C49*%
X134340000Y-110622164D02*
X134340000Y-110837836D01*
X135060000Y-110622164D02*
X135060000Y-110837836D01*
%TO.C,Y2*%
X135525340Y-59814715D02*
X137236539Y-61525914D01*
X137236539Y-61525914D02*
X139230580Y-59531873D01*
%TO.C,J1*%
X126890000Y-94590000D02*
X126890000Y-104710000D01*
X126890000Y-104710000D02*
X131610000Y-104710000D01*
X127500000Y-95200000D02*
X127500000Y-104100000D01*
X127500000Y-97550000D02*
X128000000Y-97550000D01*
X127500000Y-97650000D02*
X128000000Y-97650000D01*
X127500000Y-99550000D02*
X128000000Y-99550000D01*
X127500000Y-99650000D02*
X128000000Y-99650000D01*
X127500000Y-101550000D02*
X128000000Y-101550000D01*
X127500000Y-101650000D02*
X128000000Y-101650000D01*
X127500000Y-104100000D02*
X131000000Y-104100000D01*
X128000000Y-97550000D02*
X128000000Y-97750000D01*
X128000000Y-97750000D02*
X127500000Y-97750000D01*
X128000000Y-99550000D02*
X128000000Y-99750000D01*
X128000000Y-99750000D02*
X127500000Y-99750000D01*
X128000000Y-101550000D02*
X128000000Y-101750000D01*
X128000000Y-101750000D02*
X127500000Y-101750000D01*
X129000000Y-94590000D02*
X129000000Y-95200000D01*
X129000000Y-104710000D02*
X129000000Y-104100000D01*
X130300000Y-94590000D02*
X130300000Y-95200000D01*
X130300000Y-104710000D02*
X130300000Y-104100000D01*
X131000000Y-95200000D02*
X127500000Y-95200000D01*
X131000000Y-97150000D02*
X131000000Y-95200000D01*
X131000000Y-102150000D02*
X131610000Y-102150000D01*
X131000000Y-104100000D02*
X131000000Y-102150000D01*
X131610000Y-94590000D02*
X126890000Y-94590000D01*
X131610000Y-96350000D02*
X131810000Y-96350000D01*
X131610000Y-97150000D02*
X131000000Y-97150000D01*
X131610000Y-104710000D02*
X131610000Y-94590000D01*
X131710000Y-96350000D02*
X131710000Y-96050000D01*
X131810000Y-96050000D02*
X131610000Y-96050000D01*
X131810000Y-96350000D02*
X131810000Y-96050000D01*
X131910000Y-94290000D02*
X130660000Y-94290000D01*
X131910000Y-95540000D02*
X131910000Y-94290000D01*
%TO.C,C20*%
X137292164Y-95840000D02*
X137507836Y-95840000D01*
X137292164Y-96560000D02*
X137507836Y-96560000D01*
%TO.C,TP5*%
X164718698Y-80750480D02*
X170618698Y-80750480D01*
X164718698Y-85150480D02*
X164718698Y-80750480D01*
X170618698Y-80750480D02*
X170618698Y-85150480D01*
X170618698Y-85150480D02*
X164718698Y-85150480D01*
%TO.C,C13*%
X145261032Y-70820149D02*
X145108529Y-70667646D01*
X145770149Y-70311032D02*
X145617646Y-70158529D01*
%TO.C,C38*%
X159686252Y-65540000D02*
X158263748Y-65540000D01*
X159686252Y-68260000D02*
X158263748Y-68260000D01*
%TO.C,J4*%
X121390000Y-113490000D02*
X121390000Y-119610000D01*
X121390000Y-119610000D02*
X126110000Y-119610000D01*
X122000000Y-114100000D02*
X122000000Y-119000000D01*
X122000000Y-116450000D02*
X122500000Y-116450000D01*
X122000000Y-116550000D02*
X122500000Y-116550000D01*
X122000000Y-119000000D02*
X125500000Y-119000000D01*
X122500000Y-116450000D02*
X122500000Y-116650000D01*
X122500000Y-116650000D02*
X122000000Y-116650000D01*
X123500000Y-113490000D02*
X123500000Y-114100000D01*
X123500000Y-119610000D02*
X123500000Y-119000000D01*
X124800000Y-113490000D02*
X124800000Y-114100000D01*
X124800000Y-119610000D02*
X124800000Y-119000000D01*
X125500000Y-114100000D02*
X122000000Y-114100000D01*
X125500000Y-116050000D02*
X125500000Y-114100000D01*
X125500000Y-117050000D02*
X126110000Y-117050000D01*
X125500000Y-119000000D02*
X125500000Y-117050000D01*
X126110000Y-113490000D02*
X121390000Y-113490000D01*
X126110000Y-115250000D02*
X126310000Y-115250000D01*
X126110000Y-116050000D02*
X125500000Y-116050000D01*
X126110000Y-119610000D02*
X126110000Y-113490000D01*
X126210000Y-115250000D02*
X126210000Y-114950000D01*
X126310000Y-114950000D02*
X126110000Y-114950000D01*
X126310000Y-115250000D02*
X126310000Y-114950000D01*
X126410000Y-113190000D02*
X125160000Y-113190000D01*
X126410000Y-114440000D02*
X126410000Y-113190000D01*
%TO.C,U15*%
X137029531Y-67907798D02*
X138316466Y-66620863D01*
X137064887Y-67943153D02*
X137029531Y-67907798D01*
X138316466Y-66620863D02*
X138351821Y-66656219D01*
X139235704Y-70113971D02*
X139200349Y-70078615D01*
X140487283Y-68791681D02*
X140522639Y-68827036D01*
X140522639Y-68827036D02*
X139235704Y-70113971D01*
X141272172Y-68473483D02*
X140932761Y-68812894D01*
X140869121Y-68409843D01*
X141272172Y-68473483D01*
G36*
X141272172Y-68473483D02*
G01*
X140932761Y-68812894D01*
X140869121Y-68409843D01*
X141272172Y-68473483D01*
G37*
%TO.C,C65*%
X144987837Y-56447411D02*
X145140340Y-56294908D01*
X145496954Y-56956528D02*
X145649457Y-56804025D01*
D13*
%TO.C,L1*%
X136080000Y-97400000D02*
X135720000Y-97400000D01*
X136080000Y-100400000D02*
X135720000Y-100400000D01*
D12*
%TO.C,C21*%
X145741266Y-105035404D02*
X144735404Y-106041266D01*
X147664596Y-106958734D02*
X146658734Y-107964596D01*
%TO.C,R19*%
X147220000Y-110646359D02*
X147220000Y-110953641D01*
X147980000Y-110646359D02*
X147980000Y-110953641D01*
D13*
%TO.C,U5*%
X136480000Y-108265000D02*
X136480000Y-107015000D01*
X138820000Y-107015000D02*
X138820000Y-108265000D01*
D12*
%TO.C,R45*%
X126979316Y-69416717D02*
X126762035Y-69199436D01*
X127516717Y-68879316D02*
X127299436Y-68662035D01*
%TO.C,R22*%
X139070000Y-103763641D02*
X139070000Y-103456359D01*
X139830000Y-103763641D02*
X139830000Y-103456359D01*
D14*
%TO.C,U7*%
X127462500Y-75000000D02*
X128182500Y-75000000D01*
X127462500Y-75220000D02*
X127462500Y-75000000D01*
X127462500Y-77700000D02*
X127462500Y-77480000D01*
X128182500Y-77700000D02*
X127462500Y-77700000D01*
X130462500Y-77700000D02*
X129942500Y-77700000D01*
X130662500Y-75000000D02*
X129942500Y-75000000D01*
X130662500Y-75000000D02*
X130662500Y-75220000D01*
X130662500Y-78060000D02*
X130662500Y-77700000D01*
X131022500Y-77700000D01*
X130662500Y-78060000D01*
G36*
X130662500Y-78060000D02*
G01*
X130662500Y-77700000D01*
X131022500Y-77700000D01*
X130662500Y-78060000D01*
G37*
D12*
%TO.C,D8*%
X137950000Y-97090000D02*
X137950000Y-100350000D01*
X139650000Y-97090000D02*
X137950000Y-97090000D01*
X139650000Y-97090000D02*
X139650000Y-100350000D01*
%TO.C,R41*%
X138820000Y-110646359D02*
X138820000Y-110953641D01*
X139580000Y-110646359D02*
X139580000Y-110953641D01*
D13*
%TO.C,U3*%
X139480000Y-108265000D02*
X139480000Y-107015000D01*
X141820000Y-107015000D02*
X141820000Y-108265000D01*
D12*
%TO.C,C36*%
X128227836Y-78140000D02*
X128012164Y-78140000D01*
X128227836Y-78860000D02*
X128012164Y-78860000D01*
%TO.C,R13*%
X139403641Y-101210000D02*
X139096359Y-101210000D01*
X139403641Y-101970000D02*
X139096359Y-101970000D01*
%TO.C,J2*%
X126890000Y-105490000D02*
X126890000Y-119610000D01*
X126890000Y-119610000D02*
X131610000Y-119610000D01*
X127500000Y-106100000D02*
X127500000Y-119000000D01*
X127500000Y-108450000D02*
X128000000Y-108450000D01*
X127500000Y-108550000D02*
X128000000Y-108550000D01*
X127500000Y-110450000D02*
X128000000Y-110450000D01*
X127500000Y-110550000D02*
X128000000Y-110550000D01*
X127500000Y-112450000D02*
X128000000Y-112450000D01*
X127500000Y-112550000D02*
X128000000Y-112550000D01*
X127500000Y-114450000D02*
X128000000Y-114450000D01*
X127500000Y-114550000D02*
X128000000Y-114550000D01*
X127500000Y-116450000D02*
X128000000Y-116450000D01*
X127500000Y-116550000D02*
X128000000Y-116550000D01*
X127500000Y-119000000D02*
X131000000Y-119000000D01*
X128000000Y-108450000D02*
X128000000Y-108650000D01*
X128000000Y-108650000D02*
X127500000Y-108650000D01*
X128000000Y-110450000D02*
X128000000Y-110650000D01*
X128000000Y-110650000D02*
X127500000Y-110650000D01*
X128000000Y-112450000D02*
X128000000Y-112650000D01*
X128000000Y-112650000D02*
X127500000Y-112650000D01*
X128000000Y-114450000D02*
X128000000Y-114650000D01*
X128000000Y-114650000D02*
X127500000Y-114650000D01*
X128000000Y-116450000D02*
X128000000Y-116650000D01*
X128000000Y-116650000D02*
X127500000Y-116650000D01*
X129000000Y-105490000D02*
X129000000Y-106100000D01*
X129000000Y-119610000D02*
X129000000Y-119000000D01*
X130300000Y-105490000D02*
X130300000Y-106100000D01*
X130300000Y-119610000D02*
X130300000Y-119000000D01*
X131000000Y-106100000D02*
X127500000Y-106100000D01*
X131000000Y-108050000D02*
X131000000Y-106100000D01*
X131000000Y-117050000D02*
X131610000Y-117050000D01*
X131000000Y-119000000D02*
X131000000Y-117050000D01*
X131610000Y-105490000D02*
X126890000Y-105490000D01*
X131610000Y-107250000D02*
X131810000Y-107250000D01*
X131610000Y-108050000D02*
X131000000Y-108050000D01*
X131610000Y-119610000D02*
X131610000Y-105490000D01*
X131710000Y-107250000D02*
X131710000Y-106950000D01*
X131810000Y-106950000D02*
X131610000Y-106950000D01*
X131810000Y-107250000D02*
X131810000Y-106950000D01*
X131910000Y-105190000D02*
X130660000Y-105190000D01*
X131910000Y-106440000D02*
X131910000Y-105190000D01*
%TO.C,J7*%
X126890000Y-85690000D02*
X126890000Y-93810000D01*
X126890000Y-93810000D02*
X131610000Y-93810000D01*
X127500000Y-86300000D02*
X127500000Y-93200000D01*
X127500000Y-88650000D02*
X128000000Y-88650000D01*
X127500000Y-88750000D02*
X128000000Y-88750000D01*
X127500000Y-90650000D02*
X128000000Y-90650000D01*
X127500000Y-90750000D02*
X128000000Y-90750000D01*
X127500000Y-93200000D02*
X131000000Y-93200000D01*
X128000000Y-88650000D02*
X128000000Y-88850000D01*
X128000000Y-88850000D02*
X127500000Y-88850000D01*
X128000000Y-90650000D02*
X128000000Y-90850000D01*
X128000000Y-90850000D02*
X127500000Y-90850000D01*
X129000000Y-85690000D02*
X129000000Y-86300000D01*
X129000000Y-93810000D02*
X129000000Y-93200000D01*
X130300000Y-85690000D02*
X130300000Y-86300000D01*
X130300000Y-93810000D02*
X130300000Y-93200000D01*
X131000000Y-86300000D02*
X127500000Y-86300000D01*
X131000000Y-88250000D02*
X131000000Y-86300000D01*
X131000000Y-91250000D02*
X131610000Y-91250000D01*
X131000000Y-93200000D02*
X131000000Y-91250000D01*
X131610000Y-85690000D02*
X126890000Y-85690000D01*
X131610000Y-87450000D02*
X131810000Y-87450000D01*
X131610000Y-88250000D02*
X131000000Y-88250000D01*
X131610000Y-93810000D02*
X131610000Y-85690000D01*
X131710000Y-87450000D02*
X131710000Y-87150000D01*
X131810000Y-87150000D02*
X131610000Y-87150000D01*
X131810000Y-87450000D02*
X131810000Y-87150000D01*
X131910000Y-85390000D02*
X130660000Y-85390000D01*
X131910000Y-86640000D02*
X131910000Y-85390000D01*
D15*
%TO.C,U4*%
X140475001Y-94250000D02*
X140475001Y-94024999D01*
X140475001Y-100474999D02*
X140475001Y-99899999D01*
X140700002Y-94024999D02*
X140475001Y-94024999D01*
X141050001Y-100474999D02*
X140475001Y-100474999D01*
X146925001Y-94024999D02*
X146700000Y-94024999D01*
X146925001Y-94250000D02*
X146925001Y-94024999D01*
X146925001Y-100474999D02*
X146700000Y-100474999D01*
X146925001Y-100474999D02*
X146925001Y-100249998D01*
D12*
%TO.C,C22*%
X148190000Y-110907836D02*
X148190000Y-110692164D01*
X148910000Y-110907836D02*
X148910000Y-110692164D01*
%TO.C,R20*%
X146220000Y-110646359D02*
X146220000Y-110953641D01*
X146980000Y-110646359D02*
X146980000Y-110953641D01*
%TO.C,R23*%
X141720000Y-110646359D02*
X141720000Y-110953641D01*
X142480000Y-110646359D02*
X142480000Y-110953641D01*
%TO.C,R40*%
X144220000Y-110646359D02*
X144220000Y-110953641D01*
X144980000Y-110646359D02*
X144980000Y-110953641D01*
%TO.C,TP2*%
X146050000Y-72500000D02*
G75*
G02*
X144650000Y-72500000I-700000J0D01*
G01*
X144650000Y-72500000D02*
G75*
G02*
X146050000Y-72500000I700000J0D01*
G01*
%TO.C,C40*%
X159786252Y-104140000D02*
X158363748Y-104140000D01*
X159786252Y-106860000D02*
X158363748Y-106860000D01*
%TO.C,C48*%
X139790000Y-110692164D02*
X139790000Y-110907836D01*
X140510000Y-110692164D02*
X140510000Y-110907836D01*
%TO.C,R21*%
X140170000Y-103456359D02*
X140170000Y-103763641D01*
X140930000Y-103456359D02*
X140930000Y-103763641D01*
%TO.C,C16*%
X129857836Y-83740000D02*
X129642164Y-83740000D01*
X129857836Y-84460000D02*
X129642164Y-84460000D01*
%TO.C,C18*%
X141240000Y-103707836D02*
X141240000Y-103492164D01*
X141960000Y-103707836D02*
X141960000Y-103492164D01*
%TO.C,C17*%
X129907836Y-80290000D02*
X129692164Y-80290000D01*
X129907836Y-81010000D02*
X129692164Y-81010000D01*
%TO.C,J6*%
X121390000Y-81690000D02*
X121390000Y-93810000D01*
X121390000Y-93810000D02*
X126110000Y-93810000D01*
X122000000Y-82300000D02*
X122000000Y-93200000D01*
X122000000Y-84650000D02*
X122500000Y-84650000D01*
X122000000Y-84750000D02*
X122500000Y-84750000D01*
X122000000Y-86650000D02*
X122500000Y-86650000D01*
X122000000Y-86750000D02*
X122500000Y-86750000D01*
X122000000Y-88650000D02*
X122500000Y-88650000D01*
X122000000Y-88750000D02*
X122500000Y-88750000D01*
X122000000Y-90650000D02*
X122500000Y-90650000D01*
X122000000Y-90750000D02*
X122500000Y-90750000D01*
X122000000Y-93200000D02*
X125500000Y-93200000D01*
X122500000Y-84650000D02*
X122500000Y-84850000D01*
X122500000Y-84850000D02*
X122000000Y-84850000D01*
X122500000Y-86650000D02*
X122500000Y-86850000D01*
X122500000Y-86850000D02*
X122000000Y-86850000D01*
X122500000Y-88650000D02*
X122500000Y-88850000D01*
X122500000Y-88850000D02*
X122000000Y-88850000D01*
X122500000Y-90650000D02*
X122500000Y-90850000D01*
X122500000Y-90850000D02*
X122000000Y-90850000D01*
X123500000Y-81690000D02*
X123500000Y-82300000D01*
X123500000Y-93810000D02*
X123500000Y-93200000D01*
X124800000Y-81690000D02*
X124800000Y-82300000D01*
X124800000Y-93810000D02*
X124800000Y-93200000D01*
X125500000Y-82300000D02*
X122000000Y-82300000D01*
X125500000Y-84250000D02*
X125500000Y-82300000D01*
X125500000Y-91250000D02*
X126110000Y-91250000D01*
X125500000Y-93200000D02*
X125500000Y-91250000D01*
X126110000Y-81690000D02*
X121390000Y-81690000D01*
X126110000Y-83450000D02*
X126310000Y-83450000D01*
X126110000Y-84250000D02*
X125500000Y-84250000D01*
X126110000Y-93810000D02*
X126110000Y-81690000D01*
X126210000Y-83450000D02*
X126210000Y-83150000D01*
X126310000Y-83150000D02*
X126110000Y-83150000D01*
X126310000Y-83450000D02*
X126310000Y-83150000D01*
X126410000Y-81390000D02*
X125160000Y-81390000D01*
X126410000Y-82640000D02*
X126410000Y-81390000D01*
D13*
%TO.C,R35*%
X164905156Y-93768758D02*
X164905156Y-89308758D01*
X170405156Y-93768758D02*
X170405156Y-89308758D01*
D12*
%TO.C,U9*%
X138560000Y-113615000D02*
X138655000Y-113615000D01*
X138560000Y-117735000D02*
X138560000Y-113615000D01*
X138655000Y-117735000D02*
X138560000Y-117735000D01*
X143585000Y-113615000D02*
X143680000Y-113615000D01*
X143680000Y-113615000D02*
X143680000Y-117735000D01*
X143680000Y-117735000D02*
X143585000Y-117735000D01*
X143920000Y-113315000D02*
X143590000Y-113075000D01*
X143920000Y-112835000D01*
X143920000Y-113315000D01*
G36*
X143920000Y-113315000D02*
G01*
X143590000Y-113075000D01*
X143920000Y-112835000D01*
X143920000Y-113315000D01*
G37*
%TO.C,R42*%
X133320000Y-110596359D02*
X133320000Y-110903641D01*
X134080000Y-110596359D02*
X134080000Y-110903641D01*
%TO.C,C42*%
X153640000Y-92613748D02*
X153640000Y-94036252D01*
X156360000Y-92613748D02*
X156360000Y-94036252D01*
%TO.C,J10*%
X146607969Y-59179289D02*
X147173654Y-58613604D01*
X146749390Y-59320710D02*
X146607969Y-59179289D01*
X148163604Y-57623654D02*
X148729289Y-57057969D01*
X148729289Y-57057969D02*
X148870710Y-57199390D01*
X148870710Y-61159188D02*
X148587868Y-61159188D01*
X149294974Y-60734924D02*
X148870710Y-61159188D01*
X149294974Y-60734924D02*
X149648528Y-61088477D01*
X150284924Y-59744974D02*
X150638477Y-60098528D01*
X150709188Y-59037868D02*
X150850609Y-59179289D01*
X150850609Y-59179289D02*
X150284924Y-59744974D01*
%TO.C,R18*%
X129646359Y-82720000D02*
X129953641Y-82720000D01*
X129646359Y-83480000D02*
X129953641Y-83480000D01*
%TO.C,C24*%
X135072164Y-102040000D02*
X135287836Y-102040000D01*
X135072164Y-102760000D02*
X135287836Y-102760000D01*
%TO.C,U8*%
X143995000Y-113615000D02*
X144090000Y-113615000D01*
X143995000Y-117735000D02*
X143995000Y-113615000D01*
X144090000Y-117735000D02*
X143995000Y-117735000D01*
X149020000Y-113615000D02*
X149115000Y-113615000D01*
X149115000Y-113615000D02*
X149115000Y-117735000D01*
X149115000Y-117735000D02*
X149020000Y-117735000D01*
X149355000Y-113315000D02*
X149025000Y-113075000D01*
X149355000Y-112835000D01*
X149355000Y-113315000D01*
G36*
X149355000Y-113315000D02*
G01*
X149025000Y-113075000D01*
X149355000Y-112835000D01*
X149355000Y-113315000D01*
G37*
D13*
%TO.C,U16*%
X139147130Y-63161701D02*
X139408760Y-62900071D01*
X139408760Y-63423331D02*
X139147130Y-63161701D01*
X143128141Y-59180690D02*
X143389771Y-58919060D01*
X143389771Y-58919060D02*
X143651401Y-59180690D01*
X143389771Y-67404342D02*
X143128141Y-67142712D01*
X143651401Y-67142712D02*
X143389771Y-67404342D01*
X147370782Y-62900071D02*
X147632412Y-63161701D01*
X147632412Y-63161701D02*
X147370782Y-63423331D01*
D15*
X144624676Y-67407877D02*
G75*
G02*
X144424678Y-67407877I-99999J0D01*
G01*
X144424678Y-67407877D02*
G75*
G02*
X144624676Y-67407877I99999J0D01*
G01*
D12*
%TO.C,C35*%
X137340000Y-110857836D02*
X137340000Y-110642164D01*
X138060000Y-110857836D02*
X138060000Y-110642164D01*
%TO.C,R30*%
X135320000Y-110596359D02*
X135320000Y-110903641D01*
X136080000Y-110596359D02*
X136080000Y-110903641D01*
%TO.C,TP6*%
X164740577Y-62167327D02*
X170640577Y-62167327D01*
X164740577Y-66567327D02*
X164740577Y-62167327D01*
X170640577Y-62167327D02*
X170640577Y-66567327D01*
X170640577Y-66567327D02*
X164740577Y-66567327D01*
%TO.C,C30*%
X142740000Y-110907836D02*
X142740000Y-110692164D01*
X143460000Y-110907836D02*
X143460000Y-110692164D01*
%TO.C,C62*%
X137953216Y-61211104D02*
X138105719Y-61058601D01*
X138462333Y-61720221D02*
X138614836Y-61567718D01*
%TD*%
M02*
