M48
; DRILL file {KiCad 9.0.5} date 2025-10-17T23:29:41-0400
; FORMAT={-:-/ absolute / inch / decimal}
; #@! TF.CreationDate,2025-10-17T23:29:41-04:00
; #@! TF.GenerationSoftware,Kicad,Pcbnew,9.0.5
; #@! TF.FileFunction,Plated,1,4,PTH
FMAT,2
INCH
; #@! TA.AperFunction,Plated,PTH,ViaDrill
T1C0.0118
; #@! TA.AperFunction,Plated,PTH,ComponentDrill
T2C0.0236
; #@! TA.AperFunction,Plated,PTH,ComponentDrill
T3C0.0295
%
G90
G05
T1
X4.8268Y-2.9469
X4.8268Y-3.4547
X4.8287Y-3.9606
X4.8307Y-3.4902
X4.8346Y-3.4213
X4.8386Y-3.9272
X4.8406Y-3.9961
X4.8976Y-2.8937
X4.9193Y-2.8189
X4.9626Y-2.9213
X4.9626Y-3.1594
X4.9646Y-3.0354
X4.9776Y-3.4136
X4.9878Y-3.4508
X4.9882Y-2.8976
X4.9913Y-2.7039
X4.9961Y-3.0472
X5.0039Y-4.5276
X5.0039Y-4.5591
X5.0039Y-4.5906
X5.0138Y-2.876
X5.0374Y-3.203
X5.0472Y-3.9626
X5.0472Y-4.0
X5.0591Y-2.9232
X5.0613Y-2.9959
X5.0619Y-4.2768
X5.0787Y-3.3602
X5.0866Y-3.7579
X5.0902Y-3.2717
X5.0953Y-2.8079
X5.0992Y-2.9154
X5.1011Y-3.0157
X5.1043Y-3.2087
X5.1303Y-3.2717
X5.1319Y-2.8465
X5.1319Y-3.2323
X5.1319Y-3.7579
X5.1333Y-3.0974
X5.1358Y-4.185
X5.1434Y-3.352
X5.1457Y-2.6437
X5.1581Y-3.142
X5.1614Y-2.9637
X5.1614Y-3.0394
X5.2008Y-4.5472
X5.2008Y-4.5768
X5.2028Y-2.9173
X5.218Y-2.7757
X5.2205Y-4.6575
X5.2205Y-4.687
X5.2267Y-4.1712
X5.2283Y-4.3228
X5.23Y-4.2132
X5.2303Y-4.2461
X5.2375Y-4.126
X5.2402Y-2.7534
X5.2441Y-2.5413
X5.2461Y-2.8839
X5.2488Y-4.1
X5.2596Y-3.181
X5.2596Y-4.0727
X5.2657Y-3.128
X5.2707Y-3.2966
X5.2717Y-3.2598
X5.2815Y-3.061
X5.2818Y-3.3799
X5.2818Y-3.6339
X5.2835Y-3.7661
X5.2847Y-3.0059
X5.3015Y-3.561
X5.3031Y-4.0079
X5.3031Y-4.2913
X5.3084Y-3.3505
X5.3091Y-2.6043
X5.311Y-3.8583
X5.311Y-3.8937
X5.311Y-3.9291
X5.3113Y-3.5201
X5.315Y-2.9331
X5.3161Y-4.6506
X5.3209Y-4.5524
X5.3228Y-4.5118
X5.3314Y-3.5002
X5.3327Y-3.3327
X5.3366Y-4.0984
X5.3374Y-2.8031
X5.3406Y-2.9035
X5.3406Y-3.4567
X5.3425Y-4.2764
X5.3425Y-4.3405
X5.3425Y-4.4843
X5.3425Y-4.7008
X5.3511Y-3.5217
X5.3543Y-3.75
X5.3583Y-4.5157
X5.3622Y-4.0709
X5.3681Y-2.8859
X5.3681Y-3.4311
X5.3706Y-2.9192
X5.3721Y-3.3398
X5.3738Y-2.3535
X5.3787Y-3.1127
X5.3839Y-3.2067
X5.3878Y-3.0512
X5.3878Y-4.1437
X5.3937Y-3.7505
X5.394Y-3.2353
X5.3957Y-3.4803
X5.3957Y-3.5118
X5.3957Y-3.5433
X5.3961Y-2.5975
X5.3976Y-3.2657
X5.4043Y-3.1634
X5.4154Y-3.0374
X5.4161Y-4.4557
X5.4173Y-4.6496
X5.4207Y-4.5106
X5.4213Y-4.5846
X5.4291Y-3.187
X5.4309Y-2.4303
X5.432Y-2.7233
X5.4331Y-2.8661
X5.4331Y-3.75
X5.435Y-4.0079
X5.437Y-4.4055
X5.4371Y-2.2621
X5.4419Y-3.2923
X5.4429Y-3.2201
X5.4429Y-3.2575
X5.4433Y-3.1476
X5.4434Y-2.3452
X5.4477Y-3.5059
X5.4488Y-4.0992
X5.4488Y-4.6949
X5.4567Y-3.7028
X5.4567Y-2.2818
X5.4575Y-3.0413
X5.4618Y-3.5394
X5.4665Y-2.9716
X5.4705Y-2.6358
X5.4744Y-4.1358
X5.4764Y-2.3015
X5.4783Y-2.8437
X5.4835Y-3.1127
X5.4843Y-2.4882
X5.4882Y-2.7677
X5.4961Y-3.7736
X5.4961Y-2.3211
X5.4976Y-3.185
X5.5Y-4.5866
X5.5039Y-3.2126
X5.5039Y-3.2421
X5.5039Y-4.1358
X5.5079Y-2.5925
X5.5079Y-3.4902
X5.5118Y-2.7323
X5.5118Y-2.8091
X5.5143Y-2.3508
X5.5177Y-3.8799
X5.5177Y-4.3406
X5.5197Y-2.4016
X5.5197Y-3.7185
X5.5217Y-3.9724
X5.5217Y-2.6864
X5.5264Y-3.439
X5.5276Y-3.0508
X5.5276Y-3.6791
X5.5295Y-2.6161
X5.5309Y-4.4567
X5.5309Y-4.6516
X5.5335Y-2.7874
X5.5335Y-2.8642
X5.5335Y-3.1831
X5.5335Y-3.2126
X5.5335Y-4.0992
X5.5349Y-2.9801
X5.5492Y-3.4744
X5.5492Y-3.5059
X5.5551Y-2.7657
X5.5551Y-4.3421
X5.5551Y-4.6988
X5.5561Y-3.3337
X5.561Y-3.2717
X5.563Y-3.5768
X5.563Y-4.1358
X5.5657Y-2.8859
X5.5668Y-2.9811
X5.5787Y-2.3366
X5.5787Y-4.5886
X5.5807Y-3.4744
X5.5866Y-2.6398
X5.5866Y-3.248
X5.5866Y-3.3366
X5.5909Y-3.3086
X5.5925Y-4.1358
X5.5945Y-3.7677
X5.5945Y-3.7992
X5.5945Y-3.8307
X5.5945Y-3.8622
X5.5945Y-3.8917
X5.6004Y-2.8307
X5.6027Y-3.2828
X5.6063Y-2.6732
X5.6083Y-3.1004
X5.6083Y-3.1969
X5.6122Y-3.0709
X5.6137Y-3.0113
X5.6201Y-3.6831
X5.622Y-2.9843
X5.6256Y-2.3067
X5.626Y-3.7677
X5.626Y-3.7992
X5.626Y-3.8307
X5.626Y-3.8622
X5.626Y-3.8917
X5.6299Y-4.2
X5.6309Y-4.4567
X5.6319Y-3.502
X5.6319Y-4.6516
X5.6338Y-3.1398
X5.6378Y-3.2854
X5.6457Y-2.3268
X5.6476Y-4.0492
X5.6476Y-2.6496
X5.6535Y-4.5295
X5.6542Y-3.1122
X5.6575Y-3.7677
X5.6575Y-3.7992
X5.6575Y-3.8307
X5.6575Y-3.8622
X5.6575Y-3.8917
X5.6634Y-4.2677
X5.6634Y-4.6673
X5.6654Y-3.3248
X5.6654Y-3.5768
X5.6673Y-2.2835
X5.6732Y-2.6693
X5.6752Y-3.2795
X5.6791Y-3.4469
X5.687Y-3.185
X5.689Y-3.7677
X5.689Y-3.7992
X5.689Y-3.8307
X5.689Y-3.8622
X5.689Y-3.8917
X5.6909Y-2.3071
X5.6929Y-3.2205
X5.6929Y-4.3421
X5.6949Y-4.2854
X5.6969Y-3.124
X5.7008Y-3.0091
X5.7008Y-4.0886
X5.7008Y-4.1181
X5.7008Y-4.1476
X5.7046Y-2.6396
X5.7087Y-3.0709
X5.7126Y-2.7618
X5.7146Y-2.3307
X5.7148Y-4.234
X5.7205Y-3.7677
X5.7205Y-3.7992
X5.7205Y-3.8307
X5.7205Y-3.8622
X5.7205Y-3.8917
X5.7264Y-3.2441
X5.7303Y-3.1437
X5.7306Y-3.0888
X5.7315Y-3.1855
X5.7323Y-2.6299
X5.7323Y-3.3441
X5.7323Y-3.3819
X5.7323Y-4.1713
X5.7382Y-2.3543
X5.7397Y-2.971
X5.7441Y-2.3248
X5.7441Y-4.5906
X5.7449Y-4.6535
X5.7618Y-2.378
X5.7677Y-2.3031
X5.7677Y-3.5748
X5.7697Y-4.7008
X5.7717Y-4.3429
X5.7736Y-4.2205
X5.7736Y-4.3012
X5.7756Y-2.8858
X5.7756Y-3.3484
X5.7854Y-2.4035
X5.7894Y-2.9705
X5.7913Y-4.5906
X5.7944Y-2.8437
X5.7972Y-2.9154
X5.7975Y-3.3305
X5.7992Y-3.7028
X5.8024Y-4.5315
X5.8038Y-2.6719
X5.8051Y-3.9606
X5.8071Y-4.2697
X5.8091Y-2.4252
X5.811Y-2.4823
X5.8144Y-2.371
X5.815Y-3.5862
X5.8166Y-4.1715
X5.8177Y-2.7804
X5.8186Y-2.9458
X5.8189Y-3.3504
X5.8189Y-4.6988
X5.8254Y-3.2127
X5.8287Y-3.1634
X5.8287Y-4.248
X5.8346Y-2.2362
X5.8386Y-3.0098
X5.8386Y-3.6772
X5.8406Y-2.874
X5.8406Y-3.1358
X5.8425Y-2.437
X5.8425Y-3.0827
X5.8449Y-4.6516
X5.845Y-3.2933
X5.8465Y-4.4567
X5.8504Y-4.2264
X5.8524Y-3.9665
X5.8543Y-3.5862
X5.8622Y-2.2185
X5.8622Y-3.3957
X5.8622Y-3.4272
X5.8622Y-3.4587
X5.8622Y-3.4902
X5.8622Y-3.5217
X5.8622Y-3.8681
X5.8661Y-2.9016
X5.874Y-2.4193
X5.8838Y-3.5551
X5.8957Y-2.2244
X5.8957Y-2.9311
X5.8965Y-2.2888
X5.8972Y-2.3717
X5.9232Y-2.248
X5.939Y-4.6181
X5.939Y-4.6614
X5.9429Y-2.3504
X5.9469Y-2.2717
X5.9488Y-3.7992
X5.9488Y-3.8307
X5.9488Y-3.8622
X5.9764Y-4.0118
X5.9764Y-4.0433
X5.9764Y-4.0748
X5.9764Y-4.378
X5.9803Y-3.5827
X5.9803Y-3.6142
X5.9803Y-3.6457
X5.9803Y-3.7697
X5.9803Y-3.7992
X5.9803Y-3.8307
X5.9803Y-3.8622
X5.9823Y-4.6181
X5.9823Y-4.6614
X5.9843Y-3.2657
X5.9843Y-3.2972
X5.9843Y-3.3287
X5.9843Y-3.3602
X5.9843Y-3.3898
X5.9843Y-3.4213
X5.9843Y-3.4528
X5.9843Y-3.4843
X5.9862Y-3.1201
X5.9902Y-4.1457
X5.9902Y-4.1772
X5.9902Y-4.2087
X5.9902Y-4.2382
X5.9902Y-4.2697
X5.9902Y-4.3012
X5.9902Y-4.3327
X5.9941Y-2.5807
X5.9941Y-2.6122
X5.9941Y-2.6437
X5.9941Y-2.6772
X5.9941Y-2.7067
X5.9941Y-2.7362
X5.9941Y-2.7717
X5.9941Y-2.8031
X6.0Y-3.1614
X6.0Y-3.1929
X6.0Y-3.2244
X6.0079Y-2.311
X6.0079Y-2.3425
X6.0079Y-2.374
X6.0079Y-4.0118
X6.0079Y-4.0433
X6.0079Y-4.0748
X6.0079Y-4.378
X6.0079Y-4.4094
X6.0118Y-3.5827
X6.0118Y-3.6142
X6.0118Y-3.7382
X6.0118Y-3.7697
X6.0118Y-3.7992
X6.0118Y-3.8307
X6.0118Y-3.8622
X6.0157Y-3.2657
X6.0157Y-3.2972
X6.0157Y-3.3287
X6.0157Y-3.3602
X6.0157Y-3.3898
X6.0157Y-3.4213
X6.0157Y-3.4528
X6.0157Y-3.4843
X6.0217Y-4.1457
X6.0217Y-4.1772
X6.0217Y-4.2087
X6.0217Y-4.2382
X6.0217Y-4.2697
X6.0217Y-4.3012
X6.0217Y-4.3327
X6.0256Y-2.5807
X6.0256Y-2.6122
X6.0256Y-2.6437
X6.0256Y-2.6772
X6.0256Y-2.7067
X6.0256Y-2.7362
X6.0256Y-2.7717
X6.0256Y-2.8031
X6.0256Y-2.8346
X6.0315Y-3.1614
X6.0315Y-3.1929
X6.0315Y-3.2244
X6.0394Y-2.311
X6.0394Y-2.3425
X6.0394Y-2.374
X6.0394Y-4.0118
X6.0394Y-4.0433
X6.0394Y-4.0748
X6.0394Y-4.378
X6.0394Y-4.4094
X6.0433Y-3.7697
X6.0433Y-3.7992
X6.0433Y-3.8307
X6.0433Y-3.8622
X6.0472Y-3.2657
X6.0472Y-3.2972
X6.0472Y-3.3287
X6.0472Y-3.3602
X6.0472Y-3.3898
X6.0472Y-3.4843
X6.0531Y-4.1457
X6.0531Y-4.1772
X6.0531Y-4.2087
X6.0531Y-4.2382
X6.0531Y-4.2697
X6.0531Y-4.3012
X6.0531Y-4.3327
X6.0571Y-2.5807
X6.0571Y-2.6122
X6.0571Y-2.6437
X6.0571Y-2.6772
X6.0571Y-2.7067
X6.0571Y-2.7362
X6.0571Y-2.7717
X6.0571Y-2.8031
X6.0571Y-2.8346
X6.063Y-3.1614
X6.063Y-3.1929
X6.063Y-3.2244
X6.0709Y-2.311
X6.0709Y-2.3425
X6.0709Y-2.374
X6.0709Y-4.0118
X6.0709Y-4.0433
X6.0709Y-4.0748
X6.0728Y-3.4311
X6.0728Y-3.7323
X6.0728Y-4.3976
X6.0748Y-2.876
X6.0748Y-3.7697
X6.0748Y-3.7992
X6.0748Y-3.8307
X6.0748Y-3.8622
X6.0768Y-4.5138
X6.0787Y-3.2657
X6.0787Y-3.2972
X6.0787Y-3.3287
X6.0787Y-3.3602
X6.0787Y-3.3898
X6.0787Y-3.4843
X6.0846Y-4.1457
X6.0846Y-4.1772
X6.0846Y-4.2087
X6.0846Y-4.2382
X6.0846Y-4.2697
X6.0846Y-4.3012
X6.0846Y-4.3327
X6.0886Y-2.5807
X6.0886Y-2.6122
X6.0886Y-2.6437
X6.0886Y-2.6772
X6.0886Y-2.7067
X6.0886Y-2.7362
X6.0906Y-2.7717
X6.0906Y-2.8031
X6.0906Y-2.8346
X6.0945Y-3.1614
X6.0945Y-3.1929
X6.0945Y-3.2244
X6.1024Y-2.311
X6.1024Y-2.3425
X6.1024Y-2.374
X6.1024Y-3.4311
X6.1024Y-3.7323
X6.1024Y-4.0118
X6.1024Y-4.0433
X6.1024Y-4.0748
X6.1024Y-4.3976
X6.1043Y-2.876
X6.1063Y-3.7697
X6.1063Y-3.7992
X6.1063Y-3.8307
X6.1063Y-3.8622
X6.1063Y-4.5138
X6.1102Y-3.2657
X6.1102Y-3.2972
X6.1102Y-3.3287
X6.1102Y-3.3602
X6.1102Y-3.3898
X6.1161Y-4.1457
X6.1161Y-4.1772
X6.1161Y-4.2087
X6.1161Y-4.2382
X6.1161Y-4.2697
X6.1161Y-4.3012
X6.1161Y-4.3327
X6.1201Y-2.5807
X6.1201Y-2.6122
X6.1201Y-2.6437
X6.1201Y-2.6752
X6.1201Y-2.7067
X6.122Y-2.8346
X6.1319Y-3.4311
X6.1319Y-3.7323
X6.1319Y-4.3976
X6.1339Y-2.876
X6.1358Y-4.5138
X6.1378Y-3.7697
X6.1378Y-3.7992
X6.1378Y-3.8307
X6.1378Y-3.8622
X6.1417Y-3.2028
X6.1417Y-3.2343
X6.1417Y-3.2657
X6.1417Y-3.2972
X6.1417Y-3.3287
X6.1417Y-3.3602
X6.1417Y-3.3898
X6.1476Y-4.1457
X6.1476Y-4.1772
X6.1476Y-4.2087
X6.1476Y-4.2382
X6.1476Y-4.2697
X6.1476Y-4.3012
X6.1476Y-4.3327
X6.1516Y-2.5807
X6.1516Y-2.6122
X6.1516Y-2.6437
X6.1516Y-2.6752
X6.1516Y-2.7067
X6.1516Y-2.7362
X6.1516Y-2.7717
X6.1516Y-2.8031
X6.1516Y-2.8327
X6.1673Y-4.0689
X6.1693Y-4.0276
X6.1949Y-3.4744
X6.1949Y-3.5039
X6.1949Y-3.5335
X6.1949Y-3.563
X6.1949Y-3.5925
X6.1949Y-3.622
X6.1988Y-2.9902
X6.1988Y-3.0197
X6.1988Y-3.0492
X6.1988Y-3.0787
X6.1988Y-3.1083
X6.1988Y-3.1378
X6.2008Y-2.6024
X6.2008Y-2.6319
X6.2008Y-2.6614
X6.2008Y-4.5394
X6.2008Y-4.5689
X6.2008Y-4.5984
X6.2008Y-4.628
X6.2008Y-4.6575
X6.2244Y-3.4744
X6.2244Y-3.5039
X6.2244Y-3.5335
X6.2244Y-3.563
X6.2244Y-3.5925
X6.2244Y-3.622
X6.2283Y-2.9902
X6.2283Y-3.0197
X6.2283Y-3.0492
X6.2283Y-3.0787
X6.2283Y-3.1083
X6.2283Y-3.1378
X6.2303Y-4.5394
X6.2303Y-4.5689
X6.2303Y-4.5984
X6.2303Y-4.628
X6.2303Y-4.6575
X6.2539Y-3.4744
X6.2539Y-3.5039
X6.2539Y-3.5335
X6.2539Y-3.563
X6.2539Y-3.5925
X6.2539Y-3.622
X6.2579Y-2.9902
X6.2579Y-3.0197
X6.2579Y-3.0492
X6.2579Y-3.0787
X6.2579Y-3.1083
X6.2579Y-3.1378
X6.2598Y-4.5394
X6.2598Y-4.5689
X6.2598Y-4.5984
X6.2598Y-4.628
X6.2598Y-4.6575
X6.2835Y-3.4744
X6.2835Y-3.5039
X6.2835Y-3.5354
X6.2874Y-2.9902
X6.2874Y-3.0197
X6.2874Y-3.0492
X6.2874Y-3.5925
X6.2874Y-3.622
X6.2894Y-3.0787
X6.2894Y-3.1083
X6.2894Y-4.5394
X6.2894Y-4.5689
X6.2894Y-4.5984
X6.2894Y-4.628
X6.2894Y-4.6575
X6.3091Y-4.1122
X6.3091Y-4.1555
X6.3091Y-4.1949
X6.313Y-3.4744
X6.313Y-3.5039
X6.313Y-3.5354
X6.3169Y-2.5984
X6.3169Y-2.6339
X6.3169Y-2.6713
X6.3169Y-2.9902
X6.3169Y-3.0197
X6.3169Y-3.0492
X6.3169Y-3.5925
X6.3169Y-3.622
X6.3189Y-3.0787
X6.3189Y-3.1083
X6.3189Y-4.5394
X6.3189Y-4.5689
X6.3189Y-4.5984
X6.3189Y-4.628
X6.3189Y-4.6575
X6.3327Y-4.1339
X6.3327Y-4.1752
X6.3425Y-3.4744
X6.3425Y-3.5039
X6.3425Y-3.5354
X6.3465Y-2.9902
X6.3465Y-3.0197
X6.3465Y-3.0492
X6.3465Y-3.0787
X6.3465Y-3.1083
X6.3465Y-3.5925
X6.3465Y-3.622
X6.3484Y-4.5394
X6.3484Y-4.5689
X6.3484Y-4.5984
X6.3484Y-4.628
X6.3484Y-4.6575
X6.3622Y-2.5906
X6.3622Y-2.6181
X6.3622Y-2.6457
X6.3622Y-2.6732
X6.3898Y-2.6181
X6.3898Y-2.6457
X6.3898Y-2.6732
X6.4173Y-2.6457
X6.4173Y-2.6732
X6.5983Y-4.227
X6.6006Y-3.4453
X6.6006Y-3.7624
X6.602Y-2.71
X6.602Y-3.0271
X6.6024Y-4.5433
T3
X4.8937Y-2.9469
X4.8937Y-3.0256
X4.8937Y-3.1043
X4.8937Y-3.2972
X4.8937Y-3.376
X4.8937Y-3.4547
X4.8937Y-3.5335
X4.8937Y-3.6122
X4.8937Y-3.8051
X4.8937Y-3.8839
X4.8937Y-3.9626
X4.8937Y-4.0413
X4.8937Y-4.1201
X4.8937Y-4.1988
X4.8937Y-4.2776
X4.8937Y-4.3563
X4.8937Y-4.5492
X4.8937Y-4.628
X5.1102Y-3.4547
X5.1102Y-3.5335
X5.1102Y-3.6122
X5.1102Y-3.8051
X5.1102Y-3.8839
X5.1102Y-3.9626
X5.1102Y-4.0413
X5.1102Y-4.2343
X5.1102Y-4.313
X5.1102Y-4.3917
X5.1102Y-4.4705
X5.1102Y-4.5492
X5.1102Y-4.628
T2
G00X5.0643Y-2.6844
M15
G01X5.042Y-2.6621
M16
G05
G00X5.1854Y-2.8055
M15
G01X5.1548Y-2.7748
M16
G05
G00X5.3048Y-2.4438
M15
G01X5.2825Y-2.4216
M16
G05
G00X5.4259Y-2.5649
M15
G01X5.3953Y-2.5343
M16
G05
M30
