%TF.GenerationSoftware,KiCad,Pcbnew,9.0.5*%
%TF.CreationDate,2025-10-17T23:29:40-04:00*%
%TF.ProjectId,resc,72657363-2e6b-4696-9361-645f70636258,rev?*%
%TF.SameCoordinates,Original*%
%TF.FileFunction,Legend,Bot*%
%TF.FilePolarity,Positive*%
%FSLAX46Y46*%
G04 Gerber Fmt 4.6, Leading zero omitted, Abs format (unit mm)*
G04 Created by KiCad (PCBNEW 9.0.5) date 2025-10-17 23:29:40*
%MOMM*%
%LPD*%
G01*
G04 APERTURE LIST*
%ADD10C,0.150000*%
%ADD11C,0.120000*%
%ADD12C,0.127000*%
%ADD13C,0.152400*%
G04 APERTURE END LIST*
D10*
X148192857Y-116404819D02*
X148669047Y-116404819D01*
X148669047Y-116404819D02*
X148716666Y-116881009D01*
X148716666Y-116881009D02*
X148669047Y-116833390D01*
X148669047Y-116833390D02*
X148573809Y-116785771D01*
X148573809Y-116785771D02*
X148335714Y-116785771D01*
X148335714Y-116785771D02*
X148240476Y-116833390D01*
X148240476Y-116833390D02*
X148192857Y-116881009D01*
X148192857Y-116881009D02*
X148145238Y-116976247D01*
X148145238Y-116976247D02*
X148145238Y-117214342D01*
X148145238Y-117214342D02*
X148192857Y-117309580D01*
X148192857Y-117309580D02*
X148240476Y-117357200D01*
X148240476Y-117357200D02*
X148335714Y-117404819D01*
X148335714Y-117404819D02*
X148573809Y-117404819D01*
X148573809Y-117404819D02*
X148669047Y-117357200D01*
X148669047Y-117357200D02*
X148716666Y-117309580D01*
X147811904Y-116738152D02*
X147573809Y-117404819D01*
X147573809Y-117404819D02*
X147335714Y-116738152D01*
X144628570Y-116354819D02*
X144009523Y-116354819D01*
X144009523Y-116354819D02*
X144342856Y-116735771D01*
X144342856Y-116735771D02*
X144199999Y-116735771D01*
X144199999Y-116735771D02*
X144104761Y-116783390D01*
X144104761Y-116783390D02*
X144057142Y-116831009D01*
X144057142Y-116831009D02*
X144009523Y-116926247D01*
X144009523Y-116926247D02*
X144009523Y-117164342D01*
X144009523Y-117164342D02*
X144057142Y-117259580D01*
X144057142Y-117259580D02*
X144104761Y-117307200D01*
X144104761Y-117307200D02*
X144199999Y-117354819D01*
X144199999Y-117354819D02*
X144485713Y-117354819D01*
X144485713Y-117354819D02*
X144580951Y-117307200D01*
X144580951Y-117307200D02*
X144628570Y-117259580D01*
X143580951Y-117259580D02*
X143533332Y-117307200D01*
X143533332Y-117307200D02*
X143580951Y-117354819D01*
X143580951Y-117354819D02*
X143628570Y-117307200D01*
X143628570Y-117307200D02*
X143580951Y-117259580D01*
X143580951Y-117259580D02*
X143580951Y-117354819D01*
X143199999Y-116354819D02*
X142580952Y-116354819D01*
X142580952Y-116354819D02*
X142914285Y-116735771D01*
X142914285Y-116735771D02*
X142771428Y-116735771D01*
X142771428Y-116735771D02*
X142676190Y-116783390D01*
X142676190Y-116783390D02*
X142628571Y-116831009D01*
X142628571Y-116831009D02*
X142580952Y-116926247D01*
X142580952Y-116926247D02*
X142580952Y-117164342D01*
X142580952Y-117164342D02*
X142628571Y-117259580D01*
X142628571Y-117259580D02*
X142676190Y-117307200D01*
X142676190Y-117307200D02*
X142771428Y-117354819D01*
X142771428Y-117354819D02*
X143057142Y-117354819D01*
X143057142Y-117354819D02*
X143152380Y-117307200D01*
X143152380Y-117307200D02*
X143199999Y-117259580D01*
X142247618Y-116688152D02*
X142009523Y-117354819D01*
X142009523Y-117354819D02*
X141771428Y-116688152D01*
X138238094Y-97985819D02*
X138238094Y-98795342D01*
X138238094Y-98795342D02*
X138190475Y-98890580D01*
X138190475Y-98890580D02*
X138142856Y-98938200D01*
X138142856Y-98938200D02*
X138047618Y-98985819D01*
X138047618Y-98985819D02*
X137857142Y-98985819D01*
X137857142Y-98985819D02*
X137761904Y-98938200D01*
X137761904Y-98938200D02*
X137714285Y-98890580D01*
X137714285Y-98890580D02*
X137666666Y-98795342D01*
X137666666Y-98795342D02*
X137666666Y-97985819D01*
X136666666Y-98985819D02*
X137238094Y-98985819D01*
X136952380Y-98985819D02*
X136952380Y-97985819D01*
X136952380Y-97985819D02*
X137047618Y-98128676D01*
X137047618Y-98128676D02*
X137142856Y-98223914D01*
X137142856Y-98223914D02*
X137238094Y-98271533D01*
X135809523Y-98319152D02*
X135809523Y-98985819D01*
X136047618Y-97938200D02*
X136285713Y-98652485D01*
X136285713Y-98652485D02*
X135666666Y-98652485D01*
D11*
%TO.C,R6*%
X145480000Y-91753641D02*
X145480000Y-91446359D01*
X144720000Y-91753641D02*
X144720000Y-91446359D01*
%TO.C,C3*%
X136510000Y-116227836D02*
X136510000Y-116012164D01*
X135790000Y-116227836D02*
X135790000Y-116012164D01*
%TO.C,Q8*%
X137387500Y-115880000D02*
X137147500Y-115550000D01*
X137627500Y-115550000D01*
X137387500Y-115880000D01*
G36*
X137387500Y-115880000D02*
G01*
X137147500Y-115550000D01*
X137627500Y-115550000D01*
X137387500Y-115880000D01*
G37*
X139747500Y-113940000D02*
X137927500Y-113940000D01*
X139747500Y-114940000D02*
X139747500Y-113940000D01*
X139747500Y-117060000D02*
X139747500Y-116060000D01*
X137927500Y-113940000D02*
X137927500Y-113990000D01*
X137927500Y-115110000D02*
X137927500Y-115890000D01*
X137927500Y-117010000D02*
X137927500Y-117060000D01*
X137927500Y-117060000D02*
X139747500Y-117060000D01*
%TO.C,R12*%
X134770000Y-115986359D02*
X134770000Y-116293641D01*
X135530000Y-115986359D02*
X135530000Y-116293641D01*
%TO.C,C44*%
X146322164Y-117840000D02*
X146537836Y-117840000D01*
X146322164Y-118560000D02*
X146537836Y-118560000D01*
%TO.C,R11*%
X130720000Y-75606359D02*
X130720000Y-75913641D01*
X131480000Y-75606359D02*
X131480000Y-75913641D01*
%TO.C,TP1*%
X143250000Y-100300000D02*
G75*
G02*
X141850000Y-100300000I-700000J0D01*
G01*
X141850000Y-100300000D02*
G75*
G02*
X143250000Y-100300000I700000J0D01*
G01*
%TO.C,C46*%
X135372164Y-117740000D02*
X135587836Y-117740000D01*
X135372164Y-118460000D02*
X135587836Y-118460000D01*
%TO.C,C25*%
X152110322Y-97445628D02*
X152110322Y-101195628D01*
X152110322Y-107965628D02*
X152110322Y-104215628D01*
X161565885Y-97445628D02*
X152110322Y-97445628D01*
X161565885Y-107965628D02*
X152110322Y-107965628D01*
X162630322Y-98510065D02*
X161565885Y-97445628D01*
X162630322Y-98510065D02*
X162630322Y-101195628D01*
X162630322Y-106901191D02*
X161565885Y-107965628D01*
X162630322Y-106901191D02*
X162630322Y-104215628D01*
X163495322Y-99320628D02*
X163495322Y-100570628D01*
X164120322Y-99945628D02*
X162870322Y-99945628D01*
%TO.C,TP10*%
X148350000Y-96650000D02*
G75*
G02*
X146950000Y-96650000I-700000J0D01*
G01*
X146950000Y-96650000D02*
G75*
G02*
X148350000Y-96650000I700000J0D01*
G01*
%TO.C,C27*%
X152110322Y-65045628D02*
X152110322Y-68795628D01*
X152110322Y-75565628D02*
X152110322Y-71815628D01*
X161565885Y-65045628D02*
X152110322Y-65045628D01*
X161565885Y-75565628D02*
X152110322Y-75565628D01*
X162630322Y-66110065D02*
X161565885Y-65045628D01*
X162630322Y-66110065D02*
X162630322Y-68795628D01*
X162630322Y-74501191D02*
X161565885Y-75565628D01*
X162630322Y-74501191D02*
X162630322Y-71815628D01*
X163495322Y-66920628D02*
X163495322Y-68170628D01*
X164120322Y-67545628D02*
X162870322Y-67545628D01*
%TO.C,R1*%
X133990000Y-82093641D02*
X133990000Y-81786359D01*
X134750000Y-82093641D02*
X134750000Y-81786359D01*
%TO.C,C50*%
X141990000Y-110502164D02*
X141990000Y-110717836D01*
X142710000Y-110502164D02*
X142710000Y-110717836D01*
%TO.C,C52*%
X136190000Y-110572164D02*
X136190000Y-110787836D01*
X136910000Y-110572164D02*
X136910000Y-110787836D01*
%TO.C,C45*%
X140892164Y-117790000D02*
X141107836Y-117790000D01*
X140892164Y-118510000D02*
X141107836Y-118510000D01*
%TO.C,TP7*%
X150950000Y-108600000D02*
X150950000Y-113000000D01*
X150950000Y-113000000D02*
X156850000Y-113000000D01*
X156850000Y-108600000D02*
X150950000Y-108600000D01*
X156850000Y-113000000D02*
X156850000Y-108600000D01*
%TO.C,R4*%
X133546359Y-112770000D02*
X133853641Y-112770000D01*
X133546359Y-113530000D02*
X133853641Y-113530000D01*
%TO.C,C9*%
X145240000Y-85527836D02*
X145240000Y-85312164D01*
X145960000Y-85527836D02*
X145960000Y-85312164D01*
%TO.C,C56*%
X133840000Y-95072164D02*
X133840000Y-95287836D01*
X134560000Y-95072164D02*
X134560000Y-95287836D01*
%TO.C,D2*%
X143165000Y-93122500D02*
X143165000Y-90837500D01*
X144635000Y-90837500D02*
X144635000Y-93122500D01*
X144635000Y-93122500D02*
X143165000Y-93122500D01*
%TO.C,R14*%
X132570000Y-89046359D02*
X132570000Y-89353641D01*
X133330000Y-89046359D02*
X133330000Y-89353641D01*
D12*
%TO.C,U13*%
X135180000Y-107035000D02*
X135180000Y-108285000D01*
X137520000Y-108285000D02*
X137520000Y-107035000D01*
D11*
%TO.C,C26*%
X152110322Y-54195628D02*
X152110322Y-57945628D01*
X152110322Y-64715628D02*
X152110322Y-60965628D01*
X161565885Y-54195628D02*
X152110322Y-54195628D01*
X161565885Y-64715628D02*
X152110322Y-64715628D01*
X162630322Y-55260065D02*
X161565885Y-54195628D01*
X162630322Y-55260065D02*
X162630322Y-57945628D01*
X162630322Y-63651191D02*
X161565885Y-64715628D01*
X162630322Y-63651191D02*
X162630322Y-60965628D01*
X163495322Y-56070628D02*
X163495322Y-57320628D01*
X164120322Y-56695628D02*
X162870322Y-56695628D01*
%TO.C,R43*%
X143786359Y-102470000D02*
X144093641Y-102470000D01*
X143786359Y-103230000D02*
X144093641Y-103230000D01*
%TO.C,C5*%
X144440000Y-75842164D02*
X144440000Y-76057836D01*
X145160000Y-75842164D02*
X145160000Y-76057836D01*
%TO.C,C64*%
X142740000Y-65492164D02*
X142740000Y-65707836D01*
X143460000Y-65492164D02*
X143460000Y-65707836D01*
%TO.C,C15*%
X144140000Y-85322164D02*
X144140000Y-85537836D01*
X144860000Y-85322164D02*
X144860000Y-85537836D01*
%TO.C,D3*%
X140565000Y-93122500D02*
X140565000Y-90837500D01*
X142035000Y-90837500D02*
X142035000Y-93122500D01*
X142035000Y-93122500D02*
X140565000Y-93122500D01*
%TO.C,C2*%
X141090000Y-77872164D02*
X141090000Y-78087836D01*
X141810000Y-77872164D02*
X141810000Y-78087836D01*
%TO.C,D1*%
X145765000Y-93122500D02*
X145765000Y-90837500D01*
X147235000Y-90837500D02*
X147235000Y-93122500D01*
X147235000Y-93122500D02*
X145765000Y-93122500D01*
%TO.C,R7*%
X142120000Y-91446359D02*
X142120000Y-91753641D01*
X142880000Y-91446359D02*
X142880000Y-91753641D01*
%TO.C,R44*%
X148320000Y-91753641D02*
X148320000Y-91446359D01*
X149080000Y-91753641D02*
X149080000Y-91446359D01*
%TO.C,C53*%
X152110322Y-86645628D02*
X152110322Y-90395628D01*
X152110322Y-97165628D02*
X152110322Y-93415628D01*
X161565885Y-86645628D02*
X152110322Y-86645628D01*
X161565885Y-97165628D02*
X152110322Y-97165628D01*
X162630322Y-87710065D02*
X161565885Y-86645628D01*
X162630322Y-87710065D02*
X162630322Y-90395628D01*
X162630322Y-96101191D02*
X161565885Y-97165628D01*
X162630322Y-96101191D02*
X162630322Y-93415628D01*
X163495322Y-88520628D02*
X163495322Y-89770628D01*
X164120322Y-89145628D02*
X162870322Y-89145628D01*
%TO.C,C14*%
X137890000Y-82377836D02*
X137890000Y-82162164D01*
X138610000Y-82377836D02*
X138610000Y-82162164D01*
%TO.C,R2*%
X133546359Y-114970000D02*
X133853641Y-114970000D01*
X133546359Y-115730000D02*
X133853641Y-115730000D01*
%TO.C,TP3*%
X157750000Y-114500000D02*
X157750000Y-118900000D01*
X157750000Y-118900000D02*
X163650000Y-118900000D01*
X163650000Y-114500000D02*
X157750000Y-114500000D01*
X163650000Y-118900000D02*
X163650000Y-114500000D01*
%TO.C,R5*%
X147320000Y-91446359D02*
X147320000Y-91753641D01*
X148080000Y-91446359D02*
X148080000Y-91753641D01*
%TO.C,C55*%
X134340000Y-103972164D02*
X134340000Y-104187836D01*
X135060000Y-103972164D02*
X135060000Y-104187836D01*
%TO.C,C58*%
X138940000Y-63787836D02*
X138940000Y-63572164D01*
X139660000Y-63787836D02*
X139660000Y-63572164D01*
%TO.C,C63*%
X141690000Y-65492164D02*
X141690000Y-65707836D01*
X142410000Y-65492164D02*
X142410000Y-65707836D01*
%TO.C,C1*%
X135050000Y-81822164D02*
X135050000Y-82037836D01*
X135770000Y-81822164D02*
X135770000Y-82037836D01*
%TO.C,C7*%
X135090000Y-84992164D02*
X135090000Y-85207836D01*
X135810000Y-84992164D02*
X135810000Y-85207836D01*
%TO.C,C6*%
X133790000Y-78122164D02*
X133790000Y-78337836D01*
X134510000Y-78122164D02*
X134510000Y-78337836D01*
%TO.C,R9*%
X140020000Y-77846359D02*
X140020000Y-78153641D01*
X140780000Y-77846359D02*
X140780000Y-78153641D01*
%TO.C,C11*%
X143440000Y-75842164D02*
X143440000Y-76057836D01*
X144160000Y-75842164D02*
X144160000Y-76057836D01*
%TO.C,R3*%
X133546359Y-113870000D02*
X133853641Y-113870000D01*
X133546359Y-114630000D02*
X133853641Y-114630000D01*
D12*
%TO.C,U12*%
X138180000Y-107035000D02*
X138180000Y-108285000D01*
X140520000Y-108285000D02*
X140520000Y-107035000D01*
D11*
%TO.C,C8*%
X138490000Y-75822164D02*
X138490000Y-76037836D01*
X139210000Y-75822164D02*
X139210000Y-76037836D01*
%TO.C,C60*%
X147240000Y-63637836D02*
X147240000Y-63422164D01*
X147960000Y-63637836D02*
X147960000Y-63422164D01*
%TO.C,C61*%
X143790000Y-65492164D02*
X143790000Y-65707836D01*
X144510000Y-65492164D02*
X144510000Y-65707836D01*
%TO.C,SW1*%
X142950000Y-114100000D02*
X142950000Y-116050000D01*
X142950000Y-116050000D02*
X148450000Y-116050000D01*
X148450000Y-114100000D02*
X142950000Y-114100000D01*
X148450000Y-116050000D02*
X148450000Y-114100000D01*
%TO.C,U2*%
X127190000Y-79090000D02*
X127190000Y-83210000D01*
X127190000Y-83210000D02*
X127285000Y-83210000D01*
X127285000Y-79090000D02*
X127190000Y-79090000D01*
X132215000Y-83210000D02*
X132310000Y-83210000D01*
X132310000Y-79090000D02*
X132215000Y-79090000D01*
X132310000Y-83210000D02*
X132310000Y-79090000D01*
X127280000Y-78550000D02*
X126950000Y-78790000D01*
X126950000Y-78310000D01*
X127280000Y-78550000D01*
G36*
X127280000Y-78550000D02*
G01*
X126950000Y-78790000D01*
X126950000Y-78310000D01*
X127280000Y-78550000D01*
G37*
%TO.C,C28*%
X152110322Y-75845628D02*
X152110322Y-79595628D01*
X152110322Y-86365628D02*
X152110322Y-82615628D01*
X161565885Y-75845628D02*
X152110322Y-75845628D01*
X161565885Y-86365628D02*
X152110322Y-86365628D01*
X162630322Y-76910065D02*
X161565885Y-75845628D01*
X162630322Y-76910065D02*
X162630322Y-79595628D01*
X162630322Y-85301191D02*
X161565885Y-86365628D01*
X162630322Y-85301191D02*
X162630322Y-82615628D01*
X163495322Y-77720628D02*
X163495322Y-78970628D01*
X164120322Y-78345628D02*
X162870322Y-78345628D01*
%TO.C,C10*%
X145440000Y-75842164D02*
X145440000Y-76057836D01*
X146160000Y-75842164D02*
X146160000Y-76057836D01*
%TO.C,Q7*%
X146527501Y-101240000D02*
X146527501Y-102240000D01*
X146527501Y-103360000D02*
X146527501Y-104360000D01*
X146527501Y-104360000D02*
X148047501Y-104360000D01*
X148047501Y-101240000D02*
X146527501Y-101240000D01*
X148047501Y-101290000D02*
X148047501Y-101240000D01*
X148047501Y-103190000D02*
X148047501Y-102410000D01*
X148047501Y-104360000D02*
X148047501Y-104310000D01*
X148827501Y-102750000D02*
X148347501Y-102750000D01*
X148587501Y-102420000D01*
X148827501Y-102750000D01*
G36*
X148827501Y-102750000D02*
G01*
X148347501Y-102750000D01*
X148587501Y-102420000D01*
X148827501Y-102750000D01*
G37*
D12*
%TO.C,U11*%
X141180000Y-107015000D02*
X141180000Y-108265000D01*
X143520000Y-108265000D02*
X143520000Y-107015000D01*
D11*
%TO.C,R8*%
X131920000Y-75913641D02*
X131920000Y-75606359D01*
X132680000Y-75913641D02*
X132680000Y-75606359D01*
D13*
%TO.C,U14*%
X133522999Y-96554000D02*
X140477001Y-96554000D01*
X133522999Y-100508000D02*
X133522999Y-96554000D01*
X140477001Y-96554000D02*
X140477001Y-100508000D01*
X140477001Y-100508000D02*
X133522999Y-100508000D01*
X141747000Y-102181000D02*
G75*
G02*
X141493000Y-102181000I-127000J0D01*
G01*
X141493000Y-102181000D02*
G75*
G02*
X141747000Y-102181000I127000J0D01*
G01*
D11*
%TO.C,C51*%
X138990000Y-110522164D02*
X138990000Y-110737836D01*
X139710000Y-110522164D02*
X139710000Y-110737836D01*
%TD*%
M02*
