M48
; DRILL file {KiCad 9.0.1} date 2025-07-23T20:35:07-0400
; FORMAT={-:-/ absolute / inch / decimal}
; #@! TF.CreationDate,2025-07-23T20:35:07-04:00
; #@! TF.GenerationSoftware,Kicad,Pcbnew,9.0.1
; #@! TF.FileFunction,Plated,1,4,PTH
FMAT,2
INCH
; #@! TA.AperFunction,Plated,PTH,ViaDrill
T1C0.0118
; #@! TA.AperFunction,Plated,PTH,ViaDrill
T2C0.0236
; #@! TA.AperFunction,Plated,PTH,ComponentDrill
T3C0.0236
; #@! TA.AperFunction,Plated,PTH,ComponentDrill
T4C0.0295
%
G90
G05
T1
X3.876Y-3.1535
X3.9134Y-3.1634
X4.0071Y-3.1331
X4.0433Y-3.1949
X4.0453Y-3.25
X4.063Y-3.7705
X4.063Y-3.8028
X4.0669Y-3.1063
X4.0839Y-3.0185
X4.0886Y-3.3374
X4.0886Y-3.3669
X4.0886Y-3.3961
X4.089Y-3.4252
X4.0929Y-3.7709
X4.0929Y-3.8031
X4.098Y-2.8965
X4.098Y-2.9358
X4.1002Y-4.1289
X4.1002Y-4.8415
X4.1041Y-5.5187
X4.1055Y-3.5992
X4.1055Y-3.6291
X4.1063Y-5.0197
X4.1063Y-5.063
X4.1081Y-3.9833
X4.1081Y-4.0266
X4.1081Y-4.6959
X4.1081Y-4.7392
X4.1083Y-4.2697
X4.1083Y-4.3091
X4.1083Y-4.3524
X4.1083Y-4.3957
X4.112Y-5.373
X4.112Y-5.4163
X4.1122Y-5.7047
X4.1122Y-5.748
X4.124Y-3.7709
X4.124Y-3.8031
X4.1317Y-4.1289
X4.1317Y-4.8415
X4.135Y-3.6291
X4.1354Y-3.5996
X4.1356Y-5.5187
X4.1374Y-2.8965
X4.1374Y-2.9358
X4.1457Y-4.9803
X4.1457Y-5.0197
X4.1457Y-5.063
X4.1457Y-5.1063
X4.1474Y-3.9439
X4.1474Y-3.9833
X4.1474Y-4.0266
X4.1474Y-4.0699
X4.1474Y-4.6565
X4.1474Y-4.6959
X4.1474Y-4.7392
X4.1474Y-4.7825
X4.1476Y-4.2697
X4.1476Y-4.3091
X4.1476Y-4.3524
X4.1476Y-4.3957
X4.1514Y-5.3337
X4.1514Y-5.373
X4.1514Y-5.4163
X4.1514Y-5.4597
X4.1516Y-5.6654
X4.1516Y-5.7047
X4.1516Y-5.748
X4.1516Y-5.7913
X4.1539Y-3.7713
X4.1539Y-3.8035
X4.1632Y-4.1289
X4.1632Y-4.8415
X4.1671Y-5.5187
X4.1787Y-2.8965
X4.1787Y-2.9358
X4.1791Y-3.261
X4.185Y-3.7713
X4.185Y-3.8035
X4.185Y-4.9803
X4.185Y-5.0197
X4.185Y-5.063
X4.185Y-5.1063
X4.1868Y-3.9439
X4.1868Y-3.9833
X4.1868Y-4.0266
X4.1868Y-4.0699
X4.1868Y-4.6565
X4.1868Y-4.6959
X4.1868Y-4.7392
X4.1868Y-4.7825
X4.187Y-4.2697
X4.187Y-4.3091
X4.187Y-4.3524
X4.187Y-4.3957
X4.1898Y-3.1331
X4.1898Y-4.4665
X4.1898Y-4.4988
X4.1907Y-5.3337
X4.1907Y-5.373
X4.1907Y-5.4163
X4.1907Y-5.4597
X4.1909Y-5.6654
X4.1909Y-5.7047
X4.1909Y-5.748
X4.1909Y-5.7913
X4.1947Y-4.1289
X4.1947Y-4.8415
X4.1986Y-5.5187
X4.2087Y-3.261
X4.215Y-3.7717
X4.215Y-3.8039
X4.2197Y-4.4669
X4.2197Y-4.4992
X4.2244Y-5.0197
X4.2244Y-5.063
X4.2248Y-3.5453
X4.2248Y-3.5748
X4.2248Y-3.6039
X4.2252Y-3.6331
X4.2262Y-3.9833
X4.2262Y-4.0266
X4.2262Y-4.6959
X4.2262Y-4.7392
X4.2264Y-4.2697
X4.2264Y-4.3091
X4.2264Y-4.3524
X4.2264Y-4.3957
X4.2301Y-5.373
X4.2301Y-5.4163
X4.2303Y-5.7047
X4.2303Y-5.748
X4.2378Y-3.261
X4.2461Y-3.7717
X4.2461Y-3.8039
X4.2669Y-3.2606
X4.2677Y-3.6791
X4.2677Y-3.4972
X4.276Y-3.772
X4.276Y-3.8043
X4.2931Y-3.9439
X4.2931Y-3.9754
X4.2931Y-4.0069
X4.2931Y-4.0384
X4.2931Y-4.0699
X4.2931Y-4.1014
X4.2931Y-4.6565
X4.2931Y-4.688
X4.2931Y-4.7195
X4.2931Y-4.751
X4.2931Y-4.7825
X4.2931Y-4.814
X4.2968Y-3.6787
X4.297Y-5.3337
X4.297Y-5.3652
X4.297Y-5.3967
X4.297Y-5.4282
X4.297Y-5.4597
X4.297Y-5.4911
X4.2972Y-3.4972
X4.3071Y-2.9339
X4.3071Y-2.9752
X4.3071Y-3.0146
X4.3091Y-5.1437
X4.3091Y-5.176
X4.3101Y-4.4498
X4.3101Y-4.4821
X4.3126Y-4.2205
X4.3126Y-4.2528
X4.3154Y-5.6287
X4.3154Y-5.661
X4.3181Y-3.7744
X4.3181Y-3.8067
X4.326Y-3.6787
X4.3264Y-3.4972
X4.339Y-5.1441
X4.339Y-5.1764
X4.34Y-4.4502
X4.34Y-4.4825
X4.3425Y-4.2209
X4.3425Y-4.2531
X4.3453Y-5.6291
X4.3453Y-5.6614
X4.3465Y-2.9339
X4.3465Y-2.9752
X4.3465Y-3.0146
X4.348Y-3.7748
X4.348Y-3.8071
X4.3555Y-3.6787
X4.3791Y-3.7748
X4.3791Y-3.8071
X4.3874Y-3.648
X4.3882Y-3.574
X4.4055Y-4.9311
X4.4091Y-3.7752
X4.4091Y-3.8075
X4.4173Y-5.6122
X4.4213Y-4.2126
X4.439Y-3.7756
X4.439Y-3.8079
X4.4626Y-4.8959
X4.4665Y-4.185
X4.4689Y-3.776
X4.4689Y-3.8083
X4.4756Y-5.5748
X4.4823Y-4.6575
X4.4823Y-4.6898
X4.498Y-3.9075
X4.498Y-3.9469
X4.498Y-3.9843
X4.5Y-3.776
X4.5Y-3.8083
X4.5106Y-5.1559
X4.5118Y-3.3051
X4.5122Y-4.6579
X4.5122Y-4.6902
X4.5142Y-4.4386
X4.5153Y-4.3272
X4.5157Y-5.0354
X4.5197Y-5.7205
X4.524Y-5.3449
X4.524Y-5.3772
X4.5299Y-3.7764
X4.5299Y-3.8087
X4.5374Y-3.9075
X4.5374Y-3.9469
X4.5374Y-3.9843
X4.5374Y-4.0236
X4.5374Y-4.063
X4.5374Y-4.1004
X4.5374Y-4.1378
X4.5394Y-5.1563
X4.5429Y-4.439
X4.5453Y-3.3248
X4.5528Y-5.3453
X4.5528Y-5.3776
X4.5531Y-5.0787
X4.561Y-5.6969
X4.5614Y-5.6681
X4.565Y-3.435
X4.565Y-3.4756
X4.565Y-3.5189
X4.565Y-3.5622
X4.5689Y-4.3201
X4.5713Y-4.439
X4.5748Y-3.9075
X4.5748Y-3.9469
X4.5748Y-3.9843
X4.5846Y-3.6693
X4.6043Y-3.435
X4.6043Y-3.4756
X4.6043Y-3.5189
X4.6043Y-3.5622
X4.6142Y-4.5461
X4.6146Y-5.2457
X4.6177Y-4.3244
X4.6181Y-5.037
X4.6228Y-5.7224
X4.6256Y-5.1488
X4.6437Y-3.435
X4.6437Y-3.4756
X4.6437Y-3.5189
X4.6437Y-3.5622
X4.6465Y-4.3248
X4.6469Y-5.0374
X4.6516Y-5.7228
X4.6543Y-5.1492
X4.6579Y-3.1319
X4.6579Y-3.1713
X4.6831Y-3.435
X4.6831Y-3.4756
X4.6831Y-3.5189
X4.6831Y-3.5622
X4.6972Y-3.1319
X4.6972Y-3.1713
X4.7004Y-4.3079
X4.7004Y-4.3402
X4.7047Y-5.7185
X4.7047Y-5.7508
X4.7079Y-5.1748
X4.7134Y-5.2409
X4.7264Y-5.6732
X4.7291Y-4.3083
X4.7291Y-4.3406
X4.7303Y-4.5177
X4.7335Y-5.7189
X4.7335Y-5.7512
X4.7362Y-4.461
X4.7386Y-3.1319
X4.7386Y-3.1713
X4.7402Y-4.374
X4.752Y-3.374
X4.752Y-3.6555
X4.7535Y-4.1933
X4.7535Y-4.2256
X4.7732Y-5.5972
X4.7835Y-4.1937
X4.7835Y-4.226
X4.802Y-5.5976
X4.8067Y-3.6772
X4.8067Y-3.7094
X4.8067Y-3.7756
X4.8067Y-3.8079
X4.8213Y-4.9921
X4.8213Y-5.0244
X4.8213Y-5.089
X4.8213Y-5.1213
X4.8217Y-4.9276
X4.8217Y-4.9598
X4.8217Y-5.0567
X4.8228Y-4.1886
X4.8228Y-4.2209
X4.8276Y-5.7528
X4.8287Y-3.2933
X4.8295Y-4.485
X4.8295Y-4.5173
X4.8327Y-5.598
X4.8366Y-3.6776
X4.8366Y-3.7098
X4.8366Y-3.776
X4.8366Y-3.8083
X4.8512Y-4.9925
X4.8512Y-5.0248
X4.8512Y-5.0894
X4.8512Y-5.1217
X4.8516Y-4.928
X4.8516Y-4.9602
X4.8516Y-5.0571
X4.8528Y-4.189
X4.8528Y-4.2213
X4.8531Y-5.2165
X4.8594Y-4.4854
X4.8594Y-4.5177
X4.8614Y-5.5984
X4.8622Y-3.6378
X4.8827Y-4.9925
X4.8827Y-5.0248
X4.8827Y-5.0894
X4.8827Y-5.1217
X4.8831Y-4.928
X4.8831Y-4.9602
X4.8831Y-5.0571
X4.8831Y-5.2169
X4.9126Y-4.9929
X4.9126Y-5.0252
X4.9126Y-5.0898
X4.9126Y-5.122
X4.913Y-4.9283
X4.913Y-4.9606
X4.913Y-5.0575
X4.9134Y-3.4744
X4.9374Y-5.5909
X4.9413Y-4.3535
X4.9413Y-4.3858
X4.9685Y-3.2933
X4.9713Y-4.3539
X4.9713Y-4.3862
X4.9718Y-3.655
X4.9831Y-4.4563
X5.0094Y-4.4831
X5.0256Y-3.4488
X5.0287Y-4.3272
X5.0287Y-4.3594
X5.0366Y-4.5106
X5.0406Y-3.5669
X5.0504Y-2.8929
X5.0504Y-2.9343
X5.0504Y-2.9736
X5.0571Y-4.7087
X5.0571Y-4.7409
X5.0571Y-4.8055
X5.0571Y-4.8378
X5.0575Y-4.6441
X5.0575Y-4.6764
X5.0575Y-4.7732
X5.0583Y-4.2567
X5.0583Y-4.289
X5.0587Y-4.3276
X5.0587Y-4.3598
X5.0594Y-3.6846
X5.0594Y-3.7142
X5.0594Y-3.7433
X5.0594Y-3.8024
X5.0598Y-3.7724
X5.0634Y-4.5386
X5.0642Y-3.9228
X5.0799Y-3.5669
X5.0846Y-3.2933
X5.0852Y-4.112
X5.0882Y-4.2571
X5.0882Y-4.2894
X5.0898Y-2.8929
X5.0898Y-2.9343
X5.0898Y-2.9736
X5.0976Y-5.3087
X5.1043Y-4.1831
X5.1102Y-4.1409
X5.1213Y-3.5669
X5.124Y-4.7807
X5.1441Y-5.2555
X5.1457Y-4.6201
X5.1496Y-3.4823
X5.1661Y-5.2327
X5.1693Y-5.7929
X5.1717Y-4.7327
X5.1736Y-3.9299
X5.1764Y-4.0894
X5.1819Y-4.2244
X5.1819Y-4.2634
X5.187Y-4.5787
X5.1921Y-4.848
X5.1933Y-5.2067
X5.1959Y-3.9616
X5.2083Y-4.2937
X5.2106Y-4.8071
X5.2205Y-3.4724
X5.2209Y-5.1831
X5.2264Y-4.7338
X5.2388Y-3.874
X5.2409Y-4.9004
X5.2409Y-4.9327
X5.2429Y-5.161
X5.2565Y-3.7555
X5.2583Y-4.3539
X5.2634Y-3.452
X5.2657Y-5.1386
X5.2709Y-4.9008
X5.2709Y-4.9331
X5.2717Y-4.0335
X5.2732Y-4.1157
X5.2732Y-4.1457
X5.2795Y-4.2559
X5.2798Y-4.501
X5.2827Y-3.9858
X5.287Y-5.1181
X5.2909Y-4.9661
X5.2913Y-3.6209
X5.299Y-3.9601
X5.3028Y-4.1457
X5.3028Y-3.4913
X5.3031Y-4.1161
X5.3071Y-3.3307
X5.3071Y-3.3622
X5.3094Y-5.0969
X5.3138Y-4.8917
X5.315Y-3.9862
X5.3228Y-3.1417
X5.3228Y-3.1811
X5.3232Y-4.2169
X5.3295Y-5.0768
X5.3307Y-3.6272
X5.3315Y-3.9602
X5.3323Y-4.1157
X5.3323Y-4.1457
X5.3346Y-3.6626
X5.3425Y-3.3622
X5.3425Y-3.3937
X5.3425Y-4.3583
X5.3449Y-4.0614
X5.348Y-4.4146
X5.3484Y-3.5945
X5.3508Y-5.0516
X5.3512Y-4.6402
X5.3524Y-4.2165
X5.3567Y-4.59
X5.3583Y-4.7372
X5.3583Y-4.8346
X5.3618Y-4.1457
X5.3622Y-3.1417
X5.3622Y-3.1811
X5.3622Y-4.1161
X5.3661Y-3.6949
X5.3701Y-4.5138
X5.3713Y-4.3079
X5.374Y-4.061
X5.3744Y-5.0283
X5.3815Y-3.5669
X5.3827Y-4.3799
X5.4035Y-3.1417
X5.4035Y-3.1811
X5.4035Y-3.2224
X5.4035Y-3.2618
X5.4154Y-4.1063
X5.4154Y-4.2087
X5.4199Y-4.3569
X5.427Y-3.4687
X5.4343Y-3.8996
X5.4362Y-3.9835
X5.437Y-4.0268
X5.4388Y-3.7341
X5.4409Y-3.7697
X5.4429Y-3.1417
X5.4429Y-3.1811
X5.4429Y-3.2224
X5.4429Y-3.2618
X5.4438Y-3.4953
X5.4626Y-3.8004
X5.4669Y-4.05
X5.4736Y-3.974
X5.4803Y-3.939
X5.4811Y-3.4945
X5.4843Y-4.4705
X5.4843Y-4.9862
X5.4874Y-3.7732
X5.4925Y-3.998
X5.4961Y-4.3453
X5.5118Y-4.5394
X5.5138Y-4.4039
X5.5165Y-3.928
X5.5177Y-3.737
X5.5177Y-3.811
X5.526Y-3.7035
X5.5291Y-3.85
X5.5317Y-3.5612
X5.5354Y-3.5972
X5.5382Y-3.9062
X5.5413Y-4.0413
X5.5472Y-4.3453
X5.5501Y-4.5462
X5.5512Y-4.1575
X5.561Y-3.8122
X5.5628Y-5.1824
X5.563Y-4.5827
X5.5634Y-3.8445
X5.5657Y-4.0114
X5.5709Y-3.7638
X5.5728Y-4.6693
X5.5728Y-4.6988
X5.5728Y-4.7303
X5.5728Y-4.7598
X5.5738Y-3.9101
X5.577Y-3.3014
X5.5772Y-3.4646
X5.59Y-4.0326
X5.5906Y-4.9232
X5.5906Y-4.9528
X5.5945Y-4.4695
X5.5984Y-3.8409
X5.5984Y-4.2293
X5.6024Y-4.6693
X5.6024Y-4.6988
X5.6024Y-4.7303
X5.6024Y-4.7598
X5.6043Y-4.3563
X5.6083Y-3.8799
X5.6134Y-3.8134
X5.6154Y-4.0516
X5.6201Y-4.9232
X5.6201Y-4.9528
X5.6234Y-3.584
X5.6339Y-3.4232
X5.6373Y-3.704
X5.6377Y-3.4546
X5.6618Y-3.7244
X5.665Y-4.5327
X5.6673Y-3.376
X5.6673Y-4.7323
X5.6673Y-4.8386
X5.6689Y-4.5799
X5.6693Y-4.8012
X5.6713Y-4.6201
X5.6713Y-4.6594
X5.6724Y-3.8043
X5.6736Y-3.7634
X5.6803Y-4.1961
X5.6839Y-4.2547
X5.6839Y-4.2847
X5.6839Y-4.3173
X5.6839Y-4.3472
X5.6925Y-3.1839
X5.6925Y-3.2232
X5.6949Y-4.3996
X5.6957Y-4.0226
X5.7067Y-3.7618
X5.7106Y-4.1791
X5.7134Y-4.2847
X5.7134Y-4.3472
X5.7138Y-4.2551
X5.7138Y-4.3177
X5.7295Y-3.7224
X5.7319Y-3.1839
X5.7319Y-3.2232
X5.737Y-3.5134
X5.737Y-3.5457
X5.7441Y-3.7528
X5.7451Y-3.9124
X5.7646Y-2.9169
X5.7646Y-2.9583
X5.7646Y-2.9976
X5.7669Y-3.5138
X5.7669Y-3.5461
X5.7732Y-3.1839
X5.7732Y-3.2232
X5.7756Y-3.8484
X5.7772Y-4.6067
X5.7797Y-4.16
X5.789Y-5.0232
X5.789Y-5.0555
X5.8039Y-2.9169
X5.8039Y-2.9583
X5.8039Y-2.9976
X5.8118Y-3.5024
X5.8118Y-3.5346
X5.813Y-4.3248
X5.8362Y-4.1839
X5.837Y-4.2476
X5.8417Y-3.5028
X5.8417Y-3.535
X5.8508Y-3.1925
X5.8704Y-4.3986
X5.8783Y-5.1319
X5.8783Y-5.1642
X5.8913Y-4.0315
X5.8937Y-3.8327
X5.8947Y-3.9004
X5.9028Y-4.8614
X5.9028Y-4.8937
X5.9035Y-4.2106
X5.9083Y-5.1323
X5.9083Y-5.1646
X5.9148Y-4.0911
X5.9154Y-4.7205
X5.9201Y-3.9362
X5.922Y-4.0287
X5.9327Y-4.8618
X5.9327Y-4.8941
X5.9394Y-3.9803
X5.9445Y-3.8138
X5.9445Y-3.8531
X5.9583Y-4.0365
X5.9839Y-3.8138
X5.9839Y-3.8531
X6.0039Y-4.7638
X6.0118Y-4.7126
X6.0236Y-4.1093
X6.0252Y-3.8138
X6.0252Y-3.8531
X6.0256Y-4.2299
X6.0276Y-4.1742
X6.0335Y-3.6614
X6.0398Y-4.1398
X6.0776Y-4.5909
X6.0827Y-3.5689
X6.1024Y-4.5256
X6.128Y-4.4469
X6.1555Y-4.2756
X6.1614Y-4.8602
X6.1657Y-5.124
X6.1657Y-5.1539
X6.1713Y-3.4067
X6.1713Y-3.4366
X6.1722Y-4.6368
X6.1752Y-3.7559
X6.1835Y-4.9213
X6.1835Y-4.9535
X6.1862Y-4.3445
X6.1953Y-5.1539
X6.1957Y-5.1244
X6.1976Y-3.5559
X6.1976Y-3.5858
X6.2008Y-3.4366
X6.2012Y-3.4071
X6.2102Y-3.2594
X6.2102Y-3.2894
X6.2106Y-4.1791
X6.2134Y-4.9217
X6.2134Y-4.9539
X6.2165Y-4.813
X6.2209Y-3.8835
X6.2209Y-3.9134
X6.2264Y-2.9921
X6.2272Y-3.5858
X6.2276Y-3.5563
X6.2398Y-3.2894
X6.2401Y-2.9647
X6.2402Y-3.2598
X6.2504Y-3.9134
X6.2508Y-3.8839
T2
X3.8386Y-4.4134
X3.8386Y-4.4685
X3.8386Y-4.5197
X3.8386Y-4.5748
X3.8386Y-4.7756
X3.8386Y-4.8307
X3.8386Y-4.8819
X3.8386Y-4.937
X3.8386Y-5.1299
X3.8386Y-5.185
X3.8386Y-5.2362
X3.8386Y-5.2913
X3.8386Y-5.4646
X3.8386Y-5.5197
X3.8386Y-5.5709
X3.8386Y-5.626
X3.8484Y-3.811
X3.8484Y-3.8661
X3.8484Y-3.9193
X3.8484Y-3.9744
X3.8484Y-4.0276
X3.8484Y-4.0827
X3.8976Y-4.4134
X3.8976Y-4.4685
X3.8976Y-4.5197
X3.8976Y-4.5748
X3.8976Y-4.7756
X3.8976Y-4.8307
X3.8976Y-4.8819
X3.8976Y-4.937
X3.8976Y-5.1299
X3.8976Y-5.185
X3.8976Y-5.2362
X3.8976Y-5.2913
X3.8976Y-5.4646
X3.8976Y-5.5197
X3.8976Y-5.5709
X3.8976Y-5.626
X3.9075Y-3.811
X3.9075Y-3.8661
X3.9075Y-3.9193
X3.9075Y-3.9744
X3.9075Y-4.0276
X3.9075Y-4.0827
X3.9567Y-4.4134
X3.9567Y-4.7756
X3.9567Y-4.8307
X3.9567Y-4.8819
X3.9567Y-4.937
X3.9567Y-5.1299
X3.9567Y-5.4646
X3.9567Y-5.5197
X3.9567Y-5.5709
X3.9567Y-5.626
X3.9665Y-3.811
X3.9665Y-3.8661
X3.9665Y-3.9193
X3.9665Y-3.9744
X3.9665Y-4.0276
X3.9665Y-4.0827
X4.0252Y-5.6862
X4.0252Y-5.7453
X4.0252Y-5.8043
X4.0909Y-5.8614
X4.15Y-5.8614
X4.185Y-5.9291
X4.185Y-5.9882
X4.185Y-6.0472
X4.2091Y-5.8614
X4.2402Y-5.9291
X4.2402Y-5.9882
X4.2402Y-6.0472
X4.2913Y-5.9291
X4.2913Y-5.9882
X4.2913Y-6.0472
X4.3465Y-5.9291
X4.3465Y-5.9882
X4.3465Y-6.0472
X4.5079Y-5.9291
X4.5079Y-5.9882
X4.5079Y-6.0472
X4.563Y-5.9291
X4.563Y-5.9882
X4.563Y-6.0472
X4.6142Y-5.9291
X4.6142Y-5.9882
X4.6142Y-6.0472
X4.6693Y-5.9291
X4.6693Y-5.9882
X4.6693Y-6.0472
X4.7921Y-5.9598
X4.7921Y-6.015
X4.8512Y-5.9598
X4.8512Y-6.015
X4.9843Y-5.9291
X4.9843Y-5.9882
X4.9843Y-6.0472
X5.0295Y-5.7031
X5.0295Y-5.7583
X5.0394Y-5.9291
X5.0394Y-5.9882
X5.0394Y-6.0472
X5.0874Y-5.3669
X5.0874Y-5.422
X5.0874Y-5.4811
X5.0874Y-5.5362
X5.0874Y-5.6693
X5.0874Y-5.7244
X5.0906Y-5.9291
X5.0906Y-5.9882
X5.0906Y-6.0472
X5.1457Y-5.9291
X5.1457Y-5.9882
X5.1457Y-6.0472
X5.2508Y-5.5386
X5.3071Y-5.5469
X5.3378Y-6.0484
X5.3378Y-6.1035
X5.3622Y-5.5469
X5.3969Y-6.0484
X5.3969Y-6.1035
X5.4134Y-5.5469
X5.4559Y-6.0484
X5.4559Y-6.1035
X5.4685Y-5.5469
X5.5488Y-5.5406
X5.6063Y-5.5409
X5.6654Y-5.5409
X5.6768Y-5.4929
X5.7248Y-5.798
X5.7248Y-5.8531
X5.7252Y-5.9067
X5.7252Y-5.9618
X5.7303Y-5.3476
X5.7303Y-5.4008
X5.7539Y-5.4937
X5.7539Y-5.5469
X5.7839Y-5.798
X5.7839Y-5.8531
X5.7843Y-5.9067
X5.7843Y-5.9618
X5.811Y-5.3484
X5.811Y-5.4016
X5.8134Y-5.478
X5.8134Y-5.5311
X5.8209Y-5.2291
X5.8429Y-5.798
X5.8429Y-5.8531
X5.8433Y-5.9067
X5.8433Y-5.9618
X5.8437Y-5.2858
X5.8724Y-5.478
X5.8724Y-5.5311
X5.8732Y-5.3504
X5.8732Y-5.4035
X5.874Y-5.2291
X5.8969Y-5.2858
X5.9252Y-5.3654
X5.9252Y-5.4205
X5.9252Y-5.4717
X5.9252Y-5.5268
X5.9933Y-5.1732
X6.0335Y-5.5449
X6.0465Y-5.1732
X6.0563Y-6.0476
X6.0563Y-6.1028
X6.0886Y-5.5449
X6.1154Y-6.0476
X6.1154Y-6.1028
X6.1398Y-5.5449
X6.1744Y-6.0476
X6.1744Y-6.1028
X6.1949Y-5.5449
X6.376Y-5.2335
X6.376Y-5.2866
X6.3803Y-5.4035
X6.3803Y-5.4567
T4
X4.4646Y-2.9606
X4.5433Y-2.9606
X4.622Y-2.9606
X4.815Y-2.9606
X4.8937Y-2.9606
X4.9724Y-2.9606
X5.1654Y-2.9606
X5.2441Y-2.9606
X5.3228Y-2.9606
X5.5157Y-2.9606
X5.5945Y-2.9606
X6.3279Y-2.9715
X6.3279Y-3.0502
X6.3279Y-3.1289
X6.3279Y-3.2077
X6.3279Y-3.4006
X6.3279Y-3.4793
X6.3279Y-3.5581
X6.3279Y-3.6368
X6.3279Y-3.7156
X6.3279Y-3.9085
X6.3279Y-3.9872
X6.3279Y-4.0659
X6.3279Y-4.1447
X6.3279Y-4.2234
X6.3279Y-4.3022
X6.3279Y-4.3809
X6.3279Y-4.4596
X6.3279Y-4.6526
X6.3279Y-4.7313
X6.3279Y-4.81
X6.3279Y-4.8888
X6.3279Y-4.9675
X6.3279Y-5.0463
T3
G00X3.9047Y-2.8894
M15
G01X3.9047Y-2.8579
M16
G05
G00X3.9047Y-3.0606
M15
G01X3.9047Y-3.0173
M16
G05
G00X4.2449Y-2.8894
M15
G01X4.2449Y-2.8579
M16
G05
G00X4.2449Y-3.0606
M15
G01X4.2449Y-3.0173
M16
G05
M30
