%TF.GenerationSoftware,KiCad,Pcbnew,9.0.1*%
%TF.CreationDate,2025-07-23T20:35:11-04:00*%
%TF.ProjectId,resc,72657363-2e6b-4696-9361-645f70636258,rev?*%
%TF.SameCoordinates,Original*%
%TF.FileFunction,Legend,Top*%
%TF.FilePolarity,Positive*%
%FSLAX46Y46*%
G04 Gerber Fmt 4.6, Leading zero omitted, Abs format (unit mm)*
G04 Created by KiCad (PCBNEW 9.0.1) date 2025-07-23 20:35:11*
%MOMM*%
%LPD*%
G01*
G04 APERTURE LIST*
%ADD10C,0.100000*%
%ADD11C,0.150000*%
%ADD12C,0.120000*%
%ADD13C,0.127000*%
%ADD14C,0.200000*%
%ADD15C,0.152400*%
G04 APERTURE END LIST*
D10*
G36*
X122605764Y-143059539D02*
G01*
X122458224Y-143049724D01*
X122329400Y-143021726D01*
X122216441Y-142976985D01*
X122113336Y-142913841D01*
X122028625Y-142837583D01*
X121960353Y-142747397D01*
X121910638Y-142645855D01*
X121880016Y-142531493D01*
X121869372Y-142401549D01*
X121882381Y-142234723D01*
X121920020Y-142085477D01*
X121981358Y-141950799D01*
X122065458Y-141828988D01*
X122167135Y-141726395D01*
X122287882Y-141641465D01*
X122421716Y-141579148D01*
X122568693Y-141541107D01*
X122731672Y-141528014D01*
X122869912Y-141537343D01*
X122990344Y-141563935D01*
X123095716Y-141606416D01*
X123191248Y-141666693D01*
X123270518Y-141741431D01*
X123335074Y-141831852D01*
X123381481Y-141933053D01*
X123410412Y-142049163D01*
X123420559Y-142183196D01*
X123414941Y-142292494D01*
X123398088Y-142396053D01*
X122129735Y-142396053D01*
X122168936Y-142163656D01*
X123232858Y-142163656D01*
X123090098Y-142242058D01*
X123097927Y-142147032D01*
X123090644Y-142068804D01*
X123070559Y-142004043D01*
X123036865Y-141945420D01*
X122992421Y-141897262D01*
X122936103Y-141858475D01*
X122837384Y-141821294D01*
X122714941Y-141808039D01*
X122614349Y-141816395D01*
X122525927Y-141840434D01*
X122447495Y-141879480D01*
X122378270Y-141933011D01*
X122320140Y-141999627D01*
X122272495Y-142080980D01*
X122239114Y-142169758D01*
X122218246Y-142270361D01*
X122210946Y-142384818D01*
X122223743Y-142501690D01*
X122259215Y-142593073D01*
X122315848Y-142664842D01*
X122392041Y-142716109D01*
X122497650Y-142750042D01*
X122642157Y-142762784D01*
X122765774Y-142752565D01*
X122882858Y-142722240D01*
X122989715Y-142672484D01*
X123073367Y-142608789D01*
X123218936Y-142852421D01*
X123136668Y-142915076D01*
X123044179Y-142966840D01*
X122940255Y-143007759D01*
X122776678Y-143046513D01*
X122605764Y-143059539D01*
G37*
G36*
X123588475Y-143040000D02*
G01*
X124002833Y-140962348D01*
X124352833Y-140962348D01*
X123938475Y-143040000D01*
X123588475Y-143040000D01*
G37*
G36*
X125147844Y-143059539D02*
G01*
X125000303Y-143049724D01*
X124871479Y-143021726D01*
X124758521Y-142976985D01*
X124655416Y-142913841D01*
X124570704Y-142837583D01*
X124502432Y-142747397D01*
X124452718Y-142645855D01*
X124422095Y-142531493D01*
X124411452Y-142401549D01*
X124424460Y-142234723D01*
X124462100Y-142085477D01*
X124523437Y-141950799D01*
X124607538Y-141828988D01*
X124709214Y-141726395D01*
X124829962Y-141641465D01*
X124963795Y-141579148D01*
X125110772Y-141541107D01*
X125273751Y-141528014D01*
X125411991Y-141537343D01*
X125532423Y-141563935D01*
X125637795Y-141606416D01*
X125733328Y-141666693D01*
X125812597Y-141741431D01*
X125877153Y-141831852D01*
X125923561Y-141933053D01*
X125952492Y-142049163D01*
X125962638Y-142183196D01*
X125957021Y-142292494D01*
X125940168Y-142396053D01*
X124671815Y-142396053D01*
X124711016Y-142163656D01*
X125774937Y-142163656D01*
X125632178Y-142242058D01*
X125640007Y-142147032D01*
X125632724Y-142068804D01*
X125612638Y-142004043D01*
X125578944Y-141945420D01*
X125534500Y-141897262D01*
X125478182Y-141858475D01*
X125379463Y-141821294D01*
X125257021Y-141808039D01*
X125156428Y-141816395D01*
X125068007Y-141840434D01*
X124989575Y-141879480D01*
X124920350Y-141933011D01*
X124862219Y-141999627D01*
X124814575Y-142080980D01*
X124781193Y-142169758D01*
X124760326Y-142270361D01*
X124753025Y-142384818D01*
X124765822Y-142501690D01*
X124801294Y-142593073D01*
X124857928Y-142664842D01*
X124934121Y-142716109D01*
X125039729Y-142750042D01*
X125184236Y-142762784D01*
X125307853Y-142752565D01*
X125424937Y-142722240D01*
X125531795Y-142672484D01*
X125615447Y-142608789D01*
X125761016Y-142852421D01*
X125678748Y-142915076D01*
X125586259Y-142966840D01*
X125482335Y-143007759D01*
X125318757Y-143046513D01*
X125147844Y-143059539D01*
G37*
G36*
X126878182Y-143059539D02*
G01*
X126732542Y-143049788D01*
X126604123Y-143021849D01*
X126490325Y-142976985D01*
X126386364Y-142913703D01*
X126301670Y-142837436D01*
X126234114Y-142747397D01*
X126185233Y-142645944D01*
X126155085Y-142531574D01*
X126144599Y-142401549D01*
X126157838Y-142236729D01*
X126196321Y-142087923D01*
X126259393Y-141952264D01*
X126345611Y-141829901D01*
X126450467Y-141726794D01*
X126575688Y-141641465D01*
X126714142Y-141579400D01*
X126868072Y-141541228D01*
X127040604Y-141528014D01*
X127189663Y-141538521D01*
X127318779Y-141568425D01*
X127431148Y-141616186D01*
X127531631Y-141684082D01*
X127615678Y-141770630D01*
X127684550Y-141878014D01*
X127384986Y-142032009D01*
X127345656Y-141966116D01*
X127297777Y-141914442D01*
X127240761Y-141875205D01*
X127140178Y-141838137D01*
X127012516Y-141824769D01*
X126917490Y-141832898D01*
X126830298Y-141856730D01*
X126749344Y-141896210D01*
X126676774Y-141949689D01*
X126615393Y-142015098D01*
X126564452Y-142093681D01*
X126527801Y-142179942D01*
X126505150Y-142276344D01*
X126497286Y-142384818D01*
X126509676Y-142496175D01*
X126544499Y-142586035D01*
X126600845Y-142659225D01*
X126675881Y-142713285D01*
X126771872Y-142747547D01*
X126894913Y-142759975D01*
X127014566Y-142747255D01*
X127124501Y-142709661D01*
X127190971Y-142670386D01*
X127250535Y-142618567D01*
X127303776Y-142552857D01*
X127561330Y-142726392D01*
X127484391Y-142822448D01*
X127389885Y-142903865D01*
X127275688Y-142971367D01*
X127151754Y-143020014D01*
X127019817Y-143049500D01*
X126878182Y-143059539D01*
G37*
G36*
X128335824Y-143059539D02*
G01*
X128240413Y-143052099D01*
X128157558Y-143030843D01*
X128085108Y-142996646D01*
X128021670Y-142948718D01*
X127971618Y-142889505D01*
X127933922Y-142817494D01*
X127912279Y-142738786D01*
X127906423Y-142647827D01*
X127918535Y-142541622D01*
X128184515Y-141214406D01*
X128534515Y-141214406D01*
X128268535Y-142538813D01*
X128266298Y-142636208D01*
X128291005Y-142706852D01*
X128322531Y-142740930D01*
X128369931Y-142762893D01*
X128439383Y-142771210D01*
X128541598Y-142755823D01*
X128591314Y-142737085D01*
X128635388Y-142712348D01*
X128696937Y-142970024D01*
X128614765Y-143012557D01*
X128523280Y-143040000D01*
X128428277Y-143054714D01*
X128335824Y-143059539D01*
G37*
G36*
X127817785Y-141836004D02*
G01*
X127873716Y-141555980D01*
X128867785Y-141555980D01*
X128811731Y-141836004D01*
X127817785Y-141836004D01*
G37*
G36*
X128961818Y-143040000D02*
G01*
X129258573Y-141544745D01*
X129591843Y-141544745D01*
X129507823Y-141970460D01*
X129477048Y-141847240D01*
X129555233Y-141735054D01*
X129642658Y-141652976D01*
X129740220Y-141596646D01*
X129848778Y-141559945D01*
X129977342Y-141536414D01*
X130129421Y-141528014D01*
X130065063Y-141861161D01*
X130022931Y-141854200D01*
X129978235Y-141852857D01*
X129845716Y-141865649D01*
X129734166Y-141901974D01*
X129639348Y-141960690D01*
X129580940Y-142018616D01*
X129531302Y-142092932D01*
X129490666Y-142186641D01*
X129460196Y-142303607D01*
X129311818Y-143040000D01*
X128961818Y-143040000D01*
G37*
G36*
X131156099Y-141537510D02*
G01*
X131283494Y-141564603D01*
X131395332Y-141607882D01*
X131497476Y-141669368D01*
X131581287Y-141744654D01*
X131648734Y-141834661D01*
X131697584Y-141936080D01*
X131727820Y-142051290D01*
X131738371Y-142183196D01*
X131725203Y-142346242D01*
X131686786Y-142494701D01*
X131623577Y-142631259D01*
X131537404Y-142754571D01*
X131432923Y-142858562D01*
X131308503Y-142944745D01*
X131170944Y-143007622D01*
X131018469Y-143046204D01*
X130847984Y-143059539D01*
X130704329Y-143049788D01*
X130577786Y-143021853D01*
X130465743Y-142976985D01*
X130363580Y-142913867D01*
X130279758Y-142837620D01*
X130212342Y-142747397D01*
X130163460Y-142645944D01*
X130133312Y-142531574D01*
X130122827Y-142401549D01*
X130124171Y-142384818D01*
X130475513Y-142384818D01*
X130488006Y-142498032D01*
X130522913Y-142588211D01*
X130579072Y-142660568D01*
X130653947Y-142713972D01*
X130749092Y-142747751D01*
X130870332Y-142759975D01*
X130969066Y-142751707D01*
X131057074Y-142727776D01*
X131136312Y-142688656D01*
X131207197Y-142635344D01*
X131267682Y-142569955D01*
X131318395Y-142491186D01*
X131355054Y-142404847D01*
X131377701Y-142308441D01*
X131385562Y-142200048D01*
X131373153Y-142088622D01*
X131338288Y-141998769D01*
X131281881Y-141925642D01*
X131206966Y-141871395D01*
X131111863Y-141837150D01*
X130990743Y-141824769D01*
X130893870Y-141832973D01*
X130806244Y-141856874D01*
X130726106Y-141896210D01*
X130654451Y-141949596D01*
X130593536Y-142014994D01*
X130542680Y-142093681D01*
X130506028Y-142179942D01*
X130483378Y-142276344D01*
X130475513Y-142384818D01*
X130124171Y-142384818D01*
X130136065Y-142236729D01*
X130174549Y-142087923D01*
X130237621Y-141952264D01*
X130323766Y-141829811D01*
X130428199Y-141726712D01*
X130552572Y-141641465D01*
X130690021Y-141579261D01*
X130841649Y-141541159D01*
X131010405Y-141528014D01*
X131156099Y-141537510D01*
G37*
G36*
X133025775Y-141528014D02*
G01*
X133152562Y-141537423D01*
X133260684Y-141564052D01*
X133353305Y-141606416D01*
X133433897Y-141666771D01*
X133496465Y-141742983D01*
X133542348Y-141837470D01*
X133566951Y-141940455D01*
X133571487Y-142063424D01*
X133552240Y-142211161D01*
X133387010Y-143040000D01*
X133037010Y-143040000D01*
X133199432Y-142219588D01*
X133211851Y-142099124D01*
X133199123Y-142006833D01*
X133165848Y-141935411D01*
X133110975Y-141881564D01*
X133029421Y-141846497D01*
X132910981Y-141833196D01*
X132786072Y-141845784D01*
X132681040Y-141881584D01*
X132591755Y-141939685D01*
X132520003Y-142018482D01*
X132462651Y-142124507D01*
X132421030Y-142264406D01*
X132264226Y-143040000D01*
X131914226Y-143040000D01*
X132210981Y-141544745D01*
X132544250Y-141544745D01*
X132460231Y-141970460D01*
X132404177Y-141836004D01*
X132482545Y-141737706D01*
X132571359Y-141660472D01*
X132671623Y-141602264D01*
X132781094Y-141561424D01*
X132898643Y-141536526D01*
X133025775Y-141528014D01*
G37*
G36*
X133831044Y-143040000D02*
G01*
X134127799Y-141544745D01*
X134477799Y-141544745D01*
X134181044Y-143040000D01*
X133831044Y-143040000D01*
G37*
G36*
X134382666Y-141298426D02*
G01*
X134321532Y-141291615D01*
X134271469Y-141272357D01*
X134230014Y-141241029D01*
X134186968Y-141177683D01*
X134172617Y-141102421D01*
X134180104Y-141041684D01*
X134201870Y-140989149D01*
X134238441Y-140942808D01*
X134285812Y-140907607D01*
X134342342Y-140886044D01*
X134410632Y-140878450D01*
X134495928Y-140892597D01*
X134561696Y-140933039D01*
X134605933Y-140993785D01*
X134620559Y-141066029D01*
X134613004Y-141132403D01*
X134591487Y-141187580D01*
X134556201Y-141234068D01*
X134509667Y-141269084D01*
X134452807Y-141290732D01*
X134382666Y-141298426D01*
G37*
G36*
X135387603Y-143059539D02*
G01*
X135241963Y-143049788D01*
X135113544Y-143021849D01*
X134999746Y-142976985D01*
X134895785Y-142913703D01*
X134811091Y-142837436D01*
X134743535Y-142747397D01*
X134694654Y-142645944D01*
X134664506Y-142531574D01*
X134654020Y-142401549D01*
X134667259Y-142236729D01*
X134705742Y-142087923D01*
X134768814Y-141952264D01*
X134855032Y-141829901D01*
X134959888Y-141726794D01*
X135085108Y-141641465D01*
X135223563Y-141579400D01*
X135377492Y-141541228D01*
X135550025Y-141528014D01*
X135699083Y-141538521D01*
X135828200Y-141568425D01*
X135940569Y-141616186D01*
X136041052Y-141684082D01*
X136125099Y-141770630D01*
X136193971Y-141878014D01*
X135894407Y-142032009D01*
X135855077Y-141966116D01*
X135807198Y-141914442D01*
X135750182Y-141875205D01*
X135649599Y-141838137D01*
X135521937Y-141824769D01*
X135426911Y-141832898D01*
X135339718Y-141856730D01*
X135258765Y-141896210D01*
X135186195Y-141949689D01*
X135124814Y-142015098D01*
X135073873Y-142093681D01*
X135037222Y-142179942D01*
X135014571Y-142276344D01*
X135006706Y-142384818D01*
X135019097Y-142496175D01*
X135053920Y-142586035D01*
X135110265Y-142659225D01*
X135185301Y-142713285D01*
X135281293Y-142747547D01*
X135404334Y-142759975D01*
X135523987Y-142747255D01*
X135633922Y-142709661D01*
X135700392Y-142670386D01*
X135759956Y-142618567D01*
X135813196Y-142552857D01*
X136070750Y-142726392D01*
X135993812Y-142822448D01*
X135899306Y-142903865D01*
X135785108Y-142971367D01*
X135661175Y-143020014D01*
X135529238Y-143049500D01*
X135387603Y-143059539D01*
G37*
G36*
X137547076Y-143059539D02*
G01*
X137355104Y-143047368D01*
X137180224Y-143012034D01*
X137021471Y-142956162D01*
X136917052Y-142897240D01*
X137062621Y-142628450D01*
X137162902Y-142685190D01*
X137293674Y-142733475D01*
X137434627Y-142763771D01*
X137583469Y-142774019D01*
X137699355Y-142767508D01*
X137782109Y-142750599D01*
X137839557Y-142726392D01*
X137886726Y-142689238D01*
X137913275Y-142646114D01*
X137922233Y-142594745D01*
X137915724Y-142557213D01*
X137896741Y-142527063D01*
X137863371Y-142502421D01*
X137799912Y-142475589D01*
X137713650Y-142452107D01*
X137517645Y-142410097D01*
X137415158Y-142383137D01*
X137321640Y-142348426D01*
X137238381Y-142299891D01*
X137171797Y-142233632D01*
X137140301Y-142180277D01*
X137120273Y-142114158D01*
X137113057Y-142032009D01*
X137123452Y-141928758D01*
X137153396Y-141839176D01*
X137202572Y-141760411D01*
X137268176Y-141693253D01*
X137350777Y-141635821D01*
X137453165Y-141588220D01*
X137562151Y-141555650D01*
X137685185Y-141535180D01*
X137824292Y-141528014D01*
X137974285Y-141536434D01*
X138121047Y-141561598D01*
X138258319Y-141603912D01*
X138361870Y-141656852D01*
X138233032Y-141925642D01*
X138128332Y-141870962D01*
X138016023Y-141836004D01*
X137900452Y-141817006D01*
X137790709Y-141810847D01*
X137677028Y-141817843D01*
X137594990Y-141836132D01*
X137537184Y-141862627D01*
X137489528Y-141902112D01*
X137463269Y-141944871D01*
X137454630Y-141992808D01*
X137461070Y-142030514D01*
X137480006Y-142061688D01*
X137513371Y-142088063D01*
X137577108Y-142117342D01*
X137663214Y-142142651D01*
X137859219Y-142184661D01*
X137961665Y-142210410D01*
X138055224Y-142244745D01*
X138138561Y-142293024D01*
X138204944Y-142358196D01*
X138236571Y-142410677D01*
X138256606Y-142475411D01*
X138263807Y-142555544D01*
X138253230Y-142660609D01*
X138222786Y-142751588D01*
X138172827Y-142831416D01*
X138106189Y-142899134D01*
X138022656Y-142956067D01*
X137919425Y-143002142D01*
X137809697Y-143033199D01*
X137686214Y-143052713D01*
X137547076Y-143059539D01*
G37*
G36*
X139687132Y-141536896D02*
G01*
X139797584Y-141562755D01*
X139899013Y-141605073D01*
X139991196Y-141664064D01*
X140069706Y-141738245D01*
X140135684Y-141829043D01*
X140183516Y-141930442D01*
X140213367Y-142047419D01*
X140223856Y-142183196D01*
X140216596Y-142308895D01*
X140195408Y-142425144D01*
X140160841Y-142533196D01*
X140112628Y-142635752D01*
X140053445Y-142727831D01*
X139983032Y-142810411D01*
X139902338Y-142883027D01*
X139813447Y-142944024D01*
X139715586Y-142993838D01*
X139612108Y-143030021D01*
X139501951Y-143052035D01*
X139383905Y-143059539D01*
X139260290Y-143051368D01*
X139152832Y-143028109D01*
X139059062Y-142991029D01*
X138974761Y-142937556D01*
X138906190Y-142869897D01*
X138872699Y-142818585D01*
X138720297Y-143583196D01*
X138370297Y-143583196D01*
X138608938Y-142384818D01*
X138961120Y-142384818D01*
X138973511Y-142496175D01*
X139008334Y-142586035D01*
X139064679Y-142659225D01*
X139139585Y-142713401D01*
X139234687Y-142747607D01*
X139355817Y-142759975D01*
X139454551Y-142751707D01*
X139542559Y-142727776D01*
X139621797Y-142688656D01*
X139692682Y-142635344D01*
X139753167Y-142569955D01*
X139803880Y-142491186D01*
X139840539Y-142404847D01*
X139863186Y-142308441D01*
X139871047Y-142200048D01*
X139858638Y-142088622D01*
X139823773Y-141998769D01*
X139767366Y-141925642D01*
X139692451Y-141871395D01*
X139597348Y-141837150D01*
X139476228Y-141824769D01*
X139379355Y-141832973D01*
X139291729Y-141856874D01*
X139211591Y-141896210D01*
X139139945Y-141949600D01*
X139079071Y-142014998D01*
X139028287Y-142093681D01*
X138991635Y-142179942D01*
X138968985Y-142276344D01*
X138961120Y-142384818D01*
X138608938Y-142384818D01*
X138776228Y-141544745D01*
X139109498Y-141544745D01*
X139078129Y-141704036D01*
X139155660Y-141641465D01*
X139275073Y-141579493D01*
X139410600Y-141541313D01*
X139565866Y-141528014D01*
X139687132Y-141536896D01*
G37*
G36*
X141150635Y-143059539D02*
G01*
X141003095Y-143049724D01*
X140874271Y-143021726D01*
X140761312Y-142976985D01*
X140658207Y-142913841D01*
X140573496Y-142837583D01*
X140505224Y-142747397D01*
X140455509Y-142645855D01*
X140424887Y-142531493D01*
X140414243Y-142401549D01*
X140427252Y-142234723D01*
X140464891Y-142085477D01*
X140526228Y-141950799D01*
X140610329Y-141828988D01*
X140712006Y-141726395D01*
X140832753Y-141641465D01*
X140966586Y-141579148D01*
X141113564Y-141541107D01*
X141276542Y-141528014D01*
X141414783Y-141537343D01*
X141535215Y-141563935D01*
X141640586Y-141606416D01*
X141736119Y-141666693D01*
X141815388Y-141741431D01*
X141879944Y-141831852D01*
X141926352Y-141933053D01*
X141955283Y-142049163D01*
X141965429Y-142183196D01*
X141959812Y-142292494D01*
X141942959Y-142396053D01*
X140674606Y-142396053D01*
X140713807Y-142163656D01*
X141777729Y-142163656D01*
X141634969Y-142242058D01*
X141642798Y-142147032D01*
X141635515Y-142068804D01*
X141615429Y-142004043D01*
X141581736Y-141945420D01*
X141537291Y-141897262D01*
X141480974Y-141858475D01*
X141382254Y-141821294D01*
X141259812Y-141808039D01*
X141159220Y-141816395D01*
X141070798Y-141840434D01*
X140992366Y-141879480D01*
X140923141Y-141933011D01*
X140865011Y-141999627D01*
X140817366Y-142080980D01*
X140783985Y-142169758D01*
X140763117Y-142270361D01*
X140755817Y-142384818D01*
X140768614Y-142501690D01*
X140804086Y-142593073D01*
X140860719Y-142664842D01*
X140936912Y-142716109D01*
X141042520Y-142750042D01*
X141187027Y-142762784D01*
X141310645Y-142752565D01*
X141427729Y-142722240D01*
X141534586Y-142672484D01*
X141618238Y-142608789D01*
X141763807Y-142852421D01*
X141681539Y-142915076D01*
X141589050Y-142966840D01*
X141485126Y-143007759D01*
X141321549Y-143046513D01*
X141150635Y-143059539D01*
G37*
G36*
X142883783Y-143059539D02*
G01*
X142736242Y-143049724D01*
X142607418Y-143021726D01*
X142494459Y-142976985D01*
X142391354Y-142913841D01*
X142306643Y-142837583D01*
X142238371Y-142747397D01*
X142188656Y-142645855D01*
X142158034Y-142531493D01*
X142147390Y-142401549D01*
X142160399Y-142234723D01*
X142198038Y-142085477D01*
X142259376Y-141950799D01*
X142343476Y-141828988D01*
X142445153Y-141726395D01*
X142565900Y-141641465D01*
X142699734Y-141579148D01*
X142846711Y-141541107D01*
X143009690Y-141528014D01*
X143147930Y-141537343D01*
X143268362Y-141563935D01*
X143373734Y-141606416D01*
X143469267Y-141666693D01*
X143548536Y-141741431D01*
X143613092Y-141831852D01*
X143659499Y-141933053D01*
X143688430Y-142049163D01*
X143698577Y-142183196D01*
X143692959Y-142292494D01*
X143676106Y-142396053D01*
X142407753Y-142396053D01*
X142446954Y-142163656D01*
X143510876Y-142163656D01*
X143368116Y-142242058D01*
X143375945Y-142147032D01*
X143368662Y-142068804D01*
X143348577Y-142004043D01*
X143314883Y-141945420D01*
X143270439Y-141897262D01*
X143214121Y-141858475D01*
X143115402Y-141821294D01*
X142992959Y-141808039D01*
X142892367Y-141816395D01*
X142803946Y-141840434D01*
X142725513Y-141879480D01*
X142656288Y-141933011D01*
X142598158Y-141999627D01*
X142550513Y-142080980D01*
X142517132Y-142169758D01*
X142496264Y-142270361D01*
X142488964Y-142384818D01*
X142501761Y-142501690D01*
X142537233Y-142593073D01*
X142593866Y-142664842D01*
X142670059Y-142716109D01*
X142775668Y-142750042D01*
X142920175Y-142762784D01*
X143043792Y-142752565D01*
X143160876Y-142722240D01*
X143267733Y-142672484D01*
X143351385Y-142608789D01*
X143496954Y-142852421D01*
X143414687Y-142915076D01*
X143322197Y-142966840D01*
X143218273Y-143007759D01*
X143054696Y-143046513D01*
X142883783Y-143059539D01*
G37*
G36*
X145328043Y-143040000D02*
G01*
X144994896Y-143040000D01*
X145026868Y-142883930D01*
X144961503Y-142936553D01*
X144870210Y-142989563D01*
X144771903Y-143027759D01*
X144662907Y-143051362D01*
X144541337Y-143059539D01*
X144421886Y-143050613D01*
X144311330Y-143024437D01*
X144208067Y-142981259D01*
X144114221Y-142921204D01*
X144035325Y-142846490D01*
X143970053Y-142755823D01*
X143922975Y-142654430D01*
X143893563Y-142537404D01*
X143883224Y-142401549D01*
X143884191Y-142384818D01*
X144236033Y-142384818D01*
X144248287Y-142496278D01*
X144282691Y-142586137D01*
X144338249Y-142659225D01*
X144412390Y-142713228D01*
X144507835Y-142747512D01*
X144630852Y-142759975D01*
X144727730Y-142751782D01*
X144815314Y-142727919D01*
X144895367Y-142688656D01*
X144966994Y-142635211D01*
X145027446Y-142569814D01*
X145077450Y-142491186D01*
X145113352Y-142404922D01*
X145135560Y-142308509D01*
X145143273Y-142200048D01*
X145131013Y-142088509D01*
X145096605Y-141998657D01*
X145041057Y-141925642D01*
X144966906Y-141871568D01*
X144871461Y-141837245D01*
X144748455Y-141824769D01*
X144653429Y-141832898D01*
X144566236Y-141856730D01*
X144485283Y-141896210D01*
X144412816Y-141949741D01*
X144351939Y-142015147D01*
X144301857Y-142093681D01*
X144265962Y-142179867D01*
X144243750Y-142276276D01*
X144236033Y-142384818D01*
X143884191Y-142384818D01*
X143890486Y-142275849D01*
X143911675Y-142159643D01*
X143946239Y-142051671D01*
X143994452Y-141949114D01*
X144053635Y-141857035D01*
X144124048Y-141774455D01*
X144204789Y-141701954D01*
X144293636Y-141641458D01*
X144391372Y-141592494D01*
X144494875Y-141556998D01*
X144605121Y-141535384D01*
X144723298Y-141528014D01*
X144845141Y-141535736D01*
X144950695Y-141557665D01*
X145042401Y-141592494D01*
X145125535Y-141642828D01*
X145194131Y-141706808D01*
X145232611Y-141761489D01*
X145392523Y-140962348D01*
X145742523Y-140962348D01*
X145328043Y-143040000D01*
G37*
G36*
X147308608Y-143059539D02*
G01*
X147162968Y-143049788D01*
X147034549Y-143021849D01*
X146920750Y-142976985D01*
X146816790Y-142913703D01*
X146732095Y-142837436D01*
X146664540Y-142747397D01*
X146615658Y-142645944D01*
X146585510Y-142531574D01*
X146575025Y-142401549D01*
X146588264Y-142236729D01*
X146626747Y-142087923D01*
X146689819Y-141952264D01*
X146776037Y-141829901D01*
X146880893Y-141726794D01*
X147006113Y-141641465D01*
X147144567Y-141579400D01*
X147298497Y-141541228D01*
X147471030Y-141528014D01*
X147620088Y-141538521D01*
X147749205Y-141568425D01*
X147861574Y-141616186D01*
X147962057Y-141684082D01*
X148046104Y-141770630D01*
X148114976Y-141878014D01*
X147815412Y-142032009D01*
X147776082Y-141966116D01*
X147728203Y-141914442D01*
X147671187Y-141875205D01*
X147570604Y-141838137D01*
X147442942Y-141824769D01*
X147347916Y-141832898D01*
X147260723Y-141856730D01*
X147179770Y-141896210D01*
X147107200Y-141949689D01*
X147045819Y-142015098D01*
X146994878Y-142093681D01*
X146958227Y-142179942D01*
X146935576Y-142276344D01*
X146927711Y-142384818D01*
X146940102Y-142496175D01*
X146974925Y-142586035D01*
X147031270Y-142659225D01*
X147106306Y-142713285D01*
X147202298Y-142747547D01*
X147325339Y-142759975D01*
X147444992Y-142747255D01*
X147554927Y-142709661D01*
X147621397Y-142670386D01*
X147680961Y-142618567D01*
X147734201Y-142552857D01*
X147991755Y-142726392D01*
X147914817Y-142822448D01*
X147820311Y-142903865D01*
X147706113Y-142971367D01*
X147582180Y-143020014D01*
X147450243Y-143049500D01*
X147308608Y-143059539D01*
G37*
G36*
X149212484Y-141537510D02*
G01*
X149339879Y-141564603D01*
X149451717Y-141607882D01*
X149553861Y-141669368D01*
X149637672Y-141744654D01*
X149705119Y-141834661D01*
X149753969Y-141936080D01*
X149784205Y-142051290D01*
X149794756Y-142183196D01*
X149781589Y-142346242D01*
X149743171Y-142494701D01*
X149679962Y-142631259D01*
X149593789Y-142754571D01*
X149489308Y-142858562D01*
X149364889Y-142944745D01*
X149227329Y-143007622D01*
X149074854Y-143046204D01*
X148904369Y-143059539D01*
X148760714Y-143049788D01*
X148634171Y-143021853D01*
X148522129Y-142976985D01*
X148419965Y-142913867D01*
X148336143Y-142837620D01*
X148268727Y-142747397D01*
X148219845Y-142645944D01*
X148189697Y-142531574D01*
X148179212Y-142401549D01*
X148180556Y-142384818D01*
X148531898Y-142384818D01*
X148544391Y-142498032D01*
X148579298Y-142588211D01*
X148635457Y-142660568D01*
X148710332Y-142713972D01*
X148805477Y-142747751D01*
X148926717Y-142759975D01*
X149025451Y-142751707D01*
X149113459Y-142727776D01*
X149192697Y-142688656D01*
X149263582Y-142635344D01*
X149324068Y-142569955D01*
X149374780Y-142491186D01*
X149411440Y-142404847D01*
X149434087Y-142308441D01*
X149441947Y-142200048D01*
X149429539Y-142088622D01*
X149394673Y-141998769D01*
X149338266Y-141925642D01*
X149263351Y-141871395D01*
X149168248Y-141837150D01*
X149047129Y-141824769D01*
X148950255Y-141832973D01*
X148862629Y-141856874D01*
X148782492Y-141896210D01*
X148710837Y-141949596D01*
X148649921Y-142014994D01*
X148599065Y-142093681D01*
X148562414Y-142179942D01*
X148539763Y-142276344D01*
X148531898Y-142384818D01*
X148180556Y-142384818D01*
X148192451Y-142236729D01*
X148230934Y-142087923D01*
X148294006Y-141952264D01*
X148380152Y-141829811D01*
X148484584Y-141726712D01*
X148608957Y-141641465D01*
X148746406Y-141579261D01*
X148898035Y-141541159D01*
X149066790Y-141528014D01*
X149212484Y-141537510D01*
G37*
G36*
X151082160Y-141528014D02*
G01*
X151208948Y-141537423D01*
X151317069Y-141564052D01*
X151409690Y-141606416D01*
X151490282Y-141666771D01*
X151552850Y-141742983D01*
X151598734Y-141837470D01*
X151623336Y-141940455D01*
X151627873Y-142063424D01*
X151608626Y-142211161D01*
X151443395Y-143040000D01*
X151093395Y-143040000D01*
X151255817Y-142219588D01*
X151268236Y-142099124D01*
X151255508Y-142006833D01*
X151222233Y-141935411D01*
X151167360Y-141881564D01*
X151085806Y-141846497D01*
X150967366Y-141833196D01*
X150842457Y-141845784D01*
X150737425Y-141881584D01*
X150648141Y-141939685D01*
X150576389Y-142018482D01*
X150519037Y-142124507D01*
X150477415Y-142264406D01*
X150320611Y-143040000D01*
X149970611Y-143040000D01*
X150267366Y-141544745D01*
X150600635Y-141544745D01*
X150516616Y-141970460D01*
X150460562Y-141836004D01*
X150538930Y-141737706D01*
X150627744Y-141660472D01*
X150728008Y-141602264D01*
X150837479Y-141561424D01*
X150955029Y-141536526D01*
X151082160Y-141528014D01*
G37*
G36*
X152447478Y-143059539D02*
G01*
X152352067Y-143052099D01*
X152269212Y-143030843D01*
X152196762Y-142996646D01*
X152133324Y-142948718D01*
X152083272Y-142889505D01*
X152045576Y-142817494D01*
X152023933Y-142738786D01*
X152018077Y-142647827D01*
X152030189Y-142541622D01*
X152296169Y-141214406D01*
X152646169Y-141214406D01*
X152380189Y-142538813D01*
X152377951Y-142636208D01*
X152402659Y-142706852D01*
X152434185Y-142740930D01*
X152481585Y-142762893D01*
X152551037Y-142771210D01*
X152653252Y-142755823D01*
X152702968Y-142737085D01*
X152747041Y-142712348D01*
X152808591Y-142970024D01*
X152726419Y-143012557D01*
X152634934Y-143040000D01*
X152539930Y-143054714D01*
X152447478Y-143059539D01*
G37*
G36*
X151929439Y-141836004D02*
G01*
X151985370Y-141555980D01*
X152979439Y-141555980D01*
X152923385Y-141836004D01*
X151929439Y-141836004D01*
G37*
G36*
X153073472Y-143040000D02*
G01*
X153370227Y-141544745D01*
X153703496Y-141544745D01*
X153619477Y-141970460D01*
X153588702Y-141847240D01*
X153666887Y-141735054D01*
X153754312Y-141652976D01*
X153851874Y-141596646D01*
X153960432Y-141559945D01*
X154088996Y-141536414D01*
X154241075Y-141528014D01*
X154176717Y-141861161D01*
X154134585Y-141854200D01*
X154089889Y-141852857D01*
X153957370Y-141865649D01*
X153845820Y-141901974D01*
X153751002Y-141960690D01*
X153692594Y-142018616D01*
X153642956Y-142092932D01*
X153602320Y-142186641D01*
X153571850Y-142303607D01*
X153423472Y-143040000D01*
X153073472Y-143040000D01*
G37*
G36*
X155267753Y-141537510D02*
G01*
X155395147Y-141564603D01*
X155506986Y-141607882D01*
X155609130Y-141669368D01*
X155692941Y-141744654D01*
X155760388Y-141834661D01*
X155809238Y-141936080D01*
X155839474Y-142051290D01*
X155850025Y-142183196D01*
X155836857Y-142346242D01*
X155798440Y-142494701D01*
X155735231Y-142631259D01*
X155649058Y-142754571D01*
X155544577Y-142858562D01*
X155420157Y-142944745D01*
X155282598Y-143007622D01*
X155130122Y-143046204D01*
X154959637Y-143059539D01*
X154815983Y-143049788D01*
X154689440Y-143021853D01*
X154577397Y-142976985D01*
X154475234Y-142913867D01*
X154391412Y-142837620D01*
X154323995Y-142747397D01*
X154275114Y-142645944D01*
X154244966Y-142531574D01*
X154234480Y-142401549D01*
X154235824Y-142384818D01*
X154587167Y-142384818D01*
X154599660Y-142498032D01*
X154634567Y-142588211D01*
X154690726Y-142660568D01*
X154765601Y-142713972D01*
X154860746Y-142747751D01*
X154981986Y-142759975D01*
X155080720Y-142751707D01*
X155168727Y-142727776D01*
X155247966Y-142688656D01*
X155318851Y-142635344D01*
X155379336Y-142569955D01*
X155430049Y-142491186D01*
X155466708Y-142404847D01*
X155489355Y-142308441D01*
X155497216Y-142200048D01*
X155484807Y-142088622D01*
X155449942Y-141998769D01*
X155393535Y-141925642D01*
X155318620Y-141871395D01*
X155223517Y-141837150D01*
X155102397Y-141824769D01*
X155005524Y-141832973D01*
X154917898Y-141856874D01*
X154837760Y-141896210D01*
X154766105Y-141949596D01*
X154705190Y-142014994D01*
X154654334Y-142093681D01*
X154617682Y-142179942D01*
X154595032Y-142276344D01*
X154587167Y-142384818D01*
X154235824Y-142384818D01*
X154247719Y-142236729D01*
X154286203Y-142087923D01*
X154349275Y-141952264D01*
X154435420Y-141829811D01*
X154539853Y-141726712D01*
X154664226Y-141641465D01*
X154801674Y-141579261D01*
X154953303Y-141541159D01*
X155122059Y-141528014D01*
X155267753Y-141537510D01*
G37*
G36*
X156025880Y-143040000D02*
G01*
X156440238Y-140962348D01*
X156790238Y-140962348D01*
X156375880Y-143040000D01*
X156025880Y-143040000D01*
G37*
G36*
X156834812Y-143040000D02*
G01*
X157249170Y-140962348D01*
X157599170Y-140962348D01*
X157184812Y-143040000D01*
X156834812Y-143040000D01*
G37*
G36*
X158394180Y-143059539D02*
G01*
X158246640Y-143049724D01*
X158117816Y-143021726D01*
X158004857Y-142976985D01*
X157901752Y-142913841D01*
X157817041Y-142837583D01*
X157748769Y-142747397D01*
X157699054Y-142645855D01*
X157668432Y-142531493D01*
X157657788Y-142401549D01*
X157670797Y-142234723D01*
X157708436Y-142085477D01*
X157769773Y-141950799D01*
X157853874Y-141828988D01*
X157955551Y-141726395D01*
X158076298Y-141641465D01*
X158210131Y-141579148D01*
X158357109Y-141541107D01*
X158520087Y-141528014D01*
X158658328Y-141537343D01*
X158778760Y-141563935D01*
X158884131Y-141606416D01*
X158979664Y-141666693D01*
X159058933Y-141741431D01*
X159123489Y-141831852D01*
X159169897Y-141933053D01*
X159198828Y-142049163D01*
X159208974Y-142183196D01*
X159203357Y-142292494D01*
X159186504Y-142396053D01*
X157918151Y-142396053D01*
X157957352Y-142163656D01*
X159021274Y-142163656D01*
X158878514Y-142242058D01*
X158886343Y-142147032D01*
X158879060Y-142068804D01*
X158858974Y-142004043D01*
X158825281Y-141945420D01*
X158780836Y-141897262D01*
X158724519Y-141858475D01*
X158625799Y-141821294D01*
X158503357Y-141808039D01*
X158402765Y-141816395D01*
X158314343Y-141840434D01*
X158235911Y-141879480D01*
X158166686Y-141933011D01*
X158108556Y-141999627D01*
X158060911Y-142080980D01*
X158027530Y-142169758D01*
X158006662Y-142270361D01*
X157999362Y-142384818D01*
X158012159Y-142501690D01*
X158047631Y-142593073D01*
X158104264Y-142664842D01*
X158180457Y-142716109D01*
X158286065Y-142750042D01*
X158430572Y-142762784D01*
X158554190Y-142752565D01*
X158671274Y-142722240D01*
X158778131Y-142672484D01*
X158861783Y-142608789D01*
X159007352Y-142852421D01*
X158925084Y-142915076D01*
X158832595Y-142966840D01*
X158728671Y-143007759D01*
X158565094Y-143046513D01*
X158394180Y-143059539D01*
G37*
G36*
X159376891Y-143040000D02*
G01*
X159673646Y-141544745D01*
X160006916Y-141544745D01*
X159922896Y-141970460D01*
X159892122Y-141847240D01*
X159970306Y-141735054D01*
X160057731Y-141652976D01*
X160155293Y-141596646D01*
X160263851Y-141559945D01*
X160392415Y-141536414D01*
X160544494Y-141528014D01*
X160480136Y-141861161D01*
X160438004Y-141854200D01*
X160393308Y-141852857D01*
X160260789Y-141865649D01*
X160149239Y-141901974D01*
X160054421Y-141960690D01*
X159996013Y-142018616D01*
X159946375Y-142092932D01*
X159905739Y-142186641D01*
X159875269Y-142303607D01*
X159726891Y-143040000D01*
X159376891Y-143040000D01*
G37*
G36*
X145886307Y-145044739D02*
G01*
X145931599Y-145008760D01*
X146022913Y-144956646D01*
X146121227Y-144919201D01*
X146230274Y-144896041D01*
X146351908Y-144888014D01*
X146473175Y-144896896D01*
X146583627Y-144922755D01*
X146685056Y-144965073D01*
X146777239Y-145024064D01*
X146855748Y-145098245D01*
X146921727Y-145189043D01*
X146969559Y-145290442D01*
X146999410Y-145407419D01*
X147009899Y-145543196D01*
X147002639Y-145668895D01*
X146981451Y-145785144D01*
X146946884Y-145893196D01*
X146898671Y-145995752D01*
X146839488Y-146087831D01*
X146769075Y-146170411D01*
X146688381Y-146243027D01*
X146599490Y-146304024D01*
X146501629Y-146353838D01*
X146398150Y-146390021D01*
X146287993Y-146412035D01*
X146169948Y-146419539D01*
X146048086Y-146411680D01*
X145942456Y-146389348D01*
X145850600Y-146353838D01*
X145767489Y-146302666D01*
X145698928Y-146238218D01*
X145646067Y-146162978D01*
X145598663Y-146400000D01*
X145265516Y-146400000D01*
X145396183Y-145744818D01*
X145747163Y-145744818D01*
X145759554Y-145856175D01*
X145794377Y-145946035D01*
X145850722Y-146019225D01*
X145925628Y-146073401D01*
X146020730Y-146107607D01*
X146141860Y-146119975D01*
X146240594Y-146111707D01*
X146328601Y-146087776D01*
X146407840Y-146048656D01*
X146478725Y-145995344D01*
X146539210Y-145929955D01*
X146589923Y-145851186D01*
X146626582Y-145764847D01*
X146649229Y-145668441D01*
X146657090Y-145560048D01*
X146644681Y-145448622D01*
X146609816Y-145358769D01*
X146553409Y-145285642D01*
X146478494Y-145231395D01*
X146383391Y-145197150D01*
X146262271Y-145184769D01*
X146165398Y-145192973D01*
X146077772Y-145216874D01*
X145997634Y-145256210D01*
X145925988Y-145309600D01*
X145865114Y-145374998D01*
X145814330Y-145453681D01*
X145777678Y-145539942D01*
X145755028Y-145636344D01*
X145747163Y-145744818D01*
X145396183Y-145744818D01*
X145679874Y-144322348D01*
X146029874Y-144322348D01*
X145886307Y-145044739D01*
G37*
G36*
X147182456Y-146962857D02*
G01*
X147071727Y-146953765D01*
X146962638Y-146926343D01*
X146862730Y-146882724D01*
X146790446Y-146831210D01*
X146964103Y-146576343D01*
X147014541Y-146614351D01*
X147071814Y-146644975D01*
X147135054Y-146664647D01*
X147210422Y-146671598D01*
X147293145Y-146659885D01*
X147365760Y-146625314D01*
X147430449Y-146567547D01*
X147504490Y-146467166D01*
X147636015Y-146262857D01*
X147669599Y-146226343D01*
X148492819Y-144904745D01*
X148842819Y-144904745D01*
X147812481Y-146531646D01*
X147706214Y-146683229D01*
X147613545Y-146789200D01*
X147514062Y-146872189D01*
X147416197Y-146923656D01*
X147309441Y-146952594D01*
X147182456Y-146962857D01*
G37*
G36*
X147566040Y-146453244D02*
G01*
X147199187Y-144904745D01*
X147549187Y-144904745D01*
X147843255Y-146195568D01*
X147566040Y-146453244D01*
G37*
G36*
X149532927Y-146400000D02*
G01*
X149829682Y-144904745D01*
X150162952Y-144904745D01*
X150078932Y-145330460D01*
X150048158Y-145207240D01*
X150126342Y-145095054D01*
X150213767Y-145012976D01*
X150311329Y-144956646D01*
X150419887Y-144919945D01*
X150548451Y-144896414D01*
X150700530Y-144888014D01*
X150636172Y-145221161D01*
X150594040Y-145214200D01*
X150549344Y-145212857D01*
X150416825Y-145225649D01*
X150305275Y-145261974D01*
X150210457Y-145320690D01*
X150152049Y-145378616D01*
X150102411Y-145452932D01*
X150061775Y-145546641D01*
X150031305Y-145663607D01*
X149882927Y-146400000D01*
X149532927Y-146400000D01*
G37*
G36*
X151430328Y-146419539D02*
G01*
X151282787Y-146409724D01*
X151153963Y-146381726D01*
X151041005Y-146336985D01*
X150937900Y-146273841D01*
X150853188Y-146197583D01*
X150784916Y-146107397D01*
X150735201Y-146005855D01*
X150704579Y-145891493D01*
X150693936Y-145761549D01*
X150706944Y-145594723D01*
X150744583Y-145445477D01*
X150805921Y-145310799D01*
X150890021Y-145188988D01*
X150991698Y-145086395D01*
X151112446Y-145001465D01*
X151246279Y-144939148D01*
X151393256Y-144901107D01*
X151556235Y-144888014D01*
X151694475Y-144897343D01*
X151814907Y-144923935D01*
X151920279Y-144966416D01*
X152015812Y-145026693D01*
X152095081Y-145101431D01*
X152159637Y-145191852D01*
X152206045Y-145293053D01*
X152234976Y-145409163D01*
X152245122Y-145543196D01*
X152239504Y-145652494D01*
X152222652Y-145756053D01*
X150954299Y-145756053D01*
X150993499Y-145523656D01*
X152057421Y-145523656D01*
X151914661Y-145602058D01*
X151922490Y-145507032D01*
X151915208Y-145428804D01*
X151895122Y-145364043D01*
X151861428Y-145305420D01*
X151816984Y-145257262D01*
X151760666Y-145218475D01*
X151661947Y-145181294D01*
X151539504Y-145168039D01*
X151438912Y-145176395D01*
X151350491Y-145200434D01*
X151272058Y-145239480D01*
X151202833Y-145293011D01*
X151144703Y-145359627D01*
X151097058Y-145440980D01*
X151063677Y-145529758D01*
X151042810Y-145630361D01*
X151035509Y-145744818D01*
X151048306Y-145861690D01*
X151083778Y-145953073D01*
X151140412Y-146024842D01*
X151216605Y-146076109D01*
X151322213Y-146110042D01*
X151466720Y-146122784D01*
X151590337Y-146112565D01*
X151707421Y-146082240D01*
X151814278Y-146032484D01*
X151897931Y-145968789D01*
X152043499Y-146212421D01*
X151961232Y-146275076D01*
X151868742Y-146326840D01*
X151764818Y-146367759D01*
X151601241Y-146406513D01*
X151430328Y-146419539D01*
G37*
G36*
X152422931Y-146962857D02*
G01*
X152312202Y-146953765D01*
X152203112Y-146926343D01*
X152103204Y-146882724D01*
X152030921Y-146831210D01*
X152204578Y-146576343D01*
X152255016Y-146614351D01*
X152312289Y-146644975D01*
X152375529Y-146664647D01*
X152450897Y-146671598D01*
X152533619Y-146659885D01*
X152606235Y-146625314D01*
X152670924Y-146567547D01*
X152744965Y-146467166D01*
X152876490Y-146262857D01*
X152910073Y-146226343D01*
X153733294Y-144904745D01*
X154083294Y-144904745D01*
X153052955Y-146531646D01*
X152946688Y-146683229D01*
X152854019Y-146789200D01*
X152754536Y-146872189D01*
X152656671Y-146923656D01*
X152549915Y-146952594D01*
X152422931Y-146962857D01*
G37*
G36*
X152806514Y-146453244D02*
G01*
X152439661Y-144904745D01*
X152789661Y-144904745D01*
X153083730Y-146195568D01*
X152806514Y-146453244D01*
G37*
G36*
X154365638Y-146055617D02*
G01*
X154441232Y-145624406D01*
X155339923Y-144904745D01*
X155815952Y-144904745D01*
X154976001Y-145582397D01*
X154788423Y-145719539D01*
X154365638Y-146055617D01*
G37*
G36*
X154001594Y-146400000D02*
G01*
X154415952Y-144322348D01*
X154765952Y-144322348D01*
X154351594Y-146400000D01*
X154001594Y-146400000D01*
G37*
G36*
X155144040Y-146400000D02*
G01*
X154726751Y-145725157D01*
X154967575Y-145456367D01*
X155549972Y-146400000D01*
X155144040Y-146400000D01*
G37*
G36*
X156670211Y-144896055D02*
G01*
X156777155Y-144918889D01*
X156869982Y-144955181D01*
X156953376Y-145007723D01*
X157021482Y-145074858D01*
X157054659Y-145125771D01*
X157098227Y-144904745D01*
X157448227Y-144904745D01*
X157151350Y-146400000D01*
X156818203Y-146400000D01*
X156849182Y-146242453D01*
X156773384Y-146304745D01*
X156654696Y-146367340D01*
X156518810Y-146406020D01*
X156361835Y-146419539D01*
X156242401Y-146410591D01*
X156132310Y-146384397D01*
X156029909Y-146341259D01*
X155936903Y-146281341D01*
X155858004Y-146206640D01*
X155792017Y-146115823D01*
X155744181Y-146014346D01*
X155714331Y-145897326D01*
X155703845Y-145761549D01*
X155704810Y-145744818D01*
X156056532Y-145744818D01*
X156068922Y-145856175D01*
X156103745Y-145946035D01*
X156160091Y-146019225D01*
X156235071Y-146073406D01*
X156330218Y-146107610D01*
X156451350Y-146119975D01*
X156550084Y-146111707D01*
X156638092Y-146087776D01*
X156717331Y-146048656D01*
X156788216Y-145995344D01*
X156848701Y-145929955D01*
X156899414Y-145851186D01*
X156936073Y-145764847D01*
X156958720Y-145668441D01*
X156966580Y-145560048D01*
X156954172Y-145448622D01*
X156919306Y-145358769D01*
X156862899Y-145285642D01*
X156787984Y-145231395D01*
X156692882Y-145197150D01*
X156571762Y-145184769D01*
X156474888Y-145192973D01*
X156387262Y-145216874D01*
X156307125Y-145256210D01*
X156235470Y-145309596D01*
X156174554Y-145374994D01*
X156123698Y-145453681D01*
X156087047Y-145539942D01*
X156064396Y-145636344D01*
X156056532Y-145744818D01*
X155704810Y-145744818D01*
X155711093Y-145635845D01*
X155732242Y-145519638D01*
X155766737Y-145411671D01*
X155814951Y-145309114D01*
X155874133Y-145217035D01*
X155944546Y-145134455D01*
X156025292Y-145061961D01*
X156114178Y-145001464D01*
X156211992Y-144952494D01*
X156315521Y-144917069D01*
X156426635Y-144895420D01*
X156546605Y-144888014D01*
X156670211Y-144896055D01*
G37*
G36*
X158170576Y-146419539D02*
G01*
X158075165Y-146412099D01*
X157992310Y-146390843D01*
X157919860Y-146356646D01*
X157856422Y-146308718D01*
X157806370Y-146249505D01*
X157768674Y-146177494D01*
X157747031Y-146098786D01*
X157741175Y-146007827D01*
X157753287Y-145901622D01*
X158019267Y-144574406D01*
X158369267Y-144574406D01*
X158103287Y-145898813D01*
X158101049Y-145996208D01*
X158125757Y-146066852D01*
X158157283Y-146100930D01*
X158204683Y-146122893D01*
X158274135Y-146131210D01*
X158376350Y-146115823D01*
X158426066Y-146097085D01*
X158470139Y-146072348D01*
X158531689Y-146330024D01*
X158449517Y-146372557D01*
X158358032Y-146400000D01*
X158263028Y-146414714D01*
X158170576Y-146419539D01*
G37*
G36*
X157652536Y-145196004D02*
G01*
X157708468Y-144915980D01*
X158702536Y-144915980D01*
X158646483Y-145196004D01*
X157652536Y-145196004D01*
G37*
G36*
X159793084Y-144897510D02*
G01*
X159920479Y-144924603D01*
X160032317Y-144967882D01*
X160134461Y-145029368D01*
X160218272Y-145104654D01*
X160285719Y-145194661D01*
X160334569Y-145296080D01*
X160364805Y-145411290D01*
X160375356Y-145543196D01*
X160362188Y-145706242D01*
X160323771Y-145854701D01*
X160260562Y-145991259D01*
X160174389Y-146114571D01*
X160069908Y-146218562D01*
X159945488Y-146304745D01*
X159807929Y-146367622D01*
X159655454Y-146406204D01*
X159484968Y-146419539D01*
X159341314Y-146409788D01*
X159214771Y-146381853D01*
X159102728Y-146336985D01*
X159000565Y-146273867D01*
X158916743Y-146197620D01*
X158849326Y-146107397D01*
X158800445Y-146005944D01*
X158770297Y-145891574D01*
X158759811Y-145761549D01*
X158761155Y-145744818D01*
X159112498Y-145744818D01*
X159124991Y-145858032D01*
X159159898Y-145948211D01*
X159216057Y-146020568D01*
X159290932Y-146073972D01*
X159386077Y-146107751D01*
X159507317Y-146119975D01*
X159606051Y-146111707D01*
X159694058Y-146087776D01*
X159773297Y-146048656D01*
X159844182Y-145995344D01*
X159904667Y-145929955D01*
X159955380Y-145851186D01*
X159992039Y-145764847D01*
X160014686Y-145668441D01*
X160022547Y-145560048D01*
X160010138Y-145448622D01*
X159975273Y-145358769D01*
X159918866Y-145285642D01*
X159843951Y-145231395D01*
X159748848Y-145197150D01*
X159627728Y-145184769D01*
X159530855Y-145192973D01*
X159443229Y-145216874D01*
X159363091Y-145256210D01*
X159291436Y-145309596D01*
X159230521Y-145374994D01*
X159179665Y-145453681D01*
X159143013Y-145539942D01*
X159120363Y-145636344D01*
X159112498Y-145744818D01*
X158761155Y-145744818D01*
X158773050Y-145596729D01*
X158811534Y-145447923D01*
X158874606Y-145312264D01*
X158960751Y-145189811D01*
X159065184Y-145086712D01*
X159189557Y-145001465D01*
X159327005Y-144939261D01*
X159478634Y-144901159D01*
X159647390Y-144888014D01*
X159793084Y-144897510D01*
G37*
G36*
X153429089Y-149760000D02*
G01*
X153725844Y-148264745D01*
X154059114Y-148264745D01*
X153975094Y-148690460D01*
X153944320Y-148567240D01*
X154022504Y-148455054D01*
X154109929Y-148372976D01*
X154207491Y-148316646D01*
X154316049Y-148279945D01*
X154444613Y-148256414D01*
X154596692Y-148248014D01*
X154532334Y-148581161D01*
X154490202Y-148574200D01*
X154445506Y-148572857D01*
X154312987Y-148585649D01*
X154201437Y-148621974D01*
X154106619Y-148680690D01*
X154048211Y-148738616D01*
X153998573Y-148812932D01*
X153957937Y-148906641D01*
X153927467Y-149023607D01*
X153779089Y-149760000D01*
X153429089Y-149760000D01*
G37*
G36*
X155326490Y-149779539D02*
G01*
X155178949Y-149769724D01*
X155050125Y-149741726D01*
X154937167Y-149696985D01*
X154834062Y-149633841D01*
X154749350Y-149557583D01*
X154681078Y-149467397D01*
X154631363Y-149365855D01*
X154600741Y-149251493D01*
X154590098Y-149121549D01*
X154603106Y-148954723D01*
X154640745Y-148805477D01*
X154702083Y-148670799D01*
X154786183Y-148548988D01*
X154887860Y-148446395D01*
X155008608Y-148361465D01*
X155142441Y-148299148D01*
X155289418Y-148261107D01*
X155452397Y-148248014D01*
X155590637Y-148257343D01*
X155711069Y-148283935D01*
X155816441Y-148326416D01*
X155911974Y-148386693D01*
X155991243Y-148461431D01*
X156055799Y-148551852D01*
X156102207Y-148653053D01*
X156131138Y-148769163D01*
X156141284Y-148903196D01*
X156135666Y-149012494D01*
X156118814Y-149116053D01*
X154850460Y-149116053D01*
X154889661Y-148883656D01*
X155953583Y-148883656D01*
X155810823Y-148962058D01*
X155818652Y-148867032D01*
X155811370Y-148788804D01*
X155791284Y-148724043D01*
X155757590Y-148665420D01*
X155713146Y-148617262D01*
X155656828Y-148578475D01*
X155558109Y-148541294D01*
X155435666Y-148528039D01*
X155335074Y-148536395D01*
X155246653Y-148560434D01*
X155168220Y-148599480D01*
X155098995Y-148653011D01*
X155040865Y-148719627D01*
X154993220Y-148800980D01*
X154959839Y-148889758D01*
X154938972Y-148990361D01*
X154931671Y-149104818D01*
X154944468Y-149221690D01*
X154979940Y-149313073D01*
X155036574Y-149384842D01*
X155112767Y-149436109D01*
X155218375Y-149470042D01*
X155362882Y-149482784D01*
X155486499Y-149472565D01*
X155603583Y-149442240D01*
X155710440Y-149392484D01*
X155794093Y-149328789D01*
X155939661Y-149572421D01*
X155857394Y-149635076D01*
X155764904Y-149686840D01*
X155660980Y-149727759D01*
X155497403Y-149766513D01*
X155326490Y-149779539D01*
G37*
G36*
X156680328Y-149760000D02*
G01*
X156335823Y-148264745D01*
X156680328Y-148264745D01*
X156977083Y-149583656D01*
X156800740Y-149583656D01*
X157626647Y-148264745D01*
X157979456Y-148264745D01*
X157041441Y-149760000D01*
X156680328Y-149760000D01*
G37*
G36*
X159875973Y-147782318D02*
G01*
X159996722Y-147811736D01*
X160101682Y-147858813D01*
X160195403Y-147924874D01*
X160273414Y-148007342D01*
X160336888Y-148108063D01*
X160381364Y-148219211D01*
X160409561Y-148349570D01*
X160419564Y-148502759D01*
X160411435Y-148675296D01*
X160387483Y-148839256D01*
X160348123Y-148995642D01*
X160292923Y-149146883D01*
X160225213Y-149283612D01*
X160145157Y-149407191D01*
X160050434Y-149519008D01*
X159945220Y-149611875D01*
X159828740Y-149687215D01*
X159702218Y-149742738D01*
X159565769Y-149776443D01*
X159417191Y-149787965D01*
X159277501Y-149777672D01*
X159156227Y-149748316D01*
X159050338Y-149701259D01*
X158955857Y-149635047D01*
X158877369Y-149552149D01*
X158813667Y-149450666D01*
X158769127Y-149338526D01*
X158741033Y-149208467D01*
X158731113Y-149057191D01*
X158731510Y-149048764D01*
X159095157Y-149048764D01*
X159107181Y-149185892D01*
X159139549Y-149288710D01*
X159188946Y-149365181D01*
X159257855Y-149423330D01*
X159342600Y-149458925D01*
X159447966Y-149471549D01*
X159541831Y-149461349D01*
X159627404Y-149431271D01*
X159706863Y-149380568D01*
X159809820Y-149277988D01*
X159897250Y-149145484D01*
X159964467Y-148996319D01*
X160013510Y-148833220D01*
X160043187Y-148666410D01*
X160052711Y-148511186D01*
X160040752Y-148372090D01*
X160008750Y-148269006D01*
X159960265Y-148193426D01*
X159892414Y-148135985D01*
X159809062Y-148100854D01*
X159705520Y-148088401D01*
X159609759Y-148098638D01*
X159522773Y-148128758D01*
X159442348Y-148179382D01*
X159371138Y-148244757D01*
X159307233Y-148322704D01*
X159250495Y-148414588D01*
X159183373Y-148563747D01*
X159134358Y-148726852D01*
X159104683Y-148893555D01*
X159095157Y-149048764D01*
X158731510Y-149048764D01*
X158739241Y-148884735D01*
X158763191Y-148720815D01*
X158802554Y-148564431D01*
X158857813Y-148413178D01*
X158925524Y-148276449D01*
X159005520Y-148152882D01*
X159100319Y-148041087D01*
X159205966Y-147948213D01*
X159323280Y-147872857D01*
X159450747Y-147817220D01*
X159587704Y-147783496D01*
X159736294Y-147771985D01*
X159875973Y-147782318D01*
G37*
G36*
X130248848Y-138940000D02*
G01*
X131005085Y-135145992D01*
X132265073Y-135145992D01*
X132048002Y-136224019D01*
X131921912Y-135915968D01*
X132113311Y-135635769D01*
X132334115Y-135424087D01*
X132586863Y-135272083D01*
X132868233Y-135169743D01*
X133188169Y-135105586D01*
X133553148Y-135083100D01*
X133322034Y-136279890D01*
X133167855Y-136262793D01*
X133021004Y-136259129D01*
X132738168Y-136284076D01*
X132504458Y-136354115D01*
X132310258Y-136465514D01*
X132154459Y-136622444D01*
X132030910Y-136843950D01*
X131942978Y-137147868D01*
X131579056Y-138940000D01*
X130248848Y-138940000D01*
G37*
G36*
X135258574Y-135937034D02*
G01*
X137533391Y-135937034D01*
X137330364Y-136972929D01*
X135055547Y-136972929D01*
X135258574Y-135937034D01*
G37*
G36*
X134971589Y-137868995D02*
G01*
X137540413Y-137868995D01*
X137316320Y-138940000D01*
X133389506Y-138940000D01*
X134369530Y-134039877D01*
X138205364Y-134039877D01*
X137988599Y-135110882D01*
X135517472Y-135110882D01*
X134971589Y-137868995D01*
G37*
G36*
X139920560Y-139038002D02*
G01*
X139505646Y-139021064D01*
X139115474Y-138971446D01*
X138741485Y-138889166D01*
X138415413Y-138782463D01*
X138115143Y-138649750D01*
X137876552Y-138512880D01*
X138422435Y-137476985D01*
X138679424Y-137619831D01*
X138943893Y-137739546D01*
X139216642Y-137835048D01*
X139493440Y-137904105D01*
X139774321Y-137946076D01*
X140053672Y-137959975D01*
X140309463Y-137945771D01*
X140508574Y-137907463D01*
X140681255Y-137840151D01*
X140795560Y-137756948D01*
X140869330Y-137649609D01*
X140893562Y-137526139D01*
X140861716Y-137394882D01*
X140764113Y-137291666D01*
X140622062Y-137213602D01*
X140424616Y-137141151D01*
X139959028Y-137011702D01*
X139447950Y-136850502D01*
X139202099Y-136742665D01*
X138982667Y-136612365D01*
X138793103Y-136449161D01*
X138643169Y-136245085D01*
X138548095Y-136003180D01*
X138513721Y-135691875D01*
X138546818Y-135346775D01*
X138642737Y-135041551D01*
X138800706Y-134768026D01*
X139012928Y-134531539D01*
X139281778Y-134328604D01*
X139616172Y-134158946D01*
X139974875Y-134042053D01*
X140388382Y-133968012D01*
X140865474Y-133941875D01*
X141380106Y-133969836D01*
X141845498Y-134050563D01*
X142278609Y-134186402D01*
X142629518Y-134361973D01*
X142125462Y-135391151D01*
X141825691Y-135231784D01*
X141491957Y-135114546D01*
X141141641Y-135043637D01*
X140781516Y-135019902D01*
X140512533Y-135036926D01*
X140301884Y-135083100D01*
X140120342Y-135161254D01*
X140000854Y-135254680D01*
X139924116Y-135370891D01*
X139899494Y-135495870D01*
X139930143Y-135622102D01*
X140025584Y-135726985D01*
X140165515Y-135807354D01*
X140365081Y-135881163D01*
X140834028Y-136010612D01*
X141341442Y-136164485D01*
X141585517Y-136266444D01*
X141810389Y-136395600D01*
X142005467Y-136558278D01*
X142153550Y-136756163D01*
X142246071Y-136990679D01*
X142279640Y-137295024D01*
X142246682Y-137635650D01*
X142150897Y-137938740D01*
X141992655Y-138212156D01*
X141780311Y-138448235D01*
X141510343Y-138651098D01*
X141173525Y-138820931D01*
X140812635Y-138937910D01*
X140397829Y-139011911D01*
X139920560Y-139038002D01*
G37*
G36*
X145295734Y-139038002D02*
G01*
X144802507Y-139005602D01*
X144370409Y-138913067D01*
X143990256Y-138765061D01*
X143642528Y-138555671D01*
X143359051Y-138303397D01*
X143132658Y-138005771D01*
X142967610Y-137669998D01*
X142866744Y-137298089D01*
X142831934Y-136881948D01*
X142857585Y-136461950D01*
X142932679Y-136071456D01*
X143055722Y-135706224D01*
X143226528Y-135360700D01*
X143436156Y-135050255D01*
X143685868Y-134771690D01*
X143971380Y-134529706D01*
X144293185Y-134325657D01*
X144655207Y-134158946D01*
X145036596Y-134040263D01*
X145451516Y-133967078D01*
X145904815Y-133941875D01*
X146352454Y-133969890D01*
X146751425Y-134050436D01*
X147108627Y-134180012D01*
X147435444Y-134366529D01*
X147693972Y-134594419D01*
X147892951Y-134866029D01*
X146891861Y-135664092D01*
X146766912Y-135490251D01*
X146621599Y-135349006D01*
X146454361Y-135237278D01*
X146269288Y-135157453D01*
X146057492Y-135107602D01*
X145813834Y-135090122D01*
X145468744Y-135122577D01*
X145166285Y-135216212D01*
X144895617Y-135368613D01*
X144665893Y-135573112D01*
X144481514Y-135822182D01*
X144343797Y-136115636D01*
X144260417Y-136436253D01*
X144231751Y-136790968D01*
X144248511Y-137006514D01*
X144296822Y-137197678D01*
X144375244Y-137368602D01*
X144484237Y-137521057D01*
X144620853Y-137648816D01*
X144788319Y-137753590D01*
X144972766Y-137827427D01*
X145184608Y-137873768D01*
X145428846Y-137890061D01*
X145751434Y-137856931D01*
X146062351Y-137757254D01*
X146254860Y-137653364D01*
X146442311Y-137510307D01*
X146625942Y-137323112D01*
X147444766Y-138127892D01*
X147149003Y-138432600D01*
X146832691Y-138664851D01*
X146492829Y-138831617D01*
X146128212Y-138944389D01*
X145730750Y-139014005D01*
X145295734Y-139038002D01*
G37*
D11*
X155209819Y-97400357D02*
X155209819Y-97876547D01*
X155209819Y-97876547D02*
X155686009Y-97924166D01*
X155686009Y-97924166D02*
X155638390Y-97876547D01*
X155638390Y-97876547D02*
X155590771Y-97781309D01*
X155590771Y-97781309D02*
X155590771Y-97543214D01*
X155590771Y-97543214D02*
X155638390Y-97447976D01*
X155638390Y-97447976D02*
X155686009Y-97400357D01*
X155686009Y-97400357D02*
X155781247Y-97352738D01*
X155781247Y-97352738D02*
X156019342Y-97352738D01*
X156019342Y-97352738D02*
X156114580Y-97400357D01*
X156114580Y-97400357D02*
X156162200Y-97447976D01*
X156162200Y-97447976D02*
X156209819Y-97543214D01*
X156209819Y-97543214D02*
X156209819Y-97781309D01*
X156209819Y-97781309D02*
X156162200Y-97876547D01*
X156162200Y-97876547D02*
X156114580Y-97924166D01*
X155543152Y-97019404D02*
X156209819Y-96781309D01*
X156209819Y-96781309D02*
X155543152Y-96543214D01*
X155209819Y-107296070D02*
X155209819Y-106677023D01*
X155209819Y-106677023D02*
X155590771Y-107010356D01*
X155590771Y-107010356D02*
X155590771Y-106867499D01*
X155590771Y-106867499D02*
X155638390Y-106772261D01*
X155638390Y-106772261D02*
X155686009Y-106724642D01*
X155686009Y-106724642D02*
X155781247Y-106677023D01*
X155781247Y-106677023D02*
X156019342Y-106677023D01*
X156019342Y-106677023D02*
X156114580Y-106724642D01*
X156114580Y-106724642D02*
X156162200Y-106772261D01*
X156162200Y-106772261D02*
X156209819Y-106867499D01*
X156209819Y-106867499D02*
X156209819Y-107153213D01*
X156209819Y-107153213D02*
X156162200Y-107248451D01*
X156162200Y-107248451D02*
X156114580Y-107296070D01*
X156114580Y-106248451D02*
X156162200Y-106200832D01*
X156162200Y-106200832D02*
X156209819Y-106248451D01*
X156209819Y-106248451D02*
X156162200Y-106296070D01*
X156162200Y-106296070D02*
X156114580Y-106248451D01*
X156114580Y-106248451D02*
X156209819Y-106248451D01*
X155209819Y-105867499D02*
X155209819Y-105248452D01*
X155209819Y-105248452D02*
X155590771Y-105581785D01*
X155590771Y-105581785D02*
X155590771Y-105438928D01*
X155590771Y-105438928D02*
X155638390Y-105343690D01*
X155638390Y-105343690D02*
X155686009Y-105296071D01*
X155686009Y-105296071D02*
X155781247Y-105248452D01*
X155781247Y-105248452D02*
X156019342Y-105248452D01*
X156019342Y-105248452D02*
X156114580Y-105296071D01*
X156114580Y-105296071D02*
X156162200Y-105343690D01*
X156162200Y-105343690D02*
X156209819Y-105438928D01*
X156209819Y-105438928D02*
X156209819Y-105724642D01*
X156209819Y-105724642D02*
X156162200Y-105819880D01*
X156162200Y-105819880D02*
X156114580Y-105867499D01*
X155543152Y-104915118D02*
X156209819Y-104677023D01*
X156209819Y-104677023D02*
X155543152Y-104438928D01*
D12*
%TO.C,C31*%
X127940000Y-82342164D02*
X127940000Y-82557836D01*
X128660000Y-82342164D02*
X128660000Y-82557836D01*
%TO.C,C14*%
X134222164Y-96830000D02*
X134437836Y-96830000D01*
X134222164Y-97550000D02*
X134437836Y-97550000D01*
%TO.C,C63*%
X112372164Y-85640000D02*
X112587836Y-85640000D01*
X112372164Y-86360000D02*
X112587836Y-86360000D01*
%TO.C,R12*%
X126720000Y-82296359D02*
X126720000Y-82603641D01*
X127480000Y-82296359D02*
X127480000Y-82603641D01*
%TO.C,R37*%
X96520000Y-73953641D02*
X96520000Y-73646359D01*
X97280000Y-73953641D02*
X97280000Y-73646359D01*
%TO.C,R38*%
X144020000Y-87563641D02*
X144020000Y-87256359D01*
X144780000Y-87563641D02*
X144780000Y-87256359D01*
%TO.C,C15*%
X154987836Y-89240000D02*
X154772164Y-89240000D01*
X154987836Y-89960000D02*
X154772164Y-89960000D01*
%TO.C,SW1*%
X154800000Y-98450000D02*
X156750000Y-98450000D01*
X154800000Y-103950000D02*
X154800000Y-98450000D01*
X156750000Y-98450000D02*
X156750000Y-103950000D01*
X156750000Y-103950000D02*
X154800000Y-103950000D01*
%TO.C,C39*%
X107488748Y-126640000D02*
X108911252Y-126640000D01*
X107488748Y-129360000D02*
X108911252Y-129360000D01*
%TO.C,R6*%
X132906359Y-103070000D02*
X133213641Y-103070000D01*
X132906359Y-103830000D02*
X133213641Y-103830000D01*
%TO.C,C36*%
X115590000Y-149211252D02*
X115590000Y-147788748D01*
X118310000Y-149211252D02*
X118310000Y-147788748D01*
%TO.C,R43*%
X142470000Y-131256359D02*
X142470000Y-131563641D01*
X143230000Y-131256359D02*
X143230000Y-131563641D01*
D13*
%TO.C,U4*%
X123480000Y-86515000D02*
X123480000Y-85265000D01*
X125820000Y-85265000D02*
X125820000Y-86515000D01*
D14*
X125400000Y-83790000D02*
G75*
G02*
X125200000Y-83790000I-100000J0D01*
G01*
X125200000Y-83790000D02*
G75*
G02*
X125400000Y-83790000I100000J0D01*
G01*
D12*
%TO.C,J6*%
X105675000Y-84650000D02*
X105875000Y-84450000D01*
X105675000Y-85250000D02*
X105175000Y-85250000D01*
X105675000Y-85250000D02*
X105675000Y-84650000D01*
X105675000Y-86650000D02*
X105175000Y-86650000D01*
X105675000Y-87450000D02*
X105675000Y-86650000D01*
X105875000Y-87450000D02*
X105675000Y-87450000D01*
X108475000Y-84450000D02*
X108675000Y-84450000D01*
X108675000Y-84450000D02*
X108675000Y-85250000D01*
X108675000Y-86650000D02*
X108675000Y-87450000D01*
X108675000Y-87450000D02*
X108475000Y-87450000D01*
%TO.C,C30*%
X124940000Y-82272164D02*
X124940000Y-82487836D01*
X125660000Y-82272164D02*
X125660000Y-82487836D01*
%TO.C,C21*%
X119277836Y-83890000D02*
X119062164Y-83890000D01*
X119277836Y-84610000D02*
X119062164Y-84610000D01*
%TO.C,D7*%
X143990000Y-128300000D02*
X143990000Y-130000000D01*
X143990000Y-128300000D02*
X146650000Y-128300000D01*
X143990000Y-130000000D02*
X146650000Y-130000000D01*
%TO.C,C61*%
X110962164Y-88140000D02*
X111177836Y-88140000D01*
X110962164Y-88860000D02*
X111177836Y-88860000D01*
%TO.C,D6*%
X143990000Y-130350000D02*
X143990000Y-132050000D01*
X143990000Y-130350000D02*
X146650000Y-130350000D01*
X143990000Y-132050000D02*
X146650000Y-132050000D01*
%TO.C,C65*%
X141290000Y-129207836D02*
X141290000Y-128992164D01*
X142010000Y-129207836D02*
X142010000Y-128992164D01*
%TO.C,C5*%
X124340000Y-149211252D02*
X124340000Y-147788748D01*
X127060000Y-149211252D02*
X127060000Y-147788748D01*
%TO.C,C43*%
X107488748Y-108740000D02*
X108911252Y-108740000D01*
X107488748Y-111460000D02*
X108911252Y-111460000D01*
%TO.C,C62*%
X118262164Y-92940000D02*
X118477836Y-92940000D01*
X118262164Y-93660000D02*
X118477836Y-93660000D01*
%TO.C,C10*%
X99840000Y-108211252D02*
X99840000Y-106788748D01*
X102560000Y-108211252D02*
X102560000Y-106788748D01*
%TO.C,C47*%
X129181104Y-100049779D02*
X129028601Y-100202282D01*
X129690221Y-100558896D02*
X129537718Y-100711399D01*
D13*
%TO.C,U6*%
X129480000Y-86515000D02*
X129480000Y-85265000D01*
X131820000Y-85265000D02*
X131820000Y-86515000D01*
D14*
X131400000Y-83790000D02*
G75*
G02*
X131200000Y-83790000I-100000J0D01*
G01*
X131200000Y-83790000D02*
G75*
G02*
X131400000Y-83790000I100000J0D01*
G01*
D12*
%TO.C,C35*%
X115072164Y-107990000D02*
X115287836Y-107990000D01*
X115072164Y-108710000D02*
X115287836Y-108710000D01*
%TO.C,R39*%
X145270000Y-87553641D02*
X145270000Y-87246359D01*
X146030000Y-87553641D02*
X146030000Y-87246359D01*
%TO.C,C19*%
X141840000Y-108612164D02*
X141840000Y-108827836D01*
X142560000Y-108612164D02*
X142560000Y-108827836D01*
%TO.C,D8*%
X139310000Y-128300000D02*
X136650000Y-128300000D01*
X139310000Y-130000000D02*
X136650000Y-130000000D01*
X139310000Y-130000000D02*
X139310000Y-128300000D01*
%TO.C,R14*%
X129670000Y-82346359D02*
X129670000Y-82653641D01*
X130430000Y-82346359D02*
X130430000Y-82653641D01*
%TO.C,C40*%
X101788748Y-131490000D02*
X103211252Y-131490000D01*
X101788748Y-134210000D02*
X103211252Y-134210000D01*
D10*
%TO.C,U7*%
X140000000Y-82587500D02*
X140720000Y-82587500D01*
X140000000Y-82807500D02*
X140000000Y-82587500D01*
X140000000Y-85287500D02*
X140000000Y-85067500D01*
X140720000Y-85287500D02*
X140000000Y-85287500D01*
X143000000Y-85287500D02*
X142480000Y-85287500D01*
X143200000Y-82587500D02*
X142480000Y-82587500D01*
X143200000Y-82587500D02*
X143200000Y-82807500D01*
X143200000Y-85647500D02*
X143200000Y-85287500D01*
X143560000Y-85287500D01*
X143200000Y-85647500D01*
G36*
X143200000Y-85647500D02*
G01*
X143200000Y-85287500D01*
X143560000Y-85287500D01*
X143200000Y-85647500D01*
G37*
D12*
%TO.C,U2*%
X137352500Y-93390000D02*
X137352500Y-94340000D01*
X137352500Y-103610000D02*
X137352500Y-102660000D01*
X138302500Y-93390000D02*
X137352500Y-93390000D01*
X138302500Y-103610000D02*
X137352500Y-103610000D01*
X146622500Y-93390000D02*
X147572500Y-93390000D01*
X146622500Y-103610000D02*
X147572500Y-103610000D01*
X147572500Y-93390000D02*
X147572500Y-94340000D01*
X147572500Y-103610000D02*
X147572500Y-102660000D01*
X136737500Y-94340000D02*
X136397500Y-93870000D01*
X137077500Y-93870000D01*
X136737500Y-94340000D01*
G36*
X136737500Y-94340000D02*
G01*
X136397500Y-93870000D01*
X137077500Y-93870000D01*
X136737500Y-94340000D01*
G37*
%TO.C,D9*%
X136090000Y-130350000D02*
X136090000Y-132050000D01*
X136090000Y-130350000D02*
X138750000Y-130350000D01*
X136090000Y-132050000D02*
X138750000Y-132050000D01*
%TO.C,J4*%
X111040000Y-73090000D02*
X111040000Y-74340000D01*
X111340000Y-73390000D02*
X111340000Y-78110000D01*
X111340000Y-74700000D02*
X111950000Y-74700000D01*
X111340000Y-76000000D02*
X111950000Y-76000000D01*
X111340000Y-78110000D02*
X119460000Y-78110000D01*
X111950000Y-74000000D02*
X111950000Y-77500000D01*
X111950000Y-77500000D02*
X118850000Y-77500000D01*
X112290000Y-73090000D02*
X111040000Y-73090000D01*
X112800000Y-73190000D02*
X112800000Y-73390000D01*
X113100000Y-73190000D02*
X112800000Y-73190000D01*
X113100000Y-73290000D02*
X112800000Y-73290000D01*
X113100000Y-73390000D02*
X113100000Y-73190000D01*
X113900000Y-73390000D02*
X113900000Y-74000000D01*
X113900000Y-74000000D02*
X111950000Y-74000000D01*
X114300000Y-77000000D02*
X114500000Y-77000000D01*
X114300000Y-77500000D02*
X114300000Y-77000000D01*
X114400000Y-77500000D02*
X114400000Y-77000000D01*
X114500000Y-77000000D02*
X114500000Y-77500000D01*
X116300000Y-77000000D02*
X116500000Y-77000000D01*
X116300000Y-77500000D02*
X116300000Y-77000000D01*
X116400000Y-77500000D02*
X116400000Y-77000000D01*
X116500000Y-77000000D02*
X116500000Y-77500000D01*
X116900000Y-74000000D02*
X116900000Y-73390000D01*
X118850000Y-74000000D02*
X116900000Y-74000000D01*
X118850000Y-77500000D02*
X118850000Y-74000000D01*
X119460000Y-73390000D02*
X111340000Y-73390000D01*
X119460000Y-74700000D02*
X118850000Y-74700000D01*
X119460000Y-76000000D02*
X118850000Y-76000000D01*
X119460000Y-78110000D02*
X119460000Y-73390000D01*
%TO.C,Y1*%
X108350000Y-92430000D02*
X110650000Y-92430000D01*
X110650000Y-92430000D02*
X110650000Y-89730000D01*
%TO.C,C64*%
X149337836Y-93140000D02*
X149122164Y-93140000D01*
X149337836Y-93860000D02*
X149122164Y-93860000D01*
%TO.C,C22*%
X114127836Y-92940000D02*
X113912164Y-92940000D01*
X114127836Y-93660000D02*
X113912164Y-93660000D01*
%TO.C,R44*%
X142470000Y-133813641D02*
X142470000Y-133506359D01*
X143230000Y-133813641D02*
X143230000Y-133506359D01*
%TO.C,C38*%
X113457836Y-127490000D02*
X113242164Y-127490000D01*
X113457836Y-128210000D02*
X113242164Y-128210000D01*
%TO.C,C44*%
X129970515Y-100860368D02*
X129818012Y-101012871D01*
X130479632Y-101369485D02*
X130327129Y-101521988D01*
%TO.C,R40*%
X142470000Y-128946359D02*
X142470000Y-129253641D01*
X143230000Y-128946359D02*
X143230000Y-129253641D01*
%TO.C,R41*%
X140070000Y-128946359D02*
X140070000Y-129253641D01*
X140830000Y-128946359D02*
X140830000Y-129253641D01*
%TO.C,R28*%
X139220000Y-108546359D02*
X139220000Y-108853641D01*
X139980000Y-108546359D02*
X139980000Y-108853641D01*
%TO.C,C54*%
X152642164Y-89240000D02*
X152857836Y-89240000D01*
X152642164Y-89960000D02*
X152857836Y-89960000D01*
%TO.C,C12*%
X133520000Y-94262164D02*
X133520000Y-94477836D01*
X134240000Y-94262164D02*
X134240000Y-94477836D01*
D13*
%TO.C,U16*%
X114462500Y-85880000D02*
X114832500Y-85880000D01*
X114462500Y-86250000D02*
X114462500Y-85880000D01*
X114462500Y-91880000D02*
X114462500Y-91510000D01*
X114832500Y-91880000D02*
X114462500Y-91880000D01*
X120092500Y-85880000D02*
X120462500Y-85880000D01*
X120462500Y-85880000D02*
X120462500Y-86250000D01*
X120462500Y-91510000D02*
X120462500Y-91880000D01*
X120462500Y-91880000D02*
X120092500Y-91880000D01*
D14*
X121367500Y-91080000D02*
G75*
G02*
X121167500Y-91080000I-100000J0D01*
G01*
X121167500Y-91080000D02*
G75*
G02*
X121367500Y-91080000I100000J0D01*
G01*
D12*
%TO.C,C13*%
X148590000Y-108422164D02*
X148590000Y-108637836D01*
X149310000Y-108422164D02*
X149310000Y-108637836D01*
%TO.C,C16*%
X150690000Y-94087836D02*
X150690000Y-93872164D01*
X151410000Y-94087836D02*
X151410000Y-93872164D01*
%TO.C,C66*%
X140090000Y-131272164D02*
X140090000Y-131487836D01*
X140810000Y-131272164D02*
X140810000Y-131487836D01*
%TO.C,R46*%
X138220000Y-87653641D02*
X138220000Y-87346359D01*
X138980000Y-87653641D02*
X138980000Y-87346359D01*
D15*
%TO.C,U14*%
X149554000Y-81322999D02*
X149554000Y-88277001D01*
X149554000Y-88277001D02*
X153508000Y-88277001D01*
X153508000Y-81322999D02*
X149554000Y-81322999D01*
X153508000Y-88277001D02*
X153508000Y-81322999D01*
X155308000Y-89420000D02*
G75*
G02*
X155054000Y-89420000I-127000J0D01*
G01*
X155054000Y-89420000D02*
G75*
G02*
X155308000Y-89420000I127000J0D01*
G01*
D12*
%TO.C,R35*%
X152493641Y-123060000D02*
X152186359Y-123060000D01*
X152493641Y-123820000D02*
X152186359Y-123820000D01*
%TO.C,C20*%
X148340000Y-105077836D02*
X148340000Y-104862164D01*
X149060000Y-105077836D02*
X149060000Y-104862164D01*
%TO.C,R33*%
X154356359Y-115370000D02*
X154663641Y-115370000D01*
X154356359Y-116130000D02*
X154663641Y-116130000D01*
%TO.C,J7*%
X98920000Y-70280000D02*
X108080000Y-70280000D01*
X98920000Y-71985000D02*
X98920000Y-70280000D01*
X98920000Y-73995000D02*
X98920000Y-75915000D01*
X108080000Y-70280000D02*
X108080000Y-71985000D01*
X108080000Y-75915000D02*
X108080000Y-73995000D01*
%TO.C,C59*%
X149790000Y-108617836D02*
X149790000Y-108402164D01*
X150510000Y-108617836D02*
X150510000Y-108402164D01*
%TO.C,C58*%
X112537836Y-91620000D02*
X112322164Y-91620000D01*
X112537836Y-92340000D02*
X112322164Y-92340000D01*
%TO.C,C56*%
X152242164Y-121670000D02*
X152457836Y-121670000D01*
X152242164Y-122390000D02*
X152457836Y-122390000D01*
%TO.C,U15*%
X100100000Y-80590000D02*
X99300000Y-80590000D01*
X100100000Y-80590000D02*
X100900000Y-80590000D01*
X100100000Y-83710000D02*
X99300000Y-83710000D01*
X100100000Y-83710000D02*
X100900000Y-83710000D01*
X101640000Y-83990000D02*
X101160000Y-83990000D01*
X101400000Y-83660000D01*
X101640000Y-83990000D01*
G36*
X101640000Y-83990000D02*
G01*
X101160000Y-83990000D01*
X101400000Y-83660000D01*
X101640000Y-83990000D01*
G37*
%TO.C,C17*%
X136927836Y-91890000D02*
X136712164Y-91890000D01*
X136927836Y-92610000D02*
X136712164Y-92610000D01*
D13*
%TO.C,U5*%
X126480000Y-86515000D02*
X126480000Y-85265000D01*
X128820000Y-85265000D02*
X128820000Y-86515000D01*
D14*
X128400000Y-83790000D02*
G75*
G02*
X128200000Y-83790000I-100000J0D01*
G01*
X128200000Y-83790000D02*
G75*
G02*
X128400000Y-83790000I100000J0D01*
G01*
D12*
%TO.C,Y2*%
X129330000Y-93540000D02*
X129330000Y-97540000D01*
X132630000Y-93540000D02*
X129330000Y-93540000D01*
%TO.C,R36*%
X96520000Y-75856359D02*
X96520000Y-76163641D01*
X97280000Y-75856359D02*
X97280000Y-76163641D01*
%TO.C,R7*%
X136970000Y-108893641D02*
X136970000Y-108586359D01*
X137730000Y-108893641D02*
X137730000Y-108586359D01*
%TO.C,R34*%
X154346359Y-113770000D02*
X154653641Y-113770000D01*
X154346359Y-114530000D02*
X154653641Y-114530000D01*
%TO.C,Q1*%
X134650000Y-106640000D02*
X134000000Y-106640000D01*
X134650000Y-106640000D02*
X135300000Y-106640000D01*
X134650000Y-109760000D02*
X134000000Y-109760000D01*
X134650000Y-109760000D02*
X135300000Y-109760000D01*
X133487500Y-106690000D02*
X133247500Y-106360000D01*
X133727500Y-106360000D01*
X133487500Y-106690000D01*
G36*
X133487500Y-106690000D02*
G01*
X133247500Y-106360000D01*
X133727500Y-106360000D01*
X133487500Y-106690000D01*
G37*
%TO.C,R9*%
X123720000Y-82246359D02*
X123720000Y-82553641D01*
X124480000Y-82246359D02*
X124480000Y-82553641D01*
%TO.C,C27*%
X149790000Y-110977836D02*
X149790000Y-110762164D01*
X150510000Y-110977836D02*
X150510000Y-110762164D01*
%TO.C,C32*%
X130940000Y-82392164D02*
X130940000Y-82607836D01*
X131660000Y-82392164D02*
X131660000Y-82607836D01*
%TO.C,C42*%
X101588748Y-114040000D02*
X103011252Y-114040000D01*
X101588748Y-116760000D02*
X103011252Y-116760000D01*
%TO.C,C57*%
X111590000Y-90567836D02*
X111590000Y-90352164D01*
X112310000Y-90567836D02*
X112310000Y-90352164D01*
%TO.C,C60*%
X121552500Y-92212836D02*
X121552500Y-91997164D01*
X122272500Y-92212836D02*
X122272500Y-91997164D01*
%TO.C,R42*%
X141270000Y-131256359D02*
X141270000Y-131563641D01*
X142030000Y-131256359D02*
X142030000Y-131563641D01*
%TO.C,C18*%
X149142164Y-91990000D02*
X149357836Y-91990000D01*
X149142164Y-92710000D02*
X149357836Y-92710000D01*
%TO.C,C49*%
X130649190Y-105138307D02*
X130801693Y-105290810D01*
X131158307Y-104629190D02*
X131310810Y-104781693D01*
%TO.C,R32*%
X154336359Y-117020000D02*
X154643641Y-117020000D01*
X154336359Y-117780000D02*
X154643641Y-117780000D01*
%TO.C,C50*%
X140540000Y-108592164D02*
X140540000Y-108807836D01*
X141260000Y-108592164D02*
X141260000Y-108807836D01*
%TO.C,C37*%
X108435404Y-146391266D02*
X109441266Y-145385404D01*
X110358734Y-148314596D02*
X111364596Y-147308734D01*
%TO.C,R45*%
X136320000Y-87653641D02*
X136320000Y-87346359D01*
X137080000Y-87653641D02*
X137080000Y-87346359D01*
%TO.C,C41*%
X140212164Y-106490000D02*
X140427836Y-106490000D01*
X140212164Y-107210000D02*
X140427836Y-107210000D01*
%TD*%
M02*
